<?xml version="1.0" standalone="no"?>
<!DOCTYPE svg PUBLIC "-//W3C//DTD SVG 1.1//EN" "http://www.w3.org/Graphics/SVG/1.1/DTD/svg11.dtd" >
<svg xmlns="http://www.w3.org/2000/svg" xmlns:xlink="http://www.w3.org/1999/xlink" version="1.1">
<metadata>
Created by FontForge 20170731 at Fri Oct  2 12:21:23 2020
 By Aleksey,,,
Copyright (c) 2011 by Vincenzo Vuono. All rights reserved.
</metadata>
<defs>
<font id="Gravity-UltraLightItalic" horiz-adv-x="194" >
  <font-face 
    font-family="Gravity UltraLight"
    font-weight="250"
    font-style="italic"
    font-stretch="normal"
    units-per-em="2048"
    panose-1="0 0 3 0 0 0 0 0 0 0"
    ascent="1638"
    descent="-410"
    x-height="1055"
    cap-height="1464"
    bbox="-66.2857 -502 1929.64 1954"
    underline-thickness="69"
    underline-position="-519"
    slope="-6"
    unicode-range="U+0020-F8FF"
  />
<missing-glyph horiz-adv-x="1247" 
d="M1106 1454l-152 -1444q0 -10 -10 -10h-751q-12 0 -9 10l152 1444q0 10 10 10h752q11 0 8 -10zM387 1430l260 -668l393 668h-653zM225 86l404 647l-267 658zM664 733l264 -657l137 1315zM242 41l661 -2l-262 655z" />
    <glyph glyph-name=".notdef" horiz-adv-x="1247" 
d="M1106 1454l-152 -1444q0 -10 -10 -10h-751q-12 0 -9 10l152 1444q0 10 10 10h752q11 0 8 -10zM387 1430l260 -668l393 668h-653zM225 86l404 647l-267 658zM664 733l264 -657l137 1315zM242 41l661 -2l-262 655z" />
    <glyph glyph-name=".null" horiz-adv-x="0" 
 />
    <glyph glyph-name="nonmarkingreturn" horiz-adv-x="682" 
 />
    <glyph glyph-name="space" unicode=" " horiz-adv-x="450" 
 />
    <glyph glyph-name="exclam" unicode="!" horiz-adv-x="432" 
d="M330 1458l-109 -1034q0 -10 -10 -10h-14q-12 0 -9 10l109 1034q0 10 10 10h15q11 0 8 -10zM197 129l-13 -119q-3 -10 -12 -10h-22q-12 0 -9 10l15 119q3 10 12 10h20q12 0 9 -10z" />
    <glyph glyph-name="quotedbl" unicode="&#x22;" horiz-adv-x="716" 
d="M367 1505l-82 -391q-3 -8 -13 -8h-8q-13 0 -10 10l76 391q3 9 12 9h14q6 0 9 -3t2 -8zM623 1505l-82 -391q-3 -8 -13 -8h-8q-13 0 -10 10l76 391q3 9 12 9h14q6 0 9 -3t2 -8z" />
    <glyph glyph-name="numbersign" unicode="#" horiz-adv-x="1652" 
d="M1163 993l-133 -426h334q10 0 10 -12l-4 -10q-3 -8 -10 -8h-340l-164 -529q-3 -8 -10 -8h-15q-11 0 -8 12l164 525h-442l-164 -529q-3 -8 -10 -8h-15q-11 0 -8 12l164 525h-303q-11 0 -8 12l4 10q3 8 10 8h305l133 426h-309q-11 0 -8 13l4 10q3 8 10 8h314l145 465
q3 8 10 8h12q12 0 9 -12l-144 -461h443l145 465q3 8 10 8h13q11 0 8 -12l-144 -461h328q11 0 8 -12l-4 -11q-3 -8 -10 -8h-330zM1128 993h-440l-133 -426h440z" />
    <glyph glyph-name="dollar" unicode="$" horiz-adv-x="1124" 
d="M647 1366q-176 0 -288.5 -81t-112.5 -214q0 -57 22.5 -100.5t69 -75t99.5 -53.5t132 -45l99 -31q178 -54 265 -133t87 -201q0 -168 -127 -269.5t-342 -101.5h-37l-22 -235q0 -10 -11 -10h-14q-11 0 -8 10l26 237q-100 8 -176.5 41t-122 81.5t-70.5 98t-34 103.5
q-3 10 8 10h19q9 0 12 -8q8 -40 25 -78.5t51.5 -79t81 -70.5t118 -49.5t158.5 -19.5q190 0 311 89t121 243q0 114 -86 186t-258 127l-94 29q-171 54 -253.5 120t-82.5 177q0 147 114.5 236.5t299.5 97.5l24 254q0 10 11 10h14q11 0 8 -10l-29 -254q78 0 144.5 -19.5
t110 -48.5t77 -67.5t50.5 -71t26 -64.5q3 -10 -10 -10h-15q-6 0 -10 4q-13 41 -38 79t-68.5 78t-114.5 64.5t-160 24.5z" />
    <glyph glyph-name="percent" unicode="%" horiz-adv-x="1357" 
d="M379 1516q76 0 127 -56t51 -135q0 -93 -67 -161t-154 -68q-77 0 -128.5 56t-51.5 136q0 92 67.5 160t155.5 68zM1169 1485l-1040 -1479q-3 -6 -12 -6h-15q-6 0 -7.5 4t1.5 8l1041 1479q3 6 12 6h14q6 0 7.5 -3.5t-1.5 -8.5zM377 1485q-74 0 -131.5 -58t-57.5 -137
q0 -68 43 -115t107 -47q74 0 132 58t58 135q0 69 -43.5 116.5t-107.5 47.5zM1038 420q76 0 127.5 -56t51.5 -135q0 -93 -67.5 -161t-154.5 -68q-77 0 -128.5 56.5t-51.5 136.5q0 92 67.5 159.5t155.5 67.5zM1036 389q-74 0 -131 -57.5t-57 -136.5q0 -68 42.5 -115t106.5 -47
q74 0 132.5 57.5t58.5 134.5q0 69 -44 116.5t-108 47.5z" />
    <glyph glyph-name="ampersand" unicode="&#x26;" horiz-adv-x="1198" 
d="M1036 0h-24q-10 0 -13 6l-106 168q-135 -184 -401 -184q-179 0 -283.5 90.5t-104.5 238.5q0 145 93.5 254.5t294.5 223.5q-34 49 -53 79.5t-47 85t-42 109t-14 109.5q0 141 94 234t238 93q125 0 191.5 -73.5t66.5 -188.5q0 -62 -18.5 -115.5t-46 -93.5t-82.5 -86.5
t-103 -79t-133 -86.5l354 -546q72 131 72 325q0 45 -2 68q0 10 10 10h12q10 0 10 -10q2 -18 2 -64q0 -217 -86 -358l127 -197q3 -4 1.5 -8t-7.5 -4zM664 1477q-126 0 -210.5 -84t-84.5 -209q0 -42 12.5 -89.5t24 -78.5t40.5 -81t38 -64t40 -60q79 49 125.5 81t99 75.5t80 82
t46 88.5t18.5 107q0 103 -62.5 167.5t-166.5 64.5zM500 20q250 0 374 181l-364 569q-200 -117 -285.5 -219t-85.5 -229q0 -133 97 -217.5t264 -84.5z" />
    <glyph glyph-name="quotesingle" unicode="'" horiz-adv-x="460" 
d="M369 1505l-82 -391q-3 -8 -13 -8h-8q-13 0 -10 10l76 391q3 9 12 9h14q6 0 9 -3t2 -8z" />
    <glyph glyph-name="parenleft" unicode="(" horiz-adv-x="798" 
d="M696 1516l2 -3q7 -7 0 -14q-232 -226 -353.5 -505t-121.5 -599q0 -239 69.5 -454t203.5 -379q6 -9 -4 -15l-5 -2q-8 -6 -14 0q-135 149 -210 375t-75 477q0 326 133.5 622.5t360.5 496.5q6 6 14 0z" />
    <glyph glyph-name="parenright" unicode=")" horiz-adv-x="798" 
d="M102 -455l-2 2q-8 7 0 15q232 226 353.5 505t121.5 599q0 239 -69.5 454t-202.5 379q-5 8 4 14l4 3q9 6 15 0q134 -149 209 -374.5t75 -477.5q0 -326 -133 -622.5t-360 -496.5q-6 -6 -15 0z" />
    <glyph glyph-name="asterisk" unicode="*" horiz-adv-x="821" 
d="M506 1214l174 -102q8 -8 2 -14l-12 -19q-6 -8 -15 -2l-161 117l-17 -219q0 -10 -10 -10h-21q-11 0 -8 10l31 219l-186 -115q-11 -7 -15 4l-8 19q-4 8 4 12l199 100l-174 103q-11 7 -4 14l14 21q5 8 14 2l162 -117l17 219q0 10 10 10l18 -2q11 0 8 -10l-30 -221l190 119
q10 7 14 -4l7 -19q3 -9 -7 -12z" />
    <glyph glyph-name="plus" unicode="+" horiz-adv-x="1245" 
d="M1051 526v-8q-3 -10 -13 -10h-401l-45 -426q0 -10 -10 -10h-9q-11 0 -8 10l43 426h-405q-11 0 -8 10v8q4 11 12 11h403l45 426q0 10 11 10h10q11 0 8 -10l-43 -426h401q5 0 7.5 -3.5t1.5 -7.5z" />
    <glyph glyph-name="comma" unicode="," horiz-adv-x="468" 
d="M231 125l-8 -94q-7 -72 -27 -117.5t-55 -85.5q-5 -7 -14 -4q-6 3 0 12q69 90 49 158q-2 4 -2 12l12 119q3 10 13 10h24q11 0 8 -10z" />
    <glyph glyph-name="hyphen" unicode="-" horiz-adv-x="925" 
d="M737 594v-10q-4 -11 -12 -11h-516q-5 0 -7 3.5t-1 7.5l2 10q0 10 10 10h516q11 0 8 -10z" />
    <glyph glyph-name="period" unicode="." horiz-adv-x="430" 
d="M193 129l-13 -119q0 -10 -10 -10h-20q-12 0 -9 10l13 119q0 10 10 10h20q12 0 9 -10z" />
    <glyph glyph-name="slash" unicode="/" horiz-adv-x="1142" 
d="M1044 1485l-864 -1479q-3 -6 -12 -6h-14q-6 0 -8.5 4t1.5 8l863 1479q3 6 12 6h14q6 0 8.5 -3.5t-0.5 -8.5z" />
    <glyph glyph-name="zero" unicode="0" horiz-adv-x="1167" 
d="M692 1477q188 0 299 -167.5t111 -443.5q0 -184 -46.5 -348t-125.5 -280t-186.5 -183t-225.5 -67q-185 0 -296 174.5t-111 453.5q0 185 45.5 346.5t123.5 273.5t185 176.5t227 64.5zM688 1442q-150 0 -273.5 -104t-196.5 -293t-73 -424q0 -264 103 -430t274 -166
q149 0 274 108.5t198 301t73 427.5q0 261 -102.5 420.5t-276.5 159.5z" />
    <glyph glyph-name="one" unicode="1" horiz-adv-x="690" 
d="M618 1466h35q12 0 9 -10l-150 -1446q0 -10 -10 -10h-19q-11 0 -8 10l150 1422h-7l-436 -365q-9 -6 -14 2l-10 12q-6 9 2 15l444 366q8 4 14 4z" />
    <glyph glyph-name="two" unicode="2" horiz-adv-x="1069" 
d="M127 33l788 2q12 0 9 -10l-2 -17q0 -10 -11 -10l-833 2q-11 0 -8 10v8q0 7 4 15l8 8l655 690q119 125 165 209.5t46 194.5q0 136 -76 216.5t-217 80.5q-136 0 -239 -73t-160 -200q-3 -8 -12 -8h-19q-12 0 -6 12q65 144 179.5 223.5t260.5 79.5q151 0 238.5 -87t87.5 -242
q0 -115 -47.5 -204.5t-175.5 -223.5l-635 -670v-6z" />
    <glyph glyph-name="three" unicode="3" horiz-adv-x="1030" 
d="M629 776q137 -28 217 -114.5t80 -217.5q0 -207 -131 -330.5t-336 -123.5q-160 0 -265 82.5t-122 224.5q-3 10 8 10h18q11 0 11 -10q12 -124 108.5 -198t247.5 -74q192 0 309 116t117 299q0 141 -106.5 229.5t-284.5 88.5h-82q-11 0 -8 10l2 14q0 11 10 11h82
q195 0 309.5 99t114.5 263q0 122 -78.5 199.5t-220.5 77.5q-136 0 -239.5 -73t-160.5 -200q-3 -8 -12 -8h-18q-12 0 -6 12q67 144 180 223.5t258 79.5q152 0 241 -83.5t89 -223.5q0 -155 -89.5 -254t-242.5 -129z" />
    <glyph glyph-name="four" unicode="4" horiz-adv-x="1099" 
d="M1004 477l-3 -16q-3 -10 -12 -10h-207l-47 -441q0 -10 -10 -10h-16q-12 0 -9 10l48 441h-654q-10 0 -10 10l2 6q0 8 2 12v2l3 5q3 5 5 6l748 964q8 10 14 10h19q11 0 8 -10l-99 -969h207q11 0 11 -10zM752 487l98 912h-8l-703 -905v-7h613z" />
    <glyph glyph-name="five" unicode="5" horiz-adv-x="1048" 
d="M985 1456l-2 -16q-3 -10 -12 -10h-615l-120 -633h4q65 51 150.5 79.5t174.5 28.5q176 0 279.5 -113.5t103.5 -297.5q0 -229 -140.5 -366.5t-352.5 -137.5q-163 0 -265.5 84.5t-117.5 222.5q-3 10 8 10h16q10 0 13 -10q16 -120 109 -196t243 -76q198 0 324 130t126 337
q0 167 -92.5 272.5t-255.5 105.5q-91 0 -180.5 -30.5t-149.5 -81.5q-8 -4 -14 -4l-16 2q-11 0 -8 10l135 692q3 8 12 8h633q10 0 10 -10z" />
    <glyph glyph-name="six" unicode="6" horiz-adv-x="1103" 
d="M598 862q177 0 290 -108t113 -289q0 -106 -37 -196.5t-99.5 -151t-147 -94t-178.5 -33.5q-86 0 -158.5 31.5t-128.5 94t-87.5 164t-31.5 232.5q0 290 69.5 508t200.5 337.5t308 119.5q134 0 215 -70t102 -188q1 -4 -1 -7.5t-7 -3.5h-16q-10 0 -13 9q-22 99 -94.5 162
t-191.5 63q-211 0 -351 -195.5t-176 -525.5h17q84 64 189 102.5t214 38.5zM543 25q182 0 304 121t122 317q0 166 -106 265t-271 99q-109 0 -215 -41t-187 -104q-10 -10 -14 4q-8 -73 -8 -172q0 -125 29 -220.5t81 -153t118.5 -86.5t146.5 -29z" />
    <glyph glyph-name="seven" unicode="7" horiz-adv-x="1001" 
d="M201 1466h796q12 0 9 -10v-8q0 -8 -7 -18q-383 -671 -704 -1422q-3 -8 -12 -8h-17q-12 0 -6 12q347 803 701 1413v7l-764 2q-12 0 -9 10l2 12q0 10 11 10z" />
    <glyph glyph-name="eight" unicode="8" horiz-adv-x="1105" 
d="M653 1507q154 0 244 -92.5t90 -238.5q0 -151 -77 -246.5t-199 -132.5v-4q124 -35 192 -130.5t68 -226.5q0 -197 -133.5 -321.5t-343.5 -124.5q-176 0 -282 100t-106 264q0 157 91 277t249 162v6q-91 29 -146.5 105t-55.5 192q0 178 115 294.5t294 116.5zM651 1477
q-162 0 -268.5 -107.5t-106.5 -265.5q0 -130 84 -212.5t222 -82.5q162 0 267 102.5t105 259.5q0 132 -83 219t-220 87zM578 778q-190 0 -313.5 -120t-123.5 -302q0 -151 97 -243.5t260 -92.5q192 0 314 115.5t122 298.5q0 152 -96.5 248t-259.5 96z" />
    <glyph glyph-name="nine" unicode="9" horiz-adv-x="1083" 
d="M600 1477q174 0 283.5 -131.5t109.5 -389.5q0 -289 -68.5 -507t-199.5 -338.5t-309 -120.5q-142 0 -226.5 71t-107.5 187q-3 10 8 10h14q10 0 13 -8q22 -98 100.5 -161.5t204.5 -63.5q215 0 355 201.5t173 539.5h-14q-80 -63 -184.5 -102t-210.5 -39q-173 0 -284.5 106
t-111.5 283q0 138 62.5 245t165.5 162.5t227 55.5zM954 811q4 94 4 145q0 242 -101 364t-263 122q-176 0 -295 -118t-119 -308q0 -163 102.5 -260t262.5 -97q106 0 210.5 42t186.5 106q10 6 12 4z" />
    <glyph glyph-name="colon" unicode=":" horiz-adv-x="450" 
d="M313 1075l-12 -119q-3 -10 -12 -10h-23q-11 0 -8 10l14 119q3 10 13 10h20q11 0 8 -10zM199 133l-13 -119q-3 -10 -12 -10h-22q-12 0 -9 10l15 119q3 10 12 10h20q12 0 9 -10z" />
    <glyph glyph-name="semicolon" unicode=";" horiz-adv-x="548" 
d="M412 1075l-13 -119q-3 -10 -12 -10h-22q-12 0 -9 10l15 119q3 10 12 10h20q12 0 9 -10zM231 125l-8 -94q-7 -72 -27 -117.5t-55 -85.5q-5 -7 -14 -4q-6 3 0 12q69 90 49 158q-2 4 -2 12l12 119q3 10 13 10h24q11 0 8 -10z" />
    <glyph glyph-name="less" unicode="&#x3c;" horiz-adv-x="1312" 
d="M1167 989l-2 -12q0 -9 -8 -12l-928 -437l834 -438q8 -3 8 -12l-2 -15q0 -12 -12 -6l-856 449q-8 3 -8 12l2 19q2 6 8 12l952 448q6 3 9.5 0.5t2.5 -8.5z" />
    <glyph glyph-name="equal" unicode="=" horiz-adv-x="1202" 
d="M1030 760l-2 -12q-3 -9 -12 -9h-783q-14 0 -10 11l2 12q3 8 13 8h782q13 0 10 -10zM981 348l-2 -12q-3 -8 -12 -8h-783q-13 0 -10 10l2 12q3 8 12 8h783q13 0 10 -10z" />
    <glyph glyph-name="greater" unicode="&#x3e;" horiz-adv-x="1216" 
d="M350 997l856 -448q8 -3 8 -12l-2 -19q-2 -6 -8 -12l-954 -449q-5 -3 -8 0t-2 9l2 12q0 9 8 12l928 436l-834 439q-8 3 -8 12l2 14q0 12 12 6z" />
    <glyph glyph-name="question" unicode="?" horiz-adv-x="997" 
d="M616 1466q160 0 253.5 -89t93.5 -240q0 -94 -34 -173.5t-103.5 -147.5t-148 -121.5t-194.5 -116.5l-24 -226q-3 -10 -13 -10h-16q-11 0 -8 10l27 236q0 9 8 12q116 61 196.5 115t146 119t97 139.5t31.5 161.5q0 132 -82.5 214.5t-233.5 82.5q-142 0 -250.5 -74.5
t-156.5 -198.5q-5 -8 -12 -8h-17q-11 0 -8 12q59 145 177.5 224t270.5 79zM440 129l-12 -119q0 -10 -10 -10h-21q-11 0 -8 10l12 119q0 10 11 10h20q11 0 8 -10z" />
    <glyph glyph-name="at" unicode="@" horiz-adv-x="1607" 
d="M918 1239q265 0 421 -155t156 -410q0 -193 -75.5 -308.5t-221.5 -115.5q-88 0 -136 46.5t-56 125.5h-7q-34 -84 -103 -128t-151 -44q-102 0 -160.5 69t-58.5 181q0 142 82.5 238t208.5 96q66 0 116.5 -31t74.5 -94h6l10 104q3 10 12 10h17q11 0 8 -10l-25 -248
q-9 -87 2 -146t38.5 -86.5t56.5 -37.5t67 -10q260 0 260 381q0 251 -148.5 394.5t-398.5 143.5q-151 0 -288 -51.5t-240.5 -143.5t-165 -228.5t-61.5 -297.5q0 -262 168.5 -429t449.5 -167q152 0 283 39q12 3 12 -8v-12q0 -7 -8 -10q-136 -43 -291 -43q-290 0 -469.5 170
t-179.5 450q0 171 64.5 316t173.5 242.5t253.5 152.5t303.5 55zM813 799q-109 0 -179.5 -83t-70.5 -210q0 -102 52.5 -161.5t140.5 -59.5q93 0 156.5 64.5t80.5 180.5l4 33q6 115 -45.5 175.5t-138.5 60.5z" />
    <glyph glyph-name="A" unicode="A" horiz-adv-x="1155" 
d="M903 516h-653l-236 -508q-3 -8 -12 -8h-14q-12 0 -6 12l667 1444q3 8 13 8h28q7 0 10 -8l367 -1444q0 -12 -10 -12h-15q-7 0 -10 8zM893 553l-223 868l-404 -868h627z" />
    <glyph glyph-name="B" unicode="B" horiz-adv-x="1177" 
d="M807 784q126 -26 196 -117.5t70 -224.5q0 -192 -123 -317t-321 -125h-551q-11 0 -8 10l153 1444q0 10 10 10h490q159 0 247.5 -86t88.5 -225q0 -131 -67 -229.5t-185 -139.5zM188 795h461q170 0 272.5 99t102.5 253q0 127 -81.5 205t-227.5 78h-461zM111 35h518
q182 0 295.5 112.5t113.5 290.5q0 145 -89 233.5t-244 88.5h-519z" />
    <glyph glyph-name="C" unicode="C" horiz-adv-x="1325" 
d="M807 1475q171 0 291.5 -89t173.5 -247q3 -13 -8 -13h-19q-7 0 -10 9q-50 142 -162.5 223.5t-269.5 81.5q-188 0 -338.5 -101.5t-235 -284t-84.5 -411.5q0 -274 134.5 -446t357.5 -172q178 0 318.5 95t224.5 275q3 8 12 8h14q12 0 6 -12q-87 -194 -238 -297.5t-341 -103.5
q-157 0 -276 83t-182.5 230t-63.5 336q0 180 54 336.5t146.5 265.5t221 171.5t274.5 62.5z" />
    <glyph glyph-name="D" unicode="D" horiz-adv-x="1239" 
d="M233 1464h406q250 0 392.5 -169t142.5 -451q0 -238 -89 -430.5t-251 -303t-365 -110.5h-391q-11 0 -8 10l153 1444q0 10 10 10zM111 37h352q193 0 348 103.5t242.5 286t87.5 409.5q0 270 -138 432t-378 162h-371z" />
    <glyph glyph-name="E" unicode="E" horiz-adv-x="1042" 
d="M254 1430l-66 -635h637q5 0 7.5 -3.5t1.5 -7.5l-3 -16q0 -10 -10 -10h-637l-73 -723h778q11 0 8 -10l-2 -15q0 -10 -10 -10h-807q-11 0 -8 10l153 1444q0 10 10 10h795q11 0 8 -10l-2 -14q0 -10 -10 -10h-770z" />
    <glyph glyph-name="F" unicode="F" horiz-adv-x="1024" 
d="M254 1430l-70 -672h627q11 0 8 -10l-2 -17q0 -10 -10 -10h-627l-74 -711q0 -10 -10 -10h-18q-11 0 -8 10l153 1444q0 10 10 10h787q11 0 8 -10l-2 -14q0 -10 -10 -10h-762z" />
    <glyph glyph-name="G" unicode="G" horiz-adv-x="1359" 
d="M836 657l436 2q11 0 8 -10q-16 -159 -75 -286t-147 -207.5t-196.5 -123t-228.5 -42.5q-157 0 -276 83t-182.5 230t-63.5 336q0 180 54 336.5t146.5 265.5t221 171.5t274.5 62.5q175 0 296.5 -87.5t168.5 -238.5q3 -12 -8 -12h-19q-7 0 -10 8q-45 135 -159 215t-273 80
q-185 0 -335 -101t-236.5 -284t-86.5 -412q0 -274 134.5 -446t357.5 -172q109 0 208.5 38t182.5 110t140.5 188t76.5 262l-414 2q-11 0 -8 10l2 12q0 10 11 10z" />
    <glyph glyph-name="H" unicode="H" horiz-adv-x="1236" 
d="M1188 1464h12q11 0 8 -10l-149 -1444q0 -10 -10 -10h-17q-11 0 -8 10l78 748h-920l-78 -748q0 -10 -10 -10h-16q-11 0 -8 10l153 1444q0 10 10 10h13q11 0 8 -10l-68 -659h920l70 659q3 10 12 10z" />
    <glyph glyph-name="I" unicode="I" horiz-adv-x="530" 
d="M379 1454l-150 -1444q0 -10 -10 -10h-18q-11 0 -8 10l153 1444q0 10 10 10h15q11 0 8 -10z" />
    <glyph glyph-name="J" unicode="J" horiz-adv-x="829" 
d="M680 1454l-98 -946q-10 -95 -28.5 -166t-56.5 -137t-95 -108.5t-146.5 -68.5t-208.5 -28q-11 0 -8 10l2 17q0 10 10 10q112 2 195.5 26.5t135.5 63t86.5 100t51 126t25.5 153.5l100 948q3 10 12 10h15q11 0 8 -10z" />
    <glyph glyph-name="K" unicode="K" 
d="M553 872l588 -860q3 -4 1.5 -8t-7.5 -4h-25q-9 0 -12 6l-576 842l-325 -283l-60 -555q0 -10 -10 -10h-18q-12 0 -9 10l154 1444q0 10 10 10h15q11 0 8 -10l-86 -840l989 846q8 4 14 4h17q6 0 7.5 -4t-3.5 -8z" />
    <glyph glyph-name="L" unicode="L" horiz-adv-x="991" 
d="M111 35h768q11 0 8 -10l-2 -15q0 -10 -11 -10h-796q-11 0 -8 10l153 1444q0 10 10 10h15q11 0 8 -10z" />
    <glyph glyph-name="M" unicode="M" horiz-adv-x="1531" 
d="M1438 1464h37q10 0 10 -10l-131 -1444q0 -10 -11 -10h-16q-10 0 -10 10l133 1430l-713 -1432q-3 -8 -12 -8h-29q-7 0 -10 8l-412 1432l-165 -1430q-3 -10 -13 -10h-18q-11 0 -8 10l172 1444q3 10 12 10h39q7 0 10 -8l412 -1417l710 1417q3 8 13 8z" />
    <glyph glyph-name="N" unicode="N" horiz-adv-x="1224" 
d="M1176 1464h12q11 0 8 -10l-149 -1444q0 -10 -11 -10h-32q-10 0 -13 8l-737 1426l-148 -1424q0 -10 -10 -10h-18q-11 0 -8 10l153 1444q0 10 10 10h35q10 0 13 -8l733 -1411l149 1409q3 10 13 10z" />
    <glyph glyph-name="O" unicode="O" horiz-adv-x="1396" 
d="M807 1475q240 0 382 -173t142 -458q0 -180 -54.5 -339t-147.5 -272t-222 -178t-274 -65q-157 0 -276 83t-182.5 230t-63.5 336q0 180 54 336.5t146.5 265.5t221 171.5t274.5 62.5zM803 1440q-184 0 -334 -101t-237 -284t-87 -412q0 -274 134.5 -446t357.5 -172
q183 0 334 105.5t238 292.5t87 417q0 270 -133.5 435t-359.5 165z" />
    <glyph glyph-name="P" unicode="P" horiz-adv-x="1107" 
d="M233 1464h482q168 0 264 -96t96 -252q0 -189 -123.5 -313.5t-318.5 -124.5h-457l-70 -668q0 -10 -10 -10h-18q-11 0 -8 10l153 1444q0 10 10 10zM180 713h453q180 0 293.5 112.5t113.5 286.5q0 142 -89.5 230t-243.5 88h-453z" />
    <glyph glyph-name="Q" unicode="Q" horiz-adv-x="1396" 
d="M1331 844q0 -231 -85.5 -421t-233.5 -302l108 -162q6 -9 -2 -14l-10 -8q-7 -7 -14 0l-111 163q-156 -110 -350 -110q-157 0 -276 83t-182.5 230t-63.5 336q0 180 54 336.5t146.5 265.5t221 171.5t274.5 62.5q240 0 382 -173t142 -458zM637 25q180 0 328 102l-119 176
q-6 9 2 14l12 9q9 6 14 -2l119 -177q141 108 222 289.5t81 403.5q0 270 -133.5 435t-359.5 165q-184 0 -334 -101t-237 -284t-87 -412q0 -274 134.5 -446t357.5 -172z" />
    <glyph glyph-name="R" unicode="R" horiz-adv-x="1136" 
d="M645 739l399 -727q3 -4 0.5 -8t-8.5 -4h-24q-10 0 -13 8l-399 731h-418l-76 -729q0 -10 -10 -10h-18q-11 0 -8 10l153 1444q0 10 10 10h490q166 0 261 -88.5t95 -232.5q0 -176 -119 -290t-313 -114h-2zM186 774h461q179 0 288 102t109 261q0 133 -87.5 213t-241.5 80
h-461z" />
    <glyph glyph-name="S" unicode="S" horiz-adv-x="1173" 
d="M682 1475q83 0 153.5 -21.5t115.5 -54t80.5 -75t53 -78.5t27.5 -72q4 -11 -10 -11h-17q-7 0 -10 8q-13 35 -31 68t-51.5 71t-75.5 65.5t-105.5 46t-137.5 18.5q-186 0 -304 -89.5t-118 -238.5q0 -50 16.5 -91.5t44.5 -72t73.5 -57t92.5 -45t113 -39.5l102 -33
q188 -61 279.5 -148.5t91.5 -222.5q0 -187 -133.5 -300t-360.5 -113q-99 0 -180.5 23t-134.5 59.5t-91.5 85.5t-58 97t-28.5 99q-1 4 1 7.5t7 3.5h20q10 0 13 -9q9 -45 26.5 -87.5t53 -88t84 -79t124.5 -55t168 -21.5q201 0 329 99t128 269q0 127 -91 207.5t-271 140.5
l-101 33q-88 29 -148.5 58t-108.5 67.5t-71.5 89t-23.5 115.5q0 169 129.5 270t335.5 101z" />
    <glyph glyph-name="T" unicode="T" horiz-adv-x="1034" 
d="M1112 1454l-2 -14q-3 -10 -12 -10h-469l-148 -1420q0 -10 -10 -10h-16q-12 0 -9 10l150 1420h-471q-11 0 -8 10l2 14q0 10 10 10h973q10 0 10 -10z" />
    <glyph glyph-name="U" unicode="U" horiz-adv-x="1298" 
d="M1272 1454l-86 -823q-16 -153 -68 -275t-130.5 -202t-180 -122t-217.5 -42q-115 0 -206.5 42t-153 122t-87.5 202t-10 275l88 823q0 10 10 10h15q11 0 8 -10l-86 -823q-30 -291 87.5 -448.5t340.5 -157.5q222 0 374.5 158t182.5 448l88 823q0 10 10 10h13q11 0 8 -10z
" />
    <glyph glyph-name="V" unicode="V" horiz-adv-x="1153" 
d="M1194 1464h14q12 0 6 -12l-667 -1444q-3 -8 -12 -8h-29q-7 0 -10 8l-365 1444q0 12 10 12h13q7 0 10 -8l360 -1407h4l654 1407q3 8 12 8z" />
    <glyph glyph-name="W" unicode="W" horiz-adv-x="1865" 
d="M1909 1464h12q11 0 8 -12l-581 -1444q-5 -8 -13 -8h-24q-10 0 -13 8l-272 1411l-567 -1411q-5 -8 -13 -8h-24q-9 0 -12 8l-279 1446q-3 10 10 10h13q9 0 12 -8l270 -1403h4l568 1403q5 8 12 8h22q10 0 13 -8l272 -1403h4l565 1403q5 8 13 8z" />
    <glyph glyph-name="X" unicode="X" horiz-adv-x="1267" 
d="M680 748l432 -736q4 -4 2 -8t-8 -4h-19q-9 0 -12 6l-420 721l-571 -721q-3 -6 -12 -6h-19q-6 0 -8 4t2 8l592 742l-408 698q-3 4 0 8t9 4h12q9 0 12 -6l402 -684l544 684q3 6 13 6h12q6 0 8 -4t-2 -8z" />
    <glyph glyph-name="Y" unicode="Y" horiz-adv-x="1081" 
d="M575 694l-69 -684q0 -10 -10 -10h-19q-11 0 -8 10l72 684l-406 758q-6 12 8 12h15q9 0 12 -8l389 -727h4l547 729q3 6 12 6h11q7 0 9 -4t-3 -8z" />
    <glyph glyph-name="Z" unicode="Z" horiz-adv-x="1202" 
d="M219 1464h961q11 0 8 -10v-10q0 -5 -6 -14l-1084 -1391v-4h940q12 0 9 -10l-3 -15q0 -10 -10 -10h-987q-11 0 -8 10v8q0 9 6 15l1092 1390v7h-922q-11 0 -8 10l2 14q0 10 10 10z" />
    <glyph glyph-name="bracketleft" unicode="[" horiz-adv-x="749" 
d="M330 1464l-197 -1884h311q11 0 11 -10l-2 -10q0 -11 -11 -11h-340q-5 0 -7 3.5t-1 7.5l203 1925q0 10 10 10h340q11 0 8 -10l-2 -10q0 -11 -10 -11h-313z" />
    <glyph glyph-name="backslash" unicode="\" horiz-adv-x="1214" 
d="M307 1497h15q9 0 12 -8l627 -1477q3 -12 -9 -12h-12q-9 0 -12 8l-629 1477q-3 12 8 12z" />
    <glyph glyph-name="bracketright" unicode="]" horiz-adv-x="749" 
d="M307 1495h340q11 0 8 -10l-202 -1925q0 -11 -11 -11h-340q-5 0 -7 3.5t-1 7.5l2 10q0 10 10 10h314l196 1884h-311q-10 0 -10 11l2 10q0 10 10 10z" />
    <glyph glyph-name="asciicircum" unicode="^" horiz-adv-x="1282" 
d="M1059 371h-8q-8 0 -11 8l-317 928l-510 -928q-3 -8 -12 -8h-8q-6 0 -9 4t0 8l527 958q0 2 8 2h16l7 -1l-1 -1l326 -958q3 -12 -8 -12z" />
    <glyph glyph-name="underscore" unicode="_" horiz-adv-x="1198" 
d="M918 -242l-3 -4q-3 -8 -10 -8h-784q-10 0 -10 12l2 4q3 9 10 9h784q11 0 11 -13z" />
    <glyph glyph-name="grave" unicode="`" 
d="M49 1538h21q9 0 12 -6l186 -217q4 -5 2 -8.5t-8 -3.5h-4q-9 0 -12 6l-201 217q-5 4 -3.5 8t7.5 4z" />
    <glyph glyph-name="a" unicode="a" horiz-adv-x="1017" 
d="M582 1065q154 0 224.5 -87t55.5 -239l-76 -729q0 -10 -10 -10h-14q-11 0 -8 10l16 172l-6 4q-66 -90 -168.5 -143t-228.5 -53q-128 0 -205.5 62.5t-77.5 185.5q0 87 31.5 151t88 105.5t146.5 66.5t195.5 35t245.5 10h22l14 135q14 129 -48.5 209t-203.5 80
q-119 0 -208.5 -58.5t-133.5 -164.5q-5 -8 -12 -8h-14q-11 0 -8 10q48 118 148.5 187t234.5 69zM811 569h-23q-131 0 -230.5 -9t-184 -31t-138.5 -59t-84 -93.5t-30 -132.5q0 -109 68.5 -164t185.5 -55q134 0 241.5 66.5t161.5 162.5z" />
    <glyph glyph-name="b" unicode="b" horiz-adv-x="1144" 
d="M246 866l10 -4q166 203 389 203q177 0 283 -129t106 -342q0 -265 -140.5 -434.5t-363.5 -169.5q-112 0 -204 48t-144 136l-8 -2l-16 -162q-3 -10 -13 -10h-14q-11 0 -8 10l156 1475q3 10 12 10h12q11 0 8 -10zM643 1030q-237 0 -405 -244l-56 -538q45 -108 139.5 -165.5
t213.5 -57.5q137 0 243.5 74t163.5 202.5t57 288.5q0 198 -97.5 319t-258.5 121z" />
    <glyph glyph-name="c" unicode="c" horiz-adv-x="974" 
d="M600 1059q135 0 222.5 -66.5t125.5 -187.5q3 -12 -8 -12h-18q-8 0 -11 8q-32 104 -112 163.5t-201 59.5q-106 0 -193.5 -48t-143.5 -128.5t-86 -181.5t-30 -211q0 -88 21 -164t62.5 -136.5t109.5 -95t154 -34.5q121 0 214.5 56.5t145.5 154.5q3 8 12 8h17q15 0 8 -13
q-135 -241 -402 -241q-177 0 -277.5 127t-100.5 332q0 264 137 437t354 173z" />
    <glyph glyph-name="d" unicode="d" horiz-adv-x="1142" 
d="M1067 1485l-156 -1475q0 -10 -10 -10h-14q-11 0 -8 10l16 162l-8 2q-68 -88 -172 -136t-217 -48q-179 0 -284 127.5t-105 335.5q0 269 143.5 440.5t359.5 171.5q112 0 200 -53t146 -150l9 4l65 619q3 10 12 10h15q11 0 8 -10zM608 1030q-199 0 -332 -160t-133 -411
q0 -194 97 -314t264 -120q118 0 225 58t174 165l55 538q-55 118 -143.5 181t-206.5 63z" />
    <glyph glyph-name="e" unicode="e" horiz-adv-x="1067" 
d="M602 1055q181 0 278 -134.5t78 -340.5q0 -11 -10 -11h-796q-12 -85 -10 -164t28 -148t67.5 -120.5t108 -81.5t150.5 -30q241 0 370 213q3 6 13 6h14q6 0 8 -4t-2 -9q-145 -241 -407 -241q-180 0 -283 127t-103 332q0 178 67.5 317.5t180 214t248.5 74.5zM598 1020
q-156 0 -277.5 -112.5t-160.5 -303.5h768q9 182 -80 299t-250 117z" />
    <glyph glyph-name="f" unicode="f" horiz-adv-x="587" 
d="M645 1485l-2 -12q-4 -11 -12 -11q-102 -1 -160 -28.5t-89.5 -93t-45.5 -187.5l-10 -98h252q5 0 7 -3.5t1 -7.5l-2 -12q0 -10 -11 -10h-251l-107 -1012q0 -10 -10 -10h-17q-11 0 -8 10l105 1012h-152q-11 0 -8 10l2 12q0 11 10 11h152l10 98q22 196 92.5 268.5t243.5 73.5
q10 0 10 -10z" />
    <glyph glyph-name="g" unicode="g" horiz-adv-x="1142" 
d="M612 1065q112 0 205.5 -48t143.5 -136l8 2l16 161q4 11 12 11h15q5 0 7 -3.5t1 -7.5l-102 -985q-26 -246 -142.5 -383t-324.5 -137q-287 0 -363 262q0 13 10 13h15q7 0 10 -9q74 -231 336 -231q187 0 294 127.5t132 368.5l12 118l-8 5q-166 -193 -389 -193
q-179 0 -285 124t-106 337q0 266 141 435t362 169zM610 1030q-138 0 -245 -73.5t-164.5 -203t-57.5 -292.5q0 -197 97.5 -311.5t261.5 -114.5q238 0 403 233l56 539q-43 107 -138 165t-213 58z" />
    <glyph glyph-name="h" unicode="h" horiz-adv-x="1062" 
d="M246 866l10 -4q190 203 393 203q138 0 207.5 -86t52.5 -244l-78 -725q0 -10 -10 -10h-14q-11 0 -8 10l73 719q15 145 -45.5 223t-185.5 78q-201 0 -399 -221l-84 -799q-3 -10 -13 -10h-14q-11 0 -8 10l156 1475q3 10 12 10h12q11 0 8 -10z" />
    <glyph glyph-name="i" unicode="i" horiz-adv-x="428" 
d="M332 1485l-10 -107q-3 -10 -13 -10h-14q-11 0 -8 10l12 107q0 10 10 10h15q11 0 8 -10zM285 1044l-109 -1034q0 -10 -10 -10h-14q-12 0 -9 10l109 1034q0 11 10 11h14q5 0 7.5 -3.5t1.5 -7.5z" />
    <glyph glyph-name="j" unicode="j" horiz-adv-x="573" 
d="M434 1485l-10 -107q-3 -10 -12 -10h-15q-11 0 -8 10l12 107q0 10 11 10h14q11 0 8 -10zM389 1044l-121 -1163q-21 -183 -90.5 -257t-234.5 -75q-5 0 -7.5 3.5t-1.5 7.5l3 14q0 10 10 10q149 1 208 69t78 238l123 1153q0 11 11 11h14q5 0 7 -3.5t1 -7.5z" />
    <glyph glyph-name="k" unicode="k" horiz-adv-x="1011" 
d="M463 649l373 -637q4 -4 1.5 -8t-8.5 -4h-22q-9 0 -12 6l-363 615l-231 -203l-43 -408q0 -10 -11 -10h-16q-11 0 -8 10l156 1475q3 10 12 10h12q11 0 8 -10l-106 -1024l667 590q8 4 15 4h16q6 0 7.5 -4.5t-3.5 -8.5z" />
    <glyph glyph-name="l" unicode="l" horiz-adv-x="512" 
d="M373 1485l-154 -1475q0 -10 -10 -10h-16q-12 0 -9 10l156 1475q3 10 12 10h13q11 0 8 -10z" />
    <glyph glyph-name="m" unicode="m" horiz-adv-x="1656" 
d="M1268 1065q127 0 189.5 -83t45.5 -247l-78 -725q0 -10 -10 -10h-12q-11 0 -8 10l73 719q15 151 -39 226t-169 75q-200 0 -375 -225l-84 -795q0 -10 -10 -10h-13q-11 0 -8 10l74 719q15 151 -40 226t-173 75q-198 0 -389 -221l-84 -799q-3 -10 -13 -10h-14q-11 0 -8 10
l108 1034q0 11 11 11h14q5 0 7 -3.5t1 -7.5l-18 -180h8q192 201 385 201q210 0 242 -217h8q71 94 167 155.5t212 61.5z" />
    <glyph glyph-name="n" unicode="n" horiz-adv-x="1060" 
d="M651 1065q137 0 205 -83t51 -247l-78 -725q0 -10 -10 -10h-12q-11 0 -8 10l73 719q15 150 -45.5 225.5t-183.5 75.5q-110 0 -207 -56.5t-194 -164.5l-84 -799q-3 -10 -13 -10h-14q-11 0 -8 10l108 1034q0 11 11 11h14q5 0 7 -3.5t1 -7.5l-18 -178l8 -4q191 203 397 203z
" />
    <glyph glyph-name="o" unicode="o" horiz-adv-x="1099" 
d="M612 1065q171 0 275 -125.5t104 -331.5q0 -174 -66.5 -316t-182.5 -222t-257 -80q-169 0 -272.5 131t-103.5 338q0 175 66 314t181 215.5t256 76.5zM608 1030q-199 0 -332 -160t-133 -409q0 -194 94.5 -315t251.5 -121q129 0 236 75t169 208t62 296q0 193 -94.5 309.5
t-253.5 116.5z" />
    <glyph glyph-name="p" unicode="p" horiz-adv-x="1142" 
d="M645 1065q181 0 285 -126t104 -335q0 -271 -144 -442.5t-360 -171.5q-112 0 -200 53t-146 150l-8 -5l-67 -628q0 -11 -11 -11h-14q-5 0 -7 3.5t-1 7.5l155 1484q0 11 11 11h14q5 0 7 -3.5t1 -7.5l-16 -161l8 -2q68 88 172 136t217 48zM641 1030q-119 0 -226.5 -58
t-174.5 -165l-56 -539q55 -117 145 -180t208 -63q196 0 329 160.5t133 412.5q0 193 -95.5 312.5t-262.5 119.5z" />
    <glyph glyph-name="q" unicode="q" horiz-adv-x="1142" 
d="M612 1065q114 0 207.5 -48t143.5 -136l8 2l16 161q4 11 12 11h13q5 0 7 -3.5t1 -7.5l-156 -1484q0 -11 -10 -11h-12q-5 0 -7 3.5t-1 7.5l65 628l-8 5q-169 -203 -391 -203q-177 0 -283 129t-106 342q0 266 140 435t361 169zM610 1030q-136 0 -243 -73.5t-165.5 -202
t-58.5 -289.5q0 -198 99 -319t262 -121q118 0 221 63t182 180l56 539q-43 107 -138.5 165t-214.5 58z" />
    <glyph glyph-name="r" unicode="r" horiz-adv-x="632" 
d="M645 1055l-2 -17q-3 -10 -12 -10q-233 -6 -395 -270l-80 -748q0 -10 -11 -10h-14q-11 0 -8 10l108 1034q0 11 11 11h14q5 0 7 -3.5t1 -7.5l-22 -217l8 -4q155 237 385 242q10 0 10 -10z" />
    <glyph glyph-name="s" unicode="s" horiz-adv-x="899" 
d="M510 1065q73 0 129 -16.5t92 -47.5t58 -66.5t36 -82.5q3 -12 -8 -12h-14q-7 0 -10 8q-32 87 -99 135.5t-188 48.5q-133 0 -220 -61.5t-87 -171.5q0 -82 60 -128t181 -87l74 -25q135 -44 200.5 -108t65.5 -162q0 -140 -98.5 -219.5t-265.5 -79.5q-135 0 -228.5 61
t-124.5 187q-3 12 11 12h16q9 0 12 -8q23 -101 109 -159t211 -58q138 0 230.5 66t92.5 192q0 89 -64.5 142.5t-199.5 100.5l-69 25q-124 43 -185 95t-61 142q0 130 96.5 203.5t247.5 73.5z" />
    <glyph glyph-name="t" unicode="t" horiz-adv-x="606" 
d="M614 1044v-10q0 -10 -10 -10h-244l-106 -1014q0 -10 -10 -10h-17q-11 0 -8 10l107 1014h-191q-10 0 -10 10l2 10q0 11 10 11h193l45 430q3 10 12 10h12q12 0 9 -10l-43 -430h241q5 0 7 -3.5t1 -7.5z" />
    <glyph glyph-name="u" unicode="u" horiz-adv-x="1062" 
d="M940 1044l-109 -1034q-3 -10 -12 -10h-12q-11 0 -8 10l18 178l-8 5q-87 -91 -182 -147t-213 -56q-137 0 -207 83.5t-53 245.5l77 725q0 11 11 11h14q5 0 7 -3.5t1 -7.5l-74 -718q-15 -150 46 -225.5t186 -75.5q109 0 206 57t195 164l84 798q4 11 13 11h12q5 0 7 -3.5
t1 -7.5z" />
    <glyph glyph-name="v" unicode="v" horiz-adv-x="870" 
d="M879 1042l-471 -1034q-3 -8 -13 -8h-39q-7 0 -10 8l-248 1034q-3 13 11 13h16q7 0 10 -8l240 -1006h10l463 1006q3 8 12 8h12q5 0 7.5 -3.5t-0.5 -9.5z" />
    <glyph glyph-name="w" unicode="w" horiz-adv-x="1425" 
d="M1413 1055h14q12 0 9 -13l-416 -1034q-5 -8 -12 -8h-35q-9 0 -12 8l-203 979h-4l-396 -979q-5 -8 -12 -8h-37q-9 0 -12 8l-199 1036q-2 4 1.5 7.5t9.5 3.5h14q9 0 12 -8l195 -998h8l403 998q5 8 13 8h16q9 0 12 -8l207 -998h8l404 998q5 8 12 8z" />
    <glyph glyph-name="x" unicode="x" horiz-adv-x="921" 
d="M489 537l299 -525q3 -4 0.5 -8t-8.5 -4h-18q-9 0 -12 6l-289 506l-400 -506q-3 -6 -12 -6h-16q-6 0 -8 4t2 8l413 533l-284 497q-3 4 -0.5 8.5t8.5 4.5h20q10 0 13 -6l272 -480l379 480q3 6 12 6h17q6 0 8 -4.5t-2 -8.5z" />
    <glyph glyph-name="y" unicode="y" horiz-adv-x="866" 
d="M854 1055h14q12 0 6 -13l-671 -1484q-3 -9 -13 -9h-22q-12 0 -6 13l190 415l-254 1065q-3 13 11 13h16q7 0 10 -8l240 -1008h6l461 1008q3 8 12 8z" />
    <glyph glyph-name="z" unicode="z" horiz-adv-x="966" 
d="M905 1044l-2 -12v-4q-1 0 -3.5 -3.5t-4.5 -4.5l-782 -983v-4h680q11 0 8 -10l-2 -13q0 -10 -11 -10h-720q-12 0 -9 10v8q0 7 4 11l791 991l2 4h-653q-11 0 -8 10l2 10q0 11 10 11h688q10 0 10 -11z" />
    <glyph glyph-name="braceleft" unicode="{" horiz-adv-x="794" 
d="M707 1526l-2 -13q-3 -10 -13 -10h-20q-111 0 -163 -50t-67 -187l-49 -471q-9 -83 -27.5 -133t-41 -72t-64.5 -43v-6q27 -14 42.5 -29t29 -43.5t13 -68.5t-4.5 -105l-49 -475q-15 -137 27 -187.5t153 -50.5h21q11 0 8 -10l-2 -12q0 -11 -11 -11h-30q-115 0 -165 58
t-36 205l49 467q14 125 -5.5 173t-94.5 74q-8 6 -6 13l2 12q0 7 8 10q56 19 85 45.5t44 71.5t24 131l48 465q14 146 77 204t179 58h30q11 0 11 -10z" />
    <glyph glyph-name="bar" unicode="|" horiz-adv-x="423" 
d="M338 1577l-217 -2069q0 -10 -10 -10h-15q-11 0 -8 10l217 2069q0 10 10 10h15q11 0 8 -10z" />
    <glyph glyph-name="braceright" unicode="}" horiz-adv-x="792" 
d="M90 -440l2 12q3 10 12 10h21q111 0 162.5 50.5t66.5 187.5l49 471q9 83 27.5 133t41.5 72t65 43v6q-27 14 -42.5 29t-29 43.5t-13 68.5t4.5 105l49 475q15 137 -27 187t-153 50h-21q-11 0 -8 10l2 13q0 10 10 10h31q115 0 165 -57.5t36 -204.5l-49 -467
q-14 -125 5.5 -173.5t94.5 -74.5q8 -5 6 -12l-2 -12q0 -8 -8 -11q-56 -19 -85 -45t-44.5 -71.5t-24.5 -131.5l-47 -464q-14 -147 -77 -205t-179 -58h-31q-10 0 -10 11z" />
    <glyph glyph-name="asciitilde" unicode="~" horiz-adv-x="839" 
d="M324 688q35 0 64 -22t47 -48.5t46.5 -48.5t61.5 -22q38 0 56 25.5t26 76.5q3 10 12 10h12q11 0 8 -10q-8 -64 -37.5 -99.5t-80.5 -35.5q-31 0 -57 14.5t-44 35t-35 41.5t-39 35.5t-47 14.5q-38 0 -59.5 -28t-26.5 -74q0 -10 -10 -10h-14q-11 0 -8 10q8 58 40 96.5
t85 38.5z" />
    <glyph glyph-name="exclamdown" unicode="&#xa1;" horiz-adv-x="434" 
d="M238 926l12 118q4 11 12 11h23q5 0 7 -3.5t1 -7.5l-14 -118q-4 -11 -13 -11h-20q-5 0 -7 3.5t-1 7.5zM104 -403l109 1034q0 10 10 10h15q11 0 8 -10l-109 -1034q0 -11 -10 -11h-14q-5 0 -7.5 3.5t-1.5 7.5z" />
    <glyph glyph-name="cent" unicode="&#xa2;" horiz-adv-x="972" 
d="M614 1198q-106 0 -193.5 -48t-143 -128.5t-85.5 -181.5t-30 -211q0 -88 21 -164t62 -136.5t109 -95t154 -34.5q121 0 214.5 56.5t145.5 154.5q3 8 13 8h16q14 0 8 -12q-61 -111 -159 -174.5t-226 -67.5l-24 -246q0 -10 -11 -10h-12q-11 0 -8 10l29 246
q-172 4 -270.5 130.5t-98.5 328.5q0 171 60 308.5t170 218t251 83.5l25 254q0 10 10 10h12q12 0 9 -10l-29 -254q128 -4 212 -70t120 -184q3 -12 -9 -12h-18q-7 0 -10 8q-32 104 -111.5 163.5t-202.5 59.5z" />
    <glyph glyph-name="sterling" unicode="&#xa3;" horiz-adv-x="1163" 
d="M764 1432q-147 0 -236.5 -96t-109.5 -277q-3 -10 -12 -10l-17 2q-11 0 -8 10q23 199 127 302t262 103q138 0 224.5 -78.5t109.5 -226.5q3 -10 -8 -10h-19q-10 0 -10 8q-16 123 -92.5 198t-210.5 75zM346 733l31 307q4 11 12 11l14 -2q5 0 7.5 -3.5t1.5 -7.5l-31 -305h291
q11 0 8 -10l-2 -10q0 -11 -10 -11h-291l-41 -403q-12 -105 -43 -163.5t-90 -98.5v-4l776 2q11 0 8 -10l-2 -17q0 -10 -10 -10l-834 2q-11 0 -8 10l2 10q0 10 6 13q84 54 116 107.5t44 166.5l41 395h-190q-5 0 -7.5 3.5t-1.5 7.5l2 10q0 10 11 10h190z" />
    <glyph glyph-name="currency" unicode="&#xa4;" horiz-adv-x="1083" 
d="M827 567q0 -137 -96 -233l113 -135q6 -9 0 -15l-8 -8q-9 -9 -15 0l-114 135q-87 -71 -197 -71q-106 0 -178 75l-144 -139q-8 -8 -14 0l-6 6q-9 9 0 15l145 139q-59 75 -59 174q0 130 96 233l-110 129q-6 9 2 15l8 8q8 8 14 0l111 -129q90 74 198 74q110 0 183 -80
l143 135q8 8 14 0l7 -6q6 -9 -2 -15l-144 -137q53 -75 53 -170zM287 514q0 -101 65 -172.5t162 -71.5q111 0 198 88t87 205q0 101 -66.5 172.5t-163.5 71.5q-111 0 -196.5 -87t-85.5 -206z" />
    <glyph glyph-name="yen" unicode="&#xa5;" horiz-adv-x="1081" 
d="M594 719h231q12 0 9 -10l-3 -11q0 -10 -10 -10h-246l-18 -174h236q11 0 8 -10l-2 -10q0 -11 -11 -11h-233l-49 -473q0 -10 -10 -10h-19q-11 0 -8 10l49 473h-246q-5 0 -7 3.5t-1 7.5l2 10q0 10 10 10h246l19 174h-236q-11 0 -8 10l2 11q0 10 10 10h219l-393 733
q-6 12 8 12h15q9 0 12 -8l389 -727h4l547 729q3 6 12 6h11q7 0 9 -4t-3 -8z" />
    <glyph glyph-name="section" unicode="&#xa7;" horiz-adv-x="942" 
d="M578 1473q-133 0 -216 -64t-83 -172q0 -45 17 -79.5t53.5 -61t75.5 -45t101 -41.5l39 -15q142 -52 207.5 -119t65.5 -159q0 -95 -50 -167t-133 -114q131 -78 131 -209q0 -139 -97 -223t-257 -84q-133 0 -223.5 64t-118.5 196q-3 13 10 13h15q9 0 12 -11
q22 -104 106 -165.5t205 -61.5q131 0 221.5 69t90.5 195q0 87 -63.5 142t-205.5 114l-35 14q-66 27 -106.5 47.5t-78 50t-54.5 65.5t-17 83q0 96 58 167.5t158 117.5q-82 40 -123 87t-41 118q0 129 93 204.5t245 75.5q72 0 127 -18t89.5 -51t54.5 -69.5t34 -84.5
q0 -12 -11 -12h-14q-7 0 -10 6q-59 197 -272 197zM498 979l-56 25q-215 -96 -215 -259q0 -36 13.5 -65.5t32 -49.5t55.5 -41.5t65 -33.5t80 -33l41 -16q41 -16 109 -49q178 89 178 248q0 90 -65.5 146t-203.5 114z" />
    <glyph glyph-name="dieresis" unicode="&#xa8;" 
d="M303 1485l-10 -107q0 -10 -10 -10h-7q-10 0 -10 10l10 107q0 10 11 10h8q11 0 8 -10zM530 1485l-10 -107q0 -10 -10 -10h-6q-10 0 -10 10l10 107q0 10 10 10h8q11 0 8 -10z" />
    <glyph glyph-name="copyright" unicode="&#xa9;" horiz-adv-x="1650" 
d="M926 1475q178 0 320 -81t224 -232.5t82 -348.5q0 -181 -64 -336.5t-171.5 -261t-250 -165.5t-298.5 -60q-133 0 -248.5 47.5t-199 132.5t-131.5 210t-48 273q0 145 41.5 275t115.5 228.5t172 171t215 110t241 37.5zM924 1444q-149 0 -286 -57.5t-240.5 -158.5
t-165.5 -250t-62 -321q0 -142 46 -262t126.5 -202t192 -127.5t239.5 -45.5q148 0 284 57.5t239.5 159t165 250.5t61.5 322q0 142 -46 261.5t-126.5 201t-190.5 127t-237 45.5zM897 1171q115 0 189.5 -55.5t105.5 -157.5q3 -12 -8 -12h-10q-8 0 -11 8q-29 89 -96.5 139
t-173.5 50q-88 0 -161.5 -39t-121 -104t-73 -147.5t-25.5 -170.5q0 -103 31 -184t99 -132t165 -51q104 0 182.5 49.5t124.5 137.5q3 8 12 8h9q14 0 8 -12q-52 -101 -138 -157t-200 -56q-151 0 -235.5 107.5t-84.5 281.5q0 216 114 356.5t298 140.5z" />
    <glyph glyph-name="guillemetleft" unicode="&#xab;" horiz-adv-x="1208" 
d="M188 479l5 25q0 9 6 12l397 256q6 3 10 0.5t2 -8.5l-2 -19q0 -9 -6 -12l-379 -241l328 -242q6 -3 6 -12l-2 -19q-3 -12 -14 -6l-344 254q-7 3 -7 12zM1038 764l-2 -19q0 -9 -6 -12l-379 -241l328 -242q6 -3 6 -12l-2 -19q-3 -12 -14 -6l-344 254q-7 3 -7 12l5 25
q0 9 6 12l397 256q6 3 10 0.5t2 -8.5z" />
    <glyph glyph-name="registered" unicode="&#xae;" horiz-adv-x="974" 
d="M590 1505q113 0 187.5 -80.5t74.5 -197.5q0 -136 -98 -236t-228 -100q-111 0 -186.5 81.5t-75.5 196.5q0 137 98.5 236.5t227.5 99.5zM528 924q115 0 203 89t88 210q0 105 -66.5 177.5t-164.5 72.5q-118 0 -205.5 -88.5t-87.5 -210.5q0 -104 67 -177t166 -73zM672 1272
q0 -34 -23 -59t-61 -29l69 -123q3 -5 0.5 -8.5t-8.5 -3.5h-16q-9 0 -12 8l-68 125h-61l-15 -123q0 -10 -10 -10h-10q-11 0 -8 10l28 276q0 11 10 11h103q38 0 60 -20.5t22 -53.5zM494 1210h77q33 0 51.5 15.5t18.5 42.5q0 22 -15.5 35.5t-41.5 13.5h-80z" />
    <glyph glyph-name="macron" unicode="&#xaf;" 
d="M666 1415v-10q0 -10 -11 -10h-303q-10 0 -10 10l2 10q0 10 10 10h303q12 0 9 -10z" />
    <glyph glyph-name="degree" unicode="&#xb0;" horiz-adv-x="788" 
d="M498 1505q76 0 127 -55.5t51 -134.5q0 -93 -67 -161.5t-154 -68.5q-77 0 -129 56.5t-52 136.5q0 92 68 159.5t156 67.5zM496 1475q-74 0 -131.5 -58t-57.5 -137q0 -68 43 -115t107 -47q74 0 132 58t58 135q0 69 -43.5 116.5t-107.5 47.5z" />
    <glyph glyph-name="twosuperior" unicode="&#xb2;" horiz-adv-x="565" 
d="M403 1473q63 0 100.5 -34.5t37.5 -90.5q0 -44 -25.5 -83t-83.5 -91l-205 -185q-1 -1 -4 -3t-4 -3h291q10 0 10 -10l-2 -12q0 -11 -10 -11h-330q-10 0 -10 11l2 12q0 7 8 12l234 211q51 45 72.5 79t21.5 71q0 42 -29 68t-80 26q-99 0 -147 -84q-3 -8 -12 -8h-11
q-13 0 -10 10q26 52 74 83.5t112 31.5z" />
    <glyph glyph-name="threesuperior" unicode="&#xb3;" horiz-adv-x="544" 
d="M403 1225q52 -12 80.5 -43t28.5 -74q0 -73 -54.5 -119.5t-140.5 -46.5q-71 0 -114 31.5t-51 83.5q-3 10 8 10h16q9 0 12 -10q6 -38 41.5 -60t89.5 -22q72 0 115 36t43 95q0 48 -40.5 75t-114.5 27h-25q-5 0 -7 3.5t-1 7.5l2 10q0 10 10 10h25q78 0 119.5 30t41.5 81
q0 41 -29.5 65.5t-82.5 24.5q-50 0 -88.5 -22t-57.5 -62q-5 -8 -12 -8h-12q-14 0 -8 12q28 51 75.5 82t108.5 31q64 0 100.5 -33t36.5 -86q0 -48 -30 -82t-85 -47z" />
    <glyph glyph-name="acute" unicode="&#xb4;" 
d="M565 1526l-200 -217q-3 -6 -13 -6h-4q-6 0 -8 3.5t2 8.5l186 217q3 6 13 6h20q6 0 7.5 -4t-3.5 -8z" />
    <glyph glyph-name="paragraph" unicode="&#xb6;" horiz-adv-x="1214" 
d="M592 1262h178q5 0 7 -3.5t1 -7.5l-153 -1446q0 -10 -11 -10h-16q-11 0 -8 10l72 668h-154q-168 0 -265.5 98t-97.5 256q0 189 124 312t323 123zM1028 1262h14q5 0 7.5 -3.5t1.5 -7.5l-152 -1446q0 -10 -10 -10h-19q-11 0 -8 10l154 1446q4 11 12 11z" />
    <glyph glyph-name="periodcentered" unicode="&#xb7;" horiz-adv-x="430" 
d="M244 612l-13 -118q0 -11 -10 -11h-20q-5 0 -7 3.5t-1 7.5l12 118q0 11 10 11h21q5 0 7 -3.5t1 -7.5z" />
    <glyph glyph-name="cedilla" unicode="&#xb8;" 
d="M362 6l-51 -131q80 -10 130.5 -49t50.5 -109q0 -77 -53.5 -129.5t-145.5 -52.5q-71 0 -135 37q-7 2 -4 12l6 13q4 11 14 4q50 -33 125 -33q71 0 114.5 39.5t43.5 103.5q0 112 -176 133h-5q-11 3 -8 13l60 153q5 8 12 8h14q11 0 8 -12z" />
    <glyph glyph-name="onesuperior" unicode="&#xb9;" horiz-adv-x="436" 
d="M408 1450l-50 -489q0 -11 -10 -11h-14q-5 0 -7 3.5t-1 7.5l47 469h-2l-164 -119q-9 -6 -14 2l-9 8q-5 7 2 14l168 121q8 4 13 4h32q12 0 9 -10z" />
    <glyph glyph-name="guillemetright" unicode="&#xbb;" horiz-adv-x="1210" 
d="M217 748l2 18q3 12 14 6l345 -254q6 -3 6 -12l-4 -25q0 -9 -7 -12l-397 -256q-6 -3 -10 -0.5t-2 8.5l2 19q0 9 6 12l379 242l-328 241q-6 3 -6 13zM664 772l344 -254q6 -3 6 -12l-4 -25q0 -9 -6 -12l-398 -256q-6 -3 -10 -0.5t-2 8.5l2 19q0 9 6 12l379 242l-328 241
q-6 3 -6 13l2 18q3 12 15 6z" />
    <glyph glyph-name="questiondown" unicode="&#xbf;" horiz-adv-x="1191" 
d="M750 926l12 118q0 11 10 11h21q5 0 7 -3.5t1 -7.5l-13 -118q0 -11 -10 -11h-20q-5 0 -7 3.5t-1 7.5zM573 -412q-159 0 -252.5 89.5t-93.5 240.5q0 94 34 173.5t103.5 147.5t148 121.5t194.5 116.5l24 225q4 11 12 11h17q5 0 7 -3.5t1 -7.5l-27 -235q0 -9 -8 -12
q-116 -61 -196.5 -115t-146 -119t-97 -139.5t-31.5 -161.5q0 -132 82.5 -214.5t233.5 -82.5q142 0 250.5 74.5t156.5 198.5q5 8 12 8h17q11 0 8 -13q-59 -145 -178 -224t-271 -79z" />
    <glyph glyph-name="Agrave" unicode="&#xc0;" horiz-adv-x="1155" 
d="M700 1714h-4q-9 0 -12 6l-201 217q-5 5 -3.5 9t7.5 4h21q9 0 12 -6l187 -218q4 -4 1.5 -8t-8.5 -4zM903 516h-653l-236 -508q-3 -8 -12 -8h-14q-12 0 -6 12l667 1444q3 8 13 8h28q7 0 10 -8l367 -1444q0 -12 -10 -12h-15q-7 0 -10 8zM893 553l-223 868l-404 -868h627z
" />
    <glyph glyph-name="Aacute" unicode="&#xc1;" horiz-adv-x="1155" 
d="M924 1937l-201 -217q-3 -6 -12 -6h-4q-6 0 -8.5 4t1.5 8l187 218q3 6 12 6h21q6 0 7.5 -4t-3.5 -9zM903 516h-653l-236 -508q-3 -8 -12 -8h-14q-12 0 -6 12l667 1444q3 8 13 8h28q7 0 10 -8l367 -1444q0 -12 -10 -12h-15q-7 0 -10 8zM893 553l-223 868l-404 -868h627z
" />
    <glyph glyph-name="Acircumflex" unicode="&#xc2;" horiz-adv-x="1155" 
d="M723 1911l-158 -191q-3 -6 -12 -6h-21q-6 0 -8 4t2 8l183 207q3 6 12 6h10q9 0 12 -6l140 -207q3 -4 1.5 -8t-7.5 -4h-23q-9 0 -12 6l-115 191h-4zM903 516h-653l-236 -508q-3 -8 -12 -8h-14q-12 0 -6 12l667 1444q3 8 13 8h28q7 0 10 -8l367 -1444q0 -12 -10 -12h-15
q-7 0 -10 8zM893 553l-223 868l-404 -868h627z" />
    <glyph glyph-name="Atilde" unicode="&#xc3;" horiz-adv-x="1155" 
d="M618 1862q-64 0 -75 -93q0 -10 -11 -10h-10q-11 0 -8 10q8 53 35.5 88t73.5 35q31 0 56.5 -20t41 -44.5t39.5 -44.5t53 -20q33 0 49.5 23t22.5 69q4 11 12 11h8q5 0 7 -3.5t1 -7.5q-8 -57 -33.5 -89.5t-68.5 -32.5q-27 0 -49.5 13.5t-38 32.5t-30.5 37.5t-34 32t-41 13.5
zM903 516h-653l-236 -508q-3 -8 -12 -8h-14q-12 0 -6 12l667 1444q3 8 13 8h28q7 0 10 -8l367 -1444q0 -12 -10 -12h-15q-7 0 -10 8zM893 553l-223 868l-404 -868h627z" />
    <glyph glyph-name="Adieresis" unicode="&#xc4;" horiz-adv-x="1155" 
d="M588 1896l-10 -106q0 -10 -11 -10h-6q-10 0 -10 10l10 106q0 11 10 11h9q5 0 7 -3.5t1 -7.5zM815 1896l-10 -106q0 -10 -10 -10h-7q-10 0 -10 10l10 106q0 11 11 11h8q5 0 7 -3.5t1 -7.5zM903 516h-653l-236 -508q-3 -8 -12 -8h-14q-12 0 -6 12l667 1444q3 8 13 8h28
q7 0 10 -8l367 -1444q0 -12 -10 -12h-15q-7 0 -10 8zM893 553l-223 868l-404 -868h627z" />
    <glyph glyph-name="Aring" unicode="&#xc5;" horiz-adv-x="1155" 
d="M700 1683q-48 0 -81 33.5t-33 87.5q0 65 42.5 107.5t100.5 42.5q52 0 84.5 -33t32.5 -88q0 -66 -43 -108t-103 -42zM727 1925q-46 0 -79.5 -32.5t-33.5 -84.5q0 -42 26 -68t65 -26q46 0 79 32t33 83q0 43 -25.5 69.5t-64.5 26.5zM903 516h-653l-236 -508q-3 -8 -12 -8
h-14q-12 0 -6 12l667 1444q3 8 13 8h28q7 0 10 -8l367 -1444q0 -12 -10 -12h-15q-7 0 -10 8zM893 553l-223 868l-404 -868h627z" />
    <glyph glyph-name="AE" unicode="&#xc6;" horiz-adv-x="1660" 
d="M969 1434l-66 -639h541q5 0 7 -3.5t1 -7.5l-2 -16q0 -10 -10 -10h-541l-74 -725l682 2q12 0 9 -10l-3 -17q0 -10 -10 -10l-708 2q-12 0 -9 10l54 506h-488l-332 -510q-3 -6 -12 -6h-18q-6 0 -7.5 4t1.5 8l942 1448q3 6 12 6l709 2q11 0 8 -10l-2 -16q0 -10 -11 -10z
M844 553l90 854l-557 -854h467z" />
    <glyph glyph-name="Ccedilla" unicode="&#xc7;" horiz-adv-x="1325" 
d="M803 1440q-188 0 -338.5 -101.5t-235 -284t-84.5 -411.5q0 -274 134.5 -446t357.5 -172q178 0 318.5 95t224.5 275q3 8 12 8h14q12 0 6 -12q-87 -194 -238 -297.5t-343 -103.5l-51 -133q80 -10 130 -48.5t50 -109.5q0 -77 -53.5 -129.5t-145.5 -52.5q-71 0 -135 37
q-7 2 -4 12l6 12q4 11 14 4q50 -33 125 -33q71 0 114.5 40t43.5 104q0 112 -176 133h-4q-11 3 -8 12l59 154q-146 9 -256.5 94t-169.5 228t-59 325q0 180 54 336.5t146.5 265.5t221 171.5t274.5 62.5q171 0 291.5 -89t173.5 -247q3 -13 -8 -13h-19q-7 0 -10 9
q-51 143 -162.5 224t-269.5 81z" />
    <glyph glyph-name="Egrave" unicode="&#xc8;" horiz-adv-x="1042" 
d="M608 1714h-4q-9 0 -12 6l-201 217q-5 5 -3.5 9t7.5 4h21q9 0 12 -6l186 -218q4 -4 2 -8t-8 -4zM254 1430l-66 -635h637q5 0 7.5 -3.5t1.5 -7.5l-3 -16q0 -10 -10 -10h-637l-73 -723h778q11 0 8 -10l-2 -15q0 -10 -10 -10h-807q-11 0 -8 10l153 1444q0 10 10 10h795
q11 0 8 -10l-2 -14q0 -10 -10 -10h-770z" />
    <glyph glyph-name="Eacute" unicode="&#xc9;" horiz-adv-x="1042" 
d="M831 1937l-200 -217q-3 -6 -13 -6h-4q-6 0 -8 4t2 8l187 218q3 6 12 6h20q6 0 7.5 -4t-3.5 -9zM254 1430l-66 -635h637q5 0 7.5 -3.5t1.5 -7.5l-3 -16q0 -10 -10 -10h-637l-73 -723h778q11 0 8 -10l-2 -15q0 -10 -10 -10h-807q-11 0 -8 10l153 1444q0 10 10 10h795
q11 0 8 -10l-2 -14q0 -10 -10 -10h-770z" />
    <glyph glyph-name="Ecircumflex" unicode="&#xca;" horiz-adv-x="1042" 
d="M631 1911l-158 -191q-3 -6 -12 -6h-21q-6 0 -8 4t2 8l182 207q3 6 13 6h10q9 0 12 -6l140 -207q3 -4 1 -8t-8 -4h-22q-9 0 -12 6l-115 191h-4zM254 1430l-66 -635h637q5 0 7.5 -3.5t1.5 -7.5l-3 -16q0 -10 -10 -10h-637l-73 -723h778q11 0 8 -10l-2 -15q0 -10 -10 -10
h-807q-11 0 -8 10l153 1444q0 10 10 10h795q11 0 8 -10l-2 -14q0 -10 -10 -10h-770z" />
    <glyph glyph-name="Edieresis" unicode="&#xcb;" horiz-adv-x="1042" 
d="M496 1896l-11 -106q0 -10 -10 -10h-6q-10 0 -10 10l10 106q0 11 10 11h8q5 0 7.5 -3.5t1.5 -7.5zM723 1896l-10 -106q0 -10 -11 -10h-6q-10 0 -10 10l10 106q0 11 11 11h8q5 0 7 -3.5t1 -7.5zM254 1430l-66 -635h637q5 0 7.5 -3.5t1.5 -7.5l-3 -16q0 -10 -10 -10h-637
l-73 -723h778q11 0 8 -10l-2 -15q0 -10 -10 -10h-807q-11 0 -8 10l153 1444q0 10 10 10h795q11 0 8 -10l-2 -14q0 -10 -10 -10h-770z" />
    <glyph glyph-name="Igrave" unicode="&#xcc;" horiz-adv-x="530" 
d="M174 1950h21q9 0 12 -6l186 -218q4 -4 2 -8t-8 -4h-4q-9 0 -12 6l-201 217q-5 5 -3.5 9t7.5 4zM379 1454l-150 -1444q0 -10 -10 -10h-18q-11 0 -8 10l153 1444q0 10 10 10h15q11 0 8 -10z" />
    <glyph glyph-name="Iacute" unicode="&#xcd;" horiz-adv-x="530" 
d="M610 1937l-200 -217q-3 -6 -13 -6h-4q-6 0 -8 4t2 8l186 218q3 6 13 6h20q6 0 7.5 -4t-3.5 -9zM379 1454l-150 -1444q0 -10 -10 -10h-18q-11 0 -8 10l153 1444q0 10 10 10h15q11 0 8 -10z" />
    <glyph glyph-name="Icircumflex" unicode="&#xce;" horiz-adv-x="530" 
d="M430 1933l139 -207q3 -4 1.5 -8t-7.5 -4h-22q-10 0 -13 6l-114 191h-4l-158 -191q-3 -6 -12 -6h-21q-6 0 -8 4t2 8l182 207q3 6 13 6h10q9 0 12 -6zM193 10l151 1444q3 10 12 10h15q11 0 8 -10l-150 -1444q0 -10 -10 -10h-18q-11 0 -8 10z" />
    <glyph glyph-name="Idieresis" unicode="&#xcf;" horiz-adv-x="530" 
d="M274 1896l-10 -106q0 -10 -10 -10h-6q-10 0 -10 10l10 106q0 11 10 11h8q5 0 7 -3.5t1 -7.5zM502 1896l-10 -106q0 -10 -11 -10h-6q-10 0 -10 10l10 106q0 11 10 11h9q5 0 7 -3.5t1 -7.5zM379 1454l-150 -1444q0 -10 -10 -10h-18q-11 0 -8 10l153 1444q0 10 10 10h15
q11 0 8 -10z" />
    <glyph glyph-name="Eth" unicode="&#xd0;" horiz-adv-x="1239" 
d="M233 1464h406q250 0 392.5 -169t142.5 -451q0 -238 -89 -430.5t-251 -303t-365 -110.5h-391q-11 0 -8 10l59 563h-33q-5 0 -7 3.5t-1 7.5l2 10q0 10 10 10h31l90 850q3 10 12 10zM111 37h352q193 0 348 103.5t242.5 286t87.5 409.5q0 270 -138 432t-378 162h-371
l-84 -826h446q12 0 9 -10l-2 -10q0 -11 -11 -11h-446z" />
    <glyph glyph-name="Ntilde" unicode="&#xd1;" horiz-adv-x="1224" 
d="M653 1862q-64 0 -75 -93q0 -10 -11 -10h-10q-11 0 -8 10q8 53 35 88t73 35q25 0 46.5 -13.5t36.5 -32t29.5 -37.5t34.5 -32.5t44 -13.5q33 0 49.5 23t22.5 69q4 11 12 11h8q5 0 7 -3.5t1 -7.5q-8 -57 -33.5 -89.5t-68.5 -32.5q-27 0 -49.5 13.5t-38 32.5t-30.5 37.5
t-34 32t-41 13.5zM1176 1464h12q11 0 8 -10l-149 -1444q0 -10 -11 -10h-32q-10 0 -13 8l-737 1426l-148 -1424q0 -10 -10 -10h-18q-11 0 -8 10l153 1444q0 10 10 10h35q10 0 13 -8l733 -1411l149 1409q3 10 13 10z" />
    <glyph glyph-name="Ograve" unicode="&#xd2;" horiz-adv-x="1396" 
d="M606 1950h21q9 0 12 -6l186 -218q4 -4 2 -8t-8 -4h-4q-9 0 -12 6l-201 217q-5 5 -3.5 9t7.5 4zM807 1475q240 0 382 -173t142 -458q0 -180 -54.5 -339t-147.5 -272t-222 -178t-274 -65q-157 0 -276 83t-182.5 230t-63.5 336q0 180 54 336.5t146.5 265.5t221 171.5
t274.5 62.5zM803 1440q-184 0 -334 -101t-237 -284t-87 -412q0 -274 134.5 -446t357.5 -172q183 0 334 105.5t238 292.5t87 417q0 270 -133.5 435t-359.5 165z" />
    <glyph glyph-name="Oacute" unicode="&#xd3;" horiz-adv-x="1396" 
d="M1042 1937l-200 -217q-3 -6 -13 -6h-4q-6 0 -8 4t2 8l187 218q3 6 12 6h20q6 0 7.5 -4t-3.5 -9zM807 1475q240 0 382 -173t142 -458q0 -180 -54.5 -339t-147.5 -272t-222 -178t-274 -65q-157 0 -276 83t-182.5 230t-63.5 336q0 180 54 336.5t146.5 265.5t221 171.5
t274.5 62.5zM803 1440q-184 0 -334 -101t-237 -284t-87 -412q0 -274 134.5 -446t357.5 -172q183 0 334 105.5t238 292.5t87 417q0 270 -133.5 435t-359.5 165z" />
    <glyph glyph-name="Ocircumflex" unicode="&#xd4;" horiz-adv-x="1396" 
d="M842 1911l-158 -191q-3 -6 -12 -6h-21q-6 0 -8 4t2 8l182 207q3 6 13 6h10q9 0 12 -6l139 -207q3 -4 1.5 -8t-7.5 -4h-22q-9 0 -12 6l-115 191h-4zM807 1475q240 0 382 -173t142 -458q0 -180 -54.5 -339t-147.5 -272t-222 -178t-274 -65q-157 0 -276 83t-182.5 230
t-63.5 336q0 180 54 336.5t146.5 265.5t221 171.5t274.5 62.5zM637 25q183 0 334 105.5t238 292.5t87 417q0 270 -133.5 435t-359.5 165q-184 0 -334 -101t-237 -284t-87 -412q0 -274 134.5 -446t357.5 -172z" />
    <glyph glyph-name="Otilde" unicode="&#xd5;" horiz-adv-x="1396" 
d="M741 1892q25 0 46.5 -13.5t36.5 -32t29.5 -37.5t34.5 -32.5t44 -13.5q33 0 49.5 23t22.5 69q4 11 12 11h8q5 0 7 -3.5t1 -7.5q-8 -57 -33.5 -89.5t-68.5 -32.5q-27 0 -49.5 13.5t-38 32.5t-30.5 37.5t-34 32t-41 13.5q-64 0 -75 -93q0 -10 -11 -10h-10q-11 0 -8 10
q8 53 35 88t73 35zM807 1475q240 0 382 -173t142 -458q0 -180 -54.5 -339t-147.5 -272t-222 -178t-274 -65q-157 0 -276 83t-182.5 230t-63.5 336q0 180 54 336.5t146.5 265.5t221 171.5t274.5 62.5zM803 1440q-184 0 -334 -101t-237 -284t-87 -412q0 -274 134.5 -446
t357.5 -172q183 0 334 105.5t238 292.5t87 417q0 270 -133.5 435t-359.5 165z" />
    <glyph glyph-name="Odieresis" unicode="&#xd6;" horiz-adv-x="1396" 
d="M707 1896l-11 -106q0 -10 -10 -10h-6q-10 0 -10 10l10 106q0 11 10 11h8q5 0 7.5 -3.5t1.5 -7.5zM934 1896l-10 -106q0 -10 -11 -10h-6q-10 0 -10 10l10 106q0 11 11 11h8q5 0 7 -3.5t1 -7.5zM807 1475q240 0 382 -173t142 -458q0 -180 -54.5 -339t-147.5 -272t-222 -178
t-274 -65q-157 0 -276 83t-182.5 230t-63.5 336q0 180 54 336.5t146.5 265.5t221 171.5t274.5 62.5zM803 1440q-184 0 -334 -101t-237 -284t-87 -412q0 -274 134.5 -446t357.5 -172q183 0 334 105.5t238 292.5t87 417q0 270 -133.5 435t-359.5 165z" />
    <glyph glyph-name="multiply" unicode="&#xd7;" horiz-adv-x="1073" 
d="M553 518l283 -336q6 -8 0 -14l-5 -6q-8 -5 -16 0l-280 338l-353 -338q-8 -8 -14 0l-4 4q-6 8 0 14l354 338l-282 338q-6 9 2 14l4 4q8 8 14 0l283 -335l352 335q7 7 14 0l2 -2q6 -8 0 -14z" />
    <glyph glyph-name="Oslash" unicode="&#xd8;" horiz-adv-x="1529" 
d="M1528 1485l-271 -293q74 -145 74 -348q0 -180 -54.5 -339t-147.5 -272t-222 -178t-274 -65q-208 0 -352 147l-123 -131q-3 -6 -13 -6h-16q-6 0 -7.5 4t3.5 8l137 148q-151 180 -151 479q0 180 54 336.5t146.5 265.5t221 171.5t274.5 62.5t257.5 -66t178.5 -188l252 270
q3 6 12 6h17q4 0 6 -1.5t1.5 -4.5t-3.5 -6zM145 643q0 -283 142 -455l930 1004q-62 118 -169 183t-245 65q-184 0 -334 -101t-237 -284t-87 -412zM1296 840q0 185 -63 323l-926 -997q132 -141 330 -141q183 0 334 105.5t238 292.5t87 417z" />
    <glyph glyph-name="Ugrave" unicode="&#xd9;" horiz-adv-x="1298" 
d="M549 1950h20q10 0 13 -6l186 -218q4 -4 2 -8t-8 -4h-4q-10 0 -13 6l-200 217q-5 5 -3.5 9t7.5 4zM1272 1454l-86 -823q-16 -153 -68 -275t-130.5 -202t-180 -122t-217.5 -42q-115 0 -206.5 42t-153 122t-87.5 202t-10 275l88 823q0 10 10 10h15q11 0 8 -10l-86 -823
q-30 -291 87.5 -448.5t340.5 -157.5q222 0 374.5 158t182.5 448l88 823q0 10 10 10h13q11 0 8 -10z" />
    <glyph glyph-name="Uacute" unicode="&#xda;" horiz-adv-x="1298" 
d="M985 1937l-201 -217q-3 -6 -12 -6h-4q-6 0 -8 4t2 8l186 218q3 6 13 6h20q6 0 7.5 -4t-3.5 -9zM1272 1454l-86 -823q-16 -153 -68 -275t-130.5 -202t-180 -122t-217.5 -42q-115 0 -206.5 42t-153 122t-87.5 202t-10 275l88 823q0 10 10 10h15q11 0 8 -10l-86 -823
q-30 -291 87.5 -448.5t340.5 -157.5q222 0 374.5 158t182.5 448l88 823q0 10 10 10h13q11 0 8 -10z" />
    <glyph glyph-name="Ucircumflex" unicode="&#xdb;" horiz-adv-x="1298" 
d="M784 1911l-157 -191q-3 -6 -13 -6h-20q-6 0 -8 4t2 8l182 207q3 6 12 6h11q9 0 12 -6l139 -207q3 -4 1.5 -8t-7.5 -4h-23q-9 0 -12 6l-115 191h-4zM1251 1464h13q11 0 8 -10l-86 -823q-16 -153 -68 -275t-130.5 -202t-180 -122t-217.5 -42q-115 0 -206.5 42t-153 122
t-87.5 202t-10 275l88 823q0 10 10 10h15q11 0 8 -10l-86 -823q-30 -291 87.5 -448.5t340.5 -157.5q222 0 374.5 158t182.5 448l88 823q0 10 10 10z" />
    <glyph glyph-name="Udieresis" unicode="&#xdc;" horiz-adv-x="1298" 
d="M649 1896l-10 -106q0 -10 -10 -10h-6q-11 0 -11 10l11 106q0 11 10 11h8q5 0 7 -3.5t1 -7.5zM877 1896l-11 -106q0 -10 -10 -10h-6q-10 0 -10 10l10 106q0 11 10 11h8q5 0 7.5 -3.5t1.5 -7.5zM1272 1454l-86 -823q-16 -153 -68 -275t-130.5 -202t-180 -122t-217.5 -42
q-115 0 -206.5 42t-153 122t-87.5 202t-10 275l88 823q0 10 10 10h15q11 0 8 -10l-86 -823q-30 -291 87.5 -448.5t340.5 -157.5q222 0 374.5 158t182.5 448l88 823q0 10 10 10h13q11 0 8 -10z" />
    <glyph glyph-name="Yacute" unicode="&#xdd;" horiz-adv-x="1081" 
d="M887 1937l-201 -217q-3 -6 -12 -6h-4q-6 0 -8 4t2 8l186 218q3 6 12 6h21q6 0 7.5 -4t-3.5 -9zM575 694l-69 -684q0 -10 -10 -10h-19q-11 0 -8 10l72 684l-406 758q-6 12 8 12h15q9 0 12 -8l389 -727h4l547 729q3 6 12 6h11q7 0 9 -4t-3 -8z" />
    <glyph glyph-name="germandbls" unicode="&#xdf;" horiz-adv-x="1032" 
d="M625 786q141 -30 222 -121t81 -229q0 -208 -138.5 -325.5t-396.5 -120.5q-11 0 -8 10l2 14q0 11 10 11q246 3 370 112.5t124 294.5q0 149 -103.5 241t-283.5 95q-11 0 -8 10l2 17q0 8 10 8q187 3 294 98.5t107 253.5q0 121 -75.5 199t-210.5 78q-74 0 -139 -22
t-124.5 -71t-99.5 -139t-53 -215l-103 -975q0 -10 -10 -10h-16q-11 0 -8 10l102 975q14 132 59 229t110 150t135.5 77.5t148.5 24.5q147 0 233 -83.5t86 -223.5q0 -150 -85.5 -246.5t-233.5 -126.5z" />
    <glyph glyph-name="agrave" unicode="&#xe0;" horiz-adv-x="1017" 
d="M373 1538h20q10 0 13 -6l186 -217q4 -5 2 -8.5t-8 -3.5h-4q-10 0 -13 6l-200 217q-5 4 -3.5 8t7.5 4zM582 1065q154 0 224.5 -87t55.5 -239l-76 -729q0 -10 -10 -10h-14q-11 0 -8 10l16 172l-6 4q-66 -90 -168.5 -143t-228.5 -53q-128 0 -205.5 62.5t-77.5 185.5
q0 87 31.5 151t88 105.5t146.5 66.5t195.5 35t245.5 10h22l14 135q14 129 -48.5 209t-203.5 80q-119 0 -208.5 -58.5t-133.5 -164.5q-5 -8 -12 -8h-14q-11 0 -8 10q48 118 148.5 187t234.5 69zM811 569h-23q-131 0 -230.5 -9t-184 -31t-138.5 -59t-84 -93.5t-30 -132.5
q0 -109 68.5 -164t185.5 -55q134 0 241.5 66.5t161.5 162.5z" />
    <glyph glyph-name="aacute" unicode="&#xe1;" horiz-adv-x="1017" 
d="M809 1526l-201 -217q-3 -6 -12 -6h-4q-6 0 -8 3.5t2 8.5l186 217q3 6 12 6h21q6 0 7.5 -4t-3.5 -8zM582 1065q154 0 224.5 -87t55.5 -239l-76 -729q0 -10 -10 -10h-14q-11 0 -8 10l16 172l-6 4q-66 -90 -168.5 -143t-228.5 -53q-128 0 -205.5 62.5t-77.5 185.5
q0 87 31.5 151t88 105.5t146.5 66.5t195.5 35t245.5 10h22l14 135q14 129 -48.5 209t-203.5 80q-119 0 -208.5 -58.5t-133.5 -164.5q-5 -8 -12 -8h-14q-11 0 -8 10q48 118 148.5 187t234.5 69zM811 569h-23q-131 0 -230.5 -9t-184 -31t-138.5 -59t-84 -93.5t-30 -132.5
q0 -109 68.5 -164t185.5 -55q134 0 241.5 66.5t161.5 162.5z" />
    <glyph glyph-name="acircumflex" unicode="&#xe2;" horiz-adv-x="1017" 
d="M608 1499l-157 -190q-3 -6 -13 -6h-20q-6 0 -8 3.5t2 8.5l182 207q3 6 12 6h10q10 0 13 -6l139 -207q3 -5 1.5 -8.5t-7.5 -3.5h-23q-9 0 -12 6l-115 190h-4zM582 1065q154 0 224.5 -87t55.5 -239l-76 -729q0 -10 -10 -10h-14q-11 0 -8 10l16 172l-6 4
q-66 -90 -168.5 -143t-228.5 -53q-128 0 -205.5 62.5t-77.5 185.5q0 87 31.5 151t88 105.5t146.5 66.5t195.5 35t245.5 10h22l14 135q14 129 -48.5 209t-203.5 80q-119 0 -208.5 -58.5t-133.5 -164.5q-5 -8 -12 -8h-14q-11 0 -8 10q48 118 148.5 187t234.5 69zM811 569h-23
q-131 0 -230.5 -9t-184 -31t-138.5 -59t-84 -93.5t-30 -132.5q0 -109 68.5 -164t185.5 -55q134 0 241.5 66.5t161.5 162.5z" />
    <glyph glyph-name="atilde" unicode="&#xe3;" horiz-adv-x="1017" 
d="M508 1481q25 0 46 -13.5t36 -32.5t30 -37.5t34.5 -32t43.5 -13.5q33 0 49.5 23t22.5 69q3 10 12 10h9q11 0 8 -10q-8 -57 -34 -90t-69 -33q-27 0 -49.5 13.5t-38 32.5t-30 37.5t-33.5 32t-41 13.5q-65 0 -76 -92q0 -10 -10 -10h-10q-12 0 -9 10q8 53 35.5 88t73.5 35z
M582 1065q154 0 224.5 -87t55.5 -239l-76 -729q0 -10 -10 -10h-14q-11 0 -8 10l16 172l-6 4q-66 -90 -168.5 -143t-228.5 -53q-128 0 -205.5 62.5t-77.5 185.5q0 87 31.5 151t88 105.5t146.5 66.5t195.5 35t245.5 10h22l14 135q14 129 -48.5 209t-203.5 80
q-119 0 -208.5 -58.5t-133.5 -164.5q-5 -8 -12 -8h-14q-11 0 -8 10q48 118 148.5 187t234.5 69zM811 569h-23q-131 0 -230.5 -9t-184 -31t-138.5 -59t-84 -93.5t-30 -132.5q0 -109 68.5 -164t185.5 -55q134 0 241.5 66.5t161.5 162.5z" />
    <glyph glyph-name="adieresis" unicode="&#xe4;" horiz-adv-x="1017" 
d="M473 1485l-10 -107q0 -10 -10 -10h-7q-10 0 -10 10l10 107q0 10 11 10h8q11 0 8 -10zM700 1485l-10 -107q0 -10 -10 -10h-6q-10 0 -10 10l10 107q0 10 10 10h8q11 0 8 -10zM582 1065q154 0 224.5 -87t55.5 -239l-76 -729q0 -10 -10 -10h-14q-11 0 -8 10l16 172l-6 4
q-66 -90 -168.5 -143t-228.5 -53q-128 0 -205.5 62.5t-77.5 185.5q0 87 31.5 151t88 105.5t146.5 66.5t195.5 35t245.5 10h22l14 135q14 129 -48.5 209t-203.5 80q-119 0 -208.5 -58.5t-133.5 -164.5q-5 -8 -12 -8h-14q-11 0 -8 10q48 118 148.5 187t234.5 69zM811 569h-23
q-131 0 -230.5 -9t-184 -31t-138.5 -59t-84 -93.5t-30 -132.5q0 -109 68.5 -164t185.5 -55q134 0 241.5 66.5t161.5 162.5z" />
    <glyph glyph-name="aring" unicode="&#xe5;" horiz-adv-x="1017" 
d="M614 1542q52 0 84.5 -33t32.5 -88q0 -66 -42.5 -107.5t-102.5 -41.5q-49 0 -82 33.5t-33 87.5q0 65 42.5 107t100.5 42zM612 1513q-46 0 -79 -32t-33 -84q0 -42 25.5 -68t64.5 -26q46 0 79 31.5t33 82.5q0 43 -25.5 69.5t-64.5 26.5zM582 1065q154 0 224.5 -87t55.5 -239
l-76 -729q0 -10 -10 -10h-14q-11 0 -8 10l16 172l-6 4q-66 -90 -168.5 -143t-228.5 -53q-128 0 -205.5 62.5t-77.5 185.5q0 87 31.5 151t88 105.5t146.5 66.5t195.5 35t245.5 10h22l14 135q14 129 -48.5 209t-203.5 80q-119 0 -208.5 -58.5t-133.5 -164.5q-5 -8 -12 -8h-14
q-11 0 -8 10q48 118 148.5 187t234.5 69zM811 569h-23q-131 0 -230.5 -9t-184 -31t-138.5 -59t-84 -93.5t-30 -132.5q0 -109 68.5 -164t185.5 -55q134 0 241.5 66.5t161.5 162.5z" />
    <glyph glyph-name="ae" unicode="&#xe6;" horiz-adv-x="1761" 
d="M846 569l-12 -116q-2 -88 19 -164.5t63.5 -136t112 -93.5t159.5 -34q242 0 371 213q3 6 12 6h14q6 0 8 -4t-2 -9q-145 -241 -407 -241q-151 0 -249 91t-126 247h-6q-60 -163 -172.5 -245.5t-261.5 -82.5q-129 0 -207 60t-78 180q0 107 46.5 179.5t141.5 113t219 57
t300 16.5h22l12 115q16 147 -46 233t-204 86q-119 0 -208.5 -58.5t-133.5 -164.5q-5 -8 -12 -8h-12q-11 0 -8 12q48 118 147 186t234 68q146 0 216 -81.5t64 -233.5q65 138 179.5 216.5t252.5 78.5q181 0 278.5 -134.5t78.5 -340.5q0 -11 -11 -11h-794zM1290 1020
q-156 0 -277.5 -112.5t-160.5 -303.5h768q9 182 -80 299t-250 117zM375 35q72 0 138 24.5t125 74t101.5 136.5t59.5 201q4 68 8 98h-19q-166 0 -283 -15t-206.5 -50.5t-133.5 -99.5t-44 -158q0 -104 68.5 -157.5t185.5 -53.5z" />
    <glyph glyph-name="ccedilla" unicode="&#xe7;" horiz-adv-x="974" 
d="M598 1024q-106 0 -193.5 -48t-143.5 -128.5t-86 -181.5t-30 -211q0 -88 21 -164t62.5 -136.5t109.5 -95t154 -34.5q121 0 214.5 56.5t145.5 154.5q3 8 12 8h17q15 0 8 -13q-135 -241 -402 -241l-51 -133q80 -10 130 -48.5t50 -109.5q0 -77 -53 -129.5t-145 -52.5
q-71 0 -135 37q-7 2 -4 12l6 12q4 11 14 4q50 -33 125 -33q71 0 114.5 40t43.5 104q0 112 -176 133h-5q-11 3 -8 12l60 154q-160 12 -252 137t-92 320q0 264 137 437t354 173q135 0 222.5 -66.5t125.5 -187.5q3 -12 -8 -12h-18q-8 0 -11 8q-32 105 -111 164t-202 59z" />
    <glyph glyph-name="egrave" unicode="&#xe8;" horiz-adv-x="1067" 
d="M410 1538h20q9 0 12 -6l187 -217q4 -5 2 -8.5t-8 -3.5h-5q-9 0 -12 6l-200 217q-3 3 -3.5 6t1.5 4.5t6 1.5zM602 1055q181 0 278 -134.5t78 -340.5q0 -11 -10 -11h-796q-12 -85 -10 -164t28 -148t67.5 -120.5t108 -81.5t150.5 -30q241 0 370 213q3 6 13 6h14q6 0 8 -4
t-2 -9q-145 -241 -407 -241q-180 0 -283 127t-103 332q0 178 67.5 317.5t180 214t248.5 74.5zM598 1020q-156 0 -277.5 -112.5t-160.5 -303.5h768q9 182 -80 299t-250 117z" />
    <glyph glyph-name="eacute" unicode="&#xe9;" horiz-adv-x="1067" 
d="M846 1526l-201 -217q-3 -6 -12 -6h-4q-6 0 -8 3.5t2 8.5l186 217q3 6 12 6h21q4 0 6 -1.5t1.5 -4.5t-3.5 -6zM602 1055q181 0 278 -134.5t78 -340.5q0 -11 -10 -11h-796q-12 -85 -10 -164t28 -148t67.5 -120.5t108 -81.5t150.5 -30q241 0 370 213q3 6 13 6h14q6 0 8 -4
t-2 -9q-145 -241 -407 -241q-180 0 -283 127t-103 332q0 178 67.5 317.5t180 214t248.5 74.5zM598 1020q-156 0 -277.5 -112.5t-160.5 -303.5h768q9 182 -80 299t-250 117z" />
    <glyph glyph-name="ecircumflex" unicode="&#xea;" horiz-adv-x="1067" 
d="M645 1499l-158 -190q-3 -6 -12 -6h-20q-6 0 -8 3.5t2 8.5l182 207q3 6 12 6h10q10 0 13 -6l139 -207q3 -5 1.5 -8.5t-7.5 -3.5h-23q-9 0 -12 6l-115 190h-4zM948 569h-796q-12 -85 -10 -164t28 -148t67.5 -120.5t108 -81.5t150.5 -30q241 0 370 213q3 6 13 6h14q6 0 8 -4
t-2 -9q-145 -241 -407 -241q-180 0 -283 127t-103 332q0 178 67.5 317.5t180 214t248.5 74.5q181 0 278 -134.5t78 -340.5q0 -11 -10 -11zM598 1020q-156 0 -277.5 -112.5t-160.5 -303.5h768q9 182 -80 299t-250 117z" />
    <glyph glyph-name="edieresis" unicode="&#xeb;" horiz-adv-x="1067" 
d="M510 1485l-10 -107q0 -10 -11 -10h-6q-10 0 -10 10l10 107q0 10 11 10h8q11 0 8 -10zM737 1485l-10 -107q0 -10 -10 -10h-6q-11 0 -11 10l11 107q0 10 10 10h8q11 0 8 -10zM602 1055q181 0 278 -134.5t78 -340.5q0 -11 -10 -11h-796q-12 -85 -10 -164t28 -148
t67.5 -120.5t108 -81.5t150.5 -30q241 0 370 213q3 6 13 6h14q6 0 8 -4t-2 -9q-145 -241 -407 -241q-180 0 -283 127t-103 332q0 178 67.5 317.5t180 214t248.5 74.5zM598 1020q-156 0 -277.5 -112.5t-160.5 -303.5h768q9 182 -80 299t-250 117z" />
    <glyph glyph-name="igrave" unicode="&#xec;" horiz-adv-x="428" 
d="M80 1538h20q10 0 13 -6l186 -217q4 -5 2 -8.5t-8 -3.5h-4q-10 0 -13 6l-200 217q-3 3 -3.5 6t1.5 4.5t6 1.5zM285 1044l-109 -1034q0 -10 -10 -10h-14q-12 0 -9 10l109 1034q0 11 10 11h14q5 0 7.5 -3.5t1.5 -7.5z" />
    <glyph glyph-name="iacute" unicode="&#xed;" horiz-adv-x="428" 
d="M516 1526l-201 -217q-3 -6 -12 -6h-4q-6 0 -8 3.5t2 8.5l186 217q3 6 13 6h20q4 0 6 -1.5t1.5 -4.5t-3.5 -6zM285 1044l-109 -1034q0 -10 -10 -10h-14q-12 0 -9 10l109 1034q0 11 10 11h14q5 0 7.5 -3.5t1.5 -7.5z" />
    <glyph glyph-name="icircumflex" unicode="&#xee;" horiz-adv-x="428" 
d="M336 1522l139 -207q3 -5 1.5 -8.5t-7.5 -3.5h-23q-9 0 -12 6l-115 190h-4l-157 -190q-3 -6 -13 -6h-20q-6 0 -8 3.5t2 8.5l182 207q3 6 12 6h11q9 0 12 -6zM143 10l109 1034q0 11 10 11h14q5 0 7.5 -3.5t1.5 -7.5l-109 -1034q0 -10 -10 -10h-14q-12 0 -9 10z" />
    <glyph glyph-name="idieresis" unicode="&#xef;" horiz-adv-x="428" 
d="M180 1485l-10 -107q0 -10 -10 -10h-6q-11 0 -11 10l11 107q0 10 10 10h8q11 0 8 -10zM408 1485l-11 -107q0 -10 -10 -10h-6q-10 0 -10 10l10 107q0 10 10 10h8q12 0 9 -10zM285 1044l-109 -1034q0 -10 -10 -10h-14q-12 0 -9 10l109 1034q0 11 10 11h14q5 0 7.5 -3.5
t1.5 -7.5z" />
    <glyph glyph-name="ntilde" unicode="&#xf1;" horiz-adv-x="1060" 
d="M530 1481q25 0 46.5 -13.5t36.5 -32.5t29.5 -37.5t34.5 -32t44 -13.5q33 0 49.5 23t22.5 69q3 10 12 10h8q11 0 8 -10q-17 -123 -102 -123q-27 0 -49.5 13.5t-38 32.5t-30.5 37.5t-34 32t-41 13.5q-64 0 -75 -92q0 -10 -11 -10h-10q-11 0 -8 10q8 53 35 88t73 35z
M651 1065q137 0 205 -83t51 -247l-78 -725q0 -10 -10 -10h-12q-11 0 -8 10l73 719q15 150 -45.5 225.5t-183.5 75.5q-110 0 -207 -56.5t-194 -164.5l-84 -799q-3 -10 -13 -10h-14q-11 0 -8 10l108 1034q0 11 11 11h14q5 0 7 -3.5t1 -7.5l-18 -178l8 -4q191 203 397 203z" />
    <glyph glyph-name="ograve" unicode="&#xf2;" horiz-adv-x="1099" 
d="M465 1538h20q10 0 13 -6l186 -217q4 -5 2 -8.5t-8 -3.5h-4q-9 0 -12 6l-201 217q-5 4 -3.5 8t7.5 4zM612 1065q171 0 275 -125.5t104 -331.5q0 -174 -66.5 -316t-182.5 -222t-257 -80q-169 0 -272.5 131t-103.5 338q0 175 66 314t181 215.5t256 76.5zM608 1030
q-199 0 -332 -160t-133 -409q0 -194 94.5 -315t251.5 -121q129 0 236 75t169 208t62 296q0 193 -94.5 309.5t-253.5 116.5z" />
    <glyph glyph-name="oacute" unicode="&#xf3;" horiz-adv-x="1099" 
d="M901 1526l-201 -217q-3 -6 -12 -6h-4q-6 0 -8 3.5t2 8.5l186 217q3 6 13 6h20q6 0 7.5 -4t-3.5 -8zM612 1065q171 0 275 -125.5t104 -331.5q0 -174 -66.5 -316t-182.5 -222t-257 -80q-169 0 -272.5 131t-103.5 338q0 175 66 314t181 215.5t256 76.5zM608 1030
q-199 0 -332 -160t-133 -409q0 -194 94.5 -315t251.5 -121q129 0 236 75t169 208t62 296q0 193 -94.5 309.5t-253.5 116.5z" />
    <glyph glyph-name="ocircumflex" unicode="&#xf4;" horiz-adv-x="1099" 
d="M700 1499l-157 -190q-3 -6 -13 -6h-20q-6 0 -8 3.5t2 8.5l182 207q3 6 12 6h11q9 0 12 -6l139 -207q3 -5 1.5 -8.5t-7.5 -3.5h-23q-9 0 -12 6l-114 190h-5zM612 1065q171 0 275 -125.5t104 -331.5q0 -174 -66.5 -316t-182.5 -222t-257 -80q-169 0 -272.5 131t-103.5 338
q0 175 66 314t181 215.5t256 76.5zM489 25q129 0 236 75t169 208t62 296q0 193 -94.5 309.5t-253.5 116.5q-199 0 -332 -160t-133 -409q0 -194 94.5 -315t251.5 -121z" />
    <glyph glyph-name="otilde" unicode="&#xf5;" horiz-adv-x="1099" 
d="M600 1481q25 0 46.5 -13.5t36.5 -32.5t29.5 -37.5t34.5 -32t44 -13.5q33 0 48.5 23t22.5 69q3 10 12 10h9q11 0 8 -10q-8 -57 -34 -90t-69 -33q-27 0 -49.5 13.5t-38 32.5t-30 37.5t-33.5 32t-41 13.5q-65 0 -76 -92q0 -10 -10 -10h-10q-11 0 -8 10q8 53 35 88t73 35z
M612 1065q171 0 275 -125.5t104 -331.5q0 -174 -66.5 -316t-182.5 -222t-257 -80q-169 0 -272.5 131t-103.5 338q0 175 66 314t181 215.5t256 76.5zM608 1030q-199 0 -332 -160t-133 -409q0 -194 94.5 -315t251.5 -121q129 0 236 75t169 208t62 296q0 193 -94.5 309.5
t-253.5 116.5z" />
    <glyph glyph-name="odieresis" unicode="&#xf6;" horiz-adv-x="1099" 
d="M565 1485l-10 -107q0 -10 -10 -10h-6q-11 0 -11 10l11 107q0 10 10 10h8q11 0 8 -10zM793 1485l-11 -107q0 -10 -10 -10h-6q-10 0 -10 10l10 107q0 10 10 10h8q12 0 9 -10zM612 1065q171 0 275 -125.5t104 -331.5q0 -174 -66.5 -316t-182.5 -222t-257 -80
q-169 0 -272.5 131t-103.5 338q0 175 66 314t181 215.5t256 76.5zM608 1030q-199 0 -332 -160t-133 -409q0 -194 94.5 -315t251.5 -121q129 0 236 75t169 208t62 296q0 193 -94.5 309.5t-253.5 116.5z" />
    <glyph glyph-name="divide" unicode="&#xf7;" horiz-adv-x="1196" 
d="M647 913l-12 -118q0 -11 -10 -11h-21q-5 0 -7 3.5t-1 7.5l12 118q0 11 10 11h21q5 0 7 -3.5t1 -7.5zM1004 557l-3 -12q-3 -8 -12 -8h-782q-13 0 -10 10l2 12q3 8 12 8h782q6 0 9 -3t2 -7zM590 293l-12 -119q0 -10 -11 -10h-20q-11 0 -8 10l12 119q0 10 10 10h21
q11 0 8 -10z" />
    <glyph glyph-name="oslash" unicode="&#xf8;" horiz-adv-x="1138" 
d="M1071 1042l-143 -161q63 -114 63 -273q0 -174 -66.5 -316t-182.5 -222t-257 -80q-154 0 -252 106l-81 -90q-3 -6 -13 -6h-16q-6 0 -7.5 4t1.5 8l96 109q-104 125 -104 338q0 175 66 314t181 215.5t256 76.5q96 0 172.5 -41t126.5 -117l127 142q3 6 13 6h14q6 0 7.5 -4.5
t-1.5 -8.5zM143 461q0 -196 95 -314l649 732q-44 72 -116.5 111.5t-162.5 39.5q-199 0 -332 -160t-133 -409zM956 604q0 141 -55 248l-645 -729q95 -98 233 -98q129 0 236 75t169 208t62 296z" />
    <glyph glyph-name="ugrave" unicode="&#xf9;" horiz-adv-x="1062" 
d="M397 1538h21q9 0 12 -6l186 -217q4 -5 2 -8.5t-8 -3.5h-4q-9 0 -12 6l-201 217q-5 4 -3.5 8t7.5 4zM940 1044l-109 -1034q-3 -10 -12 -10h-12q-11 0 -8 10l18 178l-8 5q-87 -91 -182 -147t-213 -56q-137 0 -207 83.5t-53 245.5l77 725q0 11 11 11h14q5 0 7 -3.5t1 -7.5
l-74 -718q-15 -150 46 -225.5t186 -75.5q109 0 206 57t195 164l84 798q4 11 13 11h12q5 0 7 -3.5t1 -7.5z" />
    <glyph glyph-name="uacute" unicode="&#xfa;" horiz-adv-x="1062" 
d="M834 1526l-201 -217q-3 -6 -12 -6h-5q-6 0 -8 3.5t2 8.5l187 217q3 6 12 6h20q6 0 7.5 -4t-2.5 -8zM940 1044l-109 -1034q-3 -10 -12 -10h-12q-11 0 -8 10l18 178l-8 5q-87 -91 -182 -147t-213 -56q-137 0 -207 83.5t-53 245.5l77 725q0 11 11 11h14q5 0 7 -3.5t1 -7.5
l-74 -718q-15 -150 46 -225.5t186 -75.5q109 0 206 57t195 164l84 798q4 11 13 11h12q5 0 7 -3.5t1 -7.5z" />
    <glyph glyph-name="ucircumflex" unicode="&#xfb;" horiz-adv-x="1062" 
d="M633 1499l-158 -190q-3 -6 -12 -6h-21q-6 0 -8 3.5t2 8.5l182 207q3 6 13 6h10q9 0 12 -6l140 -207q3 -5 1 -8.5t-8 -3.5h-22q-9 0 -12 6l-115 190h-4zM920 1055h12q5 0 7 -3.5t1 -7.5l-111 -1034q0 -10 -10 -10h-12q-11 0 -8 10l18 178l-8 5q-87 -91 -182 -147t-213 -56
q-137 0 -207 83.5t-53 245.5l77 725q0 11 11 11h14q5 0 7 -3.5t1 -7.5l-74 -718q-15 -150 46 -225.5t186 -75.5q109 0 206 57t195 164l84 798q4 11 13 11z" />
    <glyph glyph-name="udieresis" unicode="&#xfc;" horiz-adv-x="1062" 
d="M498 1485l-11 -107q0 -10 -10 -10h-6q-10 0 -10 10l10 107q0 10 10 10h8q12 0 9 -10zM725 1485l-10 -107q0 -10 -10 -10h-7q-10 0 -10 10l10 107q0 10 11 10h8q11 0 8 -10zM940 1044l-109 -1034q-3 -10 -12 -10h-12q-11 0 -8 10l18 178l-8 5q-87 -91 -182 -147t-213 -56
q-137 0 -207 83.5t-53 245.5l77 725q0 11 11 11h14q5 0 7 -3.5t1 -7.5l-74 -718q-15 -150 46 -225.5t186 -75.5q109 0 206 57t195 164l84 798q4 11 13 11h12q5 0 7 -3.5t1 -7.5z" />
    <glyph glyph-name="yacute" unicode="&#xfd;" horiz-adv-x="866" 
d="M737 1526l-200 -217q-3 -6 -13 -6h-4q-6 0 -8 3.5t2 8.5l186 217q3 6 13 6h20q6 0 7.5 -4t-3.5 -8zM854 1055h14q12 0 6 -13l-671 -1484q-3 -9 -13 -9h-22q-12 0 -6 13l190 415l-254 1065q-3 13 11 13h16q7 0 10 -8l240 -1008h6l461 1008q3 8 12 8z" />
    <glyph glyph-name="ydieresis" unicode="&#xff;" horiz-adv-x="866" 
d="M401 1485l-10 -107q0 -10 -10 -10h-6q-10 0 -10 10l10 107q0 10 10 10h8q11 0 8 -10zM629 1485l-11 -107q0 -10 -10 -10h-6q-10 0 -10 10l10 107q0 10 10 10h9q11 0 8 -10zM854 1055h14q12 0 6 -13l-671 -1484q-3 -9 -13 -9h-22q-12 0 -6 13l190 415l-254 1065
q-3 13 11 13h16q7 0 10 -8l240 -1008h6l461 1008q3 8 12 8z" />
    <glyph glyph-name="Amacron" unicode="&#x100;" horiz-adv-x="1155" 
d="M877 1827v-10q0 -11 -11 -11h-303q-10 0 -10 11l2 10q0 10 10 10h303q12 0 9 -10zM903 516h-653l-236 -508q-3 -8 -12 -8h-14q-12 0 -6 12l667 1444q3 8 13 8h28q7 0 10 -8l367 -1444q0 -12 -10 -12h-15q-7 0 -10 8zM893 553l-223 868l-404 -868h627z" />
    <glyph glyph-name="amacron" unicode="&#x101;" horiz-adv-x="1017" 
d="M762 1415v-10q0 -10 -10 -10h-303q-11 0 -11 10l2 10q0 10 11 10h303q11 0 8 -10zM582 1065q154 0 224.5 -87t55.5 -239l-76 -729q0 -10 -10 -10h-14q-11 0 -8 10l16 172l-6 4q-66 -90 -168.5 -143t-228.5 -53q-128 0 -205.5 62.5t-77.5 185.5q0 87 31.5 151t88 105.5
t146.5 66.5t195.5 35t245.5 10h22l14 135q14 129 -48.5 209t-203.5 80q-119 0 -208.5 -58.5t-133.5 -164.5q-5 -8 -12 -8h-14q-11 0 -8 10q48 118 148.5 187t234.5 69zM811 569h-23q-131 0 -230.5 -9t-184 -31t-138.5 -59t-84 -93.5t-30 -132.5q0 -109 68.5 -164t185.5 -55
q134 0 241.5 66.5t161.5 162.5z" />
    <glyph glyph-name="Abreve" unicode="&#x102;" horiz-adv-x="1155" 
d="M700 1704q-81 0 -125.5 45.5t-37.5 134.5l2 12q0 11 10 11h12q10 0 10 -11l-2 -12q-13 -147 136 -147q70 0 116 35t53 112l3 12q0 11 10 11h10q10 0 10 -11l-2 -12q-7 -88 -65 -134t-140 -46zM903 516h-653l-236 -508q-3 -8 -12 -8h-14q-12 0 -6 12l667 1444q3 8 13 8h28
q7 0 10 -8l367 -1444q0 -12 -10 -12h-15q-7 0 -10 8zM893 553l-223 868l-404 -868h627z" />
    <glyph glyph-name="abreve" unicode="&#x103;" horiz-adv-x="1017" 
d="M793 1485l-2 -12q-7 -88 -65 -134.5t-140 -46.5q-81 0 -126 46t-38 135l2 12q0 10 10 10h12q11 0 11 -10l-2 -12q-14 -148 135 -148q70 0 116.5 35.5t53.5 112.5l2 12q0 10 10 10h10q11 0 11 -10zM582 1065q154 0 224.5 -87t55.5 -239l-76 -729q0 -10 -10 -10h-14
q-11 0 -8 10l16 172l-6 4q-66 -90 -168.5 -143t-228.5 -53q-128 0 -205.5 62.5t-77.5 185.5q0 87 31.5 151t88 105.5t146.5 66.5t195.5 35t245.5 10h22l14 135q14 129 -48.5 209t-203.5 80q-119 0 -208.5 -58.5t-133.5 -164.5q-5 -8 -12 -8h-14q-11 0 -8 10
q48 118 148.5 187t234.5 69zM811 569h-23q-131 0 -230.5 -9t-184 -31t-138.5 -59t-84 -93.5t-30 -132.5q0 -109 68.5 -164t185.5 -55q134 0 241.5 66.5t161.5 162.5z" />
    <glyph glyph-name="Cacute" unicode="&#x106;" horiz-adv-x="1325" 
d="M1008 1935l-201 -217q-3 -6 -12 -6h-4q-6 0 -8.5 4t1.5 8l187 218q3 6 12 6h21q6 0 7.5 -4t-3.5 -9zM807 1475q171 0 291.5 -89t173.5 -247q3 -13 -8 -13h-19q-7 0 -10 9q-50 142 -162.5 223.5t-269.5 81.5q-188 0 -338.5 -101.5t-235 -284t-84.5 -411.5
q0 -274 134.5 -446t357.5 -172q178 0 318.5 95t224.5 275q3 8 12 8h14q12 0 6 -12q-87 -194 -238 -297.5t-341 -103.5q-157 0 -276 83t-182.5 230t-63.5 336q0 180 54 336.5t146.5 265.5t221 171.5t274.5 62.5z" />
    <glyph glyph-name="cacute" unicode="&#x107;" horiz-adv-x="974" 
d="M842 1526l-201 -217q-3 -6 -12 -6h-4q-6 0 -8.5 3.5t1.5 8.5l187 217q3 6 12 6h21q4 0 6 -1.5t1.5 -4.5t-3.5 -6zM600 1059q135 0 222.5 -66.5t125.5 -187.5q3 -12 -8 -12h-18q-8 0 -11 8q-32 104 -112 163.5t-201 59.5q-106 0 -193.5 -48t-143.5 -128.5t-86 -181.5
t-30 -211q0 -88 21 -164t62.5 -136.5t109.5 -95t154 -34.5q121 0 214.5 56.5t145.5 154.5q3 8 12 8h17q15 0 8 -13q-135 -241 -402 -241q-177 0 -277.5 127t-100.5 332q0 264 137 437t354 173z" />
    <glyph glyph-name="Cdotaccent" unicode="&#x10a;" horiz-adv-x="1325" 
d="M823 1894l-10 -106q-3 -10 -12 -10h-15q-11 0 -8 10l13 106q0 11 10 11h14q5 0 7 -3.5t1 -7.5zM807 1475q171 0 291.5 -89t173.5 -247q3 -13 -8 -13h-19q-7 0 -10 9q-50 142 -162.5 223.5t-269.5 81.5q-188 0 -338.5 -101.5t-235 -284t-84.5 -411.5q0 -274 134.5 -446
t357.5 -172q178 0 318.5 95t224.5 275q3 8 12 8h14q12 0 6 -12q-87 -194 -238 -297.5t-341 -103.5q-157 0 -276 83t-182.5 230t-63.5 336q0 180 54 336.5t146.5 265.5t221 171.5t274.5 62.5z" />
    <glyph glyph-name="cdotaccent" unicode="&#x10b;" horiz-adv-x="974" 
d="M657 1485l-10 -107q-3 -10 -12 -10h-14q-12 0 -9 10l13 107q0 10 10 10h14q11 0 8 -10zM600 1059q135 0 222.5 -66.5t125.5 -187.5q3 -12 -8 -12h-18q-8 0 -11 8q-32 104 -112 163.5t-201 59.5q-106 0 -193.5 -48t-143.5 -128.5t-86 -181.5t-30 -211q0 -88 21 -164
t62.5 -136.5t109.5 -95t154 -34.5q121 0 214.5 56.5t145.5 154.5q3 8 12 8h17q15 0 8 -13q-135 -241 -402 -241q-177 0 -277.5 127t-100.5 332q0 264 137 437t354 173z" />
    <glyph glyph-name="Ccaron" unicode="&#x10c;" horiz-adv-x="1325" 
d="M791 1714h-11q-9 0 -12 6l-139 207q-3 5 -1.5 8.5t7.5 3.5h22q10 0 13 -6l114 -190h4l158 190q3 6 12 6h21q6 0 8 -3.5t-2 -8.5l-182 -207q-3 -6 -12 -6zM803 1440q-188 0 -338.5 -101.5t-235 -284t-84.5 -411.5q0 -274 134.5 -446t357.5 -172q178 0 318.5 95t224.5 275
q3 8 12 8h14q12 0 6 -12q-87 -194 -238 -297.5t-341 -103.5q-157 0 -276 83t-182.5 230t-63.5 336q0 180 54 336.5t146.5 265.5t221 171.5t274.5 62.5q171 0 291.5 -89t173.5 -247q3 -13 -8 -13h-19q-7 0 -10 9q-51 143 -162.5 224t-269.5 81z" />
    <glyph glyph-name="ccaron" unicode="&#x10d;" horiz-adv-x="974" 
d="M625 1305h-11q-9 0 -12 6l-139 207q-3 4 -1.5 8t7.5 4h23q9 0 12 -6l114 -191h5l157 191q3 6 13 6h20q6 0 8 -4t-2 -8l-182 -207q-3 -6 -12 -6zM598 1024q-106 0 -193.5 -48t-143.5 -128.5t-86 -181.5t-30 -211q0 -88 21 -164t62.5 -136.5t109.5 -95t154 -34.5
q121 0 214.5 56.5t145.5 154.5q3 8 12 8h17q15 0 8 -13q-135 -241 -402 -241q-177 0 -277.5 127t-100.5 332q0 264 137 437t354 173q135 0 222.5 -66.5t125.5 -187.5q3 -12 -8 -12h-18q-8 0 -11 8q-32 105 -111 164t-202 59z" />
    <glyph glyph-name="Dcaron" unicode="&#x10e;" horiz-adv-x="1239" 
d="M637 1714h-10q-10 0 -13 6l-139 207q-3 5 -1.5 8.5t7.5 3.5h23q9 0 12 -6l115 -190h4l158 190q3 6 12 6h20q6 0 8 -3.5t-2 -8.5l-182 -207q-3 -6 -12 -6zM233 1464h406q250 0 392.5 -169t142.5 -451q0 -238 -89 -430.5t-251 -303t-365 -110.5h-391q-11 0 -8 10l153 1444
q0 10 10 10zM111 37h352q193 0 348 103.5t242.5 286t87.5 409.5q0 270 -138 432t-378 162h-371z" />
    <glyph glyph-name="dcaron" unicode="&#x10f;" horiz-adv-x="1142" 
d="M1282 1550l-37 -329q-4 -11 -12 -11h-10q-5 0 -7.5 3.5t-1.5 7.5l35 329q4 11 13 11h12q5 0 7 -3.5t1 -7.5zM1067 1485l-156 -1475q0 -10 -10 -10h-14q-11 0 -8 10l16 162l-8 2q-68 -88 -172 -136t-217 -48q-179 0 -284 127.5t-105 335.5q0 269 143.5 440.5t359.5 171.5
q112 0 200 -53t146 -150l9 4l65 619q3 10 12 10h15q11 0 8 -10zM608 1030q-199 0 -332 -160t-133 -411q0 -194 97 -314t264 -120q118 0 225 58t174 165l55 538q-55 118 -143.5 181t-206.5 63z" />
    <glyph glyph-name="Emacron" unicode="&#x112;" horiz-adv-x="1042" 
d="M784 1827v-10q0 -11 -10 -11h-303q-10 0 -10 11l2 10q0 10 10 10h303q11 0 8 -10zM254 1430l-66 -635h637q5 0 7.5 -3.5t1.5 -7.5l-3 -16q0 -10 -10 -10h-637l-73 -723h778q11 0 8 -10l-2 -15q0 -10 -10 -10h-807q-11 0 -8 10l153 1444q0 10 10 10h795q11 0 8 -10l-2 -14
q0 -10 -10 -10h-770z" />
    <glyph glyph-name="emacron" unicode="&#x113;" horiz-adv-x="1067" 
d="M799 1415v-10q0 -10 -11 -10h-303q-10 0 -10 10l2 10q0 10 10 10h304q11 0 8 -10zM602 1055q181 0 278 -134.5t78 -340.5q0 -11 -10 -11h-796q-12 -85 -10 -164t28 -148t67.5 -120.5t108 -81.5t150.5 -30q241 0 370 213q3 6 13 6h14q6 0 8 -4t-2 -9q-145 -241 -407 -241
q-180 0 -283 127t-103 332q0 178 67.5 317.5t180 214t248.5 74.5zM598 1020q-156 0 -277.5 -112.5t-160.5 -303.5h768q9 182 -80 299t-250 117z" />
    <glyph glyph-name="Edotaccent" unicode="&#x116;" horiz-adv-x="1042" 
d="M647 1896l-10 -106q-3 -10 -12 -10h-15q-11 0 -8 10l12 106q0 11 11 11h14q5 0 7 -3.5t1 -7.5zM254 1430l-66 -635h637q5 0 7.5 -3.5t1.5 -7.5l-3 -16q0 -10 -10 -10h-637l-73 -723h778q11 0 8 -10l-2 -15q0 -10 -10 -10h-807q-11 0 -8 10l153 1444q0 10 10 10h795
q11 0 8 -10l-2 -14q0 -10 -10 -10h-770z" />
    <glyph glyph-name="edotaccent" unicode="&#x117;" horiz-adv-x="1067" 
d="M662 1485l-11 -107q-3 -10 -12 -10h-14q-12 0 -9 10l13 107q0 10 10 10h14q12 0 9 -10zM602 1055q181 0 278 -134.5t78 -340.5q0 -11 -10 -11h-796q-12 -85 -10 -164t28 -148t67.5 -120.5t108 -81.5t150.5 -30q241 0 370 213q3 6 13 6h14q6 0 8 -4t-2 -9
q-145 -241 -407 -241q-180 0 -283 127t-103 332q0 178 67.5 317.5t180 214t248.5 74.5zM598 1020q-156 0 -277.5 -112.5t-160.5 -303.5h768q9 182 -80 299t-250 117z" />
    <glyph glyph-name="Ecaron" unicode="&#x11a;" horiz-adv-x="1042" 
d="M614 1716h-10q-9 0 -12 6l-139 207q-3 5 -1.5 9t7.5 4h22q9 0 13 -7l114 -190h4l158 190q4 7 12 7h21q6 0 8 -4t-2 -9l-182 -207q-3 -6 -13 -6zM254 1430l-66 -635h637q5 0 7.5 -3.5t1.5 -7.5l-3 -16q0 -10 -10 -10h-637l-73 -723h778q11 0 8 -10l-2 -15q0 -10 -10 -10
h-807q-11 0 -8 10l153 1444q0 10 10 10h795q11 0 8 -10l-2 -14q0 -10 -10 -10h-770z" />
    <glyph glyph-name="ecaron" unicode="&#x11b;" horiz-adv-x="1067" 
d="M629 1305h-11q-9 0 -12 6l-139 207q-3 4 -1.5 8t7.5 4h23q9 0 12 -6l115 -191h4l157 191q3 6 13 6h20q6 0 8 -4t-2 -8l-182 -207q-3 -6 -12 -6zM948 569h-796q-12 -85 -10 -164t28 -148t67.5 -120.5t108 -81.5t150.5 -30q241 0 370 213q3 6 13 6h14q6 0 8 -4t-2 -9
q-145 -241 -407 -241q-180 0 -283 127t-103 332q0 178 67.5 317.5t180 214t248.5 74.5q181 0 278 -134.5t78 -340.5q0 -11 -10 -11zM598 1020q-156 0 -277.5 -112.5t-160.5 -303.5h768q9 182 -80 299t-250 117z" />
    <glyph glyph-name="Gbreve" unicode="&#x11e;" horiz-adv-x="1359" 
d="M827 1702q-81 0 -125.5 45.5t-37.5 134.5l2 12q0 11 10 11h12q10 0 10 -11l-2 -12q-13 -147 135 -147q70 0 116.5 35t53.5 112l3 12q0 11 10 11h10q10 0 10 -11l-2 -12q-7 -88 -65 -134t-140 -46zM836 657l436 2q11 0 8 -10q-16 -159 -75 -286t-147 -207.5t-196.5 -123
t-228.5 -42.5q-157 0 -276 83t-182.5 230t-63.5 336q0 180 54 336.5t146.5 265.5t221 171.5t274.5 62.5q175 0 296.5 -87.5t168.5 -238.5q3 -12 -8 -12h-19q-7 0 -10 8q-45 135 -159 215t-273 80q-185 0 -335 -101t-236.5 -284t-86.5 -412q0 -274 134.5 -446t357.5 -172
q109 0 208.5 38t182.5 110t140.5 188t76.5 262l-414 2q-11 0 -8 10l2 12q0 10 11 10z" />
    <glyph glyph-name="gbreve" unicode="&#x11f;" horiz-adv-x="1142" 
d="M854 1485l-2 -12q-7 -88 -65 -134.5t-140 -46.5q-81 0 -126 46t-38 135l2 12q0 10 11 10h12q10 0 10 -10l-2 -12q-14 -148 135 -148q70 0 116.5 35.5t53.5 112.5l2 12q0 10 11 10h10q10 0 10 -10zM612 1065q112 0 205.5 -48t143.5 -136l8 2l16 161q4 11 12 11h15
q5 0 7 -3.5t1 -7.5l-102 -985q-26 -246 -142.5 -383t-324.5 -137q-287 0 -363 262q0 13 10 13h15q7 0 10 -9q74 -231 336 -231q187 0 294 127.5t132 368.5l12 118l-8 5q-166 -193 -389 -193q-179 0 -285 124t-106 337q0 266 141 435t362 169zM610 1030q-138 0 -245 -73.5
t-164.5 -203t-57.5 -292.5q0 -197 97.5 -311.5t261.5 -114.5q238 0 403 233l56 539q-43 107 -138 165t-213 58z" />
    <glyph glyph-name="Gdotaccent" unicode="&#x120;" horiz-adv-x="1359" 
d="M866 1894l-10 -106q-3 -10 -12 -10h-15q-11 0 -8 10l13 106q0 11 10 11h14q5 0 7 -3.5t1 -7.5zM836 657l436 2q11 0 8 -10q-16 -159 -75 -286t-147 -207.5t-196.5 -123t-228.5 -42.5q-157 0 -276 83t-182.5 230t-63.5 336q0 180 54 336.5t146.5 265.5t221 171.5
t274.5 62.5q175 0 296.5 -87.5t168.5 -238.5q3 -12 -8 -12h-19q-7 0 -10 8q-45 135 -159 215t-273 80q-185 0 -335 -101t-236.5 -284t-86.5 -412q0 -274 134.5 -446t357.5 -172q109 0 208.5 38t182.5 110t140.5 188t76.5 262l-414 2q-11 0 -8 10l2 12q0 10 11 10z" />
    <glyph glyph-name="gdotaccent" unicode="&#x121;" horiz-adv-x="1142" 
d="M686 1485l-10 -107q-3 -10 -12 -10h-15q-11 0 -8 10l12 107q0 10 11 10h14q11 0 8 -10zM612 1065q112 0 205.5 -48t143.5 -136l8 2l16 161q4 11 12 11h15q5 0 7 -3.5t1 -7.5l-102 -985q-26 -246 -142.5 -383t-324.5 -137q-287 0 -363 262q0 13 10 13h15q7 0 10 -9
q74 -231 336 -231q187 0 294 127.5t132 368.5l12 118l-8 5q-166 -193 -389 -193q-179 0 -285 124t-106 337q0 266 141 435t362 169zM610 1030q-138 0 -245 -73.5t-164.5 -203t-57.5 -292.5q0 -197 97.5 -311.5t261.5 -114.5q238 0 403 233l56 539q-43 107 -138 165t-213 58z
" />
    <glyph glyph-name="Imacron" unicode="&#x12a;" horiz-adv-x="530" 
d="M563 1827v-10q0 -11 -10 -11h-303q-10 0 -10 11l2 10q0 10 10 10h303q11 0 8 -10zM379 1454l-150 -1444q0 -10 -10 -10h-18q-11 0 -8 10l153 1444q0 10 10 10h15q11 0 8 -10z" />
    <glyph glyph-name="imacron" unicode="&#x12b;" horiz-adv-x="428" 
d="M469 1415v-10q0 -10 -10 -10h-303q-11 0 -11 10l2 10q0 10 11 10h303q11 0 8 -10zM285 1044l-109 -1034q0 -10 -10 -10h-14q-12 0 -9 10l109 1034q0 11 10 11h14q5 0 7.5 -3.5t1.5 -7.5z" />
    <glyph glyph-name="Idotaccent" unicode="&#x130;" horiz-adv-x="530" 
d="M426 1896l-10 -106q-3 -10 -13 -10h-14q-11 0 -8 10l12 106q0 11 10 11h15q5 0 7 -3.5t1 -7.5zM379 1454l-150 -1444q0 -10 -10 -10h-18q-11 0 -8 10l153 1444q0 10 10 10h15q11 0 8 -10z" />
    <glyph glyph-name="dotlessi" unicode="&#x131;" horiz-adv-x="428" 
d="M285 1044l-109 -1034q0 -10 -10 -10h-14q-12 0 -9 10l109 1034q0 11 10 11h14q5 0 7.5 -3.5t1.5 -7.5z" />
    <glyph glyph-name="Lacute" unicode="&#x139;" horiz-adv-x="991" 
d="M489 1935l-200 -217q-3 -6 -13 -6h-4q-6 0 -8 4t2 8l187 218q3 6 12 6h20q6 0 7.5 -4t-3.5 -9zM111 35h768q11 0 8 -10l-2 -15q0 -10 -11 -10h-796q-11 0 -8 10l153 1444q0 10 10 10h15q11 0 8 -10z" />
    <glyph glyph-name="lacute" unicode="&#x13a;" horiz-adv-x="512" 
d="M602 1935l-201 -217q-3 -6 -12 -6h-4q-6 0 -8 4t2 8l186 218q3 6 13 6h20q6 0 7.5 -4t-3.5 -9zM373 1485l-154 -1475q0 -10 -10 -10h-16q-12 0 -9 10l156 1475q3 10 12 10h13q11 0 8 -10z" />
    <glyph glyph-name="Lcaron" unicode="&#x13d;" horiz-adv-x="991" 
d="M111 35h768q11 0 8 -10l-2 -15q0 -10 -11 -10h-796q-11 0 -8 10l153 1444q0 10 10 10h15q11 0 8 -10z" />
    <glyph glyph-name="lcaron" unicode="&#x13e;" horiz-adv-x="512" 
d="M602 1550l-37 -329q-4 -11 -12 -11h-10q-5 0 -7 3.5t-1 7.5l34 329q4 11 13 11h12q5 0 7 -3.5t1 -7.5zM373 1485l-154 -1475q0 -10 -10 -10h-16q-12 0 -9 10l156 1475q3 10 12 10h13q11 0 8 -10z" />
    <glyph glyph-name="Nacute" unicode="&#x143;" horiz-adv-x="1224" 
d="M958 1937l-200 -217q-3 -6 -13 -6h-4q-6 0 -8 4t2 8l187 218q3 6 12 6h20q6 0 7.5 -4t-3.5 -9zM1176 1464h12q11 0 8 -10l-149 -1444q0 -10 -11 -10h-32q-10 0 -13 8l-737 1426l-148 -1424q0 -10 -10 -10h-18q-11 0 -8 10l153 1444q0 10 10 10h35q10 0 13 -8l733 -1411
l149 1409q3 10 13 10z" />
    <glyph glyph-name="nacute" unicode="&#x144;" horiz-adv-x="1060" 
d="M831 1526l-200 -217q-3 -6 -13 -6h-4q-6 0 -8 3.5t2 8.5l187 217q3 6 12 6h20q6 0 7.5 -4t-3.5 -8zM651 1065q137 0 205 -83t51 -247l-78 -725q0 -10 -10 -10h-12q-11 0 -8 10l73 719q15 150 -45.5 225.5t-183.5 75.5q-110 0 -207 -56.5t-194 -164.5l-84 -799
q-3 -10 -13 -10h-14q-11 0 -8 10l108 1034q0 11 11 11h14q5 0 7 -3.5t1 -7.5l-18 -178l8 -4q191 203 397 203z" />
    <glyph glyph-name="Ncaron" unicode="&#x147;" horiz-adv-x="1224" 
d="M741 1716h-10q-9 0 -12 6l-139 207q-3 5 -1.5 9t7.5 4h22q10 0 13 -7l114 -190h4l158 190q3 7 12 7h21q6 0 8 -4t-2 -9l-182 -207q-3 -6 -13 -6zM1176 1464h12q11 0 8 -10l-149 -1444q0 -10 -11 -10h-32q-10 0 -13 8l-737 1426l-148 -1424q0 -10 -10 -10h-18q-11 0 -8 10
l153 1444q0 10 10 10h35q10 0 13 -8l733 -1411l149 1409q3 10 13 10z" />
    <glyph glyph-name="ncaron" unicode="&#x148;" horiz-adv-x="1060" 
d="M614 1305h-10q-9 0 -12 6l-139 207q-3 4 -1.5 8t7.5 4h22q10 0 13 -6l114 -191h4l158 191q3 6 12 6h21q6 0 8 -4t-2 -8l-182 -207q-3 -6 -13 -6zM651 1065q137 0 205 -83t51 -247l-78 -725q0 -10 -10 -10h-12q-11 0 -8 10l73 719q15 150 -45.5 225.5t-183.5 75.5
q-110 0 -207 -56.5t-194 -164.5l-84 -799q-3 -10 -13 -10h-14q-11 0 -8 10l108 1034q0 11 11 11h14q5 0 7 -3.5t1 -7.5l-18 -178l8 -4q191 203 397 203z" />
    <glyph glyph-name="Omacron" unicode="&#x14c;" horiz-adv-x="1396" 
d="M995 1827v-10q0 -11 -10 -11h-303q-10 0 -10 11l2 10q0 10 10 10h303q11 0 8 -10zM807 1475q240 0 382 -173t142 -458q0 -180 -54.5 -339t-147.5 -272t-222 -178t-274 -65q-157 0 -276 83t-182.5 230t-63.5 336q0 180 54 336.5t146.5 265.5t221 171.5t274.5 62.5z
M803 1440q-184 0 -334 -101t-237 -284t-87 -412q0 -274 134.5 -446t357.5 -172q183 0 334 105.5t238 292.5t87 417q0 270 -133.5 435t-359.5 165z" />
    <glyph glyph-name="omacron" unicode="&#x14d;" horiz-adv-x="1099" 
d="M854 1415v-10q0 -10 -10 -10h-303q-11 0 -11 10l2 10q0 10 11 10h303q11 0 8 -10zM612 1065q171 0 275 -125.5t104 -331.5q0 -174 -66.5 -316t-182.5 -222t-257 -80q-169 0 -272.5 131t-103.5 338q0 175 66 314t181 215.5t256 76.5zM608 1030q-199 0 -332 -160t-133 -409
q0 -194 94.5 -315t251.5 -121q129 0 236 75t169 208t62 296q0 193 -94.5 309.5t-253.5 116.5z" />
    <glyph glyph-name="Ohungarumlaut" unicode="&#x150;" horiz-adv-x="1396" 
d="M1014 1896l-201 -217q-3 -6 -12 -6h-4q-6 0 -8 4.5t2 8.5l186 217q3 6 12 6h21q6 0 7.5 -4.5t-3.5 -8.5zM1239 1896l-201 -217q-3 -6 -12 -6h-4q-6 0 -8 4.5t2 8.5l186 217q3 6 12 6h21q6 0 7.5 -4.5t-3.5 -8.5zM807 1475q240 0 382 -173t142 -458q0 -180 -54.5 -339
t-147.5 -272t-222 -178t-274 -65q-157 0 -276 83t-182.5 230t-63.5 336q0 180 54 336.5t146.5 265.5t221 171.5t274.5 62.5zM803 1440q-184 0 -334 -101t-237 -284t-87 -412q0 -274 134.5 -446t357.5 -172q183 0 334 105.5t238 292.5t87 417q0 270 -133.5 435t-359.5 165z
" />
    <glyph glyph-name="ohungarumlaut" unicode="&#x151;" horiz-adv-x="1099" 
d="M872 1485l-200 -217q-3 -6 -13 -6h-4q-6 0 -8 4t2 8l187 217q3 6 12 6h20q4 0 6 -1.5t1.5 -4.5t-3.5 -6zM1098 1485l-201 -217q-3 -6 -12 -6h-4q-6 0 -8.5 4t1.5 8l187 217q3 6 12 6h21q4 0 6 -1.5t1.5 -4.5t-3.5 -6zM612 1065q171 0 275 -125.5t104 -331.5
q0 -174 -66.5 -316t-182.5 -222t-257 -80q-169 0 -272.5 131t-103.5 338q0 175 66 314t181 215.5t256 76.5zM608 1030q-199 0 -332 -160t-133 -409q0 -194 94.5 -315t251.5 -121q129 0 236 75t169 208t62 296q0 193 -94.5 309.5t-253.5 116.5z" />
    <glyph glyph-name="OE" unicode="&#x152;" horiz-adv-x="1669" 
d="M977 1434l-66 -639h541q5 0 7 -3.5t1 -7.5l-2 -16q0 -10 -10 -10h-541l-73 -725l682 2q11 0 8 -10l-2 -17q0 -10 -11 -10l-856 2q-165 0 -289.5 82.5t-189.5 228t-65 332.5q0 178 54 331t148.5 260.5t227 168.5t284.5 61h121v2l709 2q11 0 8 -10l-2 -16q0 -10 -10 -10z
M795 35l147 1395h-123q-143 0 -267.5 -58.5t-214 -160.5t-141 -248.5t-51.5 -315.5q0 -272 139.5 -442t374.5 -170h136z" />
    <glyph glyph-name="oe" unicode="&#x153;" horiz-adv-x="1904" 
d="M1786 569h-795q-3 -51 -12 -104q-3 -91 17.5 -169.5t62.5 -139.5t112.5 -96t161.5 -35q242 0 371 213q3 6 12 6h15q6 0 8 -4t-2 -9q-145 -241 -408 -241q-158 0 -257.5 99t-121.5 267q-59 -167 -183.5 -266.5t-281.5 -99.5q-169 0 -272.5 131t-103.5 338q0 175 66 314
t181 215.5t256 76.5q151 0 250.5 -98t122.5 -265q57 164 179.5 258.5t275.5 94.5q181 0 278 -134.5t78 -340.5q0 -11 -10 -11zM489 25q168 0 294 123t161 319q3 67 12 125v12q0 193 -94.5 309.5t-253.5 116.5q-199 0 -332 -160t-133 -409q0 -194 94.5 -315t251.5 -121z
M1436 1020q-156 0 -278 -112.5t-161 -303.5h768q9 183 -79.5 299.5t-249.5 116.5z" />
    <glyph glyph-name="Racute" unicode="&#x154;" horiz-adv-x="1136" 
d="M915 1935l-200 -217q-3 -6 -13 -6h-4q-6 0 -8 4t2 8l187 218q3 6 12 6h20q6 0 7.5 -4t-3.5 -9zM645 739l399 -727q3 -4 0.5 -8t-8.5 -4h-24q-10 0 -13 8l-399 731h-418l-76 -729q0 -10 -10 -10h-18q-11 0 -8 10l153 1444q0 10 10 10h490q166 0 261 -88.5t95 -232.5
q0 -176 -119 -290t-313 -114h-2zM186 774h461q179 0 288 102t109 261q0 133 -87.5 213t-241.5 80h-461z" />
    <glyph glyph-name="racute" unicode="&#x155;" horiz-adv-x="632" 
d="M633 1526l-201 -217q-3 -6 -12 -6h-4q-6 0 -8 3.5t2 8.5l186 217q3 6 12 6h21q6 0 7.5 -4t-3.5 -8zM645 1055l-2 -17q-3 -10 -12 -10q-233 -6 -395 -270l-80 -748q0 -10 -11 -10h-14q-11 0 -8 10l108 1034q0 11 11 11h14q5 0 7 -3.5t1 -7.5l-22 -217l8 -4
q155 237 385 242q10 0 10 -10z" />
    <glyph glyph-name="Rcaron" unicode="&#x158;" horiz-adv-x="1136" 
d="M698 1714h-10q-9 0 -12 6l-139 207q-3 5 -1.5 8.5t7.5 3.5h22q10 0 13 -6l114 -190h4l158 190q3 6 12 6h21q6 0 8 -3.5t-2 -8.5l-182 -207q-3 -6 -13 -6zM645 739l399 -727q3 -4 0.5 -8t-8.5 -4h-24q-10 0 -13 8l-399 731h-418l-76 -729q0 -10 -10 -10h-18q-11 0 -8 10
l153 1444q0 10 10 10h490q166 0 261 -88.5t95 -232.5q0 -176 -119 -290t-313 -114h-2zM186 774h461q179 0 288 102t109 261q0 133 -87.5 213t-241.5 80h-461z" />
    <glyph glyph-name="rcaron" unicode="&#x159;" horiz-adv-x="632" 
d="M416 1305h-10q-10 0 -13 6l-139 207q-3 4 -1.5 8t7.5 4h23q9 0 12 -6l115 -191h4l157 191q3 6 13 6h20q6 0 8 -4t-2 -8l-182 -207q-3 -6 -12 -6zM242 827l8 -4q155 237 385 242q11 0 8 -10l-2 -17q0 -10 -10 -10q-233 -6 -395 -270l-80 -748q0 -10 -11 -10h-14
q-11 0 -8 10l108 1034q0 11 11 11h14q5 0 7 -3.5t1 -7.5z" />
    <glyph glyph-name="Sacute" unicode="&#x15a;" horiz-adv-x="1173" 
d="M932 1935l-201 -217q-3 -6 -12 -6h-4q-6 0 -8 4t2 8l186 218q3 6 12 6h21q6 0 7.5 -4t-3.5 -9zM682 1475q83 0 153.5 -21.5t115.5 -54t80.5 -75t53 -78.5t27.5 -72q4 -11 -10 -11h-17q-7 0 -10 8q-13 35 -31 68t-51.5 71t-75.5 65.5t-105.5 46t-137.5 18.5
q-186 0 -304 -89.5t-118 -238.5q0 -50 16.5 -91.5t44.5 -72t73.5 -57t92.5 -45t113 -39.5l102 -33q188 -61 279.5 -148.5t91.5 -222.5q0 -187 -133.5 -300t-360.5 -113q-99 0 -180.5 23t-134.5 59.5t-91.5 85.5t-58 97t-28.5 99q-1 4 1 7.5t7 3.5h20q10 0 13 -9
q9 -45 26.5 -87.5t53 -88t84 -79t124.5 -55t168 -21.5q201 0 329 99t128 269q0 127 -91 207.5t-271 140.5l-101 33q-88 29 -148.5 58t-108.5 67.5t-71.5 89t-23.5 115.5q0 169 129.5 270t335.5 101z" />
    <glyph glyph-name="sacute" unicode="&#x15b;" horiz-adv-x="899" 
d="M750 1526l-201 -217q-3 -6 -12 -6h-5q-6 0 -8 3.5t2 8.5l187 217q3 6 12 6h20q6 0 7.5 -4t-2.5 -8zM510 1065q73 0 129 -16.5t92 -47.5t58 -66.5t36 -82.5q3 -12 -8 -12h-14q-7 0 -10 8q-32 87 -99 135.5t-188 48.5q-133 0 -220 -61.5t-87 -171.5q0 -82 60 -128t181 -87
l74 -25q135 -44 200.5 -108t65.5 -162q0 -140 -98.5 -219.5t-265.5 -79.5q-135 0 -228.5 61t-124.5 187q-3 12 11 12h16q9 0 12 -8q23 -101 109 -159t211 -58q138 0 230.5 66t92.5 192q0 89 -64.5 142.5t-199.5 100.5l-69 25q-124 43 -185 95t-61 142q0 130 96.5 203.5
t247.5 73.5z" />
    <glyph glyph-name="Scedilla" unicode="&#x15e;" horiz-adv-x="1173" 
d="M674 1440q-186 0 -304 -89.5t-118 -238.5q0 -50 16.5 -91.5t44.5 -72t73.5 -57t92.5 -45t113 -39.5l102 -33q188 -61 279.5 -148.5t91.5 -222.5q0 -187 -133.5 -300t-360.5 -113h-16l-51 -133q80 -10 130 -48.5t50 -109.5q0 -77 -53.5 -129.5t-145.5 -52.5q-71 0 -135 37
q-7 2 -4 12l6 12q4 11 15 4q50 -33 125 -33q71 0 114 40t43 104q0 112 -176 133h-4q-11 3 -8 12l59 154q-88 5 -160.5 30.5t-120 61.5t-82.5 83.5t-53 93t-26 93.5q-1 4 1 7.5t7 3.5h20q10 0 13 -9q9 -45 26.5 -87.5t53 -88t84 -79t124.5 -55t168 -21.5q201 0 329 99
t128 269q0 127 -91 207.5t-271 140.5l-101 33q-88 29 -148.5 58t-108.5 67.5t-71.5 89t-23.5 115.5q0 169 129.5 270t335.5 101q83 0 153.5 -21.5t115.5 -54t80.5 -75t53 -78.5t27.5 -72q4 -11 -10 -11h-17q-6 0 -10 4q-11 35 -28.5 68.5t-51 72t-75.5 66.5t-106 47t-140 19
z" />
    <glyph glyph-name="scedilla" unicode="&#x15f;" horiz-adv-x="899" 
d="M506 1032q-133 0 -220 -61.5t-87 -171.5q0 -82 60 -128t181 -87l74 -25q135 -44 200.5 -108t65.5 -162q0 -140 -98.5 -219.5t-265.5 -79.5l-51 -133q80 -10 130 -48.5t50 -109.5q0 -77 -53.5 -129.5t-145.5 -52.5q-71 0 -135 37q-7 2 -4 12l6 12q4 11 14 4
q50 -33 125 -33q71 0 114.5 40t43.5 104q0 112 -176 133h-4q-11 3 -8 12l59 152q-122 8 -206 69t-112 179q-3 12 11 12h16q9 0 12 -8q23 -101 109 -159t211 -58q138 0 230.5 66t92.5 192q0 89 -64.5 142.5t-199.5 100.5l-69 25q-124 43 -185 95t-61 142q0 130 96.5 203.5
t247.5 73.5q73 0 129 -16.5t92 -47.5t58 -66.5t36 -82.5q3 -12 -8 -12h-14q-7 0 -10 6q-31 88 -98 137t-189 49z" />
    <glyph glyph-name="Scaron" unicode="&#x160;" horiz-adv-x="1173" 
d="M715 1714h-10q-10 0 -13 6l-139 207q-3 5 -1.5 8.5t7.5 3.5h23q9 0 12 -6l115 -190h4l157 190q3 6 13 6h20q6 0 8 -3.5t-2 -8.5l-182 -207q-3 -6 -12 -6zM674 1440q-186 0 -304 -89.5t-118 -238.5q0 -50 16.5 -91.5t44.5 -72t73.5 -57t92.5 -45t113 -39.5l102 -33
q188 -61 279.5 -148.5t91.5 -222.5q0 -187 -133.5 -300t-360.5 -113q-99 0 -180.5 23t-134.5 59.5t-91.5 85.5t-58 97t-28.5 99q-1 4 1 7.5t7 3.5h20q10 0 13 -9q9 -45 26.5 -87.5t53 -88t84 -79t124.5 -55t168 -21.5q201 0 329 99t128 269q0 127 -91 207.5t-271 140.5
l-101 33q-88 29 -148.5 58t-108.5 67.5t-71.5 89t-23.5 115.5q0 169 129.5 270t335.5 101q83 0 153.5 -21.5t115.5 -54t80.5 -75t53 -78.5t27.5 -72q4 -11 -10 -11h-17q-6 0 -10 4q-11 35 -28.5 68.5t-51 72t-75.5 66.5t-106 47t-140 19z" />
    <glyph glyph-name="scaron" unicode="&#x161;" horiz-adv-x="899" 
d="M532 1305h-10q-9 0 -12 6l-139 207q-3 4 -1.5 8t7.5 4h22q10 0 13 -6l114 -191h4l158 191q3 6 12 6h21q6 0 8 -4t-2 -8l-182 -207q-3 -6 -13 -6zM506 1032q-133 0 -220 -61.5t-87 -171.5q0 -82 60 -128t181 -87l74 -25q135 -44 200.5 -108t65.5 -162q0 -140 -98.5 -219.5
t-265.5 -79.5q-135 0 -228.5 61t-124.5 187q-3 12 11 12h16q9 0 12 -8q23 -101 109 -159t211 -58q138 0 230.5 66t92.5 192q0 89 -64.5 142.5t-199.5 100.5l-69 25q-124 43 -185 95t-61 142q0 130 96.5 203.5t247.5 73.5q73 0 129 -16.5t92 -47.5t58 -66.5t36 -82.5
q3 -12 -8 -12h-14q-7 0 -10 6q-31 88 -98 137t-189 49z" />
    <glyph glyph-name="Tcedilla" unicode="&#x162;" horiz-adv-x="1034" 
d="M629 1430l-148 -1424q0 -8 -2 -12l-53 -137q80 -10 130 -48.5t50 -109.5q0 -77 -53 -129.5t-145 -52.5q-72 0 -136 37q-7 2 -4 12l6 12q4 11 15 4q50 -33 125 -33q71 0 114 40t43 104q0 112 -176 133h-4q-11 3 -8 12l63 162h-2l152 1430h-471q-11 0 -8 10l2 14
q0 10 10 10h973q11 0 8 -10l-2 -14q0 -10 -10 -10h-469z" />
    <glyph glyph-name="tcedilla" unicode="&#x163;" horiz-adv-x="606" 
d="M254 0q-1 0 -4 -6l-53 -137q80 -10 130 -48.5t50 -109.5q0 -77 -53.5 -129.5t-145.5 -52.5q-71 0 -135 37q-7 2 -4 12l6 12q4 11 14 4q50 -33 125 -33q71 0 114.5 40t43.5 104q0 112 -176 133h-4q-11 3 -8 12l63 162l109 1024h-191q-10 0 -10 10l2 10q0 11 10 11h193
l45 430q3 10 12 10h12q12 0 9 -10l-43 -430h241q10 0 10 -11l-2 -10q0 -10 -10 -10h-244z" />
    <glyph glyph-name="Tcaron" unicode="&#x164;" horiz-adv-x="1034" 
d="M647 1714h-10q-9 0 -12 6l-140 207q-3 5 -1 8.5t8 3.5h22q9 0 12 -6l115 -190h4l158 190q3 6 12 6h21q6 0 8 -3.5t-2 -8.5l-183 -207q-3 -6 -12 -6zM1112 1454l-2 -14q-3 -10 -12 -10h-469l-148 -1420q0 -10 -10 -10h-16q-12 0 -9 10l150 1420h-471q-11 0 -8 10l2 14
q0 10 10 10h973q10 0 10 -10z" />
    <glyph glyph-name="tcaron" unicode="&#x165;" horiz-adv-x="606" 
d="M733 1561h12q5 0 7.5 -3.5t1.5 -7.5l-37 -329q-4 -11 -12 -11h-11q-5 0 -7 3.5t-1 7.5l35 329q4 11 12 11zM365 1055h241q10 0 10 -11l-2 -10q0 -10 -10 -10h-244l-106 -1014q0 -10 -10 -10h-17q-11 0 -8 10l107 1014h-191q-10 0 -10 10l2 10q0 11 10 11h193l45 430
q3 10 12 10h12q12 0 9 -10z" />
    <glyph glyph-name="Umacron" unicode="&#x16a;" horiz-adv-x="1298" 
d="M938 1827v-10q0 -11 -10 -11h-303q-11 0 -11 11l2 10q0 10 11 10h303q11 0 8 -10zM1272 1454l-86 -823q-16 -153 -68 -275t-130.5 -202t-180 -122t-217.5 -42q-115 0 -206.5 42t-153 122t-87.5 202t-10 275l88 823q0 10 10 10h15q11 0 8 -10l-86 -823
q-30 -291 87.5 -448.5t340.5 -157.5q222 0 374.5 158t182.5 448l88 823q0 10 10 10h13q11 0 8 -10z" />
    <glyph glyph-name="umacron" unicode="&#x16b;" horiz-adv-x="1062" 
d="M786 1415v-10q0 -10 -10 -10h-303q-10 0 -10 10l2 10q0 10 10 10h303q11 0 8 -10zM940 1044l-109 -1034q-3 -10 -12 -10h-12q-11 0 -8 10l18 178l-8 5q-87 -91 -182 -147t-213 -56q-137 0 -207 83.5t-53 245.5l77 725q0 11 11 11h14q5 0 7 -3.5t1 -7.5l-74 -718
q-15 -150 46 -225.5t186 -75.5q109 0 206 57t195 164l84 798q4 11 13 11h12q5 0 7 -3.5t1 -7.5z" />
    <glyph glyph-name="Uring" unicode="&#x16e;" horiz-adv-x="1298" 
d="M791 1954q52 0 84 -33t32 -88q0 -66 -42.5 -108t-102.5 -42q-49 0 -82 33.5t-33 87.5q0 65 43 107.5t101 42.5zM788 1925q-46 0 -79 -32.5t-33 -84.5q0 -42 25.5 -68t64.5 -26q46 0 79.5 32t33.5 83q0 43 -26 69.5t-65 26.5zM1272 1454l-86 -823q-16 -153 -68 -275
t-130.5 -202t-180 -122t-217.5 -42q-115 0 -206.5 42t-153 122t-87.5 202t-10 275l88 823q0 10 10 10h15q11 0 8 -10l-86 -823q-30 -291 87.5 -448.5t340.5 -157.5q222 0 374.5 158t182.5 448l88 823q0 10 10 10h13q11 0 8 -10z" />
    <glyph glyph-name="uring" unicode="&#x16f;" horiz-adv-x="1062" 
d="M639 1542q52 0 84.5 -33t32.5 -88q0 -66 -43 -107.5t-103 -41.5q-48 0 -81 33.5t-33 87.5q0 65 42.5 107t100.5 42zM637 1513q-46 0 -79.5 -32t-33.5 -84q0 -42 25.5 -68t64.5 -26q46 0 79.5 31.5t33.5 82.5q0 43 -25.5 69.5t-64.5 26.5zM940 1044l-109 -1034
q-3 -10 -12 -10h-12q-11 0 -8 10l18 178l-8 5q-87 -91 -182 -147t-213 -56q-137 0 -207 83.5t-53 245.5l77 725q0 11 11 11h14q5 0 7 -3.5t1 -7.5l-74 -718q-15 -150 46 -225.5t186 -75.5q109 0 206 57t195 164l84 798q4 11 13 11h12q5 0 7 -3.5t1 -7.5z" />
    <glyph glyph-name="Uhungarumlaut" unicode="&#x170;" horiz-adv-x="1298" 
d="M956 1896l-200 -217q-3 -6 -13 -6h-4q-6 0 -8 4.5t2 8.5l187 217q3 6 12 6h20q6 0 7.5 -4.5t-3.5 -8.5zM1182 1896l-201 -217q-3 -6 -12 -6h-4q-6 0 -8.5 4.5t1.5 8.5l187 217q3 6 12 6h21q6 0 7.5 -4.5t-3.5 -8.5zM1272 1454l-86 -823q-16 -153 -68 -275t-130.5 -202
t-180 -122t-217.5 -42q-115 0 -206.5 42t-153 122t-87.5 202t-10 275l88 823q0 10 10 10h15q11 0 8 -10l-86 -823q-30 -291 87.5 -448.5t340.5 -157.5q222 0 374.5 158t182.5 448l88 823q0 10 10 10h13q11 0 8 -10z" />
    <glyph glyph-name="uhungarumlaut" unicode="&#x171;" horiz-adv-x="1062" 
d="M805 1485l-201 -217q-3 -6 -12 -6h-4q-6 0 -8 4t2 8l186 217q3 6 12 6h21q6 0 7.5 -3.5t-3.5 -8.5zM1030 1485l-201 -217q-3 -6 -12 -6h-4q-6 0 -8 4t2 8l186 217q3 6 13 6h20q4 0 6 -1.5t1.5 -4.5t-3.5 -6zM940 1044l-109 -1034q-3 -10 -12 -10h-12q-11 0 -8 10l18 178
l-8 5q-87 -91 -182 -147t-213 -56q-137 0 -207 83.5t-53 245.5l77 725q0 11 11 11h14q5 0 7 -3.5t1 -7.5l-74 -718q-15 -150 46 -225.5t186 -75.5q109 0 206 57t195 164l84 798q4 11 13 11h12q5 0 7 -3.5t1 -7.5z" />
    <glyph glyph-name="Wcircumflex" unicode="&#x174;" horiz-adv-x="1865" 
d="M1077 1911l-157 -191q-3 -6 -13 -6h-20q-6 0 -8 4t2 8l182 207q3 6 12 6h10q10 0 13 -6l139 -207q3 -4 1.5 -8t-7.5 -4h-23q-9 0 -12 6l-115 191h-4zM1909 1464h12q11 0 8 -12l-581 -1444q-5 -8 -13 -8h-24q-10 0 -13 8l-272 1411l-567 -1411q-5 -8 -13 -8h-24
q-9 0 -12 8l-279 1446q-3 10 10 10h13q9 0 12 -8l270 -1403h4l568 1403q5 8 12 8h22q10 0 13 -8l272 -1403h4l565 1403q5 8 13 8z" />
    <glyph glyph-name="wcircumflex" unicode="&#x175;" horiz-adv-x="1425" 
d="M809 1499l-158 -190q-3 -6 -12 -6h-21q-6 0 -8 3.5t2 8.5l183 207q3 6 12 6h10q9 0 12 -6l140 -207q3 -5 1.5 -8.5t-7.5 -3.5h-23q-9 0 -12 6l-115 190h-4zM1413 1055h14q12 0 9 -13l-416 -1034q-5 -8 -12 -8h-35q-9 0 -12 8l-203 979h-4l-396 -979q-5 -8 -12 -8h-37
q-9 0 -12 8l-199 1036q-2 4 1.5 7.5t9.5 3.5h14q9 0 12 -8l195 -998h8l403 998q5 8 13 8h16q9 0 12 -8l207 -998h8l404 998q5 8 12 8z" />
    <glyph glyph-name="Ycircumflex" unicode="&#x176;" horiz-adv-x="1081" 
d="M686 1911l-158 -191q-3 -6 -12 -6h-20q-6 0 -8.5 4t1.5 8l183 207q3 6 12 6h10q10 0 13 -6l139 -207q3 -4 1.5 -8t-7.5 -4h-23q-9 0 -12 6l-115 191h-4zM575 694l-69 -684q0 -10 -10 -10h-19q-11 0 -8 10l72 684l-406 758q-6 12 8 12h15q9 0 12 -8l389 -727h4l547 729
q3 6 12 6h11q7 0 9 -4t-3 -8z" />
    <glyph glyph-name="ycircumflex" unicode="&#x177;" horiz-adv-x="866" 
d="M537 1499l-158 -190q-3 -6 -12 -6h-21q-6 0 -8 3.5t2 8.5l182 207q3 6 13 6h10q9 0 12 -6l139 -207q3 -5 1.5 -8.5t-7.5 -3.5h-22q-10 0 -13 6l-114 190h-4zM854 1055h14q12 0 6 -13l-671 -1484q-3 -9 -13 -9h-22q-12 0 -6 13l190 415l-254 1065q-3 13 11 13h16
q7 0 10 -8l240 -1008h6l461 1008q3 8 12 8z" />
    <glyph glyph-name="Ydieresis" unicode="&#x178;" horiz-adv-x="1081" 
d="M551 1896l-10 -106q0 -10 -11 -10h-6q-10 0 -10 10l10 106q0 11 11 11h8q5 0 7 -3.5t1 -7.5zM778 1896l-10 -106q0 -10 -10 -10h-6q-11 0 -11 10l11 106q0 11 10 11h8q5 0 7 -3.5t1 -7.5zM575 694l-69 -684q0 -10 -10 -10h-19q-11 0 -8 10l72 684l-406 758q-6 12 8 12h15
q9 0 12 -8l389 -727h4l547 729q3 6 12 6h11q7 0 9 -4t-3 -8z" />
    <glyph glyph-name="Zacute" unicode="&#x179;" horiz-adv-x="1202" 
d="M936 1935l-201 -217q-3 -6 -12 -6h-4q-6 0 -8 4t2 8l186 218q3 6 12 6h21q6 0 7.5 -4t-3.5 -9zM219 1464h961q11 0 8 -10v-10q0 -5 -6 -14l-1084 -1391v-4h940q12 0 9 -10l-3 -15q0 -10 -10 -10h-987q-11 0 -8 10v8q0 9 6 15l1092 1390v7h-922q-11 0 -8 10l2 14
q0 10 10 10z" />
    <glyph glyph-name="zacute" unicode="&#x17a;" horiz-adv-x="966" 
d="M786 1526l-200 -217q-3 -6 -13 -6h-4q-6 0 -8 3.5t2 8.5l187 217q3 6 12 6h20q4 0 6 -1.5t1.5 -4.5t-3.5 -6zM905 1044l-2 -12v-4q-1 0 -3.5 -3.5t-4.5 -4.5l-782 -983v-4h680q11 0 8 -10l-2 -13q0 -10 -11 -10h-720q-12 0 -9 10v8q0 7 4 11l791 991l2 4h-653
q-11 0 -8 10l2 10q0 11 10 11h688q10 0 10 -11z" />
    <glyph glyph-name="Zdotaccent" unicode="&#x17b;" horiz-adv-x="1202" 
d="M752 1894l-11 -106q-3 -10 -12 -10h-14q-11 0 -8 10l12 106q0 11 10 11h14q5 0 7.5 -3.5t1.5 -7.5zM219 1464h961q11 0 8 -10v-10q0 -5 -6 -14l-1084 -1391v-4h940q12 0 9 -10l-3 -15q0 -10 -10 -10h-987q-11 0 -8 10v8q0 9 6 15l1092 1390v7h-922q-11 0 -8 10l2 14
q0 10 10 10z" />
    <glyph glyph-name="zdotaccent" unicode="&#x17c;" horiz-adv-x="966" 
d="M602 1485l-10 -107q-3 -10 -12 -10h-15q-11 0 -8 10l12 107q0 10 11 10h14q11 0 8 -10zM905 1044l-2 -12v-4q-1 0 -3.5 -3.5t-4.5 -4.5l-782 -983v-4h680q11 0 8 -10l-2 -13q0 -10 -11 -10h-720q-12 0 -9 10v8q0 7 4 11l791 991l2 4h-653q-11 0 -8 10l2 10q0 11 10 11
h688q10 0 10 -11z" />
    <glyph glyph-name="Zcaron" unicode="&#x17d;" horiz-adv-x="1202" 
d="M719 1714h-10q-10 0 -13 6l-139 207q-3 5 -1.5 8.5t7.5 3.5h23q9 0 12 -6l115 -190h4l157 190q3 6 13 6h20q6 0 8 -3.5t-2 -8.5l-182 -207q-3 -6 -12 -6zM219 1464h961q11 0 8 -10v-10q0 -5 -6 -14l-1084 -1391v-4h940q12 0 9 -10l-3 -15q0 -10 -10 -10h-987q-11 0 -8 10
v8q0 9 6 15l1092 1390v7h-922q-11 0 -8 10l2 14q0 10 10 10z" />
    <glyph glyph-name="zcaron" unicode="&#x17e;" horiz-adv-x="966" 
d="M569 1305h-10q-9 0 -12 6l-139 207q-3 4 -1.5 8t7.5 4h22q10 0 13 -6l114 -191h4l158 191q3 6 12 6h21q6 0 8 -4t-2 -8l-182 -207q-3 -6 -13 -6zM207 1055h688q10 0 10 -11l-2 -12v-4q-1 0 -3.5 -3.5t-4.5 -4.5l-782 -983v-4h680q11 0 8 -10l-2 -13q0 -10 -11 -10h-720
q-12 0 -9 10v8q0 7 4 11l791 991l2 4h-653q-11 0 -8 10l2 10q0 11 10 11z" />
    <glyph glyph-name="Acaron" unicode="&#x1cd;" horiz-adv-x="1155" 
d="M707 1716h-11q-9 0 -12 6l-139 207q-3 5 -1.5 9t7.5 4h22q9 0 13 -7l114 -190h5l157 190q4 7 12 7h21q6 0 8 -4t-2 -9l-182 -207q-3 -6 -12 -6zM903 516h-653l-236 -508q-3 -8 -12 -8h-14q-12 0 -6 12l667 1444q3 8 13 8h28q7 0 10 -8l367 -1444q0 -12 -10 -12h-15
q-7 0 -10 8zM893 553l-223 868l-404 -868h627z" />
    <glyph glyph-name="acaron" unicode="&#x1ce;" horiz-adv-x="1017" 
d="M592 1305h-10q-10 0 -13 6l-139 207q-3 4 -1.5 8t7.5 4h23q9 0 12 -6l115 -191h4l158 191q3 6 12 6h20q6 0 8 -4t-2 -8l-182 -207q-3 -6 -12 -6zM582 1065q154 0 224.5 -87t55.5 -239l-76 -729q0 -10 -10 -10h-14q-11 0 -8 10l16 172l-6 4q-66 -90 -168.5 -143
t-228.5 -53q-128 0 -205.5 62.5t-77.5 185.5q0 87 31.5 151t88 105.5t146.5 66.5t195.5 35t245.5 10h22l14 135q14 129 -48.5 209t-203.5 80q-119 0 -208.5 -58.5t-133.5 -164.5q-5 -8 -12 -8h-14q-11 0 -8 10q48 118 148.5 187t234.5 69zM811 569h-23q-131 0 -230.5 -9
t-184 -31t-138.5 -59t-84 -93.5t-30 -132.5q0 -109 68.5 -164t185.5 -55q134 0 241.5 66.5t161.5 162.5z" />
    <glyph glyph-name="Icaron" unicode="&#x1cf;" horiz-adv-x="530" 
d="M561 1942h21q6 0 8 -4t-2 -9l-182 -207q-3 -6 -13 -6h-10q-9 0 -12 6l-140 207q-3 5 -1 9t8 4h22q8 0 12 -7l115 -190h4l158 190q3 7 12 7zM193 10l151 1444q3 10 12 10h15q11 0 8 -10l-150 -1444q0 -10 -10 -10h-18q-11 0 -8 10z" />
    <glyph glyph-name="icaron" unicode="&#x1d0;" horiz-adv-x="428" 
d="M467 1530h20q6 0 8.5 -4t-1.5 -8l-183 -207q-3 -6 -12 -6h-10q-10 0 -13 6l-139 207q-3 4 -1.5 8t7.5 4h23q9 0 12 -6l115 -191h4l158 191q3 6 12 6zM143 10l109 1034q0 11 10 11h14q5 0 7.5 -3.5t1.5 -7.5l-109 -1034q0 -10 -10 -10h-14q-12 0 -9 10z" />
    <glyph glyph-name="Ocaron" unicode="&#x1d1;" horiz-adv-x="1396" 
d="M825 1716h-10q-9 0 -12 6l-139 207q-3 5 -1.5 9t7.5 4h22q10 0 13 -7l114 -190h4l158 190q3 7 12 7h21q6 0 8 -4t-2 -9l-182 -207q-3 -6 -13 -6zM807 1475q240 0 382 -173t142 -458q0 -180 -54.5 -339t-147.5 -272t-222 -178t-274 -65q-157 0 -276 83t-182.5 230
t-63.5 336q0 180 54 336.5t146.5 265.5t221 171.5t274.5 62.5zM637 25q183 0 334 105.5t238 292.5t87 417q0 270 -133.5 435t-359.5 165q-184 0 -334 -101t-237 -284t-87 -412q0 -274 134.5 -446t357.5 -172z" />
    <glyph glyph-name="ocaron" unicode="&#x1d2;" horiz-adv-x="1099" 
d="M684 1305h-10q-9 0 -12 6l-140 207q-3 4 -1.5 8t7.5 4h23q9 0 12 -6l115 -191h4l158 191q3 6 12 6h20q6 0 8.5 -4t-1.5 -8l-183 -207q-3 -6 -12 -6zM612 1065q171 0 275 -125.5t104 -331.5q0 -174 -66.5 -316t-182.5 -222t-257 -80q-169 0 -272.5 131t-103.5 338
q0 175 66 314t181 215.5t256 76.5zM489 25q129 0 236 75t169 208t62 296q0 193 -94.5 309.5t-253.5 116.5q-199 0 -332 -160t-133 -409q0 -194 94.5 -315t251.5 -121z" />
    <glyph glyph-name="Ucaron" unicode="&#x1d3;" horiz-adv-x="1298" 
d="M768 1716h-10q-10 0 -13 6l-139 207q-3 5 -1.5 9t7.5 4h23q9 0 12 -7l115 -190h4l158 190q4 7 12 7h20q6 0 8.5 -4t-1.5 -9l-183 -207q-3 -6 -12 -6zM1251 1464h13q11 0 8 -10l-86 -823q-16 -153 -68 -275t-130.5 -202t-180 -122t-217.5 -42q-115 0 -206.5 42t-153 122
t-87.5 202t-10 275l88 823q0 10 10 10h15q11 0 8 -10l-86 -823q-30 -291 87.5 -448.5t340.5 -157.5q222 0 374.5 158t182.5 448l88 823q0 10 10 10z" />
    <glyph glyph-name="ucaron" unicode="&#x1d4;" horiz-adv-x="1062" 
d="M616 1305h-10q-9 0 -12 6l-139 207q-3 4 -1.5 8t7.5 4h22q10 0 13 -6l114 -191h4l158 191q3 6 12 6h21q6 0 8 -4t-2 -8l-182 -207q-3 -6 -13 -6zM920 1055h12q5 0 7 -3.5t1 -7.5l-111 -1034q0 -10 -10 -10h-12q-11 0 -8 10l18 178l-8 5q-87 -91 -182 -147t-213 -56
q-137 0 -207 83.5t-53 245.5l77 725q0 11 11 11h14q5 0 7 -3.5t1 -7.5l-74 -718q-15 -150 46 -225.5t186 -75.5q109 0 206 57t195 164l84 798q4 11 13 11z" />
    <glyph glyph-name="dotlessj" unicode="&#x237;" horiz-adv-x="573" 
d="M389 1044l-121 -1163q-21 -183 -90.5 -257t-234.5 -75q-5 0 -7.5 3.5t-1.5 7.5l3 14q0 10 10 10q149 1 208 69t78 238l123 1153q0 11 11 11h14q5 0 7 -3.5t1 -7.5z" />
    <glyph glyph-name="circumflex" unicode="&#x2c6;" 
d="M559 1522l139 -207q3 -5 1.5 -8.5t-7.5 -3.5h-22q-10 0 -13 6l-114 190h-4l-158 -190q-3 -6 -12 -6h-21q-6 0 -8 3.5t2 8.5l182 207q3 6 13 6h10q9 0 12 -6z" />
    <glyph glyph-name="caron" unicode="&#x2c7;" 
d="M692 1530h21q6 0 8 -4t-2 -8l-182 -207q-3 -6 -13 -6h-10q-9 0 -12 6l-140 207q-3 4 -1 8t8 4h22q9 0 12 -6l115 -191h4l158 191q3 6 12 6z" />
    <glyph glyph-name="breve" unicode="&#x2d8;" 
d="M721 1485l-2 -12q-7 -88 -65 -134.5t-140 -46.5q-81 0 -126 46t-38 135l2 12q0 10 10 10h13q10 0 10 -10l-2 -12q-14 -148 135 -148q70 0 116.5 35.5t53.5 112.5l2 12q0 10 10 10h11q10 0 10 -10z" />
    <glyph glyph-name="dotaccent" unicode="&#x2d9;" horiz-adv-x="425" 
d="M332 1485l-10 -107q-3 -10 -13 -10h-14q-11 0 -8 10l12 107q0 10 10 10h15q11 0 8 -10z" />
    <glyph glyph-name="ring" unicode="&#x2da;" 
d="M485 1542q52 0 84.5 -33t32.5 -88q0 -66 -42.5 -107.5t-102.5 -41.5q-49 0 -82 33.5t-33 87.5q0 65 42.5 107t100.5 42zM483 1513q-46 0 -79 -32t-33 -84q0 -42 25.5 -68t64.5 -26q46 0 79 31.5t33 82.5q0 43 -25.5 69.5t-64.5 26.5z" />
    <glyph glyph-name="tilde" unicode="&#x2dc;" 
d="M446 1481q25 0 46.5 -13.5t36.5 -32.5t29.5 -37.5t34.5 -32t44 -13.5q33 0 49.5 23t22.5 69q3 10 12 10h8q11 0 8 -10q-17 -123 -102 -123q-27 0 -49.5 13.5t-38 32.5t-30.5 37.5t-34 32t-41 13.5q-64 0 -75 -92q0 -10 -11 -10h-10q-11 0 -8 10q8 53 35 88t73 35z" />
    <glyph glyph-name="hungarumlaut" unicode="&#x2dd;" 
d="M565 1526l-200 -217q-3 -6 -13 -6h-4q-6 0 -8 3.5t2 8.5l186 217q3 6 13 6h20q6 0 7.5 -4t-3.5 -8zM791 1526l-201 -217q-3 -6 -12 -6h-5q-6 0 -8 3.5t2 8.5l187 217q3 6 12 6h20q6 0 7.5 -4t-2.5 -8z" />
    <glyph glyph-name="Wgrave" unicode="&#x1e80;" horiz-adv-x="1865" 
d="M1055 1714h-4q-10 0 -13 6l-200 217q-5 5 -3.5 9t7.5 4h20q9 0 12 -6l187 -218q4 -4 2 -8t-8 -4zM1909 1464h12q11 0 8 -12l-581 -1444q-5 -8 -13 -8h-24q-10 0 -13 8l-272 1411l-567 -1411q-5 -8 -13 -8h-24q-9 0 -12 8l-279 1446q-3 10 10 10h13q9 0 12 -8l270 -1403h4
l568 1403q5 8 12 8h22q10 0 13 -8l272 -1403h4l565 1403q5 8 13 8z" />
    <glyph glyph-name="wgrave" unicode="&#x1e81;" horiz-adv-x="1425" 
d="M786 1303h-4q-9 0 -12 6l-201 217q-5 4 -3.5 8t7.5 4h21q9 0 12 -6l187 -217q4 -5 1.5 -8.5t-8.5 -3.5zM1413 1055h14q12 0 9 -13l-416 -1034q-5 -8 -12 -8h-35q-9 0 -12 8l-203 979h-4l-396 -979q-5 -8 -12 -8h-37q-9 0 -12 8l-199 1036q-2 4 1.5 7.5t9.5 3.5h14
q9 0 12 -8l195 -998h8l403 998q5 8 13 8h16q9 0 12 -8l207 -998h8l404 998q5 8 12 8z" />
    <glyph glyph-name="Wacute" unicode="&#x1e82;" horiz-adv-x="1865" 
d="M1278 1937l-201 -217q-3 -6 -12 -6h-4q-6 0 -8 4t2 8l186 218q3 6 12 6h21q6 0 7.5 -4t-3.5 -9zM1909 1464h12q11 0 8 -12l-581 -1444q-5 -8 -13 -8h-24q-10 0 -13 8l-272 1411l-567 -1411q-5 -8 -13 -8h-24q-9 0 -12 8l-279 1446q-3 10 10 10h13q9 0 12 -8l270 -1403h4
l568 1403q5 8 12 8h22q10 0 13 -8l272 -1403h4l565 1403q5 8 13 8z" />
    <glyph glyph-name="wacute" unicode="&#x1e83;" horiz-adv-x="1425" 
d="M1010 1526l-201 -217q-3 -6 -12 -6h-4q-6 0 -8.5 3.5t1.5 8.5l187 217q3 6 12 6h21q4 0 6 -1.5t1.5 -4.5t-3.5 -6zM1413 1055h14q12 0 9 -13l-416 -1034q-5 -8 -12 -8h-35q-9 0 -12 8l-203 979h-4l-396 -979q-5 -8 -12 -8h-37q-9 0 -12 8l-199 1036q-2 4 1.5 7.5t9.5 3.5
h14q9 0 12 -8l195 -998h8l403 998q5 8 13 8h16q9 0 12 -8l207 -998h8l404 998q5 8 12 8z" />
    <glyph glyph-name="Wdieresis" unicode="&#x1e84;" horiz-adv-x="1865" 
d="M942 1896l-10 -106q0 -10 -10 -10h-7q-10 0 -10 10l10 106q0 11 11 11h8q5 0 7 -3.5t1 -7.5zM1169 1896l-10 -106q0 -10 -10 -10h-6q-10 0 -10 10l10 106q0 11 10 11h8q5 0 7 -3.5t1 -7.5zM1909 1464h12q11 0 8 -12l-581 -1444q-5 -8 -13 -8h-24q-10 0 -13 8l-272 1411
l-567 -1411q-5 -8 -13 -8h-24q-9 0 -12 8l-279 1446q-3 10 10 10h13q9 0 12 -8l270 -1403h4l568 1403q5 8 12 8h22q10 0 13 -8l272 -1403h4l565 1403q5 8 13 8z" />
    <glyph glyph-name="wdieresis" unicode="&#x1e85;" horiz-adv-x="1425" 
d="M674 1485l-10 -107q0 -10 -11 -10h-6q-10 0 -10 10l10 107q0 10 10 10h9q11 0 8 -10zM901 1485l-10 -107q0 -10 -10 -10h-7q-10 0 -10 10l10 107q0 10 11 10h8q11 0 8 -10zM1413 1055h14q12 0 9 -13l-416 -1034q-5 -8 -12 -8h-35q-9 0 -12 8l-203 979h-4l-396 -979
q-5 -8 -12 -8h-37q-9 0 -12 8l-199 1036q-2 4 1.5 7.5t9.5 3.5h14q9 0 12 -8l195 -998h8l403 998q5 8 13 8h16q9 0 12 -8l207 -998h8l404 998q5 8 12 8z" />
    <glyph glyph-name="Ygrave" unicode="&#x1ef2;" horiz-adv-x="1081" 
d="M664 1714h-5q-9 0 -12 6l-201 217q-4 5 -2.5 9t7.5 4h20q9 0 12 -6l187 -218q4 -4 2 -8t-8 -4zM575 694l-69 -684q0 -10 -10 -10h-19q-11 0 -8 10l72 684l-406 758q-6 12 8 12h15q9 0 12 -8l389 -727h4l547 729q3 6 12 6h11q7 0 9 -4t-3 -8z" />
    <glyph glyph-name="ygrave" unicode="&#x1ef3;" horiz-adv-x="866" 
d="M514 1303h-4q-9 0 -12 6l-201 217q-5 4 -3.5 8t7.5 4h21q9 0 12 -6l186 -217q4 -5 2 -8.5t-8 -3.5zM854 1055h14q12 0 6 -13l-671 -1484q-3 -9 -13 -9h-22q-12 0 -6 13l190 415l-254 1065q-3 13 11 13h16q7 0 10 -8l240 -1008h6l461 1008q3 8 12 8z" />
    <glyph glyph-name="endash" unicode="&#x2013;" horiz-adv-x="1198" 
d="M1004 575l-3 -12q-3 -8 -12 -8h-782q-13 0 -10 10l2 13q3 8 12 8h782q6 0 9.5 -3t1.5 -8z" />
    <glyph glyph-name="emdash" unicode="&#x2014;" horiz-adv-x="1466" 
d="M1270 571l-2 -10q-3 -8 -11 -8h-1052q-10 0 -10 12l4 10q3 9 10 9h1053q11 0 8 -13z" />
    <glyph glyph-name="quoteleft" unicode="&#x2018;" horiz-adv-x="468" 
d="M264 1182l8 94q7 72 27 117.5t55 85.5q5 7 15 4q7 -3 0 -13q-69 -91 -50 -157q3 -6 3 -13l-13 -118q-4 -11 -12 -11h-25q-5 0 -7 3.5t-1 7.5z" />
    <glyph glyph-name="quoteright" unicode="&#x2019;" horiz-adv-x="468" 
d="M371 1456l-9 -94q-7 -73 -27 -118.5t-54 -84.5q-5 -7 -15 -4q-6 3 0 12q69 90 49 158q-2 4 -2 12l13 119q3 10 12 10h24q12 0 9 -10z" />
    <glyph glyph-name="quotesinglbase" unicode="&#x201a;" horiz-adv-x="468" 
d="M231 125l-8 -94q-7 -72 -27 -117.5t-55 -85.5q-5 -7 -14 -4q-6 3 0 12q69 90 49 158q-2 4 -2 12l12 119q3 10 13 10h24q11 0 8 -10z" />
    <glyph glyph-name="quotedblleft" unicode="&#x201c;" horiz-adv-x="673" 
d="M264 1182l8 94q7 72 27 117.5t55 85.5q5 7 15 4q7 -3 0 -13q-69 -91 -50 -157q3 -6 3 -13l-13 -118q-4 -11 -12 -11h-25q-5 0 -7 3.5t-1 7.5zM469 1182l8 94q7 72 27 117.5t55 85.5q5 7 14 4q7 -3 0 -13q-69 -90 -49 -157q2 -4 2 -13l-12 -118q-4 -11 -12 -11h-25
q-5 0 -7 3.5t-1 7.5z" />
    <glyph glyph-name="quotedblright" unicode="&#x201d;" horiz-adv-x="675" 
d="M373 1454l-8 -94q-7 -72 -27 -117.5t-55 -85.5q-5 -7 -15 -4q-6 3 0 12q69 90 49 158q-2 4 -2 12l13 119q3 10 12 10h25q11 0 8 -10zM578 1454l-9 -94q-7 -72 -27 -117.5t-55 -85.5q-5 -7 -14 -4q-6 3 0 12q69 90 49 158q-2 4 -2 12l12 119q3 10 13 10h24q12 0 9 -10z
" />
    <glyph glyph-name="quotedblbase" unicode="&#x201e;" horiz-adv-x="468" 
d="M199 135h24q11 0 8 -10l-8 -94q-7 -72 -27 -117.5t-55 -85.5q-5 -7 -14 -4q-6 3 0 12q69 90 49 158q-2 4 -2 12l12 119q3 10 13 10z" />
    <glyph glyph-name="dagger" unicode="&#x2020;" horiz-adv-x="974" 
d="M786 606v-6q0 -10 -10 -10h-270l-98 -950q0 -11 -11 -11h-4q-5 0 -7 3.5t-1 7.5l94 950h-268q-11 0 -8 10v6q3 10 12 10h266l37 355q0 10 10 10h7q11 0 8 -10l-35 -355h270q11 0 8 -10z" />
    <glyph glyph-name="daggerdbl" unicode="&#x2021;" horiz-adv-x="978" 
d="M508 590l-47 -467h270q10 0 10 -10v-7q-3 -10 -12 -10h-270l-47 -456q0 -11 -11 -11h-6q-5 0 -7 3.5t-1 7.5l45 456h-272q-10 0 -10 10v7q3 10 12 10h272l49 467h-268q-13 0 -10 12l2 6q3 8 10 8h268l37 355q0 10 10 10h5q11 0 8 -10l-35 -355h272q12 0 9 -10v-6
q-3 -10 -13 -10h-270z" />
    <glyph glyph-name="bullet" unicode="&#x2022;" horiz-adv-x="681" 
d="M365 748q57 0 94 -41t37 -101q0 -68 -48.5 -117t-113.5 -49q-58 0 -95.5 40.5t-37.5 99.5q0 68 50 118t114 50z" />
    <glyph glyph-name="ellipsis" unicode="&#x2026;" horiz-adv-x="1406" 
d="M197 131l-13 -119q-3 -10 -12 -10h-22q-12 0 -9 10l15 119q3 10 12 10h20q12 0 9 -10zM729 131l-12 -119q-3 -10 -12 -10h-23q-11 0 -8 10l14 119q3 10 12 10h21q11 0 8 -10zM1171 131l-12 -119q-3 -10 -12 -10h-23q-11 0 -8 10l14 119q3 10 13 10h20q11 0 8 -10z" />
    <glyph glyph-name="perthousand" unicode="&#x2030;" horiz-adv-x="1824" 
d="M379 1516q76 0 127 -56t51 -135q0 -93 -67 -161t-154 -68q-77 0 -128.5 56t-51.5 136q0 92 67.5 160t155.5 68zM1169 1485l-1040 -1479q-3 -6 -12 -6h-15q-6 0 -7.5 4t1.5 8l1041 1479q3 6 12 6h14q6 0 7.5 -3.5t-1.5 -8.5zM377 1485q-74 0 -131.5 -58t-57.5 -137
q0 -68 43 -115t107 -47q74 0 132 58t58 135q0 69 -43.5 116.5t-107.5 47.5zM1038 420q76 0 127.5 -56t51.5 -135q0 -93 -67.5 -161t-154.5 -68q-77 0 -128.5 56.5t-51.5 136.5q0 92 67.5 159.5t155.5 67.5zM1505 420q76 0 127 -56t51 -135q0 -93 -67 -161t-154 -68
q-77 0 -128.5 56.5t-51.5 136.5q0 92 67.5 159.5t155.5 67.5zM1036 389q-74 0 -131 -57.5t-57 -136.5q0 -68 42.5 -115t106.5 -47q74 0 132.5 57.5t58.5 134.5q0 69 -44 116.5t-108 47.5zM1503 389q-74 0 -131 -57.5t-57 -136.5q0 -68 42.5 -115t106.5 -47q74 0 132.5 57.5
t58.5 134.5q0 69 -44 116.5t-108 47.5z" />
    <glyph glyph-name="guilsinglleft" unicode="&#x2039;" horiz-adv-x="778" 
d="M608 764l-2 -19q0 -9 -6 -12l-379 -241l328 -242q6 -3 6 -12l-2 -19q-3 -12 -14 -6l-344 254q-7 3 -7 12l5 25q0 9 6 12l397 256q6 3 10 0.5t2 -8.5z" />
    <glyph glyph-name="guilsinglright" unicode="&#x203a;" horiz-adv-x="780" 
d="M233 772l345 -254q6 -3 6 -12l-4 -25q0 -9 -7 -12l-397 -256q-6 -3 -10 -0.5t-2 8.5l2 19q0 9 6 12l379 242l-328 241q-6 3 -6 13l2 18q3 12 14 6z" />
    <glyph glyph-name="zerosuperior" unicode="&#x2070;" horiz-adv-x="579" 
d="M393 1473q78 0 123 -60t45 -160q0 -136 -65.5 -222.5t-165.5 -86.5q-76 0 -122 61.5t-46 163.5q0 135 65 219.5t166 84.5zM387 1440q-85 0 -138.5 -72.5t-53.5 -193.5q0 -91 37.5 -145t103.5 -54q84 0 137 75.5t53 196.5q0 89 -37.5 141t-101.5 52z" />
    <glyph glyph-name="foursuperior" unicode="&#x2074;" horiz-adv-x="571" 
d="M541 1110l-2 -12q0 -11 -11 -11h-77l-15 -126q0 -11 -10 -11h-12q-5 0 -7 3.5t-1 7.5l12 126h-256q-10 0 -10 11l2 14q0 8 6 14l291 332q6 6 10 6h18q11 0 8 -10l-32 -334h75q11 0 11 -10zM422 1120l29 289h-5l-253 -287v-2h229z" />
    <glyph glyph-name="fivesuperior" unicode="&#x2075;" horiz-adv-x="544" 
d="M272 1432l-39 -193h5q54 33 120 33q72 0 114 -42t42 -108q0 -79 -55 -129.5t-144 -50.5q-68 0 -111.5 33t-51.5 82q-3 10 8 10h14q9 0 12 -8q9 -38 43.5 -61t89.5 -23q74 0 119 38.5t45 104.5q0 55 -35 88t-96 33q-70 0 -121 -33q-8 -4 -12 -4h-12q-13 0 -10 10l49 244
q3 8 12 8h258q11 0 8 -10l-2 -12q0 -10 -10 -10h-240z" />
    <glyph glyph-name="sixsuperior" unicode="&#x2076;" horiz-adv-x="591" 
d="M391 1260q74 0 121 -40t47 -106q0 -77 -57.5 -124.5t-139.5 -47.5q-74 0 -121.5 50t-47.5 149q0 151 64 241.5t171 90.5q57 0 91 -28t44 -75q3 -10 -8 -10h-12q-8 0 -11 8q-9 33 -37.5 52.5t-70.5 19.5q-78 0 -129.5 -61t-65.5 -165h7q79 46 155 46zM369 975
q69 0 113 36.5t44 96.5q0 53 -39 86t-104 33q-85 0 -156 -49l-2 -35q0 -86 39.5 -127t104.5 -41z" />
    <glyph glyph-name="sevensuperior" unicode="&#x2077;" horiz-adv-x="532" 
d="M203 1464h325q12 0 9 -10v-10q0 -4 -7 -14q-143 -216 -268 -472q-3 -8 -12 -8h-17q-15 0 -8 13q122 247 271 464v5h-297q-12 0 -9 10l3 12q0 10 10 10z" />
    <glyph glyph-name="eightsuperior" unicode="&#x2078;" horiz-adv-x="610" 
d="M408 1473q65 0 104 -35t39 -90q0 -48 -28 -80t-72 -47v-2q44 -12 70 -45.5t26 -79.5q0 -66 -55 -109t-142 -43q-75 0 -121.5 36t-46.5 93q0 53 35.5 93t93.5 55v2q-75 27 -75 104q0 62 49 105t123 43zM403 1442q-59 0 -98 -33.5t-39 -81.5q0 -42 31.5 -69t83.5 -27
q61 0 99 32t38 80q0 44 -31 71.5t-84 27.5zM379 1204q-70 0 -116 -37t-46 -94q0 -44 37 -72t100 -28q71 0 115.5 33.5t44.5 85.5q0 50 -37 81t-98 31z" />
    <glyph glyph-name="ninesuperior" unicode="&#x2079;" horiz-adv-x="575" 
d="M369 1473q68 0 113.5 -49.5t45.5 -147.5q0 -153 -64 -243.5t-171 -90.5q-59 0 -95.5 28t-47.5 74q-4 11 10 11h10q7 0 10 -8q12 -33 43 -52.5t76 -19.5q78 0 130.5 62.5t64.5 168.5h-9q-70 -45 -143 -45q-69 0 -112.5 40t-43.5 104q0 75 53 121.5t130 46.5zM498 1239v33
q0 85 -38.5 126.5t-94.5 41.5q-65 0 -106.5 -35.5t-41.5 -97.5q0 -50 36 -81.5t95 -31.5q70 0 137 43q9 6 13 2z" />
    <glyph glyph-name="euro" unicode="&#x20ac;" horiz-adv-x="1167" 
d="M944 1442q-235 0 -408.5 -155.5t-232.5 -414.5l483 9q11 0 11 -11l-2 -12q0 -10 -11 -10l-487 -8q-18 -86 -18 -183l485 9q5 0 7 -3.5t1 -7.5l-2 -12q0 -10 -10 -10l-481 -8q5 -268 140 -434t361 -166q100 0 195 28q9 3 12 -6l2 -12q0 -9 -8 -12q-101 -35 -205 -35
q-241 0 -385 176.5t-147 460.5l-131 -2q-12 0 -9 10l2 12q0 10 11 10l127 2q3 98 18 183l-127 -2q-11 0 -8 10l2 12q0 10 10 10l129 2q60 274 245 439.5t435 165.5q84 0 182 -25q10 -3 7 -12l-4 -15q-4 -12 -15 -8q-92 25 -174 25z" />
    <glyph glyph-name="trademark" unicode="&#x2122;" horiz-adv-x="1280" 
d="M653 1454l-2 -12q0 -10 -10 -10h-154l-47 -474q0 -10 -10 -10h-16q-11 0 -8 10l47 474h-154q-11 0 -8 10l2 12q0 10 10 10h340q10 0 10 -10zM1171 1454l-41 -496q0 -10 -10 -10h-14q-10 0 -10 10l39 453h-2l-215 -455q-3 -8 -13 -8h-18q-7 0 -10 8l-123 455h-2l-54 -453
q-3 -10 -12 -10h-12q-11 0 -8 10l59 496q3 10 12 10h31q7 0 10 -8l119 -455h6l217 455q3 8 13 8h28q10 0 10 -10z" />
    <glyph glyph-name="minus" unicode="&#x2212;" horiz-adv-x="1196" 
d="M1004 559l-3 -12q-3 -8 -12 -8h-782q-13 0 -10 10l2 12q3 8 12 8h782q6 0 9 -3t2 -7z" />
    <glyph glyph-name="infinity" unicode="&#x221e;" horiz-adv-x="2031" 
d="M1530 1012q147 0 232 -98.5t85 -258.5q0 -189 -110.5 -317.5t-282.5 -128.5q-71 0 -130.5 24t-112 74.5t-96.5 115.5t-95 161q-95 -129 -169 -206t-160.5 -123t-180.5 -46q-145 0 -227 97.5t-82 252.5q0 195 112 324t287 129q74 0 133.5 -25t110.5 -80t90 -117.5
t90 -162.5q72 99 125 162t115.5 118t127.5 80t138 25zM512 242q130 0 247.5 94t237.5 274q-47 89 -88 151.5t-90 114t-105.5 76.5t-121.5 25q-152 0 -255.5 -119t-103.5 -291q0 -141 75.5 -233t203.5 -92zM1454 242q156 0 256 118t100 291q0 142 -75.5 234t-202.5 92
q-126 0 -237 -91t-248 -276q83 -180 180.5 -274t226.5 -94z" />
    <glyph glyph-name="notequal" unicode="&#x2260;" horiz-adv-x="1202" 
d="M821 739l-211 -381h361q13 0 10 -10l-2 -12q-3 -8 -12 -8h-373l-205 -373q-3 -8 -12 -8h-12q-6 0 -9 4t0 8l205 369h-377q-13 0 -10 10l2 12q3 8 12 8h390l210 381h-555q-14 0 -10 11l2 12q3 8 13 8h567l182 328q3 8 12 8h9q6 0 8.5 -4t-0.5 -8l-178 -324h182
q13 0 10 -10l-2 -12q-3 -9 -12 -9h-195z" />
    <glyph glyph-name="lessequal" unicode="&#x2264;" horiz-adv-x="1206" 
d="M258 672l731 -279q9 -3 6 -14l-2 -12q-3 -10 -12 -7l-764 291q-12 4 -8 15l4 10v4q0 7 8 10l823 311q13 3 13 -8l2 -14q0 -9 -8 -12zM156 166l2 14q3 10 12 10h797q11 0 8 -10l-2 -14q0 -10 -10 -10h-797q-10 0 -10 10z" />
    <glyph glyph-name="greaterequal" unicode="&#x2265;" horiz-adv-x="1110" 
d="M1024 676l2 -12q0 -8 -8 -11l-825 -293q-13 -3 -13 9v12q0 7 8 10l791 281l-729 295q-10 3 -6 14l4 14q3 9 12 6l760 -309q10 -3 6 -14zM156 166l2 14q3 10 12 10h797q11 0 8 -10l-2 -14q0 -10 -10 -10h-797q-10 0 -10 10z" />
    <glyph glyph-name="apple" unicode="&#xf8ff;" horiz-adv-x="1095" 
d="M809 1096q10 0 10 -11q-13 -96 -78 -161q-29 -36 -69.5 -58.5t-79.5 -21.5q-10 0 -10 10q3 79 71 160q31 34 73.5 56.5t82.5 25.5zM786 829q17 0 36.5 -3.5t46 -12.5t52 -30.5t42.5 -53.5q4 -9 -5 -12q-15 -9 -31 -23.5t-38 -39.5t-38.5 -63t-21.5 -81q-3 -48 9 -88.5
t32.5 -66t37.5 -40t32 -22.5q8 -4 4 -12q-32 -74 -86 -146q-32 -44 -52 -68t-53.5 -46.5t-68.5 -22.5q-32 0 -78 22.5t-86 22.5q-45 0 -96 -22.5t-80 -22.5q-26 0 -48 11t-42 34t-32.5 42.5t-31.5 51.5q-32 57 -52.5 144t-20.5 172q0 135 69 239q40 61 102.5 98.5
t127.5 38.5q39 1 93.5 -24t72.5 -25q14 0 85 24.5t119 24.5z" />
    <glyph glyph-name="idotaccent" horiz-adv-x="428" 
d="M332 1485l-10 -107q-3 -10 -13 -10h-14q-11 0 -8 10l12 107q0 10 10 10h15q11 0 8 -10zM285 1044l-109 -1034q0 -10 -10 -10h-14q-12 0 -9 10l109 1034q0 11 10 11h14q5 0 7.5 -3.5t1.5 -7.5z" />
    <glyph glyph-name="braceleft.case" horiz-adv-x="794" 
d="M727 1731l-2 -13q-3 -10 -12 -10h-21q-111 0 -162.5 -50.5t-66.5 -187.5l-49 -471q-7 -63 -17.5 -105.5t-28.5 -69.5t-37 -41.5t-50 -30.5v-7q27 -14 42.5 -29t28.5 -43t12.5 -68t-4.5 -105l-49 -475q-15 -137 27.5 -187.5t153.5 -50.5h20q11 0 8 -10l-2 -13
q0 -10 -10 -10h-31q-115 0 -165 57.5t-36 204.5l50 467q14 125 -6 173.5t-95 74.5q-8 5 -6 12l2 13q0 7 8 10q56 19 85 45t44.5 71.5t24.5 131.5l47 465q14 146 77 204t179 58h31q10 0 10 -10z" />
    <glyph glyph-name="braceright.case" horiz-adv-x="794" 
d="M115 -236l2 13q3 10 12 10h21q111 0 162.5 50.5t66.5 187.5l49 471q7 63 17.5 105.5t28.5 69.5t37 41.5t50 30.5v7q-27 15 -42.5 29.5t-29 42.5t-13 68t4.5 105l49 475q15 137 -27 187.5t-153 50.5h-20q-11 0 -8 10l2 13q0 10 10 10h31q115 0 164.5 -57.5t35.5 -204.5
l-49 -467q-14 -125 5.5 -173.5t94.5 -74.5q9 -6 7 -12l-2 -13q0 -7 -9 -10q-56 -19 -85 -45.5t-44 -71.5t-24 -131l-47 -465q-14 -146 -77 -204t-179 -58h-31q-10 0 -10 10z" />
    <glyph glyph-name="bracketleft.case" horiz-adv-x="751" 
d="M352 1669l-196 -1884h311q10 0 10 -10l-2 -11q0 -10 -10 -10h-340q-11 0 -8 10l202 1926q0 10 11 10h340q11 0 8 -10l-2 -11q0 -10 -10 -10h-314z" />
    <glyph glyph-name="bracketright.case" horiz-adv-x="751" 
d="M330 1700h340q11 0 8 -10l-203 -1926q0 -10 -10 -10h-340q-11 0 -8 10l2 11q0 10 10 10h313l197 1884h-311q-11 0 -11 10l2 11q0 10 11 10z" />
    <glyph glyph-name="parenleft.case" horiz-adv-x="796" 
d="M717 1720l2 -2q7 -7 0 -14q-232 -226 -353.5 -505t-121.5 -599q0 -239 69.5 -454t202.5 -379q6 -9 -4 -15l-4 -2q-8 -6 -14 0q-135 149 -210 375t-75 477q0 326 133 622t360 496q6 6 15 0z" />
    <glyph glyph-name="parenright.case" horiz-adv-x="798" 
d="M125 -250l-2 2q-7 8 0 15q232 226 353.5 504.5t121.5 598.5q0 239 -69.5 454.5t-202.5 379.5q-5 8 4 14l4 2q8 6 14 0q135 -149 210 -375t75 -477q0 -326 -133.5 -622t-360.5 -496q-6 -6 -14 0z" />
    <glyph glyph-name="guillemetleft.case" horiz-adv-x="1210" 
d="M211 684l4 25q0 9 6 12l397 256q6 3 10 0.5t3 -8.5l-2 -19q0 -9 -6 -12l-379 -242l327 -241q7 -3 7 -13l-3 -18q-3 -12 -14 -6l-344 254q-6 3 -6 12zM1061 969l-2 -19q0 -9 -6 -12l-379 -242l327 -241q7 -3 7 -13l-2 -18q-3 -12 -15 -6l-344 254q-6 3 -6 12l4 25
q0 9 6 12l398 256q6 3 9.5 0.5t2.5 -8.5z" />
    <glyph glyph-name="guillemetright.case" horiz-adv-x="1208" 
d="M238 952l2 19q3 12 14 6l344 -254q6 -3 6 -12l-4 -25q0 -9 -6 -12l-397 -256q-6 -3 -10 -0.5t-3 8.5l2 18q0 10 7 13l378 241l-327 242q-6 3 -6 12zM684 977l344 -254q6 -3 6 -12l-4 -25q0 -9 -6 -12l-397 -256q-6 -3 -10 -0.5t-3 8.5l2 18q0 10 7 13l378 241l-327 242
q-6 3 -6 12l2 19q3 12 14 6z" />
    <glyph glyph-name="guilsinglleft.case" horiz-adv-x="778" 
d="M629 969l-2 -19q0 -9 -6 -12l-379 -242l327 -241q6 -3 6 -13l-2 -18q-3 -12 -14 -6l-344 254q-6 3 -6 12l4 25q0 9 6 12l397 256q6 3 10 0.5t3 -8.5z" />
    <glyph glyph-name="guilsinglright.case" horiz-adv-x="778" 
d="M254 977l344 -254q6 -3 6 -12l-4 -25q0 -9 -6 -12l-397 -256q-6 -3 -10 -0.5t-3 8.5l2 18q0 10 7 13l378 241l-327 242q-6 3 -6 12l2 19q3 12 14 6z" />
    <glyph glyph-name="caron.alt" 
d="M397 1550l-37 -329q-4 -11 -12 -11h-10q-5 0 -7 3.5t-1 7.5l35 329q4 11 12 11h12q5 0 7 -3.5t1 -7.5z" />
    </font>
</defs>
</svg>
