<?xml version="1.0" standalone="no"?>
<!DOCTYPE svg PUBLIC "-//W3C//DTD SVG 1.1//EN" "http://www.w3.org/Graphics/SVG/1.1/DTD/svg11.dtd" >
<svg xmlns="http://www.w3.org/2000/svg" xmlns:xlink="http://www.w3.org/1999/xlink" version="1.1">
<metadata>
Created by FontForge 20170731 at Fri Oct  2 12:21:23 2020
 By Aleksey,,,
Copyright (c) 2011 by Vincenzo Vuono. All rights reserved.
</metadata>
<defs>
<font id="Gravity-BoldItalic" horiz-adv-x="1521" >
  <font-face 
    font-family="Gravity Bold Italic"
    font-weight="700"
    font-style="italic"
    font-stretch="normal"
    units-per-em="2048"
    panose-1="0 0 8 0 0 0 0 0 0 0"
    ascent="1638"
    descent="-410"
    x-height="1100"
    cap-height="1499"
    bbox="-96.5625 -502 2222 2001"
    underline-thickness="174"
    underline-position="-624"
    slope="-6"
    unicode-range="U+0020-F8FF"
  />
<missing-glyph horiz-adv-x="1368" 
d="M1294 1446l-147 -1399q-3 -49 -53 -49h-932q-25 0 -37.5 14t-9.5 39l147 1399q6 49 55 49h930q25 0 37.5 -14t9.5 -39zM485 1352l236 -465l332 465h-568zM299 291l303 459l-211 454zM809 750l213 -457l92 911zM360 141l566 2l-236 467z" />
    <glyph glyph-name=".notdef" horiz-adv-x="1368" 
d="M1294 1446l-147 -1399q-3 -49 -53 -49h-932q-25 0 -37.5 14t-9.5 39l147 1399q6 49 55 49h930q25 0 37.5 -14t9.5 -39zM485 1352l236 -465l332 465h-568zM299 291l303 459l-211 454zM809 750l213 -457l92 911zM360 141l566 2l-236 467z" />
    <glyph glyph-name=".null" horiz-adv-x="0" 
 />
    <glyph glyph-name="nonmarkingreturn" horiz-adv-x="682" 
 />
    <glyph glyph-name="space" unicode=" " horiz-adv-x="382" 
 />
    <glyph glyph-name="exclam" unicode="!" horiz-adv-x="743" 
d="M590 1458l-96 -936q-3 -49 -54 -49h-149q-26 0 -39 14t-10 39l112 938q6 47 56 47h133q53 0 47 -53zM477 207l-18 -160q-6 -47 -56 -47h-178q-26 0 -39 14t-10 39l19 160q6 47 55 47h178q26 0 39 -14t10 -39z" />
    <glyph glyph-name="quotedbl" unicode="&#x22;" horiz-adv-x="1030" 
d="M602 1458l-125 -446q-12 -43 -57 -43h-86q-28 0 -39.5 15.5t-5.5 41.5l110 444q9 46 56 46h104q28 0 39.5 -16t3.5 -42zM973 1458l-127 -446q-12 -43 -58 -43h-83q-58 0 -46 57l109 444q9 46 55 46h107q28 0 39.5 -16t3.5 -42z" />
    <glyph glyph-name="numbersign" unicode="#" horiz-adv-x="1820" 
d="M1315 913l-103 -331h308q-1 -1 0.5 -7t-8.5 -13t-31 -7h-277l-160 -512q-12 -43 -57 -43h-98q-28 0 -40 15.5t-3 41.5l158 498h-373l-178 -571q-12 -43 -58 -43q-15 0 -19 15.5t5 41.5l174 557h-285q-2 3 -3 7.5t6.5 12t27.5 7.5h264l105 331h-256q-28 0 -39.5 16
t-3.5 42l28 90q12 43 58 43h272l141 452q15 43 60 43q11 0 13 -15.5t-7 -41.5l-135 -438h375l110 350q15 43 60 43h90q29 0 40.5 -15.5t2.5 -41.5l-105 -336h215q29 0 40.5 -15.5t2.5 -41.5l-28 -91q-12 -43 -58 -43h-231zM1116 913h-375l-102 -331h373z" />
    <glyph glyph-name="dollar" unicode="$" horiz-adv-x="1255" 
d="M719 870l57 -20q204 -68 295.5 -165.5t91.5 -223.5q0 -179 -129 -288t-346 -128l-16 -238q-3 -49 -54 -49h-104q-26 0 -38.5 15t-8.5 41l31 233q-98 13 -176 48.5t-127 86t-78 105.5t-39 114q-9 54 47 54h131q42 0 59 -41q78 -176 326 -176q279 0 279 174q0 69 -65 123.5
t-222 113.5l-60 23q-94 36 -160 70.5t-117.5 78t-76 97t-24.5 118.5q0 111 62 199.5t162.5 140t225.5 66.5l17 227q3 49 53 49h102q26 0 38.5 -14.5t8.5 -40.5l-28 -223q143 -24 237 -109t129 -209q7 -27 -5.5 -42t-39.5 -15h-125q-38 0 -59 37q-85 151 -281 151
q-129 0 -192.5 -49t-63.5 -127q0 -66 61.5 -109.5t221.5 -97.5z" />
    <glyph glyph-name="percent" unicode="%" horiz-adv-x="1609" 
d="M514 1606q118 0 196 -83.5t78 -203.5q0 -144 -101.5 -246t-240.5 -102q-117 0 -195.5 84t-78.5 205q0 142 102 244t240 102zM1493 1432l-1104 -1401q-24 -31 -63 -31h-113q-32 0 -41.5 18.5t10.5 44.5l1106 1401q24 31 64 31h110q32 0 41.5 -18.5t-10.5 -44.5zM496 1427
q-59 0 -102.5 -44.5t-43.5 -106.5q0 -53 33 -90t82 -37q59 0 103 45t44 106q0 54 -32.5 90.5t-83.5 36.5zM1249 682q120 0 198.5 -83.5t78.5 -205.5q0 -142 -102 -245t-240 -103q-118 0 -196.5 84t-78.5 205q0 142 102 245t238 103zM1233 504q-59 0 -102.5 -44.5
t-43.5 -107.5q0 -53 33 -91t82 -38q59 0 103.5 45.5t44.5 106.5q0 55 -33 92t-84 37z" />
    <glyph glyph-name="ampersand" unicode="&#x26;" horiz-adv-x="1562" 
d="M1343 0h-186q-39 0 -63 31l-39 51q-187 -127 -441 -127q-215 0 -346 99t-131 265q0 101 47.5 188.5t125 154t198.5 137.5q-63 94 -90 165.5t-27 145.5q0 117 52.5 212.5t153.5 152.5t232 57q163 0 254 -93t91 -237q0 -135 -75.5 -243t-256.5 -220l219 -280q32 87 43 180
q2 5 6 11.5t17 18t28 11.5h125q51 0 51 -37q2 -14 2 -39q0 -198 -106 -354l147 -187q20 -26 10.5 -44.5t-41.5 -18.5zM805 1329q-84 0 -135.5 -57.5t-51.5 -130.5q0 -95 105 -248q113 75 166 138t53 145q0 64 -33.5 108.5t-103.5 44.5zM649 168q167 0 275 84l-299 389
q-131 -82 -188.5 -150t-57.5 -141q0 -81 71 -131.5t199 -50.5z" />
    <glyph glyph-name="quotesingle" unicode="'" horiz-adv-x="663" 
d="M602 1458l-125 -446q-12 -43 -57 -43h-86q-28 0 -39.5 15.5t-5.5 41.5l110 444q9 46 56 46h104q28 0 39.5 -16t3.5 -42z" />
    <glyph glyph-name="parenleft" unicode="(" horiz-adv-x="968" 
d="M770 1505l25 -20q41 -30 10 -72q-324 -441 -324 -1063q0 -426 137 -706q21 -44 -18 -70l-39 -25q-42 -28 -69 9q-127 151 -199 372.5t-72 464.5q0 324 129 615t348 493q34 29 72 2z" />
    <glyph glyph-name="parenright" unicode=")" horiz-adv-x="968" 
d="M195 -449l-25 19q-41 30 -10 72q325 442 325 1065q0 203 -36 385.5t-103 318.5q-21 43 19 70l38 26q43 29 72 -8q126 -151 198 -373t72 -464q0 -324 -129.5 -615t-349.5 -493q-34 -30 -71 -3z" />
    <glyph glyph-name="asterisk" unicode="*" horiz-adv-x="1134" 
d="M743 1145l164 -76q49 -21 21 -70l-43 -63q-31 -45 -72 -10l-133 114l2 -194q0 -51 -51 -51h-70q-27 0 -38.5 15t-4.5 42l45 192l-164 -118q-47 -31 -71 18l-27 57q-19 48 29 68l188 78l-166 76q-49 24 -18 69l45 64q31 45 72 10l135 -119l-4 203q0 51 51 51l69 -2
q27 0 39.5 -14.5t6.5 -40.5l-48 -197l164 119q22 15 41 10t29 -30l24 -56q18 -47 -26 -67z" />
    <glyph glyph-name="plus" unicode="+" horiz-adv-x="1497" 
d="M1272 600l-12 -104q-6 -47 -56 -47h-356l-41 -390q-6 -49 -55 -49h-117q-25 0 -37.5 14t-9.5 39l41 386h-357q-25 0 -37.5 14t-9.5 39l11 102q6 49 55 49h360l41 387q6 50 56 50h116q25 0 37.5 -14.5t9.5 -39.5l-41 -383h353q26 0 39 -14t10 -39z" />
    <glyph glyph-name="comma" unicode="," horiz-adv-x="733" 
d="M467 197l-14 -131q-15 -157 -62.5 -258t-140.5 -185q-34 -29 -70 -6q-41 24 -6 68q45 59 66 112.5t13 101t-50 78.5q-36 25 -33 64l16 160q6 49 56 49h176q26 0 39 -14t10 -39z" />
    <glyph glyph-name="hyphen" unicode="-" horiz-adv-x="1210" 
d="M987 629l-10 -111q-3 -49 -53 -49h-652q-25 0 -37.5 14t-9.5 39l13 111q3 49 53 49h649q53 0 47 -53z" />
    <glyph glyph-name="period" unicode="." horiz-adv-x="729" 
d="M461 195l-15 -144q-3 -49 -53 -49h-168q-53 0 -47 53l15 144q3 49 53 49h168q53 0 47 -53z" />
    <glyph glyph-name="slash" unicode="/" horiz-adv-x="1431" 
d="M1266 1436l-817 -1401q-20 -35 -62 -35h-143q-31 0 -41.5 17.5t6.5 43.5l819 1401q20 35 62 35h141q31 0 41.5 -17.5t-6.5 -43.5z" />
    <glyph glyph-name="zero" unicode="0" horiz-adv-x="1204" 
d="M711 1522q206 0 322 -162t116 -455q0 -278 -78 -489t-217.5 -323.5t-321.5 -112.5q-207 0 -322.5 166t-115.5 466q0 419 170 664.5t447 245.5zM666 1311q-165 0 -246.5 -174.5t-81.5 -499.5q0 -221 62 -334t178 -113q164 0 245.5 178t81.5 502q0 221 -61.5 331
t-177.5 110z" />
    <glyph glyph-name="one" unicode="1" horiz-adv-x="1013" 
d="M631 1501h264q53 0 47 -53l-139 -1399q-3 -49 -53 -49h-156q-26 0 -39 14t-10 39l139 1254h-16l-361 -299q-41 -33 -71 8l-62 78q-29 37 8 71l385 314q27 22 64 22z" />
    <glyph glyph-name="two" unicode="2" horiz-adv-x="1226" 
d="M506 221h551q53 0 47 -53l-12 -119q-3 -49 -54 -49h-843q-53 0 -50 53l11 103q4 41 30 67l404 402q91 91 145 148.5t106.5 124.5t75.5 124t23 111q0 85 -56.5 138.5t-152.5 53.5q-89 0 -162.5 -47.5t-115.5 -138.5q-17 -41 -60 -41h-119q-30 0 -41.5 15.5t-1.5 41.5
q27 75 74.5 141.5t114 121t156.5 86.5t192 32q98 0 176 -32t125 -85.5t71.5 -120.5t24.5 -141q0 -34 -6.5 -68.5t-14.5 -64t-27.5 -66t-33.5 -62.5t-44.5 -66t-48.5 -63t-57 -68t-59 -67t-67 -73t-68 -74l-231 -254z" />
    <glyph glyph-name="three" unicode="3" horiz-adv-x="1191" 
d="M879 797q223 -85 223 -320q0 -97 -35 -186t-101 -160t-173 -113.5t-240 -42.5q-115 0 -208.5 33t-151.5 88.5t-90.5 123.5t-36.5 142q-1 25 12.5 38.5t38.5 13.5h141q24 0 36 -12t17 -37q17 -87 84.5 -132t167.5 -45q138 0 221.5 77t83.5 212q0 107 -79.5 159t-266.5 52
h-37q-53 0 -47 53l11 99q3 49 53 49h43q190 0 270 61.5t80 171.5q0 92 -57 147.5t-154 55.5q-93 0 -166 -47t-115 -139q-17 -41 -59 -41h-121q-29 0 -41.5 15.5t-3.5 41.5q27 74 73.5 139.5t112.5 121t158 88t197 32.5q101 0 181 -31.5t128.5 -85t74 -120t25.5 -140.5
q0 -116 -60.5 -212t-188.5 -150z" />
    <glyph glyph-name="four" unicode="4" horiz-adv-x="1306" 
d="M1214 451l-10 -107q-6 -49 -55 -49h-186l-25 -246q-3 -49 -53 -49h-144q-26 0 -39 14t-10 39l27 242h-610q-53 0 -50 53l11 107q7 68 39 108l702 899q33 39 72 39h147q53 0 47 -53l-94 -944h184q53 0 47 -53zM743 504l72 653h-10l-496 -647v-6h434z" />
    <glyph glyph-name="five" unicode="5" horiz-adv-x="1189" 
d="M1145 1448l-12 -117q-3 -49 -54 -49h-585l-70 -371h20q122 58 240 58q196 0 308 -125t112 -318q0 -108 -33.5 -204.5t-98 -175t-172 -125t-243.5 -46.5q-113 0 -207 33t-154.5 88.5t-94.5 124.5t-38 144q0 49 54 49h141q47 0 53 -49q17 -86 83 -131.5t175 -45.5
q301 0 301 324q0 244 -241 244q-113 0 -228 -68q-30 -21 -63 -18l-125 4q-54 3 -45 57l143 725q9 45 56 45h731q25 0 37.5 -14t9.5 -39z" />
    <glyph glyph-name="six" unicode="6" horiz-adv-x="1232" 
d="M707 940q201 0 319.5 -123.5t118.5 -312.5q0 -122 -48.5 -224.5t-129.5 -170t-186 -105t-220 -37.5q-79 0 -147 20t-128.5 66.5t-103 117t-67.5 176.5t-25 239q0 212 49.5 390.5t137 301t211 190.5t268.5 68q183 0 293.5 -103.5t128.5 -267.5q6 -53 -50 -53l-122 -2
q-44 0 -56 47q-22 80 -84 122t-141 42q-152 0 -250 -128.5t-133 -352.5h29q169 100 336 100zM606 182q137 0 222 75.5t85 211.5q0 50 -13.5 93t-42.5 81t-83.5 60t-128.5 22q-170 0 -321 -104v-23q0 -122 22 -207t63 -129t88 -62t109 -18z" />
    <glyph glyph-name="seven" unicode="7" horiz-adv-x="1163" 
d="M231 1501h899q25 0 38 -14t10 -39l-11 -96q-3 -35 -37 -84q-334 -507 -671 -1229q-17 -39 -62 -39h-174q-30 0 -40 16.5t3 44.5q319 634 705 1203l2 18h-680q-26 0 -39 14t-10 39l12 117q6 49 55 49z" />
    <glyph glyph-name="eight" unicode="8" horiz-adv-x="1216" 
d="M713 1532q189 0 303 -108.5t114 -274.5q0 -229 -194 -350v-6q84 -42 137 -130t53 -210q0 -226 -160 -362t-419 -136q-223 0 -355.5 110.5t-132.5 296.5q0 83 23.5 155.5t64 125t82.5 88.5t90 62v8q-116 87 -116 266q0 199 143.5 332t366.5 133zM690 1329
q-116 0 -187 -71.5t-71 -186.5q0 -91 53.5 -148t155.5 -57q118 0 188 73.5t70 184.5q0 91 -57 148t-152 57zM623 688q-142 0 -232 -83.5t-90 -211.5q0 -103 69.5 -164t196.5 -61q152 0 237 75t85 203q0 106 -72.5 174t-193.5 68z" />
    <glyph glyph-name="nine" unicode="9" horiz-adv-x="1302" 
d="M784 1536q78 0 145.5 -20t128 -66.5t103 -116.5t67.5 -176.5t25 -241.5q0 -440 -183.5 -694t-485.5 -254q-188 0 -303.5 104.5t-135.5 266.5q-6 50 50 53l135 2q43 3 55 -45q19 -82 82 -123t147 -41q160 0 260.5 130t133.5 362h-33q-171 -101 -334 -101
q-197 0 -309.5 118t-112.5 306q0 161 79 285t206.5 188t279.5 64zM705 786q154 0 317 107v8q0 123 -22 208.5t-62 130.5t-87 64t-106 19q-136 0 -216 -76t-80 -215q0 -49 12.5 -90t40.5 -77.5t80 -57.5t123 -21z" />
    <glyph glyph-name="colon" unicode=":" horiz-adv-x="751" 
d="M578 1081l-19 -157q-6 -47 -55 -47h-178q-26 0 -39.5 14.5t-10.5 40.5l21 155q6 48 53 48h178q26 0 39.5 -14.5t10.5 -39.5zM477 211l-18 -160q-6 -47 -56 -47h-178q-26 0 -39 14t-10 39l19 160q6 47 55 47h178q26 0 39 -14t10 -39z" />
    <glyph glyph-name="semicolon" unicode=";" horiz-adv-x="745" 
d="M555 1081l-18 -157q-6 -47 -56 -47h-176q-26 0 -39 14t-10 39l18 157q6 48 56 48h176q26 0 39 -14.5t10 -39.5zM487 197l-14 -131q-15 -157 -62.5 -258t-140.5 -185q-33 -29 -69 -6q-41 24 -6 68q45 59 66 112.5t12.5 101t-50.5 78.5q-36 25 -33 64l17 160q6 49 55 49
h176q26 0 39 -14t10 -39z" />
    <glyph glyph-name="less" unicode="&#x3c;" horiz-adv-x="1257" 
d="M1075 991l-12 -102q-3 -40 -41 -58l-686 -284l620 -277q40 -17 37 -63l-12 -107q-4 -29 -21 -38.5t-42 1.5l-785 363q-40 17 -37 61l15 117q3 40 41 58l866 370q29 12 44.5 0.5t12.5 -41.5z" />
    <glyph glyph-name="equal" unicode="=" horiz-adv-x="1513" 
d="M1309 803l-11 -101q-3 -49 -53 -49h-944q-52 0 -49 54l10 100q3 49 53 49h945q52 0 49 -53zM1251 334l-10 -98q-3 -50 -53 -50h-942q-52 0 -49 54l10 98q3 49 53 49h944q25 0 37.5 -14t9.5 -39z" />
    <glyph glyph-name="greater" unicode="&#x3e;" horiz-adv-x="1169" 
d="M428 1036l784 -362q40 -17 37 -62l-14 -116q-3 -40 -41 -58l-866 -370q-29 -12 -45 -1t-13 42l13 102q3 39 41 57l686 285l-621 276q-40 17 -37 64l13 106q4 29 21 38.5t42 -1.5z" />
    <glyph glyph-name="question" unicode="?" horiz-adv-x="1208" 
d="M737 1536q102 0 183 -31t131 -85t76 -124.5t26 -152.5q0 -174 -106 -312.5t-326 -250.5l-10 -103q-6 -49 -56 -49h-155q-53 0 -47 53l14 154q3 38 43 59q120 55 200 107t123.5 104t60.5 100t17 107q0 96 -57.5 148.5t-157.5 52.5q-92 0 -165 -43.5t-111 -130.5
q-15 -41 -58 -41h-133q-28 0 -41.5 10.5t-7.5 28.5q18 60 50 116t81.5 108t111 90.5t143 61.5t171.5 23zM680 170l-14 -143q-6 -50 -56 -50h-168q-25 0 -37.5 14.5t-9.5 39.5l15 143q6 49 55 49h168q53 0 47 -53z" />
    <glyph glyph-name="at" unicode="@" horiz-adv-x="1906" 
d="M1063 1341q159 0 290.5 -49.5t220 -137t137 -208t48.5 -260.5q0 -128 -33 -227.5t-89.5 -158t-126 -88.5t-148.5 -30q-58 0 -103.5 16.5t-73 43.5t-42.5 53t-23 53h-10q-43 -77 -114 -116t-142 -39q-110 0 -179 84.5t-69 218.5q0 172 104 283.5t244 111.5q115 0 176 -96
h7l2 24q6 49 55 49h59q53 0 47 -53l-26 -272q-21 -191 110 -191q88 0 133.5 78.5t45.5 222.5q0 229 -142 365.5t-381 136.5q-140 0 -264.5 -47.5t-217.5 -133t-147.5 -215t-54.5 -284.5q0 -249 156 -398t442 -149q98 0 195 17q55 9 55 -47l-4 -58q-3 -44 -43 -55
q-117 -35 -258 -35q-333 0 -538 196t-205 515q0 193 72 358.5t194.5 279t288.5 178t352 64.5zM952 733q-83 0 -127.5 -58.5t-44.5 -160.5q0 -78 35 -120t98 -42q72 0 123 49t64 134l4 32q3 80 -38.5 123t-113.5 43z" />
    <glyph glyph-name="A" unicode="A" horiz-adv-x="1357" 
d="M909 436h-487l-174 -397q-14 -39 -60 -39h-161q-29 0 -39 16.5t2 42.5l651 1401q17 39 61 39h152q46 0 55 -45l357 -1397q6 -26 -5.5 -41.5t-39.5 -15.5h-166q-47 0 -56 45zM860 655l-117 512l-225 -512h342z" />
    <glyph glyph-name="B" unicode="B" horiz-adv-x="1376" 
d="M1126 786q158 -103 158 -297q0 -98 -38.5 -187.5t-106 -156t-165.5 -106t-210 -39.5h-610q-25 0 -38 14t-10 39l154 1397q6 49 55 49h547q190 0 302 -104t112 -267q0 -98 -39 -187t-111 -155zM485 1286l-41 -416h363q104 0 163.5 60t59.5 168q0 87 -57.5 137.5
t-161.5 50.5h-326zM379 213h389q132 0 202 64.5t70 175.5q0 93 -67 147.5t-193 54.5h-356z" />
    <glyph glyph-name="C" unicode="C" horiz-adv-x="1495" 
d="M881 1532q212 0 363 -115t202 -319q7 -26 -5 -41t-40 -15l-135 -2q-42 0 -62 39q-56 116 -149.5 177t-214.5 61q-101 0 -190.5 -42t-158 -120t-108 -199.5t-39.5 -271.5q0 -233 112 -366.5t304 -133.5q253 0 391 248q18 37 59 37l131 -2q29 0 40.5 -16.5t0.5 -42.5
q-39 -84 -99 -159.5t-142.5 -140.5t-194 -103t-235.5 -38q-187 0 -327 86.5t-214 242t-74 357.5q0 189 63 354t169.5 279.5t250.5 180t302 65.5z" />
    <glyph glyph-name="D" unicode="D" horiz-adv-x="1499" 
d="M315 1499h496q312 0 472.5 -169t160.5 -464q0 -146 -32 -275.5t-97.5 -238t-158.5 -187t-221 -122t-280 -43.5h-501q-25 0 -38 14t-10 39l154 1397q6 49 55 49zM379 215h287q251 0 393.5 162.5t142.5 449.5q0 224 -111 341.5t-317 117.5h-289z" />
    <glyph glyph-name="E" unicode="E" horiz-adv-x="1204" 
d="M485 1280l-39 -389h580q53 0 47 -53l-12 -117q-3 -49 -53 -49h-582l-45 -453h651q26 0 39 -14t10 -39l-12 -117q-6 -49 -55 -49h-860q-25 0 -38 14t-10 39l154 1397q6 49 55 49h852q26 0 39.5 -14t10.5 -39l-13 -117q-6 -49 -55 -49h-664z" />
    <glyph glyph-name="F" unicode="F" horiz-adv-x="1208" 
d="M485 1280l-34 -362h579q26 0 39 -14.5t10 -39.5l-12 -116q-6 -50 -55 -50h-584l-66 -649q-3 -49 -53 -49h-155q-25 0 -38 14t-10 39l154 1397q6 49 55 49h856q26 0 39.5 -14.5t10.5 -40.5l-17 -117q-6 -47 -53 -47h-666z" />
    <glyph glyph-name="G" unicode="G" horiz-adv-x="1531" 
d="M903 748h524q42 0 39 -52q-20 -151 -84.5 -284t-163 -232t-235 -156t-291.5 -57q-269 0 -433.5 191t-164.5 499q0 187 62.5 351t169 278.5t250 180t301.5 65.5q209 0 360.5 -112.5t204.5 -301.5q6 -26 -6 -40.5t-39 -14.5l-135 -4q-42 0 -62 39q-59 105 -152.5 162
t-211.5 57q-102 0 -192 -42t-158.5 -120t-108 -199.5t-39.5 -271.5q0 -233 112.5 -366.5t303.5 -133.5q147 0 265.5 91t174.5 253h-307q-52 0 -49 54l12 116q3 50 53 50z" />
    <glyph glyph-name="H" unicode="H" horiz-adv-x="1519" 
d="M1262 1499h139q53 0 47 -53l-139 -1397q-3 -49 -54 -49h-155q-26 0 -39 14t-10 39l69 619h-694l-64 -623q-3 -49 -53 -49h-155q-25 0 -38 14t-10 39l154 1397q6 49 55 49h140q53 0 47 -53l-56 -555h699l61 559q6 49 56 49z" />
    <glyph glyph-name="I" unicode="I" horiz-adv-x="819" 
d="M625 1446l-140 -1397q-3 -49 -53 -49h-156q-25 0 -37.5 14t-9.5 39l154 1397q6 49 55 49h140q53 0 47 -53z" />
    <glyph glyph-name="J" unicode="J" horiz-adv-x="1021" 
d="M834 1448l-74 -741q-21 -198 -74 -333.5t-141.5 -215t-200 -115.5t-266.5 -41q-55 0 -49 55l12 113q6 46 55 49q133 5 214 51t128 145.5t68 272.5l86 766q6 47 55 47h139q54 0 48 -53z" />
    <glyph glyph-name="K" unicode="K" horiz-adv-x="194" 
d="M813 864l496 -803q17 -26 7.5 -43.5t-40.5 -17.5h-197q-41 0 -61 35l-375 670l-225 -207l-45 -449q-3 -49 -54 -49h-155q-25 0 -37.5 14t-9.5 39l153 1397q6 49 56 49h139q53 0 47 -53l-66 -658l738 687q24 24 63 24h164q34 0 42 -19t-17 -44z" />
    <glyph glyph-name="L" unicode="L" horiz-adv-x="1187" 
d="M381 219h676q26 0 39 -14t10 -39l-12 -117q-6 -49 -56 -49h-884q-25 0 -38 14t-10 39l154 1397q6 49 55 49h140q53 0 47 -53z" />
    <glyph glyph-name="M" unicode="M" horiz-adv-x="1794" 
d="M1372 1499h262q52 0 49 -53l-100 -1397q-3 -49 -53 -49h-144q-52 0 -49 53l105 1153l-455 -1165q-17 -41 -59 -41h-164q-46 0 -55 47l-213 1196l-142 -1196q-6 -47 -55 -47h-143q-26 0 -38.5 14.5t-8.5 40.5l194 1397q6 47 53 47h273q46 0 55 -45l203 -1063l426 1067
q17 41 59 41z" />
    <glyph glyph-name="N" unicode="N" horiz-adv-x="1531" 
d="M1280 1499h135q53 0 47 -53l-141 -1397q-3 -49 -53 -49h-256q-43 0 -60 39l-475 1184l-119 -1174q-3 -49 -53 -49h-151q-25 0 -38 14t-10 39l154 1397q6 49 55 49h271q42 0 59 -39l457 -1124l123 1114q6 49 55 49z" />
    <glyph glyph-name="O" unicode="O" horiz-adv-x="1554" 
d="M891 1532q271 0 439.5 -185t168.5 -485q0 -149 -41 -287.5t-115.5 -247.5t-173 -190.5t-219 -125.5t-248.5 -44q-176 0 -314 87.5t-215 245t-77 359.5q0 187 63.5 351t171 277.5t253.5 179t307 65.5zM848 1317q-104 0 -195.5 -42t-161 -120t-109.5 -199t-40 -270
q0 -233 110 -367.5t291 -134.5q105 0 198 44t163 125t110.5 204.5t40.5 273.5q0 229 -112 357.5t-295 128.5z" />
    <glyph glyph-name="P" unicode="P" horiz-adv-x="1366" 
d="M315 1499h562q210 0 335 -116t125 -304q0 -149 -72.5 -272.5t-202.5 -195.5t-290 -72h-360l-50 -490q-3 -49 -53 -49h-155q-25 0 -38 14t-10 39l154 1397q6 49 55 49zM434 752h344q151 0 231.5 75.5t80.5 208.5q0 116 -69 183t-187 67h-347z" />
    <glyph glyph-name="Q" unicode="Q" horiz-adv-x="1554" 
d="M1499 862q0 -217 -83.5 -402t-227.5 -308l72 -103q27 -41 -11 -72l-94 -73q-43 -32 -72 10l-84 117q-144 -64 -297 -64q-176 0 -314 87.5t-215 245t-77 359.5q0 187 63.5 351t171 277.5t253.5 179t307 65.5q271 0 439.5 -185t168.5 -485zM743 184q68 0 136 19l-68 94
q-28 42 10 72l97 73q42 31 71 -10l80 -115q186 183 186 514q0 229 -112 357.5t-295 128.5q-104 0 -195.5 -42t-161 -120t-109.5 -199t-40 -270q0 -233 110 -367.5t291 -134.5z" />
    <glyph glyph-name="R" unicode="R" horiz-adv-x="1345" 
d="M1317 1110q0 -171 -112.5 -303t-299.5 -170l330 -576q15 -26 4.5 -43.5t-39.5 -17.5h-194q-42 0 -60 37l-309 586h-217l-58 -574q-3 -49 -53 -49h-155q-25 0 -38 14t-10 39l154 1397q6 49 55 49h557q203 0 324 -109t121 -280zM442 836h334q295 0 295 241
q0 98 -65.5 153.5t-184.5 55.5h-334z" />
    <glyph glyph-name="S" unicode="S" horiz-adv-x="1314" 
d="M766 1532q196 0 324 -102.5t170 -268.5q7 -26 -5.5 -40.5t-40.5 -14.5h-135q-41 0 -61 39q-90 170 -297 170q-135 0 -201.5 -54.5t-66.5 -142.5q0 -71 64.5 -119t234.5 -110l59 -21q406 -145 406 -432q0 -220 -161.5 -344.5t-424.5 -124.5q-108 0 -198 25t-151 65
t-106 94.5t-69 109.5t-33 114q-6 53 49 53h141q43 0 58 -41q85 -201 348 -201q293 0 293 193q0 78 -68.5 139.5t-232.5 124.5l-66 27q-99 39 -167.5 77t-123 86.5t-80.5 108t-26 133.5q0 137 80.5 243t208.5 160t278 54z" />
    <glyph glyph-name="T" unicode="T" horiz-adv-x="1193" 
d="M1255 1446l-12 -117q-6 -49 -55 -49h-393l-121 -1231q-3 -49 -53 -49h-156q-26 0 -39 14t-10 39l137 1227h-389q-26 0 -39 14t-10 39l12 117q6 49 55 49h1026q25 0 37.5 -14t9.5 -39z" />
    <glyph glyph-name="U" unicode="U" 
d="M1454 1446l-80 -799q-22 -219 -117.5 -374.5t-238 -230.5t-320.5 -75q-131 0 -236.5 44t-178 128t-103.5 214t-12 294l88 803q6 49 55 49h138q53 0 47 -53l-76 -772q-23 -249 58 -369.5t253 -120.5q171 0 269.5 119.5t125.5 370.5l84 776q6 49 56 49h141q53 0 47 -53z
" />
    <glyph glyph-name="V" unicode="V" horiz-adv-x="1320" 
d="M1196 1499h141q29 0 40 -16.5t-1 -42.5l-616 -1401q-14 -39 -60 -39h-194q-46 0 -55 45l-318 1397q-6 27 6 42t39 15h146q46 0 55 -45l256 -1096l500 1102q17 39 61 39z" />
    <glyph glyph-name="W" unicode="W" horiz-adv-x="1921" 
 />
    <glyph glyph-name="X" unicode="X" horiz-adv-x="1433" 
d="M893 766l371 -705q14 -28 4 -44.5t-41 -16.5h-185q-41 0 -59 37l-272 536l-383 -540q-23 -33 -62 -33h-166q-32 0 -41 18t11 43l538 719l-334 658q-13 28 -3 44.5t40 16.5h156q41 0 59 -37l265 -499l368 505q25 31 62 31h137q32 0 41.5 -18t-10.5 -43z" />
    <glyph glyph-name="Y" unicode="Y" horiz-adv-x="1200" 
d="M731 604l-53 -555q-3 -49 -53 -49h-154q-25 0 -37.5 14t-9.5 39l61 553l-340 834q-10 26 0.5 42.5t38.5 16.5h160q42 0 59 -41l230 -600h14l359 606q20 35 61 35h141q31 0 40.5 -17.5t-5.5 -43.5z" />
    <glyph glyph-name="Z" unicode="Z" horiz-adv-x="1312" 
d="M299 1499h913q26 0 39.5 -14t10.5 -39l-13 -96q-3 -39 -30 -68l-832 -1046l-2 -15h713q26 0 39 -14t10 -39l-12 -119q-6 -49 -56 -49h-981q-25 0 -37.5 14t-9.5 39l10 103q3 27 37 67l828 1039l2 18h-649q-26 0 -39.5 14t-10.5 39l15 119q6 47 55 47z" />
    <glyph glyph-name="bracketleft" unicode="[" horiz-adv-x="999" 
d="M526 1305l-157 -1565h262q26 0 39 -14t10 -39l-10 -90q-6 -48 -56 -48h-436q-25 0 -37.5 14.5t-9.5 39.5l201 1843q6 49 55 49h428q53 0 47 -53l-8 -88q-3 -49 -53 -49h-275z" />
    <glyph glyph-name="backslash" unicode="\" horiz-adv-x="1431" 
d="M393 1497h113q42 0 59 -41l555 -1397q11 -26 0.5 -42.5t-39.5 -16.5h-114q-43 0 -60 41l-555 1397q-9 27 1.5 43t39.5 16z" />
    <glyph glyph-name="bracketright" unicode="]" horiz-adv-x="999" 
d="M381 1495h436q25 0 37.5 -14t9.5 -39l-200 -1843q-6 -50 -56 -50h-428q-53 0 -47 54l8 88q3 49 54 49h274l158 1565h-262q-26 0 -39.5 14t-10.5 39l11 90q6 47 55 47z" />
    <glyph glyph-name="asciicircum" unicode="^" horiz-adv-x="1552" 
d="M1251 449h-143q-45 0 -57 43l-205 686l-373 -693q-16 -36 -59 -36h-125q-31 0 -41 16.5t4 44.5l479 874q19 37 62 37h170q45 0 57 -43l274 -872q9 -26 -3 -41.5t-40 -15.5z" />
    <glyph glyph-name="underscore" unicode="_" horiz-adv-x="1261" 
d="M1122 -180l-14 -70q-9 -45 -57 -45h-1024q-56 0 -47 55l14 70q9 45 55 45h1026q56 0 47 -55z" />
    <glyph glyph-name="grave" unicode="`" horiz-adv-x="194" 
d="M160 1563h88q41 0 61 -35l144 -232q17 -26 7.5 -43.5t-40.5 -17.5h-21q-40 0 -63 29l-205 235q-23 26 -14 45t43 19z" />
    <glyph glyph-name="a" unicode="a" horiz-adv-x="1122" 
d="M637 1133q194 0 289.5 -108.5t74.5 -334.5l-61 -641q-3 -49 -53 -49h-137q-26 0 -39.5 14t-10.5 39l13 113h-17q-63 -87 -159.5 -138t-210.5 -51q-132 0 -209.5 72.5t-77.5 202.5q0 205 160.5 305t502.5 127l64 4l2 29q10 98 -28.5 154.5t-147.5 56.5q-139 0 -201 -92
q-24 -37 -61 -37h-127q-29 0 -43.5 8t-9.5 22q16 42 42.5 82.5t69 81.5t94.5 71.5t125 49.5t156 19zM748 510l-62 -4q-223 -18 -316.5 -71.5t-93.5 -143.5q0 -48 32 -76.5t95 -28.5q138 0 238 89.5t102 185.5z" />
    <glyph glyph-name="b" unicode="b" horiz-adv-x="1202" 
d="M422 1028h12q97 105 260 105q202 0 322.5 -143.5t120.5 -377.5q0 -181 -65.5 -329t-179.5 -232t-253 -84q-94 0 -173 45t-120 133h-12l-10 -96q-6 -49 -56 -49h-143q-25 0 -37.5 14t-9.5 39l158 1438q6 49 55 49h127q53 0 47 -53zM672 922q-124 0 -211 -104.5
t-105 -289.5l2 -10q-12 -161 52.5 -249.5t187.5 -88.5q141 0 219 115t78 311q0 152 -60.5 234t-162.5 82z" />
    <glyph glyph-name="c" unicode="c" horiz-adv-x="1054" 
d="M629 1135q90 0 166 -28t126.5 -75.5t81.5 -105.5t41 -123q4 -26 -9 -39.5t-40 -13.5h-127q-42 0 -59 41q-56 131 -199 131t-224 -107.5t-81 -341.5q0 -291 240 -291q78 0 125.5 29.5t81.5 85.5q24 37 61 37h123q29 0 41 -17t0 -43q-40 -81 -103 -147.5t-163 -113
t-215 -46.5q-200 0 -315 134.5t-115 361.5q0 301 160 486.5t403 185.5z" />
    <glyph glyph-name="d" unicode="d" horiz-adv-x="1200" 
d="M1161 1487l-143 -1438q-3 -49 -53 -49h-150q-26 0 -39 14t-10 39l10 92h-14q-59 -89 -144.5 -133.5t-181.5 -44.5q-168 0 -270.5 138t-102.5 354q0 146 43 272t118.5 214t180.5 138t226 50q161 0 237 -105h9l49 463q6 49 55 49h133q53 0 47 -53zM604 922
q-144 0 -221.5 -115t-77.5 -311q0 -150 61 -232t162 -82q124 0 210 102.5t104 282.5l-2 11q17 165 -48 254.5t-188 89.5z" />
    <glyph glyph-name="e" unicode="e" horiz-adv-x="1112" 
d="M649 1135q119 0 206.5 -46.5t132.5 -126.5t61.5 -188t-5.5 -231q-6 -47 -55 -47h-688q-7 -160 61.5 -238t188.5 -78q125 0 203 111q22 35 63 35h125q29 0 39.5 -17t-2.5 -45q-74 -144 -198 -220.5t-273 -76.5q-200 0 -321 138t-121 366q0 190 74.5 342t207.5 237t301 85z
M604 922q-191 0 -268 -238h481q6 101 -48 169.5t-165 68.5z" />
    <glyph glyph-name="f" unicode="f" horiz-adv-x="784" 
d="M846 1487l-12 -113q-3 -47 -54 -47q-40 -1 -65 -2.5t-55 -7t-48 -14.5t-37 -24.5t-30 -38t-19.5 -55t-11.5 -75.5v-10h227q26 0 39.5 -14t10.5 -39l-11 -99q-6 -49 -55 -49h-231l-84 -850q-3 -49 -54 -49h-147q-26 0 -39 14t-10 39l94 846h-111q-26 0 -39 14t-10 39
l10 99q6 49 56 49h116q57 455 523 444q53 -3 47 -57z" />
    <glyph glyph-name="g" unicode="g" horiz-adv-x="1204" 
d="M559 1133q97 0 173.5 -48t117.5 -137h14l15 105q6 47 53 47h135q52 0 49 -53l-80 -881q-15 -163 -65.5 -289t-127.5 -203.5t-172.5 -117t-205.5 -39.5q-142 0 -244 66t-153 194q-10 27 1.5 43t39.5 16h135q36 0 63 -35q58 -71 176 -71q116 0 189.5 80.5t95.5 273.5l4 27
h-12q-56 -60 -113.5 -85.5t-138.5 -25.5q-201 0 -320.5 135.5t-119.5 360.5q0 175 64.5 321t177.5 231t249 85zM606 922q-128 0 -214.5 -118t-86.5 -310q0 -135 57 -208t166 -73q123 0 207.5 78.5t102.5 224.5l-4 10q23 183 -41 289.5t-187 106.5z" />
    <glyph glyph-name="h" unicode="h" horiz-adv-x="1157" 
d="M418 950h18q125 170 309 170q154 0 233 -108t60 -303l-63 -660q-3 -49 -53 -49h-148q-26 0 -39 14t-10 39l68 594q13 122 -28 182t-128 60q-112 0 -186.5 -93t-81.5 -272l-41 -475q-3 -49 -54 -49h-149q-25 0 -37.5 14t-9.5 39l158 1438q6 49 55 49h133q53 0 47 -53z" />
    <glyph glyph-name="i" unicode="i" horiz-adv-x="550" 
d="M494 1487l-15 -133q-3 -49 -53 -49h-131q-26 0 -39 14t-10 39l14 133q6 49 55 49h131q25 0 38 -14t10 -39zM444 1047l-96 -998q-3 -49 -53 -49h-148q-26 0 -39 14t-10 39l111 998q6 49 55 49h133q53 0 47 -53z" />
    <glyph glyph-name="j" unicode="j" horiz-adv-x="653" 
d="M575 1487l-14 -133q-3 -49 -53 -49h-131q-26 0 -39 14t-10 39l14 133q6 49 55 49h131q25 0 37.5 -14t9.5 -39zM528 1047l-100 -1047q-11 -106 -44 -186.5t-77 -128t-105.5 -78t-119.5 -42t-129 -14.5q-26 -1 -39 13.5t-10 40.5l12 110q3 46 53 49q41 1 65 5t50.5 16
t41.5 35t28 62.5t20 97.5l121 1073q6 47 55 47h131q53 0 47 -53z" />
    <glyph glyph-name="k" unicode="k" horiz-adv-x="1140" 
d="M625 639l354 -578q15 -26 5.5 -43.5t-40.5 -17.5h-162q-41 0 -61 35l-258 459l-98 -91l-37 -354q-3 -49 -54 -49h-149q-25 0 -37.5 14t-9.5 39l158 1438q6 49 55 49h133q53 0 47 -53l-82 -819l440 407q25 25 64 25h145q35 0 43 -19.5t-18 -44.5z" />
    <glyph glyph-name="l" unicode="l" horiz-adv-x="587" 
d="M510 1487l-143 -1438q-3 -49 -54 -49h-149q-26 0 -39 14t-10 39l159 1438q6 49 56 49h133q53 0 47 -53z" />
    <glyph glyph-name="m" unicode="m" horiz-adv-x="1746" 
d="M1343 1133q156 0 231 -110.5t56 -313.5l-63 -660q-3 -49 -54 -49h-147q-26 0 -39 14t-10 39l67 594q26 256 -139 256q-104 0 -176.5 -97t-79.5 -282l-41 -475q-3 -49 -53 -49h-150q-26 0 -39 14t-10 39l68 594q13 129 -22.5 192.5t-112.5 63.5q-48 0 -90 -20.5t-79 -63
t-61 -118.5t-28 -177l-41 -475q-3 -49 -54 -49h-149q-26 0 -39 14t-10 39l110 998q6 49 56 49h133q53 0 47 -53l-8 -97h10q146 183 311 183q198 0 250 -201h17q80 103 161 152t178 49z" />
    <glyph glyph-name="n" unicode="n" horiz-adv-x="1148" 
d="M748 1133q154 0 232 -112.5t56 -311.5l-67 -660q-3 -49 -54 -49h-133q-53 0 -47 53l62 594q13 126 -28.5 191t-129.5 65q-112 0 -186.5 -97t-81.5 -282l-43 -475q-3 -49 -54 -49h-147q-26 0 -39 14t-10 39l110 998q6 49 56 49h133q53 0 47 -53l-8 -97h18q132 183 314 183
z" />
    <glyph glyph-name="o" unicode="o" horiz-adv-x="1165" 
d="M653 1133q200 0 324.5 -138.5t124.5 -363.5q0 -139 -47 -263t-127 -211.5t-188.5 -138.5t-227.5 -51q-199 0 -322.5 142.5t-123.5 367.5q0 140 46.5 263t126 208.5t187.5 135t227 49.5zM606 922q-130 0 -214.5 -111t-84.5 -293q0 -151 72.5 -243.5t183.5 -92.5
q125 0 209 112.5t84 293.5q0 152 -71 243t-179 91z" />
    <glyph glyph-name="p" unicode="p" horiz-adv-x="1200" 
d="M764 1133q169 0 271 -138.5t102 -355.5q0 -194 -73 -347.5t-203 -239t-292 -85.5q-79 0 -133.5 24t-99.5 77h-10l-47 -469q-3 -50 -54 -50h-147q-25 0 -37.5 14.5t-9.5 39.5l157 1448q6 49 56 49h131q53 0 47 -53l-8 -97h14q64 91 152 137t184 46zM674 922
q-125 0 -213 -106t-105 -288v-10q-13 -161 52.5 -249.5t189.5 -88.5q142 0 218.5 113.5t76.5 308.5q0 152 -60 236t-159 84z" />
    <glyph glyph-name="q" unicode="q" horiz-adv-x="1198" 
d="M557 1133q98 0 175 -45.5t120 -137.5h14l13 103q6 47 55 47h131q53 0 47 -53l-143 -1448q-3 -50 -54 -50h-149q-26 0 -39 14.5t-10 39.5l53 465h-14q-107 -101 -258 -101q-200 0 -316 141.5t-116 374.5q0 184 64 333t176.5 233t250.5 84zM604 922q-131 0 -216 -118
t-85 -325q0 -144 55.5 -221.5t165.5 -77.5q123 0 206.5 88.5t103.5 249.5l2 10q20 184 -44.5 289t-187.5 105z" />
    <glyph glyph-name="r" unicode="r" horiz-adv-x="753" 
d="M764 1075l-16 -151q-6 -47 -54 -47q-72 -3 -124 -19t-97 -53.5t-70 -106t-30 -168.5l-45 -481q-3 -49 -54 -49h-147q-26 0 -39 14t-10 39l110 998q6 49 56 49h133q52 0 49 -53l-8 -93h16q55 69 129 114.5t150 59.5q27 4 40.5 -10.5t10.5 -42.5z" />
    <glyph glyph-name="s" unicode="s" horiz-adv-x="1050" 
d="M588 1133q88 0 161.5 -26t120.5 -69t76 -93t39 -103q4 -24 -9 -37.5t-40 -13.5h-133q-38 0 -62 34q-66 97 -190 97q-80 0 -128 -36.5t-48 -90.5q0 -40 43 -67.5t147 -59.5l80 -25q166 -50 239.5 -122t73.5 -173q0 -170 -131.5 -275.5t-341.5 -105.5q-97 0 -174 24.5
t-127.5 69t-82 97.5t-46.5 118q-4 26 8.5 41t38.5 15h152q42 0 59 -41q31 -60 82 -85.5t129 -25.5q185 0 185 125q0 46 -43 81t-148 65l-80 22q-145 42 -223 109.5t-78 177.5q0 158 131.5 265.5t319.5 107.5z" />
    <glyph glyph-name="t" unicode="t" horiz-adv-x="710" 
d="M727 1047l-10 -99q-6 -49 -55 -49h-154l-84 -850q-3 -49 -53 -49h-150q-25 0 -37.5 14t-9.5 39l92 846h-125q-26 0 -39 14t-10 39l10 99q6 49 56 49h131l39 368q6 50 55 50h133q53 0 47 -54l-35 -364h152q25 0 37.5 -14t9.5 -39z" />
    <glyph glyph-name="u" unicode="u" horiz-adv-x="1153" 
d="M1069 1047l-96 -998q-3 -49 -53 -49h-150q-26 0 -39 14t-10 39l12 97h-18q-123 -183 -307 -183q-159 0 -238 116t-55 333l71 637q6 47 56 47h131q52 0 49 -53l-55 -572q-26 -278 145 -278q112 0 186 95.5t84 282.5l49 476q3 49 54 49h135q52 0 49 -53z" />
    <glyph glyph-name="v" unicode="v" horiz-adv-x="1062" 
d="M1067 1040l-420 -1001q-14 -39 -59 -39h-221q-49 0 -58 45l-209 999q-6 26 5.5 41t39.5 15h127q49 0 58 -45l162 -795h24l328 801q14 39 59 39h123q29 0 40.5 -17t0.5 -43z" />
    <glyph glyph-name="w" unicode="w" 
d="M1366 1100h121q28 0 39 -16t2 -44l-354 -999q-14 -41 -58 -41h-211q-47 0 -53 47l-78 596h-6l-207 -602q-14 -41 -57 -41h-213q-47 0 -53 47l-142 997q-4 26 8.5 41t38.5 15h127q50 0 56 -47l92 -795h26l263 799q15 43 59 43h108q50 0 56 -47l92 -795h25l260 799
q15 43 59 43z" />
    <glyph glyph-name="x" unicode="x" horiz-adv-x="1114" 
d="M707 541l258 -480q14 -28 4 -44.5t-41 -16.5h-162q-41 0 -59 37l-181 342l-256 -348q-25 -31 -61 -31h-150q-32 0 -41 18.5t11 44.5l397 504l-246 471q-15 28 -4.5 45t41.5 17h145q43 0 62 -37l182 -336l258 342q25 31 62 31h131q33 0 42.5 -19t-9.5 -45z" />
    <glyph glyph-name="y" unicode="y" horiz-adv-x="1075" 
d="M918 1100h120q29 0 40 -17t-1 -43l-622 -1452q-14 -39 -60 -39h-149q-29 0 -40 17t1 43l149 332l-256 1101q-6 27 6 42.5t39 15.5h127q49 0 58 -45l164 -785h10l354 791q14 39 60 39z" />
    <glyph glyph-name="z" unicode="z" horiz-adv-x="940" 
d="M911 1047l-12 -115q-4 -17 -12 -25l-572 -694l-2 -12h467q26 0 39 -14.5t10 -39.5l-10 -98q-6 -49 -55 -49h-701q-53 0 -47 53l11 115q0 12 10 22l590 695l2 14h-455q-26 0 -39 14t-10 39l10 99q6 49 55 49h674q25 0 37.5 -14t9.5 -39z" />
    <glyph glyph-name="braceleft" unicode="{" horiz-adv-x="1048" 
d="M920 1483l-11 -99q-6 -49 -51 -49q-101 0 -152.5 -51.5t-64.5 -177.5l-29 -295q-11 -119 -48.5 -182t-96.5 -94l-2 -17q50 -26 73.5 -100t10.5 -193l-29 -280q-12 -126 29 -177t143 -51q41 0 35 -53l-10 -100q-6 -49 -55 -49h-23q-203 0 -285.5 97t-58.5 322l27 248
q14 102 1.5 163t-61.5 75q-48 12 -43 55l12 107q2 38 52 51q53 13 74 65.5t34 171.5l31 256q24 223 125.5 316.5t304.5 93.5h20q25 0 38 -14t10 -39z" />
    <glyph glyph-name="bar" unicode="|" horiz-adv-x="669" 
d="M535 1534l-201 -1987q-3 -49 -53 -49h-107q-25 0 -37.5 14t-9.5 39l215 1987q6 49 55 49h90q54 0 48 -53z" />
    <glyph glyph-name="braceright" unicode="}" horiz-adv-x="1052" 
d="M125 -432l10 100q6 49 51 49q102 0 153.5 51.5t63.5 176.5l29 297q11 119 48.5 180.5t97.5 93.5l2 16q-50 26 -73.5 100t-10.5 195l28 279q12 126 -29 177.5t-143 51.5q-20 0 -29 14.5t-6 39.5l11 98q6 49 55 49h23q203 0 285.5 -97.5t58.5 -322.5l-27 -248
q-14 -102 -2 -161.5t61 -73.5q48 -12 43 -55l-12 -109q-1 -22 -13.5 -33.5t-37.5 -17.5q-53 -13 -74.5 -66.5t-34.5 -171.5l-28 -254q-26 -224 -127.5 -317.5t-304.5 -93.5h-21q-25 0 -37.5 14t-9.5 39z" />
    <glyph glyph-name="asciitilde" unicode="~" horiz-adv-x="1310" 
d="M524 791q46 0 85.5 -14t65 -35.5t49 -46t40 -46t35.5 -35.5t37 -14q31 0 47.5 26t27.5 72q9 47 54 47h88q27 0 39 -14.5t6 -40.5q-12 -53 -33 -99t-54 -86.5t-83 -63.5t-111 -23q-50 0 -90 19.5t-66 47t-48.5 55t-49.5 47t-57 19.5q-66 0 -88 -96q-12 -47 -56 -47h-86
q-56 0 -47 51q24 125 96 201t199 76z" />
    <glyph glyph-name="exclamdown" unicode="&#xa1;" horiz-adv-x="743" 
d="M268 915l19 160q6 47 55 47h178q26 0 39 -14t10 -39l-18 -160q-6 -47 -55 -47h-179q-26 0 -39 14t-10 39zM156 -336l96 936q3 49 53 49h150q26 0 39 -14t10 -39l-113 -938q-6 -47 -55 -47h-133q-53 0 -47 53z" />
    <glyph glyph-name="cent" unicode="&#xa2;" horiz-adv-x="1056" 
d="M565 367q79 0 127 29.5t80 86.5q24 37 62 37h124q28 0 39.5 -16.5t-0.5 -42.5q-50 -108 -150.5 -192t-234.5 -109l-18 -238q-3 -49 -53 -49h-90q-27 0 -39.5 14.5t-8.5 40.5l31 230q-164 29 -256 159t-92 330q0 268 130 447t337 217l18 239q3 49 54 49h92
q26 0 38.5 -14.5t8.5 -40.5l-31 -231q142 -24 229 -116t103 -210q4 -26 -9 -39.5t-40 -13.5h-127q-43 0 -60 41q-57 133 -198 133q-143 0 -224 -108.5t-81 -342.5q0 -290 239 -290z" />
    <glyph glyph-name="sterling" unicode="&#xa3;" horiz-adv-x="1402" 
 />
    <glyph glyph-name="currency" unicode="&#xa4;" horiz-adv-x="1345" 
d="M1020 573q0 -104 -51 -192l82 -96q34 -39 -4 -74l-72 -68q-38 -35 -74 7l-74 88q-89 -58 -192 -58q-89 0 -162 45l-86 -82q-38 -35 -74 4l-51 60q-34 39 4 74l88 81q-30 68 -30 146q0 105 51 190l-84 99q-33 41 4 71l74 66q39 36 71 -4l74 -86q91 57 197 57q93 0 161 -47
l86 80q36 36 72 -4l51 -58q31 -39 -4 -71l-86 -86q29 -69 29 -142zM653 350q78 0 136.5 61.5t58.5 145.5q0 74 -44.5 125t-111.5 51q-79 0 -139.5 -61.5t-60.5 -145.5q0 -74 46 -125t115 -51z" />
    <glyph glyph-name="yen" unicode="&#xa5;" horiz-adv-x="1200" 
d="M821 752h140q26 0 39 -14.5t10 -39.5l-9 -65q-6 -47 -53 -47h-219l-12 -129h198q26 0 39.5 -14.5t10.5 -39.5l-9 -65q-6 -47 -53 -47h-201l-24 -242q-3 -49 -53 -49h-154q-25 0 -37.5 14t-9.5 39l27 238h-199q-26 0 -38.5 14.5t-8.5 40.5l8 64q6 47 53 47h201l14 129
h-184q-26 0 -38.5 14.5t-8.5 40.5l8 64q6 47 53 47h115l-281 688q-10 26 0.5 42.5t38.5 16.5h160q42 0 59 -41l230 -600h14l359 606q20 35 61 35h141q31 0 40.5 -17.5t-5.5 -43.5z" />
    <glyph glyph-name="section" unicode="&#xa7;" horiz-adv-x="1208" 
d="M1075 780q0 -180 -164 -286q113 -78 113 -201q0 -170 -130 -275.5t-335 -105.5q-183 0 -286 87t-134 222q-6 26 6 40.5t39 14.5h142q41 0 61 -38q33 -60 84.5 -86.5t126.5 -26.5q174 0 174 119q0 48 -44 79.5t-165 75.5l-33 13q-77 29 -127.5 53.5t-96.5 58.5t-67.5 78
t-21.5 100q0 87 47 160.5t131 124.5q-127 80 -127 203q0 158 130.5 265.5t316.5 107.5q84 0 154 -26t116 -68.5t74.5 -92t38.5 -102.5q6 -26 -7 -39.5t-40 -13.5h-133q-39 0 -62 36q-64 93 -178 93q-78 0 -125 -35.5t-47 -89.5q0 -41 44 -68.5t157 -62.5l38 -13
q181 -57 255.5 -127.5t74.5 -173.5zM455 739q0 -41 41.5 -66t162.5 -67l21 -8q71 18 107 49.5t36 83.5q0 45 -38 71.5t-162 80.5q-78 -17 -123 -55.5t-45 -88.5z" />
    <glyph glyph-name="dieresis" unicode="&#xa8;" horiz-adv-x="194" 
d="M498 1487l-13 -133q-3 -49 -53 -49h-84q-52 0 -49 53l12 133q3 49 54 49h84q52 0 49 -53zM827 1487l-12 -133q-3 -49 -53 -49h-84q-52 0 -49 53l12 133q3 49 53 49h84q52 0 49 -53z" />
    <glyph glyph-name="copyright" unicode="&#xa9;" horiz-adv-x="1740" 
d="M971 1497q137 0 254.5 -48t202.5 -134.5t133.5 -211.5t48.5 -274q0 -181 -65 -337t-174 -262.5t-254 -167t-304 -60.5q-135 0 -252 48t-202 134t-134 212.5t-49 275.5q0 145 42 275t116.5 229t174 172t218 111t244.5 38zM952 1339q-122 0 -235 -48t-198 -132t-136 -207.5
t-51 -265.5q0 -234 141.5 -380t355.5 -146q122 0 235 47.5t198 131.5t135.5 207t50.5 265q0 237 -140 382.5t-356 145.5zM950 1169q125 0 205 -68.5t96 -164.5q4 -26 -9 -39.5t-40 -13.5h-72q-38 0 -59 41q-39 88 -139 88t-159.5 -77.5t-59.5 -240.5q0 -211 176 -211
q96 0 147 78q24 35 62 35h61q30 0 41 -16.5t-2 -42.5q-47 -91 -137 -152t-209 -61q-146 0 -233 97.5t-87 260.5q0 218 119 352.5t299 134.5z" />
    <glyph glyph-name="guillemetleft" unicode="&#xab;" horiz-adv-x="1325" 
d="M225 512l13 121q3 39 36 59l316 205q28 17 45 6t14 -43l-6 -84q-6 -40 -37 -59l-227 -146l190 -141q32 -22 29 -65l-8 -89q-3 -31 -21 -39t-43 11l-272 198q-32 22 -29 66zM1126 860l-8 -84q-3 -38 -37 -59l-227 -146l193 -141q31 -22 28 -65l-8 -89q-3 -31 -22 -39
t-44 11l-272 198q-32 22 -29 66l15 121q3 38 37 59l315 205q28 17 45 6t14 -43z" />
    <glyph glyph-name="registered" unicode="&#xae;" horiz-adv-x="1212" 
d="M711 1573q145 0 242.5 -102.5t97.5 -251.5q0 -173 -127.5 -300.5t-294.5 -127.5q-141 0 -238.5 104.5t-97.5 251.5q0 85 35 164.5t92.5 136.5t134 91t156.5 34zM643 909q115 0 204 88.5t89 210.5q0 105 -68.5 177.5t-169.5 72.5q-118 0 -205 -88.5t-87 -212.5
q0 -104 67.5 -176t169.5 -72zM819 1247q0 -35 -18.5 -61.5t-52.5 -38.5l30 -60q13 -28 3 -44.5t-40 -16.5q-41 0 -59 37l-35 74h-14l-6 -62q-6 -49 -56 -49q-45 0 -39 53l23 209q3 49 53 49h103q53 0 80.5 -25t27.5 -65zM641 1217h53q33 0 33 18q0 20 -27 20h-55z" />
    <glyph glyph-name="macron" unicode="&#xaf;" horiz-adv-x="194" 
d="M889 1372l-4 -43q-6 -49 -56 -49h-401q-53 0 -47 53l4 43q3 49 53 49h404q25 0 37.5 -14t9.5 -39z" />
    <glyph glyph-name="degree" unicode="&#xb0;" horiz-adv-x="1073" 
d="M643 1573q120 0 198.5 -83.5t78.5 -203.5q0 -143 -102 -245.5t-240 -102.5q-119 0 -198 83.5t-79 203.5q0 143 102.5 245.5t239.5 102.5zM625 1395q-59 0 -102.5 -44.5t-43.5 -107.5q0 -53 34 -90t83 -37q59 0 103 45.5t44 106.5q0 54 -33.5 90.5t-84.5 36.5z" />
    <glyph glyph-name="twosuperior" unicode="&#xb2;" horiz-adv-x="684" 
d="M492 1509q94 0 140 -47t46 -112q0 -98 -131 -205l-64 -55v-11h121q26 0 39 -14t10 -39l-2 -22q-6 -48 -55 -48h-315q-25 0 -38 14t-10 40l3 26q4 29 18 39l195 156q43 34 59 52.5t16 41.5q0 21 -14 34t-39 13q-38 0 -65 -24q-14 -14 -19.5 -19t-17 -10.5t-25.5 -5.5h-45
q-29 0 -43.5 10t-9.5 25q23 64 87.5 112.5t158.5 48.5z" />
    <glyph glyph-name="threesuperior" unicode="&#xb3;" horiz-adv-x="618" 
d="M500 1233q96 -33 96 -113q0 -74 -64.5 -124t-175.5 -50q-97 0 -150 38.5t-63 94.5q-6 24 9 37.5t41 13.5h55q4 0 8 -0.5t7 -1t6.5 -2.5t6 -3t5.5 -3.5t5 -4t5 -5t4.5 -5.5t5.5 -6.5t6 -6.5q18 -21 62 -21q75 0 75 49q0 26 -28 38.5t-97 12.5q-33 0 -30 54v6q6 49 41 49
q51 0 79.5 9.5t35 20t6.5 25.5q0 22 -16 34.5t-44 12.5q-34 0 -53 -16q-4 -3 -12.5 -9t-12.5 -9t-11 -6.5t-13.5 -5t-14.5 -1.5h-41q-30 0 -41.5 16.5t1.5 41.5q67 116 227 116q92 0 137 -40.5t45 -98.5q0 -96 -102 -137z" />
    <glyph glyph-name="acute" unicode="&#xb4;" horiz-adv-x="194" 
d="M731 1499l-205 -235q-23 -29 -63 -29h-21q-31 0 -40 17.5t8 43.5l143 232q20 35 61 35h88q34 0 43 -19t-14 -45z" />
    <glyph glyph-name="paragraph" unicode="&#xb6;" horiz-adv-x="1495" 
 />
    <glyph glyph-name="periodcentered" unicode="&#xb7;" horiz-adv-x="724" 
d="M508 651l-14 -143q-3 -49 -54 -49h-170q-25 0 -37.5 14t-9.5 39l15 143q6 50 55 50h168q53 0 47 -54z" />
    <glyph glyph-name="cedilla" unicode="&#xb8;" horiz-adv-x="194" 
d="M492 -29l-31 -71q54 -11 86.5 -50.5t32.5 -103.5q0 -90 -62 -150.5t-170 -60.5q-57 0 -110 23q-42 20 -23 67l8 21q17 44 68 24q35 -14 69 -14q37 0 58.5 20t21.5 54q0 71 -102 69q-23 0 -31 16t2 44l51 131q17 41 60 41h33q29 0 40 -17t-1 -43z" />
    <glyph glyph-name="onesuperior" unicode="&#xb9;" horiz-adv-x="598" 
d="M532 1446l-45 -440q-3 -50 -53 -50h-59q-26 0 -39 14.5t-10 39.5l41 362h-11l-73 -65q-40 -37 -72 6l-16 22q-31 38 6 72l80 68q24 24 63 24h141q53 0 47 -53z" />
    <glyph glyph-name="guillemetright" unicode="&#xbb;" horiz-adv-x="1320" 
d="M254 780l8 88q3 31 21 39.5t43 -10.5l272 -199q32 -22 29 -65l-15 -121q-3 -38 -37 -59l-313 -205q-28 -17 -45 -6t-14 43l6 84q6 40 37 59l227 145l-190 142q-32 22 -29 65zM803 897l272 -199q32 -22 29 -65l-14 -121q-3 -38 -37 -59l-316 -205q-28 -17 -45 -6t-14 43
l8 84q3 38 37 59l227 145l-192 142q-32 22 -29 65l8 88q3 31 22 39.5t44 -10.5z" />
    <glyph glyph-name="questiondown" unicode="&#xbf;" horiz-adv-x="1189" 
d="M508 930l14 143q6 49 56 49h167q25 0 38 -14t10 -39l-15 -143q-6 -49 -55 -49h-168q-53 0 -47 53zM451 -436q-102 0 -183 31t-131 85t-76 124.5t-26 152.5q0 176 105 313.5t327 249.5l10 103q6 49 55 49h156q53 0 47 -54l-14 -153q-3 -38 -43 -59q-120 -55 -200 -107
t-123.5 -104t-61 -100t-17.5 -107q0 -96 57.5 -148.5t158.5 -52.5q90 0 163.5 44t110.5 130q18 41 59 41h133q28 0 42 -10.5t8 -28.5q-18 -60 -50 -116t-81.5 -108t-111 -90.5t-143 -61.5t-171.5 -23z" />
    <glyph glyph-name="Agrave" unicode="&#xc0;" horiz-adv-x="1357" 
d="M854 1634h-20q-41 0 -64 29l-205 235q-23 26 -14 45t43 19h88q41 0 61 -35l144 -231q17 -26 7.5 -44t-40.5 -18zM909 436h-487l-174 -397q-14 -39 -60 -39h-161q-29 0 -39 16.5t2 42.5l651 1401q17 39 61 39h152q46 0 55 -45l357 -1397q6 -26 -5.5 -41.5t-39.5 -15.5
h-166q-47 0 -56 45zM860 655l-117 512l-225 -512h342z" />
    <glyph glyph-name="Aacute" unicode="&#xc1;" horiz-adv-x="1357" 
d="M1102 1898l-205 -235q-23 -29 -63 -29h-21q-31 0 -40.5 18t7.5 44l144 231q20 35 61 35h88q34 0 43 -19t-14 -45zM909 436h-487l-174 -397q-14 -39 -60 -39h-161q-29 0 -39 16.5t2 42.5l651 1401q17 39 61 39h152q46 0 55 -45l357 -1397q6 -26 -5.5 -41.5t-39.5 -15.5
h-166q-47 0 -56 45zM860 655l-117 512l-225 -512h342z" />
    <glyph glyph-name="Acircumflex" unicode="&#xc2;" horiz-adv-x="1357" 
d="M848 1835l-121 -168q-23 -33 -61 -33h-66q-34 0 -43 19.5t14 44.5l220 237q24 27 61 27h45q38 0 61 -33l166 -233q19 -26 10 -44t-40 -18h-76q-43 0 -62 37l-90 164h-18zM909 436h-487l-174 -397q-14 -39 -60 -39h-161q-29 0 -39 16.5t2 42.5l651 1401q17 39 61 39h152
q46 0 55 -45l357 -1397q6 -26 -5.5 -41.5t-39.5 -15.5h-166q-47 0 -56 45zM860 655l-117 512l-225 -512h342z" />
    <glyph glyph-name="Atilde" unicode="&#xc3;" horiz-adv-x="1357" 
d="M760 1780q-44 0 -58 -68q-12 -47 -55 -47h-31q-26 0 -38.5 14.5t-8.5 40.5q41 203 205 203q38 0 69.5 -15.5t51 -37.5t35.5 -43.5t31 -37t30 -15.5q37 0 51 67q9 47 54 47h30q27 0 39.5 -14.5t8.5 -40.5q-20 -88 -67.5 -145.5t-127.5 -57.5q-43 0 -76.5 23.5t-51.5 51.5
t-42 51.5t-49 23.5zM909 436h-487l-174 -397q-14 -39 -60 -39h-161q-29 0 -39 16.5t2 42.5l651 1401q17 39 61 39h152q46 0 55 -45l357 -1397q6 -26 -5.5 -41.5t-39.5 -15.5h-166q-47 0 -56 45zM860 655l-117 512l-225 -512h342z" />
    <glyph glyph-name="Adieresis" unicode="&#xc4;" horiz-adv-x="1357" 
d="M717 1890l-12 -133q-3 -49 -54 -49h-86q-52 0 -49 53l12 133q3 50 54 50h86q52 0 49 -54zM1047 1890l-13 -133q-3 -49 -53 -49h-86q-52 0 -49 53l12 133q3 50 53 50h86q53 0 50 -54zM909 436h-487l-174 -397q-14 -39 -60 -39h-161q-29 0 -39 16.5t2 42.5l651 1401
q17 39 61 39h152q46 0 55 -45l357 -1397q6 -26 -5.5 -41.5t-39.5 -15.5h-166q-47 0 -56 45zM860 655l-117 512l-225 -512h342z" />
    <glyph glyph-name="Aring" unicode="&#xc5;" horiz-adv-x="1357" 
d="M834 1573q-80 0 -131.5 51.5t-51.5 134.5q0 101 67 165.5t159 64.5q79 0 130.5 -51.5t51.5 -135.5q0 -100 -66.5 -164.5t-158.5 -64.5zM866 1880q-45 0 -75.5 -29.5t-30.5 -78.5q0 -40 24.5 -65.5t61.5 -25.5q41 0 71.5 31.5t30.5 79.5q0 40 -23.5 64t-58.5 24zM909 436
h-487l-174 -397q-14 -39 -60 -39h-161q-29 0 -39 16.5t2 42.5l651 1401q17 39 61 39h152q46 0 55 -45l357 -1397q6 -26 -5.5 -41.5t-39.5 -15.5h-166q-47 0 -56 45zM860 655l-117 512l-225 -512h342z" />
    <glyph glyph-name="AE" unicode="&#xc6;" horiz-adv-x="1914" 
d="M1294 1282l-43 -391h486q52 0 49 -53l-12 -117q-3 -49 -54 -49h-491l-49 -453h565q26 0 39 -14t10 -39l-12 -117q-6 -49 -56 -49h-753q-53 0 -47 53l39 383h-463l-256 -403q-23 -33 -64 -33h-147q-31 0 -41 17.5t8 43.5l909 1407q23 33 62 33h909q26 0 39 -14t10 -39
l-12 -117q-6 -49 -55 -49h-570zM989 655l68 648l-414 -648h346z" />
    <glyph glyph-name="Ccedilla" unicode="&#xc7;" horiz-adv-x="1495" 
d="M760 184q253 0 391 248q18 37 59 37l131 -2q29 0 40.5 -16.5t0.5 -42.5q-37 -81 -94 -154.5t-135 -137t-183 -103.5t-222 -46l-39 -86q54 -11 86 -50t32 -103q0 -90 -61.5 -150.5t-169.5 -60.5q-60 0 -111 22q-42 20 -22 68l8 20q17 45 68 25q35 -14 69 -14
q37 0 58.5 19.5t21.5 53.5q0 30 -23 50.5t-79 19.5q-23 0 -31 15.5t2 43.5l53 133q-238 35 -376 218.5t-138 461.5q0 189 63 354t169.5 279.5t250.5 180t302 65.5q212 0 363 -115t202 -319q7 -26 -5 -41t-40 -15l-135 -2q-42 0 -62 39q-56 116 -149.5 177t-214.5 61
q-101 0 -190.5 -42t-158 -120t-108 -199.5t-39.5 -271.5q0 -233 112 -366.5t304 -133.5z" />
    <glyph glyph-name="Egrave" unicode="&#xc8;" horiz-adv-x="1204" 
d="M819 1634h-20q-41 0 -64 29l-205 235q-23 26 -14 45t43 19h88q42 0 62 -35l143 -231q17 -26 7.5 -44t-40.5 -18zM485 1280l-39 -389h580q53 0 47 -53l-12 -117q-3 -49 -53 -49h-582l-45 -453h651q26 0 39 -14t10 -39l-12 -117q-6 -49 -55 -49h-860q-25 0 -38 14t-10 39
l154 1397q6 49 55 49h852q26 0 39.5 -14t10.5 -39l-13 -117q-6 -49 -55 -49h-664z" />
    <glyph glyph-name="Eacute" unicode="&#xc9;" horiz-adv-x="1204" 
d="M1065 1898l-205 -235q-23 -29 -63 -29h-21q-31 0 -40.5 18t7.5 44l144 231q20 35 61 35h88q34 0 43 -19t-14 -45zM485 1280l-39 -389h580q53 0 47 -53l-12 -117q-3 -49 -53 -49h-582l-45 -453h651q26 0 39 -14t10 -39l-12 -117q-6 -49 -55 -49h-860q-25 0 -38 14t-10 39
l154 1397q6 49 55 49h852q26 0 39.5 -14t10.5 -39l-13 -117q-6 -49 -55 -49h-664z" />
    <glyph glyph-name="Ecircumflex" unicode="&#xca;" horiz-adv-x="1204" 
d="M813 1835l-121 -168q-23 -33 -61 -33h-66q-34 0 -42.5 19.5t14.5 44.5l219 237q24 27 61 27h45q39 0 62 -33l166 -233q18 -26 9 -44t-40 -18h-76q-42 0 -61 37l-91 164h-18zM485 1280l-39 -389h580q53 0 47 -53l-12 -117q-3 -49 -53 -49h-582l-45 -453h651q26 0 39 -14
t10 -39l-12 -117q-6 -49 -55 -49h-860q-25 0 -38 14t-10 39l154 1397q6 49 55 49h852q26 0 39.5 -14t10.5 -39l-13 -117q-6 -49 -55 -49h-664z" />
    <glyph glyph-name="Edieresis" unicode="&#xcb;" horiz-adv-x="1204" 
d="M682 1890l-12 -133q-3 -49 -54 -49h-86q-52 0 -49 53l13 133q3 50 53 50h86q52 0 49 -54zM1012 1890l-13 -133q-3 -49 -53 -49h-86q-52 0 -49 53l12 133q3 50 54 50h86q52 0 49 -54zM485 1280l-39 -389h580q53 0 47 -53l-12 -117q-3 -49 -53 -49h-582l-45 -453h651
q26 0 39 -14t10 -39l-12 -117q-6 -49 -55 -49h-860q-25 0 -38 14t-10 39l154 1397q6 49 55 49h852q26 0 39.5 -14t10.5 -39l-13 -117q-6 -49 -55 -49h-664z" />
    <glyph glyph-name="Igrave" unicode="&#xcc;" horiz-adv-x="819" 
d="M326 1962h88q41 0 61 -35l143 -231q17 -26 8 -44t-40 -18h-21q-40 0 -63 29l-205 235q-23 26 -14 45t43 19zM625 1446l-140 -1397q-3 -49 -53 -49h-156q-25 0 -37.5 14t-9.5 39l154 1397q6 49 55 49h140q53 0 47 -53z" />
    <glyph glyph-name="Iacute" unicode="&#xcd;" horiz-adv-x="819" 
d="M834 1898l-205 -235q-23 -29 -64 -29h-20q-31 0 -40.5 18t7.5 44l143 231q20 35 62 35h88q34 0 43 -19t-14 -45zM625 1446l-140 -1397q-3 -49 -53 -49h-156q-25 0 -37.5 14t-9.5 39l154 1397q6 49 55 49h140q53 0 47 -53z" />
    <glyph glyph-name="Icircumflex" unicode="&#xce;" horiz-adv-x="819" 
d="M690 1929l166 -233q18 -26 9 -44t-40 -18h-75q-43 0 -62 37l-90 164h-18l-121 -168q-23 -33 -62 -33h-65q-34 0 -43 19.5t14 44.5l219 237q24 27 62 27h45q38 0 61 -33zM229 53l154 1397q6 49 55 49h140q53 0 47 -53l-140 -1397q-3 -49 -53 -49h-156q-25 0 -37.5 14
t-9.5 39z" />
    <glyph glyph-name="Idieresis" unicode="&#xcf;" horiz-adv-x="819" 
d="M449 1890l-13 -133q-3 -49 -53 -49h-86q-52 0 -49 53l12 133q3 50 53 50h86q53 0 50 -54zM778 1890l-12 -133q-3 -49 -53 -49h-86q-52 0 -49 53l12 133q3 50 53 50h86q52 0 49 -54zM625 1446l-140 -1397q-3 -49 -53 -49h-156q-25 0 -37.5 14t-9.5 39l154 1397q6 49 55 49
h140q53 0 47 -53z" />
    <glyph glyph-name="Eth" unicode="&#xd0;" horiz-adv-x="1499" 
d="M315 1499h496q312 0 472.5 -169t160.5 -464q0 -146 -32 -275.5t-97.5 -238t-158.5 -187t-221 -122t-280 -43.5h-501q-25 0 -38 14t-10 39l46 416h-15q-25 0 -37.5 14t-9.5 39l12 111q3 49 54 49h20l84 768q6 49 55 49zM379 215h287q251 0 393.5 162.5t142.5 449.5
q0 224 -111 341.5t-317 117.5h-289l-59 -604h379q53 0 47 -53l-10 -111q-3 -49 -54 -49h-385z" />
    <glyph glyph-name="Ntilde" unicode="&#xd1;" horiz-adv-x="1531" 
d="M848 1792q-43 0 -57 -68q-12 -47 -56 -47h-30q-26 0 -39 15t-9 41q41 202 205 202q38 0 69.5 -15.5t51 -37.5t35.5 -43.5t31 -37t30 -15.5q37 0 51 67q9 48 54 48h30q26 0 39 -15t9 -41q-20 -88 -67.5 -145.5t-127.5 -57.5q-43 0 -76.5 23.5t-51.5 51.5t-42 51.5
t-49 23.5zM1280 1499h135q53 0 47 -53l-141 -1397q-3 -49 -53 -49h-256q-43 0 -60 39l-475 1184l-119 -1174q-3 -49 -53 -49h-151q-25 0 -38 14t-10 39l154 1397q6 49 55 49h271q42 0 59 -39l457 -1124l123 1114q6 49 55 49z" />
    <glyph glyph-name="Ograve" unicode="&#xd2;" horiz-adv-x="1554" 
d="M692 1974h88q42 0 62 -35l143 -231q17 -26 7.5 -43.5t-40.5 -17.5h-20q-42 0 -64 28l-204 236q-23 26 -14.5 44.5t42.5 18.5zM891 1532q271 0 439.5 -185t168.5 -485q0 -149 -41 -287.5t-115.5 -247.5t-173 -190.5t-219 -125.5t-248.5 -44q-176 0 -314 87.5t-215 245
t-77 359.5q0 187 63.5 351t171 277.5t253.5 179t307 65.5zM848 1317q-104 0 -195.5 -42t-161 -120t-109.5 -199t-40 -270q0 -233 110 -367.5t291 -134.5q105 0 198 44t163 125t110.5 204.5t40.5 273.5q0 229 -112 357.5t-295 128.5z" />
    <glyph glyph-name="Oacute" unicode="&#xd3;" horiz-adv-x="1554" 
d="M1200 1911l-205 -236q-22 -28 -63 -28h-21q-31 0 -40 17.5t8 43.5l143 231q20 35 61 35h88q34 0 43 -18.5t-14 -44.5zM891 1532q271 0 439.5 -185t168.5 -485q0 -149 -41 -287.5t-115.5 -247.5t-173 -190.5t-219 -125.5t-248.5 -44q-176 0 -314 87.5t-215 245t-77 359.5
q0 187 63.5 351t171 277.5t253.5 179t307 65.5zM848 1317q-104 0 -195.5 -42t-161 -120t-109.5 -199t-40 -270q0 -233 110 -367.5t291 -134.5q105 0 198 44t163 125t110.5 204.5t40.5 273.5q0 229 -112 357.5t-295 128.5z" />
    <glyph glyph-name="Ocircumflex" unicode="&#xd4;" horiz-adv-x="1554" 
d="M946 1847l-121 -168q-22 -32 -61 -32h-66q-34 0 -42.5 19t14.5 44l219 238q23 26 61 26h45q40 0 62 -32l166 -234q18 -26 9 -43.5t-40 -17.5h-76q-42 0 -61 36l-90 164h-19zM891 1532q271 0 439.5 -185t168.5 -485q0 -149 -41 -287.5t-115.5 -247.5t-173 -190.5
t-219 -125.5t-248.5 -44q-176 0 -314 87.5t-215 245t-77 359.5q0 187 63.5 351t171 277.5t253.5 179t307 65.5zM743 184q105 0 198 44t163 125t110.5 204.5t40.5 273.5q0 229 -112 357.5t-295 128.5q-104 0 -195.5 -42t-161 -120t-109.5 -199t-40 -270q0 -233 110 -367.5
t291 -134.5z" />
    <glyph glyph-name="Otilde" unicode="&#xd5;" horiz-adv-x="1554" 
d="M872 1935q47 0 84 -23.5t56 -51t40 -51t38 -23.5q37 0 51 67q9 48 53 48h31q26 0 38.5 -15t8.5 -41q-20 -88 -67.5 -145.5t-127.5 -57.5q-43 0 -76.5 23.5t-51.5 51.5t-42 51.5t-49 23.5q-43 0 -57 -68q-12 -47 -56 -47h-30q-26 0 -38.5 15t-8.5 43q44 200 204 200z
M891 1532q271 0 439.5 -185t168.5 -485q0 -149 -41 -287.5t-115.5 -247.5t-173 -190.5t-219 -125.5t-248.5 -44q-176 0 -314 87.5t-215 245t-77 359.5q0 187 63.5 351t171 277.5t253.5 179t307 65.5zM848 1317q-104 0 -195.5 -42t-161 -120t-109.5 -199t-40 -270
q0 -233 110 -367.5t291 -134.5q105 0 198 44t163 125t110.5 204.5t40.5 273.5q0 229 -112 357.5t-295 128.5z" />
    <glyph glyph-name="Odieresis" unicode="&#xd6;" horiz-adv-x="1554" 
d="M815 1901l-12 -134q-3 -49 -53 -49h-86q-53 0 -50 54l13 133q3 49 53 49h86q52 0 49 -53zM1145 1901l-12 -134q-3 -49 -54 -49h-86q-52 0 -49 54l12 133q3 49 54 49h86q52 0 49 -53zM891 1532q271 0 439.5 -185t168.5 -485q0 -149 -41 -287.5t-115.5 -247.5t-173 -190.5
t-219 -125.5t-248.5 -44q-176 0 -314 87.5t-215 245t-77 359.5q0 187 63.5 351t171 277.5t253.5 179t307 65.5zM848 1317q-104 0 -195.5 -42t-161 -120t-109.5 -199t-40 -270q0 -233 110 -367.5t291 -134.5q105 0 198 44t163 125t110.5 204.5t40.5 273.5q0 229 -112 357.5
t-295 128.5z" />
    <glyph glyph-name="multiply" unicode="&#xd7;" horiz-adv-x="1374" 
d="M821 481l248 -258q36 -36 -2 -71l-78 -70q-39 -31 -71 4l-254 262l-312 -266q-41 -33 -71 4l-56 61q-36 40 4 72l308 260l-248 258q-38 38 2 74l78 66q35 33 71 -3l254 -262l312 265q38 33 73 -5l54 -57q35 -38 -5 -74z" />
    <glyph glyph-name="Oslash" unicode="&#xd8;" horiz-adv-x="1665" 
d="M1624 1434l-203 -217q78 -159 78 -355q0 -149 -41 -287.5t-115.5 -247.5t-173 -190.5t-219 -125.5t-248.5 -44q-198 0 -346 111l-47 -51q-24 -27 -61 -27h-146q-34 0 -41.5 19t15.5 44l145 156q-125 183 -125 440q0 187 63.5 351t171 277.5t253.5 179t307 65.5
q248 0 412 -158l90 96q24 27 61 27h143q34 0 42 -19t-15 -44zM342 686q0 -159 55 -278l740 788q-109 121 -289 121q-104 0 -195.5 -42t-161 -120t-109.5 -199t-40 -270zM1255 831q0 103 -24 183l-711 -760q95 -70 223 -70q105 0 198 44t163 125t110.5 204.5t40.5 273.5z" />
    <glyph glyph-name="Ugrave" unicode="&#xd9;" 
d="M680 1974h88q41 0 61 -35l144 -231q17 -26 7.5 -43.5t-40.5 -17.5h-20q-42 0 -64 28l-205 236q-23 26 -14 44.5t43 18.5zM1454 1446l-80 -799q-22 -219 -117.5 -374.5t-238 -230.5t-320.5 -75q-131 0 -236.5 44t-178 128t-103.5 214t-12 294l88 803q6 49 55 49h138
q53 0 47 -53l-76 -772q-23 -249 58 -369.5t253 -120.5q171 0 269.5 119.5t125.5 370.5l84 776q6 49 56 49h141q53 0 47 -53z" />
    <glyph glyph-name="Uacute" unicode="&#xda;" 
d="M1188 1911l-205 -236q-22 -28 -63 -28h-21q-31 0 -40.5 17.5t7.5 43.5l144 231q20 35 61 35h88q34 0 43 -18.5t-14 -44.5zM1454 1446l-80 -799q-22 -219 -117.5 -374.5t-238 -230.5t-320.5 -75q-131 0 -236.5 44t-178 128t-103.5 214t-12 294l88 803q6 49 55 49h138
q53 0 47 -53l-76 -772q-23 -249 58 -369.5t253 -120.5q171 0 269.5 119.5t125.5 370.5l84 776q6 49 56 49h141q53 0 47 -53z" />
    <glyph glyph-name="Ucircumflex" unicode="&#xdb;" 
d="M934 1847l-121 -168q-22 -32 -61 -32h-66q-34 0 -43 19t14 44l220 238q23 26 61 26h45q39 0 61 -32l166 -234q19 -26 10 -43.5t-40 -17.5h-76q-43 0 -62 36l-90 164h-18zM1266 1499h141q53 0 47 -53l-80 -799q-22 -219 -117.5 -374.5t-238 -230.5t-320.5 -75
q-131 0 -236.5 44t-178 128t-103.5 214t-12 294l88 803q6 49 55 49h138q53 0 47 -53l-76 -772q-23 -249 58 -369.5t253 -120.5q171 0 269.5 119.5t125.5 370.5l84 776q6 49 56 49z" />
    <glyph glyph-name="Udieresis" unicode="&#xdc;" 
d="M803 1901l-12 -134q-3 -49 -54 -49h-86q-52 0 -49 54l12 133q3 49 54 49h86q52 0 49 -53zM1133 1901l-13 -134q-3 -49 -53 -49h-86q-52 0 -49 54l12 133q3 49 53 49h86q53 0 50 -53zM1454 1446l-80 -799q-22 -219 -117.5 -374.5t-238 -230.5t-320.5 -75q-131 0 -236.5 44
t-178 128t-103.5 214t-12 294l88 803q6 49 55 49h138q53 0 47 -53l-76 -772q-23 -249 58 -369.5t253 -120.5q171 0 269.5 119.5t125.5 370.5l84 776q6 49 56 49h141q53 0 47 -53z" />
    <glyph glyph-name="Yacute" unicode="&#xdd;" horiz-adv-x="1200" 
d="M1026 1911l-205 -236q-22 -28 -63 -28h-21q-31 0 -40 17.5t8 43.5l143 231q20 35 61 35h88q34 0 43 -18.5t-14 -44.5zM731 604l-53 -555q-3 -49 -53 -49h-154q-25 0 -37.5 14t-9.5 39l61 553l-340 834q-10 26 0.5 42.5t38.5 16.5h160q42 0 59 -41l230 -600h14l359 606
q20 35 61 35h141q31 0 40.5 -17.5t-5.5 -43.5z" />
    <glyph glyph-name="germandbls" unicode="&#xdf;" horiz-adv-x="1275" 
d="M954 772q116 -43 171 -125.5t55 -193.5q0 -73 -19 -138.5t-63 -126t-110 -105t-165 -73t-223 -33.5q-27 -1 -40.5 13t-10.5 41l12 119q3 46 53 49q175 7 255.5 70t80.5 184q0 94 -62.5 144.5t-201.5 57.5q-55 3 -49 56l12 102q3 44 53 47q133 11 197 82t64 176
q0 94 -58.5 150.5t-150.5 56.5q-124 0 -206.5 -100.5t-101.5 -306.5l-84 -869q-3 -49 -53 -49h-153q-26 0 -39.5 14t-10.5 39l101 865q16 134 59.5 245.5t114 195.5t173.5 130.5t230 46.5q100 0 180 -31.5t129 -84.5t75 -120.5t26 -142.5q0 -116 -60 -220.5t-180 -164.5z
" />
    <glyph glyph-name="agrave" unicode="&#xe0;" horiz-adv-x="1122" 
d="M379 1563h88q41 0 61 -35l144 -232q17 -26 7.5 -43.5t-40.5 -17.5h-21q-40 0 -63 29l-205 235q-23 26 -14 45t43 19zM637 1133q194 0 289.5 -108.5t74.5 -334.5l-61 -641q-3 -49 -53 -49h-137q-26 0 -39.5 14t-10.5 39l13 113h-17q-63 -87 -159.5 -138t-210.5 -51
q-132 0 -209.5 72.5t-77.5 202.5q0 205 160.5 305t502.5 127l64 4l2 29q10 98 -28.5 154.5t-147.5 56.5q-139 0 -201 -92q-24 -37 -61 -37h-127q-29 0 -43.5 8t-9.5 22q16 42 42.5 82.5t69 81.5t94.5 71.5t125 49.5t156 19zM748 510l-62 -4q-223 -18 -316.5 -71.5
t-93.5 -143.5q0 -48 32 -76.5t95 -28.5q138 0 238 89.5t102 185.5z" />
    <glyph glyph-name="aacute" unicode="&#xe1;" horiz-adv-x="1122" 
d="M887 1499l-205 -235q-23 -29 -64 -29h-20q-31 0 -40.5 17.5t7.5 43.5l144 232q20 35 61 35h88q34 0 43 -19t-14 -45zM637 1133q194 0 289.5 -108.5t74.5 -334.5l-61 -641q-3 -49 -53 -49h-137q-26 0 -39.5 14t-10.5 39l13 113h-17q-63 -87 -159.5 -138t-210.5 -51
q-132 0 -209.5 72.5t-77.5 202.5q0 205 160.5 305t502.5 127l64 4l2 29q10 98 -28.5 154.5t-147.5 56.5q-139 0 -201 -92q-24 -37 -61 -37h-127q-29 0 -43.5 8t-9.5 22q16 42 42.5 82.5t69 81.5t94.5 71.5t125 49.5t156 19zM748 510l-62 -4q-223 -18 -316.5 -71.5
t-93.5 -143.5q0 -48 32 -76.5t95 -28.5q138 0 238 89.5t102 185.5z" />
    <glyph glyph-name="acircumflex" unicode="&#xe2;" horiz-adv-x="1122" 
d="M633 1436l-121 -168q-23 -33 -61 -33h-66q-34 0 -43 19t14 44l219 238q24 27 62 27h45q38 0 61 -33l166 -234q19 -26 10 -43.5t-40 -17.5h-76q-43 0 -62 37l-90 164h-18zM637 1133q194 0 289.5 -108.5t74.5 -334.5l-61 -641q-3 -49 -53 -49h-137q-26 0 -39.5 14t-10.5 39
l13 113h-17q-63 -87 -159.5 -138t-210.5 -51q-132 0 -209.5 72.5t-77.5 202.5q0 205 160.5 305t502.5 127l64 4l2 29q10 98 -28.5 154.5t-147.5 56.5q-139 0 -201 -92q-24 -37 -61 -37h-127q-29 0 -43.5 8t-9.5 22q16 42 42.5 82.5t69 81.5t94.5 71.5t125 49.5t156 19z
M748 510l-62 -4q-223 -18 -316.5 -71.5t-93.5 -143.5q0 -48 32 -76.5t95 -28.5q138 0 238 89.5t102 185.5z" />
    <glyph glyph-name="atilde" unicode="&#xe3;" horiz-adv-x="1122" 
d="M559 1524q38 0 69.5 -15.5t51 -37.5t35.5 -44t31 -37.5t30 -15.5q37 0 51 68q9 47 54 47h30q26 0 38.5 -14.5t8.5 -40.5q-20 -88 -67.5 -145.5t-126.5 -57.5q-43 0 -76.5 23.5t-51.5 51t-42 51t-49 23.5q-44 0 -58 -67q-12 -47 -55 -47h-31q-56 0 -47 57q44 201 205 201z
M637 1133q194 0 289.5 -108.5t74.5 -334.5l-61 -641q-3 -49 -53 -49h-137q-26 0 -39.5 14t-10.5 39l13 113h-17q-63 -87 -159.5 -138t-210.5 -51q-132 0 -209.5 72.5t-77.5 202.5q0 205 160.5 305t502.5 127l64 4l2 29q10 98 -28.5 154.5t-147.5 56.5q-139 0 -201 -92
q-24 -37 -61 -37h-127q-29 0 -43.5 8t-9.5 22q16 42 42.5 82.5t69 81.5t94.5 71.5t125 49.5t156 19zM748 510l-62 -4q-223 -18 -316.5 -71.5t-93.5 -143.5q0 -48 32 -76.5t95 -28.5q138 0 238 89.5t102 185.5z" />
    <glyph glyph-name="adieresis" unicode="&#xe4;" horiz-adv-x="1122" 
d="M502 1489l-13 -133q-3 -49 -53 -49h-86q-52 0 -49 53l12 133q3 49 54 49h86q52 0 49 -53zM831 1489l-12 -133q-3 -49 -53 -49h-86q-52 0 -49 53l12 133q3 49 53 49h86q52 0 49 -53zM637 1133q194 0 289.5 -108.5t74.5 -334.5l-61 -641q-3 -49 -53 -49h-137
q-26 0 -39.5 14t-10.5 39l13 113h-17q-63 -87 -159.5 -138t-210.5 -51q-132 0 -209.5 72.5t-77.5 202.5q0 205 160.5 305t502.5 127l64 4l2 29q10 98 -28.5 154.5t-147.5 56.5q-139 0 -201 -92q-24 -37 -61 -37h-127q-29 0 -43.5 8t-9.5 22q16 42 42.5 82.5t69 81.5
t94.5 71.5t125 49.5t156 19zM748 510l-62 -4q-223 -18 -316.5 -71.5t-93.5 -143.5q0 -48 32 -76.5t95 -28.5q138 0 238 89.5t102 185.5z" />
    <glyph glyph-name="aring" unicode="&#xe5;" horiz-adv-x="1122" 
d="M662 1589q79 0 130.5 -51t51.5 -135q0 -100 -67 -164.5t-159 -64.5q-80 0 -131 51.5t-51 134.5q0 101 66.5 165t159.5 64zM651 1481q-44 0 -75 -30t-31 -79q0 -39 24.5 -64.5t61.5 -25.5q41 0 71.5 31.5t30.5 79.5q0 40 -23.5 64t-58.5 24zM637 1133q194 0 289.5 -108.5
t74.5 -334.5l-61 -641q-3 -49 -53 -49h-137q-26 0 -39.5 14t-10.5 39l13 113h-17q-63 -87 -159.5 -138t-210.5 -51q-132 0 -209.5 72.5t-77.5 202.5q0 205 160.5 305t502.5 127l64 4l2 29q10 98 -28.5 154.5t-147.5 56.5q-139 0 -201 -92q-24 -37 -61 -37h-127
q-29 0 -43.5 8t-9.5 22q16 42 42.5 82.5t69 81.5t94.5 71.5t125 49.5t156 19zM748 510l-62 -4q-223 -18 -316.5 -71.5t-93.5 -143.5q0 -48 32 -76.5t95 -28.5q138 0 238 89.5t102 185.5z" />
    <glyph glyph-name="ae" unicode="&#xe6;" horiz-adv-x="1789" 
d="M1667 496h-686q-9 -159 60.5 -237.5t187.5 -78.5q127 0 205 111q22 35 63 35h123q29 0 39.5 -17t-2.5 -45q-74 -144 -198 -220.5t-273 -76.5q-129 0 -228 60.5t-155 169.5h-8q-74 -97 -201 -158.5t-268 -61.5q-132 0 -209.5 72.5t-77.5 202.5q0 205 160 305t503 127l64 4
v19q5 106 -31.5 162.5t-144.5 56.5q-136 0 -201 -95q-24 -34 -61 -34h-125q-29 0 -41.5 16t-1.5 41q24 52 62.5 98.5t95.5 88.5t139.5 67t179.5 25q228 0 313 -142q160 144 379 144q118 0 205 -46.5t132 -126.5t61.5 -188t-5.5 -231q-6 -47 -55 -47zM1284 922
q-193 0 -270 -238h481q8 101 -46 169.5t-165 68.5zM401 184q70 0 134 30t106.5 75.5t69.5 95.5t32 94v31l-57 -4q-224 -18 -317 -71.5t-93 -143.5q0 -49 31.5 -78t93.5 -29z" />
    <glyph glyph-name="ccedilla" unicode="&#xe7;" horiz-adv-x="1054" 
d="M545 182q78 0 125.5 29.5t81.5 85.5q24 37 61 37h123q29 0 41 -17t0 -43q-59 -118 -169 -204.5t-259 -100.5l-39 -88q55 -11 87 -50t32 -103q0 -90 -62 -150.5t-170 -60.5q-59 0 -110 22q-43 21 -23 68l8 20q17 45 68 25q35 -14 70 -14q37 0 58 19.5t21 53.5
q0 30 -23 50.5t-79 19.5q-23 0 -31 15.5t2 43.5l54 133q-162 28 -254 158.5t-92 331.5q0 301 160 486.5t403 185.5q90 0 166 -28t126.5 -75.5t81.5 -105.5t41 -123q4 -26 -9 -39.5t-40 -13.5h-127q-42 0 -59 41q-56 131 -199 131t-224 -107.5t-81 -341.5q0 -291 240 -291z
" />
    <glyph glyph-name="egrave" unicode="&#xe8;" horiz-adv-x="1112" 
d="M381 1563h88q41 0 61 -35l144 -232q17 -26 7.5 -43.5t-40.5 -17.5h-20q-41 0 -64 29l-205 235q-23 26 -14 45t43 19zM649 1135q119 0 206.5 -46.5t132.5 -126.5t61.5 -188t-5.5 -231q-6 -47 -55 -47h-688q-7 -160 61.5 -238t188.5 -78q125 0 203 111q22 35 63 35h125
q29 0 39.5 -17t-2.5 -45q-74 -144 -198 -220.5t-273 -76.5q-200 0 -321 138t-121 366q0 190 74.5 342t207.5 237t301 85zM604 922q-191 0 -268 -238h481q6 101 -48 169.5t-165 68.5z" />
    <glyph glyph-name="eacute" unicode="&#xe9;" horiz-adv-x="1112" 
d="M889 1499l-205 -235q-23 -29 -63 -29h-21q-31 0 -40.5 17.5t7.5 43.5l144 232q20 35 61 35h88q34 0 43 -19t-14 -45zM649 1135q119 0 206.5 -46.5t132.5 -126.5t61.5 -188t-5.5 -231q-6 -47 -55 -47h-688q-7 -160 61.5 -238t188.5 -78q125 0 203 111q22 35 63 35h125
q29 0 39.5 -17t-2.5 -45q-74 -144 -198 -220.5t-273 -76.5q-200 0 -321 138t-121 366q0 190 74.5 342t207.5 237t301 85zM604 922q-191 0 -268 -238h481q6 101 -48 169.5t-165 68.5z" />
    <glyph glyph-name="ecircumflex" unicode="&#xea;" horiz-adv-x="1112" 
d="M635 1436l-121 -168q-23 -33 -61 -33h-66q-34 0 -43 19t14 44l220 238q24 27 61 27h45q38 0 61 -33l166 -234q19 -26 10 -43.5t-40 -17.5h-76q-43 0 -62 37l-90 164h-18zM989 496h-688q-7 -160 61.5 -238t188.5 -78q125 0 203 111q22 35 63 35h125q29 0 39.5 -17
t-2.5 -45q-74 -144 -198 -220.5t-273 -76.5q-200 0 -321 138t-121 366q0 190 74.5 342t207.5 237t301 85q119 0 206.5 -46.5t132.5 -126.5t61.5 -188t-5.5 -231q-6 -47 -55 -47zM604 922q-191 0 -268 -238h481q6 101 -48 169.5t-165 68.5z" />
    <glyph glyph-name="edieresis" unicode="&#xeb;" horiz-adv-x="1112" 
d="M504 1489l-12 -133q-3 -49 -54 -49h-86q-52 0 -49 53l12 133q3 49 54 49h86q52 0 49 -53zM834 1489l-13 -133q-3 -49 -53 -49h-86q-52 0 -49 53l12 133q3 49 53 49h86q53 0 50 -53zM649 1135q119 0 206.5 -46.5t132.5 -126.5t61.5 -188t-5.5 -231q-6 -47 -55 -47h-688
q-7 -160 61.5 -238t188.5 -78q125 0 203 111q22 35 63 35h125q29 0 39.5 -17t-2.5 -45q-74 -144 -198 -220.5t-273 -76.5q-200 0 -321 138t-121 366q0 190 74.5 342t207.5 237t301 85zM604 922q-191 0 -268 -238h481q6 101 -48 169.5t-165 68.5z" />
    <glyph glyph-name="igrave" unicode="&#xec;" horiz-adv-x="550" 
d="M102 1563h88q42 0 62 -35l143 -232q17 -26 7.5 -43.5t-40.5 -17.5h-20q-40 0 -63 29l-205 235q-23 26 -14.5 45t42.5 19zM444 1047l-96 -998q-3 -49 -53 -49h-148q-26 0 -39 14t-10 39l111 998q6 49 55 49h133q53 0 47 -53z" />
    <glyph glyph-name="iacute" unicode="&#xed;" horiz-adv-x="550" 
d="M608 1499l-205 -235q-23 -29 -63 -29h-21q-31 0 -40 17.5t8 43.5l143 232q20 35 62 35h88q34 0 42.5 -19t-14.5 -45zM444 1047l-96 -998q-3 -49 -53 -49h-148q-26 0 -39 14t-10 39l111 998q6 49 55 49h133q53 0 47 -53z" />
    <glyph glyph-name="icircumflex" unicode="&#xee;" horiz-adv-x="550" 
d="M467 1530l166 -234q18 -26 9 -43.5t-40 -17.5h-76q-42 0 -61 37l-90 164h-19l-120 -168q-23 -33 -62 -33h-65q-34 0 -43 19t14 44l219 238q24 27 61 27h46q38 0 61 -33zM98 53l111 998q6 49 55 49h133q53 0 47 -53l-96 -998q-3 -49 -53 -49h-148q-26 0 -39 14t-10 39z
" />
    <glyph glyph-name="idieresis" unicode="&#xef;" horiz-adv-x="550" 
d="M225 1489l-12 -133q-3 -49 -53 -49h-86q-52 0 -49 53l12 133q3 49 53 49h86q52 0 49 -53zM555 1489l-12 -133q-3 -49 -54 -49h-86q-52 0 -49 53l13 133q3 49 53 49h86q52 0 49 -53zM444 1047l-96 -998q-3 -49 -53 -49h-148q-26 0 -39 14t-10 39l111 998q6 49 55 49h133
q53 0 47 -53z" />
    <glyph glyph-name="ntilde" unicode="&#xf1;" horiz-adv-x="1148" 
d="M586 1524q38 0 69.5 -15.5t51 -37.5t35.5 -44t31 -37.5t30 -15.5q37 0 51 68q9 47 53 47h31q26 0 38.5 -14.5t8.5 -40.5q-20 -88 -67.5 -145.5t-126.5 -57.5q-35 0 -63.5 15.5t-47 37.5t-34.5 43.5t-35 37t-40 15.5q-43 0 -57 -67q-12 -47 -55 -47h-31q-56 0 -47 57
q44 201 205 201zM748 1133q154 0 232 -112.5t56 -311.5l-67 -660q-3 -49 -54 -49h-133q-53 0 -47 53l62 594q13 126 -28.5 191t-129.5 65q-112 0 -186.5 -97t-81.5 -282l-43 -475q-3 -49 -54 -49h-147q-26 0 -39 14t-10 39l110 998q6 49 56 49h133q53 0 47 -53l-8 -97h18
q132 183 314 183z" />
    <glyph glyph-name="ograve" unicode="&#xf2;" horiz-adv-x="1165" 
d="M403 1563h89q41 0 61 -35l143 -232q17 -26 8 -43.5t-40 -17.5h-21q-40 0 -63 29l-205 235q-23 26 -14.5 45t42.5 19zM653 1133q200 0 324.5 -138.5t124.5 -363.5q0 -139 -47 -263t-127 -211.5t-188.5 -138.5t-227.5 -51q-199 0 -322.5 142.5t-123.5 367.5q0 140 46.5 263
t126 208.5t187.5 135t227 49.5zM606 922q-130 0 -214.5 -111t-84.5 -293q0 -151 72.5 -243.5t183.5 -92.5q125 0 209 112.5t84 293.5q0 152 -71 243t-179 91z" />
    <glyph glyph-name="oacute" unicode="&#xf3;" horiz-adv-x="1165" 
d="M909 1499l-204 -235q-23 -29 -64 -29h-20q-31 0 -40.5 17.5t7.5 43.5l143 232q20 35 62 35h88q34 0 42.5 -19t-14.5 -45zM653 1133q200 0 324.5 -138.5t124.5 -363.5q0 -139 -47 -263t-127 -211.5t-188.5 -138.5t-227.5 -51q-199 0 -322.5 142.5t-123.5 367.5
q0 140 46.5 263t126 208.5t187.5 135t227 49.5zM606 922q-130 0 -214.5 -111t-84.5 -293q0 -151 72.5 -243.5t183.5 -92.5q125 0 209 112.5t84 293.5q0 152 -71 243t-179 91z" />
    <glyph glyph-name="ocircumflex" unicode="&#xf4;" horiz-adv-x="1165" 
d="M657 1436l-120 -168q-23 -33 -62 -33h-65q-34 0 -43 19t14 44l219 238q24 27 62 27h45q38 0 61 -33l166 -234q18 -26 9 -43.5t-40 -17.5h-76q-42 0 -61 37l-90 164h-19zM653 1133q200 0 324.5 -138.5t124.5 -363.5q0 -139 -47 -263t-127 -211.5t-188.5 -138.5t-227.5 -51
q-199 0 -322.5 142.5t-123.5 367.5q0 140 46.5 263t126 208.5t187.5 135t227 49.5zM563 182q125 0 209 112.5t84 293.5q0 152 -71 243t-179 91q-130 0 -214.5 -111t-84.5 -293q0 -151 72.5 -243.5t183.5 -92.5z" />
    <glyph glyph-name="otilde" unicode="&#xf5;" horiz-adv-x="1165" 
d="M582 1524q38 0 69.5 -15.5t51 -37.5t35.5 -44t31 -37.5t30 -15.5q37 0 51 68q9 47 53 47h31q26 0 38.5 -14.5t8.5 -40.5q-20 -88 -67.5 -145.5t-127.5 -57.5q-43 0 -76.5 23.5t-51.5 51t-42 51t-49 23.5q-43 0 -57 -67q-12 -47 -55 -47h-31q-56 0 -47 57q44 201 205 201z
M653 1133q200 0 324.5 -138.5t124.5 -363.5q0 -139 -47 -263t-127 -211.5t-188.5 -138.5t-227.5 -51q-199 0 -322.5 142.5t-123.5 367.5q0 140 46.5 263t126 208.5t187.5 135t227 49.5zM606 922q-130 0 -214.5 -111t-84.5 -293q0 -151 72.5 -243.5t183.5 -92.5
q125 0 209 112.5t84 293.5q0 152 -71 243t-179 91z" />
    <glyph glyph-name="odieresis" unicode="&#xf6;" horiz-adv-x="1165" 
d="M526 1489l-12 -133q-3 -49 -53 -49h-86q-52 0 -49 53l12 133q3 49 53 49h86q52 0 49 -53zM856 1489l-12 -133q-3 -49 -53 -49h-86q-53 0 -50 53l13 133q3 49 53 49h86q52 0 49 -53zM653 1133q200 0 324.5 -138.5t124.5 -363.5q0 -139 -47 -263t-127 -211.5t-188.5 -138.5
t-227.5 -51q-199 0 -322.5 142.5t-123.5 367.5q0 140 46.5 263t126 208.5t187.5 135t227 49.5zM606 922q-130 0 -214.5 -111t-84.5 -293q0 -151 72.5 -243.5t183.5 -92.5q125 0 209 112.5t84 293.5q0 152 -71 243t-179 91z" />
    <glyph glyph-name="divide" unicode="&#xf7;" horiz-adv-x="1585" 
d="M977 1036l-14 -143q-3 -49 -54 -49h-168q-53 0 -47 53l15 143q3 50 53 50h168q53 0 47 -54zM1362 600l-12 -111q-3 -49 -54 -49h-1026q-53 0 -47 54l10 110q3 49 54 49h1026q26 0 39 -14t10 -39zM913 176l-14 -143q-6 -49 -55 -49h-168q-25 0 -37.5 14t-9.5 39l14 143
q6 49 55 49h168q53 0 47 -53z" />
    <glyph glyph-name="oslash" unicode="&#xf8;" horiz-adv-x="1308" 
d="M1241 1036l-133 -139q59 -112 59 -266q0 -139 -47.5 -263t-127.5 -211.5t-189 -138.5t-228 -51q-149 0 -264 88l-26 -28q-27 -27 -64 -27h-131q-34 0 -42 19t15 44l130 136q-64 122 -64 278q0 140 47 263t126 208.5t187.5 135t227.5 49.5q156 0 274 -91l29 31
q27 27 63 27h131q34 0 42 -19.5t-15 -44.5zM371 518q0 -68 14 -117l436 461q-63 60 -151 60q-129 0 -214 -111.5t-85 -292.5zM920 588q0 54 -9 100l-430 -452q63 -54 146 -54q125 0 209 112.5t84 293.5z" />
    <glyph glyph-name="ugrave" unicode="&#xf9;" horiz-adv-x="1153" 
d="M401 1563h88q42 0 62 -35l143 -232q17 -26 8 -43.5t-40 -17.5h-21q-40 0 -63 29l-205 235q-23 26 -14.5 45t42.5 19zM1069 1047l-96 -998q-3 -49 -53 -49h-150q-26 0 -39 14t-10 39l12 97h-18q-123 -183 -307 -183q-159 0 -238 116t-55 333l71 637q6 47 56 47h131
q52 0 49 -53l-55 -572q-26 -278 145 -278q112 0 186 95.5t84 282.5l49 476q3 49 54 49h135q52 0 49 -53z" />
    <glyph glyph-name="uacute" unicode="&#xfa;" horiz-adv-x="1153" 
d="M909 1499l-204 -235q-23 -29 -64 -29h-20q-31 0 -40.5 17.5t7.5 43.5l143 232q20 35 62 35h88q34 0 42.5 -19t-14.5 -45zM1069 1047l-96 -998q-3 -49 -53 -49h-150q-26 0 -39 14t-10 39l12 97h-18q-123 -183 -307 -183q-159 0 -238 116t-55 333l71 637q6 47 56 47h131
q52 0 49 -53l-55 -572q-26 -278 145 -278q112 0 186 95.5t84 282.5l49 476q3 49 54 49h135q52 0 49 -53z" />
    <glyph glyph-name="ucircumflex" unicode="&#xfb;" horiz-adv-x="1153" 
d="M655 1436l-120 -168q-23 -33 -62 -33h-65q-34 0 -43 19t14 44l219 238q24 27 61 27h46q38 0 61 -33l166 -234q18 -26 9 -43.5t-40 -17.5h-76q-42 0 -61 37l-90 164h-19zM885 1100h135q52 0 49 -53l-96 -998q-3 -49 -53 -49h-150q-26 0 -39 14t-10 39l12 97h-18
q-123 -183 -307 -183q-159 0 -238 116t-55 333l71 637q6 47 56 47h131q52 0 49 -53l-55 -572q-26 -278 145 -278q112 0 186 95.5t84 282.5l49 476q3 49 54 49z" />
    <glyph glyph-name="udieresis" unicode="&#xfc;" horiz-adv-x="1153" 
d="M524 1489l-12 -133q-3 -49 -53 -49h-86q-52 0 -49 53l12 133q3 49 53 49h86q52 0 49 -53zM854 1489l-12 -133q-3 -49 -54 -49h-86q-52 0 -49 53l13 133q3 49 53 49h86q52 0 49 -53zM1069 1047l-96 -998q-3 -49 -53 -49h-150q-26 0 -39 14t-10 39l12 97h-18
q-123 -183 -307 -183q-159 0 -238 116t-55 333l71 637q6 47 56 47h131q52 0 49 -53l-55 -572q-26 -278 145 -278q112 0 186 95.5t84 282.5l49 476q3 49 54 49h135q52 0 49 -53z" />
    <glyph glyph-name="yacute" unicode="&#xfd;" horiz-adv-x="1075" 
d="M879 1499l-205 -235q-23 -29 -64 -29h-20q-31 0 -40.5 17.5t7.5 43.5l143 232q20 35 62 35h88q34 0 43 -19t-14 -45zM918 1100h120q29 0 40 -17t-1 -43l-622 -1452q-14 -39 -60 -39h-149q-29 0 -40 17t1 43l149 332l-256 1101q-6 27 6 42.5t39 15.5h127q49 0 58 -45
l164 -785h10l354 791q14 39 60 39z" />
    <glyph glyph-name="ydieresis" unicode="&#xff;" horiz-adv-x="1075" 
d="M494 1489l-13 -133q-3 -49 -53 -49h-86q-52 0 -49 53l12 133q3 49 53 49h86q53 0 50 -53zM823 1489l-12 -133q-3 -49 -53 -49h-86q-52 0 -49 53l12 133q3 49 53 49h86q52 0 49 -53zM918 1100h120q29 0 40 -17t-1 -43l-622 -1452q-14 -39 -60 -39h-149q-29 0 -40 17t1 43
l149 332l-256 1101q-6 27 6 42.5t39 15.5h127q49 0 58 -45l164 -785h10l354 791q14 39 60 39z" />
    <glyph glyph-name="Amacron" unicode="&#x100;" horiz-adv-x="1357" 
d="M1114 1819l-4 -43q-6 -50 -55 -50h-402q-53 0 -47 54l4 43q3 49 54 49h403q25 0 37.5 -14t9.5 -39zM909 436h-487l-174 -397q-14 -39 -60 -39h-161q-29 0 -39 16.5t2 42.5l651 1401q17 39 61 39h152q46 0 55 -45l357 -1397q6 -26 -5.5 -41.5t-39.5 -15.5h-166
q-47 0 -56 45zM860 655l-117 512l-225 -512h342z" />
    <glyph glyph-name="amacron" unicode="&#x101;" horiz-adv-x="1122" 
d="M899 1417l-4 -43q-6 -49 -55 -49h-402q-53 0 -47 53l4 43q3 49 54 49h403q25 0 37.5 -14t9.5 -39zM637 1133q194 0 289.5 -108.5t74.5 -334.5l-61 -641q-3 -49 -53 -49h-137q-26 0 -39.5 14t-10.5 39l13 113h-17q-63 -87 -159.5 -138t-210.5 -51q-132 0 -209.5 72.5
t-77.5 202.5q0 205 160.5 305t502.5 127l64 4l2 29q10 98 -28.5 154.5t-147.5 56.5q-139 0 -201 -92q-24 -37 -61 -37h-127q-29 0 -43.5 8t-9.5 22q16 42 42.5 82.5t69 81.5t94.5 71.5t125 49.5t156 19zM748 510l-62 -4q-223 -18 -316.5 -71.5t-93.5 -143.5q0 -48 32 -76.5
t95 -28.5q138 0 238 89.5t102 185.5z" />
    <glyph glyph-name="Abreve" unicode="&#x102;" horiz-adv-x="1357" 
d="M836 1612q-133 0 -206.5 68.5t-56.5 203.5q3 33 54 33h41q54 0 51 -33q-16 -141 133 -141q144 0 160 141q3 33 53 33h41q54 0 51 -33q-18 -137 -102.5 -204.5t-218.5 -67.5zM909 436h-487l-174 -397q-14 -39 -60 -39h-161q-29 0 -39 16.5t2 42.5l651 1401q17 39 61 39
h152q46 0 55 -45l357 -1397q6 -26 -5.5 -41.5t-39.5 -15.5h-166q-47 0 -56 45zM860 655l-117 512l-225 -512h342z" />
    <glyph glyph-name="abreve" unicode="&#x103;" horiz-adv-x="1122" 
d="M942 1485q-18 -137 -102.5 -205t-218.5 -68q-133 0 -206.5 69t-56.5 204q3 33 54 33h41q54 0 51 -33q-16 -142 133 -142q144 0 160 142q3 33 53 33h41q54 0 51 -33zM637 1133q194 0 289.5 -108.5t74.5 -334.5l-61 -641q-3 -49 -53 -49h-137q-26 0 -39.5 14t-10.5 39
l13 113h-17q-63 -87 -159.5 -138t-210.5 -51q-132 0 -209.5 72.5t-77.5 202.5q0 205 160.5 305t502.5 127l64 4l2 29q10 98 -28.5 154.5t-147.5 56.5q-139 0 -201 -92q-24 -37 -61 -37h-127q-29 0 -43.5 8t-9.5 22q16 42 42.5 82.5t69 81.5t94.5 71.5t125 49.5t156 19z
M748 510l-62 -4q-223 -18 -316.5 -71.5t-93.5 -143.5q0 -48 32 -76.5t95 -28.5q138 0 238 89.5t102 185.5z" />
    <glyph glyph-name="Cacute" unicode="&#x106;" horiz-adv-x="1495" 
d="M1171 1896l-204 -235q-23 -29 -64 -29h-20q-31 0 -40.5 18t7.5 44l143 231q20 35 62 35h88q34 0 42.5 -19t-14.5 -45zM881 1532q212 0 363 -115t202 -319q7 -26 -5 -41t-40 -15l-135 -2q-42 0 -62 39q-56 116 -149.5 177t-214.5 61q-101 0 -190.5 -42t-158 -120
t-108 -199.5t-39.5 -271.5q0 -233 112 -366.5t304 -133.5q253 0 391 248q18 37 59 37l131 -2q29 0 40.5 -16.5t0.5 -42.5q-39 -84 -99 -159.5t-142.5 -140.5t-194 -103t-235.5 -38q-187 0 -327 86.5t-214 242t-74 357.5q0 189 63 354t169.5 279.5t250.5 180t302 65.5z" />
    <glyph glyph-name="cacute" unicode="&#x107;" horiz-adv-x="1054" 
d="M879 1499l-205 -235q-23 -29 -64 -29h-20q-31 0 -40.5 17.5t7.5 43.5l143 232q20 35 62 35h88q34 0 43 -19t-14 -45zM629 1135q90 0 166 -28t126.5 -75.5t81.5 -105.5t41 -123q4 -26 -9 -39.5t-40 -13.5h-127q-42 0 -59 41q-56 131 -199 131t-224 -107.5t-81 -341.5
q0 -291 240 -291q78 0 125.5 29.5t81.5 85.5q24 37 61 37h123q29 0 41 -17t0 -43q-40 -81 -103 -147.5t-163 -113t-215 -46.5q-200 0 -315 134.5t-115 361.5q0 301 160 486.5t403 185.5z" />
    <glyph glyph-name="Cdotaccent" unicode="&#x10a;" horiz-adv-x="1495" 
d="M1055 1884l-15 -133q-3 -49 -53 -49h-131q-26 0 -39 14t-10 39l14 133q6 49 56 49h131q25 0 37.5 -14t9.5 -39zM881 1532q212 0 363 -115t202 -319q7 -26 -5 -41t-40 -15l-135 -2q-42 0 -62 39q-56 116 -149.5 177t-214.5 61q-101 0 -190.5 -42t-158 -120t-108 -199.5
t-39.5 -271.5q0 -233 112 -366.5t304 -133.5q253 0 391 248q18 37 59 37l131 -2q29 0 40.5 -16.5t0.5 -42.5q-39 -84 -99 -159.5t-142.5 -140.5t-194 -103t-235.5 -38q-187 0 -327 86.5t-214 242t-74 357.5q0 189 63 354t169.5 279.5t250.5 180t302 65.5z" />
    <glyph glyph-name="cdotaccent" unicode="&#x10b;" horiz-adv-x="1054" 
d="M762 1487l-14 -133q-3 -49 -54 -49h-131q-26 0 -39 14t-10 39l14 133q6 49 56 49h131q25 0 37.5 -14t9.5 -39zM629 1135q90 0 166 -28t126.5 -75.5t81.5 -105.5t41 -123q4 -26 -9 -39.5t-40 -13.5h-127q-42 0 -59 41q-56 131 -199 131t-224 -107.5t-81 -341.5
q0 -291 240 -291q78 0 125.5 29.5t81.5 85.5q24 37 61 37h123q29 0 41 -17t0 -43q-40 -81 -103 -147.5t-163 -113t-215 -46.5q-200 0 -315 134.5t-115 361.5q0 301 160 486.5t403 185.5z" />
    <glyph glyph-name="Ccaron" unicode="&#x10c;" horiz-adv-x="1495" 
d="M936 1632h-45q-39 0 -62 33l-165 233q-19 26 -10 44t40 18h76q42 0 61 -37l91 -164h18l121 168q23 33 61 33h66q34 0 43 -19.5t-14 -44.5l-220 -237q-24 -27 -61 -27zM760 184q253 0 391 248q18 37 59 37l131 -2q29 0 40.5 -16.5t0.5 -42.5q-39 -84 -99 -159.5
t-142.5 -140.5t-194 -103t-235.5 -38q-187 0 -327 86.5t-214 242t-74 357.5q0 189 63 354t169.5 279.5t250.5 180t302 65.5q212 0 363 -115t202 -319q7 -26 -5 -41t-40 -15l-135 -2q-42 0 -62 39q-56 116 -149.5 177t-214.5 61q-101 0 -190.5 -42t-158 -120t-108 -199.5
t-39.5 -271.5q0 -233 112 -366.5t304 -133.5z" />
    <glyph glyph-name="ccaron" unicode="&#x10d;" horiz-adv-x="1054" 
d="M641 1233h-45q-38 0 -61 33l-166 233q-19 26 -10 44t40 18h76q43 0 62 -37l90 -164h18l121 168q23 33 61 33h66q34 0 43 -19.5t-14 -44.5l-220 -237q-24 -27 -61 -27zM545 182q78 0 125.5 29.5t81.5 85.5q24 37 61 37h123q29 0 41 -17t0 -43q-40 -81 -103 -147.5
t-163 -113t-215 -46.5q-200 0 -315 134.5t-115 361.5q0 301 160 486.5t403 185.5q90 0 166 -28t126.5 -75.5t81.5 -105.5t41 -123q4 -26 -9 -39.5t-40 -13.5h-127q-42 0 -59 41q-56 131 -199 131t-224 -107.5t-81 -341.5q0 -291 240 -291z" />
    <glyph glyph-name="Dcaron" unicode="&#x10e;" horiz-adv-x="1499" 
d="M870 1632h-45q-38 0 -61 33l-166 233q-18 26 -9 44t40 18h76q42 0 61 -37l90 -164h18l121 168q23 33 62 33h65q34 0 43 -19.5t-14 -44.5l-219 -237q-24 -27 -62 -27zM315 1499h496q312 0 472.5 -169t160.5 -464q0 -146 -32 -275.5t-97.5 -238t-158.5 -187t-221 -122
t-280 -43.5h-501q-25 0 -38 14t-10 39l154 1397q6 49 55 49zM379 215h287q251 0 393.5 162.5t142.5 449.5q0 224 -111 341.5t-317 117.5h-289z" />
    <glyph glyph-name="dcaron" unicode="&#x10f;" horiz-adv-x="1200" 
d="M1712 1505l-45 -248q-9 -47 -55 -47h-29q-53 0 -47 54l25 247q3 50 53 50h51q27 0 39.5 -14.5t7.5 -41.5zM1161 1487l-143 -1438q-3 -49 -53 -49h-150q-26 0 -39 14t-10 39l10 92h-14q-59 -89 -144.5 -133.5t-181.5 -44.5q-168 0 -270.5 138t-102.5 354q0 146 43 272
t118.5 214t180.5 138t226 50q161 0 237 -105h9l49 463q6 49 55 49h133q53 0 47 -53zM604 922q-144 0 -221.5 -115t-77.5 -311q0 -150 61 -232t162 -82q124 0 210 102.5t104 282.5l-2 11q17 165 -48 254.5t-188 89.5z" />
    <glyph glyph-name="Emacron" unicode="&#x112;" horiz-adv-x="1204" 
d="M1077 1819l-4 -43q-6 -50 -55 -50h-402q-53 0 -47 54l4 43q3 49 54 49h403q25 0 37.5 -14t9.5 -39zM485 1280l-39 -389h580q53 0 47 -53l-12 -117q-3 -49 -53 -49h-582l-45 -453h651q26 0 39 -14t10 -39l-12 -117q-6 -49 -55 -49h-860q-25 0 -38 14t-10 39l154 1397
q6 49 55 49h852q26 0 39.5 -14t10.5 -39l-13 -117q-6 -49 -55 -49h-664z" />
    <glyph glyph-name="emacron" unicode="&#x113;" horiz-adv-x="1112" 
d="M901 1417l-4 -43q-6 -49 -55 -49h-402q-53 0 -47 53l4 43q3 49 54 49h403q25 0 37.5 -14t9.5 -39zM649 1135q119 0 206.5 -46.5t132.5 -126.5t61.5 -188t-5.5 -231q-6 -47 -55 -47h-688q-7 -160 61.5 -238t188.5 -78q125 0 203 111q22 35 63 35h125q29 0 39.5 -17
t-2.5 -45q-74 -144 -198 -220.5t-273 -76.5q-200 0 -321 138t-121 366q0 190 74.5 342t207.5 237t301 85zM604 922q-191 0 -268 -238h481q6 101 -48 169.5t-165 68.5z" />
    <glyph glyph-name="Edotaccent" unicode="&#x116;" horiz-adv-x="1204" 
d="M950 1886l-14 -133q-3 -49 -53 -49h-131q-26 0 -39.5 14t-10.5 39l15 133q6 49 55 49h131q25 0 37.5 -14t9.5 -39zM485 1280l-39 -389h580q53 0 47 -53l-12 -117q-3 -49 -53 -49h-582l-45 -453h651q26 0 39 -14t10 -39l-12 -117q-6 -49 -55 -49h-860q-25 0 -38 14t-10 39
l154 1397q6 49 55 49h852q26 0 39.5 -14t10.5 -39l-13 -117q-6 -49 -55 -49h-664z" />
    <glyph glyph-name="edotaccent" unicode="&#x117;" horiz-adv-x="1112" 
d="M772 1487l-14 -133q-3 -49 -53 -49h-132q-26 0 -39 14t-10 39l15 133q6 49 55 49h131q25 0 37.5 -14t9.5 -39zM649 1135q119 0 206.5 -46.5t132.5 -126.5t61.5 -188t-5.5 -231q-6 -47 -55 -47h-688q-7 -160 61.5 -238t188.5 -78q125 0 203 111q22 35 63 35h125
q29 0 39.5 -17t-2.5 -45q-74 -144 -198 -220.5t-273 -76.5q-200 0 -321 138t-121 366q0 190 74.5 342t207.5 237t301 85zM604 922q-191 0 -268 -238h481q6 101 -48 169.5t-165 68.5z" />
    <glyph glyph-name="Ecaron" unicode="&#x11a;" horiz-adv-x="1204" 
d="M829 1634h-45q-38 0 -61 33l-166 234q-18 26 -9 43.5t40 17.5h76q42 0 61 -37l90 -164h19l120 168q23 33 62 33h65q34 0 43 -19.5t-14 -44.5l-219 -237q-24 -27 -62 -27zM485 1280l-39 -389h580q53 0 47 -53l-12 -117q-3 -49 -53 -49h-582l-45 -453h651q26 0 39 -14
t10 -39l-12 -117q-6 -49 -55 -49h-860q-25 0 -38 14t-10 39l154 1397q6 49 55 49h852q26 0 39.5 -14t10.5 -39l-13 -117q-6 -49 -55 -49h-664z" />
    <glyph glyph-name="ecaron" unicode="&#x11b;" horiz-adv-x="1112" 
d="M653 1233h-45q-38 0 -61 33l-166 233q-18 26 -9 44t40 18h75q43 0 62 -37l90 -164h18l121 168q23 33 62 33h65q34 0 43 -19.5t-14 -44.5l-219 -237q-24 -27 -62 -27zM989 496h-688q-7 -160 61.5 -238t188.5 -78q125 0 203 111q22 35 63 35h125q29 0 39.5 -17t-2.5 -45
q-74 -144 -198 -220.5t-273 -76.5q-200 0 -321 138t-121 366q0 190 74.5 342t207.5 237t301 85q119 0 206.5 -46.5t132.5 -126.5t61.5 -188t-5.5 -231q-6 -47 -55 -47zM604 922q-191 0 -268 -238h481q6 101 -48 169.5t-165 68.5z" />
    <glyph glyph-name="Gbreve" unicode="&#x11e;" horiz-adv-x="1531" 
d="M918 1610q-133 0 -206.5 68.5t-56.5 203.5q3 33 54 33h41q54 0 51 -33q-16 -141 133 -141q144 0 160 141q3 33 53 33h41q54 0 51 -33q-18 -137 -102.5 -204.5t-218.5 -67.5zM903 748h524q42 0 39 -52q-20 -151 -84.5 -284t-163 -232t-235 -156t-291.5 -57
q-269 0 -433.5 191t-164.5 499q0 187 62.5 351t169 278.5t250 180t301.5 65.5q209 0 360.5 -112.5t204.5 -301.5q6 -26 -6 -40.5t-39 -14.5l-135 -4q-42 0 -62 39q-59 105 -152.5 162t-211.5 57q-102 0 -192 -42t-158.5 -120t-108 -199.5t-39.5 -271.5q0 -233 112.5 -366.5
t303.5 -133.5q147 0 265.5 91t174.5 253h-307q-52 0 -49 54l12 116q3 50 53 50z" />
    <glyph glyph-name="gbreve" unicode="&#x11f;" horiz-adv-x="1204" 
d="M981 1485q-18 -137 -103 -205t-219 -68q-133 0 -206 69t-56 204q3 33 54 33h41q54 0 51 -33q-16 -142 133 -142q144 0 160 142q3 33 53 33h41q54 0 51 -33zM559 1133q97 0 173.5 -48t117.5 -137h14l15 105q6 47 53 47h135q52 0 49 -53l-80 -881q-15 -163 -65.5 -289
t-127.5 -203.5t-172.5 -117t-205.5 -39.5q-142 0 -244 66t-153 194q-10 27 1.5 43t39.5 16h135q36 0 63 -35q58 -71 176 -71q116 0 189.5 80.5t95.5 273.5l4 27h-12q-56 -60 -113.5 -85.5t-138.5 -25.5q-201 0 -320.5 135.5t-119.5 360.5q0 175 64.5 321t177.5 231t249 85z
M606 922q-128 0 -214.5 -118t-86.5 -310q0 -135 57 -208t166 -73q123 0 207.5 78.5t102.5 224.5l-4 10q23 183 -41 289.5t-187 106.5z" />
    <glyph glyph-name="Gdotaccent" unicode="&#x120;" horiz-adv-x="1531" 
d="M1069 1884l-14 -133q-3 -49 -54 -49h-131q-26 0 -39 14t-10 39l15 133q6 49 55 49h131q25 0 37.5 -14t9.5 -39zM903 748h524q42 0 39 -52q-20 -151 -84.5 -284t-163 -232t-235 -156t-291.5 -57q-269 0 -433.5 191t-164.5 499q0 187 62.5 351t169 278.5t250 180
t301.5 65.5q209 0 360.5 -112.5t204.5 -301.5q6 -26 -6 -40.5t-39 -14.5l-135 -4q-42 0 -62 39q-59 105 -152.5 162t-211.5 57q-102 0 -192 -42t-158.5 -120t-108 -199.5t-39.5 -271.5q0 -233 112.5 -366.5t303.5 -133.5q147 0 265.5 91t174.5 253h-307q-52 0 -49 54l12 116
q3 50 53 50z" />
    <glyph glyph-name="gdotaccent" unicode="&#x121;" horiz-adv-x="1204" 
d="M809 1487l-14 -133q-3 -49 -54 -49h-131q-26 0 -39 14t-10 39l14 133q6 49 56 49h131q25 0 37.5 -14t9.5 -39zM559 1133q97 0 173.5 -48t117.5 -137h14l15 105q6 47 53 47h135q52 0 49 -53l-80 -881q-15 -163 -65.5 -289t-127.5 -203.5t-172.5 -117t-205.5 -39.5
q-142 0 -244 66t-153 194q-10 27 1.5 43t39.5 16h135q36 0 63 -35q58 -71 176 -71q116 0 189.5 80.5t95.5 273.5l4 27h-12q-56 -60 -113.5 -85.5t-138.5 -25.5q-201 0 -320.5 135.5t-119.5 360.5q0 175 64.5 321t177.5 231t249 85zM606 922q-128 0 -214.5 -118t-86.5 -310
q0 -135 57 -208t166 -73q123 0 207.5 78.5t102.5 224.5l-4 10q23 183 -41 289.5t-187 106.5z" />
    <glyph glyph-name="Imacron" unicode="&#x12a;" horiz-adv-x="819" 
d="M846 1819l-4 -43q-6 -50 -56 -50h-401q-53 0 -47 54l4 43q3 49 53 49h404q25 0 37.5 -14t9.5 -39zM625 1446l-140 -1397q-3 -49 -53 -49h-156q-25 0 -37.5 14t-9.5 39l154 1397q6 49 55 49h140q53 0 47 -53z" />
    <glyph glyph-name="imacron" unicode="&#x12b;" horiz-adv-x="550" 
d="M623 1417l-5 -43q-6 -49 -55 -49h-401q-53 0 -47 53l4 43q3 49 53 49h403q25 0 38 -14t10 -39zM444 1047l-96 -998q-3 -49 -53 -49h-148q-26 0 -39 14t-10 39l111 998q6 49 55 49h133q53 0 47 -53z" />
    <glyph glyph-name="Idotaccent" unicode="&#x130;" horiz-adv-x="819" 
d="M717 1886l-15 -133q-3 -49 -53 -49h-131q-26 0 -39 14t-10 39l14 133q6 49 56 49h131q25 0 37.5 -14t9.5 -39zM625 1446l-140 -1397q-3 -49 -53 -49h-156q-25 0 -37.5 14t-9.5 39l154 1397q6 49 55 49h140q53 0 47 -53z" />
    <glyph glyph-name="dotlessi" unicode="&#x131;" horiz-adv-x="550" 
d="M444 1047l-96 -998q-3 -49 -53 -49h-148q-26 0 -39 14t-10 39l111 998q6 49 55 49h133q53 0 47 -53z" />
    <glyph glyph-name="Lacute" unicode="&#x139;" horiz-adv-x="1187" 
d="M715 1911l-205 -236q-22 -28 -64 -28h-20q-31 0 -40.5 17.5t7.5 43.5l144 231q20 35 61 35h88q34 0 43 -18.5t-14 -44.5zM381 219h676q26 0 39 -14t10 -39l-12 -117q-6 -49 -56 -49h-884q-25 0 -38 14t-10 39l154 1397q6 49 55 49h140q53 0 47 -53z" />
    <glyph glyph-name="lacute" unicode="&#x13a;" horiz-adv-x="587" 
d="M723 1921l-205 -235q-23 -29 -63 -29h-21q-31 0 -40.5 17.5t7.5 43.5l144 232q20 35 61 35h88q34 0 43 -19t-14 -45zM510 1487l-143 -1438q-3 -49 -54 -49h-149q-26 0 -39 14t-10 39l159 1438q6 49 56 49h133q53 0 47 -53z" />
    <glyph glyph-name="Lcaron" unicode="&#x13d;" horiz-adv-x="1187" 
d="M381 219h676q26 0 39 -14t10 -39l-12 -117q-6 -49 -56 -49h-884q-25 0 -38 14t-10 39l154 1397q6 49 55 49h140q53 0 47 -53z" />
    <glyph glyph-name="lcaron" unicode="&#x13e;" horiz-adv-x="587" 
d="M1065 1505l-45 -248q-9 -47 -55 -47h-29q-53 0 -47 54l24 247q3 50 54 50h51q27 0 39.5 -14.5t7.5 -41.5zM510 1487l-143 -1438q-3 -49 -54 -49h-149q-26 0 -39 14t-10 39l159 1438q6 49 56 49h133q53 0 47 -53z" />
    <glyph glyph-name="Nacute" unicode="&#x143;" horiz-adv-x="1531" 
d="M1190 1911l-205 -236q-22 -28 -63 -28h-21q-31 0 -40.5 17.5t7.5 43.5l144 231q20 35 61 35h88q34 0 43 -18.5t-14 -44.5zM1280 1499h135q53 0 47 -53l-141 -1397q-3 -49 -53 -49h-256q-43 0 -60 39l-475 1184l-119 -1174q-3 -49 -53 -49h-151q-25 0 -38 14t-10 39
l154 1397q6 49 55 49h271q42 0 59 -39l457 -1124l123 1114q6 49 55 49z" />
    <glyph glyph-name="nacute" unicode="&#x144;" horiz-adv-x="1148" 
d="M913 1499l-204 -235q-23 -29 -64 -29h-20q-31 0 -40.5 17.5t7.5 43.5l143 232q20 35 62 35h88q34 0 42.5 -19t-14.5 -45zM748 1133q154 0 232 -112.5t56 -311.5l-67 -660q-3 -49 -54 -49h-133q-53 0 -47 53l62 594q13 126 -28.5 191t-129.5 65q-112 0 -186.5 -97
t-81.5 -282l-43 -475q-3 -49 -54 -49h-147q-26 0 -39 14t-10 39l110 998q6 49 56 49h133q53 0 47 -53l-8 -97h18q132 183 314 183z" />
    <glyph glyph-name="Ncaron" unicode="&#x147;" horiz-adv-x="1531" 
d="M954 1645h-45q-39 0 -61 32l-166 234q-18 26 -9 43.5t40 17.5h75q43 0 62 -37l90 -163h18l121 167q23 33 62 33h65q34 0 43 -19t-14 -44l-219 -238q-23 -26 -62 -26zM1280 1499h135q53 0 47 -53l-141 -1397q-3 -49 -53 -49h-256q-43 0 -60 39l-475 1184l-119 -1174
q-3 -49 -53 -49h-151q-25 0 -38 14t-10 39l154 1397q6 49 55 49h271q42 0 59 -39l457 -1124l123 1114q6 49 55 49z" />
    <glyph glyph-name="ncaron" unicode="&#x148;" horiz-adv-x="1148" 
d="M678 1233h-45q-39 0 -62 33l-165 233q-19 26 -10 44t40 18h76q42 0 61 -37l91 -164h18l121 168q23 33 61 33h66q34 0 42.5 -19.5t-14.5 -44.5l-219 -237q-24 -27 -61 -27zM748 1133q154 0 232 -112.5t56 -311.5l-67 -660q-3 -49 -54 -49h-133q-53 0 -47 53l62 594
q13 126 -28.5 191t-129.5 65q-112 0 -186.5 -97t-81.5 -282l-43 -475q-3 -49 -54 -49h-147q-26 0 -39 14t-10 39l110 998q6 49 56 49h133q53 0 47 -53l-8 -97h18q132 183 314 183z" />
    <glyph glyph-name="Omacron" unicode="&#x14c;" horiz-adv-x="1554" 
d="M1212 1829l-4 -43q-6 -49 -55 -49h-401q-53 0 -47 53l4 43q3 49 53 49h403q25 0 37.5 -14t9.5 -39zM891 1532q271 0 439.5 -185t168.5 -485q0 -149 -41 -287.5t-115.5 -247.5t-173 -190.5t-219 -125.5t-248.5 -44q-176 0 -314 87.5t-215 245t-77 359.5q0 187 63.5 351
t171 277.5t253.5 179t307 65.5zM848 1317q-104 0 -195.5 -42t-161 -120t-109.5 -199t-40 -270q0 -233 110 -367.5t291 -134.5q105 0 198 44t163 125t110.5 204.5t40.5 273.5q0 229 -112 357.5t-295 128.5z" />
    <glyph glyph-name="omacron" unicode="&#x14d;" horiz-adv-x="1165" 
d="M922 1417l-4 -43q-6 -49 -56 -49h-401q-53 0 -47 53l4 43q3 49 53 49h403q25 0 38 -14t10 -39zM653 1133q200 0 324.5 -138.5t124.5 -363.5q0 -139 -47 -263t-127 -211.5t-188.5 -138.5t-227.5 -51q-199 0 -322.5 142.5t-123.5 367.5q0 140 46.5 263t126 208.5t187.5 135
t227 49.5zM606 922q-130 0 -214.5 -111t-84.5 -293q0 -151 72.5 -243.5t183.5 -92.5q125 0 209 112.5t84 293.5q0 152 -71 243t-179 91z" />
    <glyph glyph-name="Ohungarumlaut" unicode="&#x150;" horiz-adv-x="1554" 
d="M1081 1915l-204 -236q-22 -28 -64 -28h-20q-31 0 -40.5 17.5t7.5 43.5l143 232q19 34 62 34h88q34 0 42.5 -18.5t-14.5 -44.5zM1421 1915l-204 -236q-22 -28 -64 -28h-20q-31 0 -40.5 17.5t7.5 43.5l143 232q19 34 62 34h88q34 0 42.5 -18.5t-14.5 -44.5zM891 1532
q271 0 439.5 -185t168.5 -485q0 -149 -41 -287.5t-115.5 -247.5t-173 -190.5t-219 -125.5t-248.5 -44q-176 0 -314 87.5t-215 245t-77 359.5q0 187 63.5 351t171 277.5t253.5 179t307 65.5zM848 1317q-104 0 -195.5 -42t-161 -120t-109.5 -199t-40 -270q0 -233 110 -367.5
t291 -134.5q105 0 198 44t163 125t110.5 204.5t40.5 273.5q0 229 -112 357.5t-295 128.5z" />
    <glyph glyph-name="ohungarumlaut" unicode="&#x151;" horiz-adv-x="1165" 
d="M793 1503l-205 -235q-23 -29 -64 -29h-20q-31 0 -40.5 17.5t7.5 43.5l143 232q20 35 62 35h88q34 0 43 -19t-14 -45zM1133 1503l-205 -235q-23 -29 -64 -29h-20q-31 0 -40.5 17.5t7.5 43.5l143 232q20 35 62 35h88q34 0 43 -19t-14 -45zM653 1133q200 0 324.5 -138.5
t124.5 -363.5q0 -139 -47 -263t-127 -211.5t-188.5 -138.5t-227.5 -51q-199 0 -322.5 142.5t-123.5 367.5q0 140 46.5 263t126 208.5t187.5 135t227 49.5zM606 922q-130 0 -214.5 -111t-84.5 -293q0 -151 72.5 -243.5t183.5 -92.5q125 0 209 112.5t84 293.5q0 152 -71 243
t-179 91z" />
    <glyph glyph-name="OE" unicode="&#x152;" horiz-adv-x="1828" 
d="M1204 1282l-39 -391h484q53 0 47 -53l-13 -117q-3 -49 -53 -49h-485l-45 -453h555q26 0 39 -14t10 -39l-12 -117q-6 -49 -56 -49h-899q-198 0 -344 84.5t-221.5 234t-75.5 345.5q0 179 64 335.5t174 265.5t261 171.5t320 62.5l877 -2q26 0 39 -14t10 -39l-12 -115
q-6 -47 -55 -47h-570zM844 215l119 1069h-68q-250 0 -401.5 -154t-151.5 -436q0 -224 119 -351.5t323 -127.5h60z" />
    <glyph glyph-name="oe" unicode="&#x153;" horiz-adv-x="1898" 
d="M1090 496l-3 -17q-3 -151 65.5 -225t182.5 -74q127 0 205 111q22 35 64 35h122q29 0 39.5 -17t-2.5 -45q-74 -144 -198 -220.5t-273 -76.5q-118 0 -210 50.5t-152 142.5q-80 -92 -189 -142.5t-229 -50.5q-199 0 -322.5 142.5t-123.5 367.5q0 140 46.5 263t126 208.5
t187.5 135t227 49.5q116 0 209 -48.5t152 -138.5q79 91 187 140t235 49q118 0 205 -46.5t132 -126.5t61.5 -188t-5.5 -231q-6 -47 -55 -47h-684zM563 182q108 0 187.5 87t99.5 233q2 25 6 71v15q0 152 -71 243t-179 91q-130 0 -214.5 -111t-84.5 -293q0 -151 72.5 -243.5
t183.5 -92.5zM1391 922q-194 0 -271 -238h482q8 101 -46 169.5t-165 68.5z" />
    <glyph glyph-name="Racute" unicode="&#x154;" horiz-adv-x="1345" 
d="M1128 1896l-204 -235q-23 -29 -64 -29h-20q-31 0 -40.5 18t7.5 44l143 231q20 35 62 35h88q34 0 42.5 -19t-14.5 -45zM1317 1110q0 -171 -112.5 -303t-299.5 -170l330 -576q15 -26 4.5 -43.5t-39.5 -17.5h-194q-42 0 -60 37l-309 586h-217l-58 -574q-3 -49 -53 -49h-155
q-25 0 -38 14t-10 39l154 1397q6 49 55 49h557q203 0 324 -109t121 -280zM442 836h334q295 0 295 241q0 98 -65.5 153.5t-184.5 55.5h-334z" />
    <glyph glyph-name="racute" unicode="&#x155;" horiz-adv-x="753" 
d="M719 1499l-205 -235q-23 -29 -63 -29h-21q-31 0 -40.5 17.5t7.5 43.5l144 232q20 35 61 35h88q34 0 43 -19t-14 -45zM764 1075l-16 -151q-6 -47 -54 -47q-72 -3 -124 -19t-97 -53.5t-70 -106t-30 -168.5l-45 -481q-3 -49 -54 -49h-147q-26 0 -39 14t-10 39l110 998
q6 49 56 49h133q52 0 49 -53l-8 -93h16q55 69 129 114.5t150 59.5q27 4 40.5 -10.5t10.5 -42.5z" />
    <glyph glyph-name="Rcaron" unicode="&#x158;" horiz-adv-x="1345" 
d="M893 1632h-45q-39 0 -62 33l-165 233q-19 26 -10 44t40 18h76q42 0 61 -37l91 -164h18l121 168q23 33 61 33h66q34 0 43 -19.5t-14 -44.5l-220 -237q-24 -27 -61 -27zM1317 1110q0 -171 -112.5 -303t-299.5 -170l330 -576q15 -26 4.5 -43.5t-39.5 -17.5h-194
q-42 0 -60 37l-309 586h-217l-58 -574q-3 -49 -53 -49h-155q-25 0 -38 14t-10 39l154 1397q6 49 55 49h557q203 0 324 -109t121 -280zM442 836h334q295 0 295 241q0 98 -65.5 153.5t-184.5 55.5h-334z" />
    <glyph glyph-name="rcaron" unicode="&#x159;" horiz-adv-x="753" 
d="M483 1233h-45q-38 0 -61 33l-166 233q-18 26 -9 44t40 18h75q43 0 62 -37l90 -164h18l121 168q23 33 62 33h65q34 0 43 -19.5t-14 -44.5l-219 -237q-24 -27 -62 -27zM418 954h16q55 69 129 114.5t150 59.5q27 4 40.5 -10.5t10.5 -42.5l-16 -151q-6 -47 -54 -47
q-72 -3 -124 -19t-97 -53.5t-70 -106t-30 -168.5l-45 -481q-3 -49 -54 -49h-147q-26 0 -39 14t-10 39l110 998q6 49 56 49h133q52 0 49 -53z" />
    <glyph glyph-name="Sacute" unicode="&#x15a;" horiz-adv-x="1314" 
d="M1081 1896l-204 -235q-23 -29 -64 -29h-20q-31 0 -40.5 18t7.5 44l143 231q20 35 62 35h88q34 0 42.5 -19t-14.5 -45zM766 1532q196 0 324 -102.5t170 -268.5q7 -26 -5.5 -40.5t-40.5 -14.5h-135q-41 0 -61 39q-90 170 -297 170q-135 0 -201.5 -54.5t-66.5 -142.5
q0 -71 64.5 -119t234.5 -110l59 -21q406 -145 406 -432q0 -220 -161.5 -344.5t-424.5 -124.5q-108 0 -198 25t-151 65t-106 94.5t-69 109.5t-33 114q-6 53 49 53h141q43 0 58 -41q85 -201 348 -201q293 0 293 193q0 78 -68.5 139.5t-232.5 124.5l-66 27q-99 39 -167.5 77
t-123 86.5t-80.5 108t-26 133.5q0 137 80.5 243t208.5 160t278 54z" />
    <glyph glyph-name="sacute" unicode="&#x15b;" horiz-adv-x="1050" 
d="M860 1499l-205 -235q-23 -29 -63 -29h-21q-31 0 -40 17.5t8 43.5l143 232q20 35 61 35h88q34 0 43 -19t-14 -45zM588 1133q88 0 161.5 -26t120.5 -69t76 -93t39 -103q4 -24 -9 -37.5t-40 -13.5h-133q-38 0 -62 34q-66 97 -190 97q-80 0 -128 -36.5t-48 -90.5
q0 -40 43 -67.5t147 -59.5l80 -25q166 -50 239.5 -122t73.5 -173q0 -170 -131.5 -275.5t-341.5 -105.5q-97 0 -174 24.5t-127.5 69t-82 97.5t-46.5 118q-4 26 8.5 41t38.5 15h152q42 0 59 -41q31 -60 82 -85.5t129 -25.5q185 0 185 125q0 46 -43 81t-148 65l-80 22
q-145 42 -223 109.5t-78 177.5q0 158 131.5 265.5t319.5 107.5z" />
    <glyph glyph-name="Scedilla" unicode="&#x15e;" horiz-adv-x="1314" 
d="M752 889l59 -21q406 -145 406 -432q0 -214 -154 -338.5t-408 -130.5l-37 -86q55 -11 87 -50t32 -103q0 -90 -61.5 -150.5t-169.5 -60.5q-60 0 -111 22q-42 20 -22 68l8 20q17 45 68 25q35 -14 69 -14q37 0 58.5 19.5t21.5 53.5q0 30 -23 50.5t-79 19.5q-23 0 -31 15.5
t2 43.5l53 133q-105 15 -189 56t-135.5 98t-81.5 119t-40 129q-6 53 49 53h141q43 0 58 -41q85 -201 348 -201q293 0 293 193q0 78 -68.5 139.5t-232.5 124.5l-66 27q-99 39 -167.5 77t-123 86.5t-80.5 108t-26 133.5q0 137 80.5 243t208.5 160t278 54q196 0 324 -102.5
t170 -268.5q7 -26 -5.5 -40.5t-40.5 -14.5h-135q-41 0 -61 39q-90 170 -297 170q-135 0 -201.5 -54.5t-66.5 -142.5q0 -71 64.5 -119t234.5 -110z" />
    <glyph glyph-name="scedilla" unicode="&#x15f;" horiz-adv-x="1050" 
d="M551 922q-80 0 -128 -36.5t-48 -90.5q0 -40 43 -67.5t147 -59.5l80 -25q166 -50 239.5 -122t73.5 -173q0 -162 -119.5 -266t-312.5 -113l-39 -88q55 -11 87 -50t32 -103q0 -90 -61.5 -150.5t-169.5 -60.5q-60 0 -111 22q-42 20 -22 68l8 20q17 44 67 25q35 -14 70 -14
q37 0 58.5 19.5t21.5 53.5q0 30 -23 50.5t-79 19.5q-23 0 -31 15.5t2 43.5l53 133q-143 23 -225 105t-107 198q-6 26 6.5 41t38.5 15h152q42 0 59 -41q31 -60 82 -85.5t129 -25.5q185 0 185 125q0 46 -43 81t-148 65l-80 22q-145 42 -223 109.5t-78 177.5q0 158 131.5 265.5
t319.5 107.5q88 0 161.5 -26t120.5 -69t76 -93t39 -103q4 -24 -9 -37.5t-40 -13.5h-133q-40 0 -62 34q-63 97 -190 97z" />
    <glyph glyph-name="Scaron" unicode="&#x160;" horiz-adv-x="1314" 
d="M846 1632h-45q-39 0 -62 33l-166 233q-18 26 -9 44t40 18h76q42 0 61 -37l90 -164h19l121 168q23 33 61 33h66q34 0 42.5 -19.5t-14.5 -44.5l-219 -237q-24 -27 -61 -27zM752 889l59 -21q406 -145 406 -432q0 -220 -161.5 -344.5t-424.5 -124.5q-108 0 -198 25t-151 65
t-106 94.5t-69 109.5t-33 114q-6 53 49 53h141q43 0 58 -41q85 -201 348 -201q293 0 293 193q0 78 -68.5 139.5t-232.5 124.5l-66 27q-99 39 -167.5 77t-123 86.5t-80.5 108t-26 133.5q0 137 80.5 243t208.5 160t278 54q196 0 324 -102.5t170 -268.5q7 -26 -5.5 -40.5
t-40.5 -14.5h-135q-41 0 -61 39q-90 170 -297 170q-135 0 -201.5 -54.5t-66.5 -142.5q0 -71 64.5 -119t234.5 -110z" />
    <glyph glyph-name="scaron" unicode="&#x161;" horiz-adv-x="1050" 
d="M625 1233h-45q-39 0 -62 33l-166 233q-18 26 -9 44t40 18h76q42 0 61 -37l90 -164h19l121 168q23 33 61 33h66q34 0 42.5 -19.5t-14.5 -44.5l-219 -237q-24 -27 -61 -27zM551 922q-80 0 -128 -36.5t-48 -90.5q0 -40 43 -67.5t147 -59.5l80 -25q166 -50 239.5 -122
t73.5 -173q0 -170 -131.5 -275.5t-341.5 -105.5q-97 0 -174 24.5t-127.5 69t-82 97.5t-46.5 118q-4 26 8.5 41t38.5 15h152q42 0 59 -41q31 -60 82 -85.5t129 -25.5q185 0 185 125q0 46 -43 81t-148 65l-80 22q-145 42 -223 109.5t-78 177.5q0 158 131.5 265.5t319.5 107.5
q88 0 161.5 -26t120.5 -69t76 -93t39 -103q4 -24 -9 -37.5t-40 -13.5h-133q-40 0 -62 34q-63 97 -190 97z" />
    <glyph glyph-name="Tcedilla" unicode="&#x162;" horiz-adv-x="1193" 
d="M610 0l-51 -119q55 -11 87 -50t32 -103q0 -90 -62 -150.5t-170 -60.5q-59 0 -110 22q-43 21 -23 68l9 20q17 44 67 25q35 -14 70 -14q37 0 58.5 19.5t21.5 53.5q0 30 -23.5 50.5t-79.5 19.5q-23 0 -30.5 15.5t2.5 43.5l63 160h-6q-26 0 -39 14t-10 39l137 1227h-389
q-26 0 -39 14t-10 39l12 117q6 49 55 49h1024q26 0 39 -14t10 -39l-12 -117q-6 -49 -55 -49h-393l-121 -1231q-3 -49 -53 -49h-11z" />
    <glyph glyph-name="tcedilla" unicode="&#x163;" horiz-adv-x="710" 
d="M354 0l-51 -119q55 -11 87 -50t32 -103q0 -90 -62 -150.5t-170 -60.5q-59 0 -110 22q-43 21 -23 68l9 20q17 44 67 25q35 -14 70 -14q37 0 58.5 19.5t21.5 53.5q0 30 -23.5 50.5t-79.5 19.5q-23 0 -30.5 15.5t2.5 43.5l63 160q-47 0 -41 53l92 846h-125q-26 0 -39 14
t-10 39l10 99q6 49 56 49h131l39 368q6 50 55 50h133q53 0 47 -54l-35 -364h150q26 0 39 -14t10 -39l-10 -99q-6 -49 -55 -49h-154l-84 -850q-3 -49 -53 -49h-17z" />
    <glyph glyph-name="Tcaron" unicode="&#x164;" horiz-adv-x="1193" 
d="M784 1632h-45q-38 0 -61 33l-166 233q-18 26 -9 44t40 18h75q43 0 62 -37l90 -164h18l121 168q23 33 62 33h65q34 0 43 -19.5t-14 -44.5l-219 -237q-24 -27 -62 -27zM1255 1446l-12 -117q-6 -49 -55 -49h-393l-121 -1231q-3 -49 -53 -49h-156q-26 0 -39 14t-10 39
l137 1227h-389q-26 0 -39 14t-10 39l12 117q6 49 55 49h1026q25 0 37.5 -14t9.5 -39z" />
    <glyph glyph-name="tcaron" unicode="&#x165;" horiz-adv-x="710" 
d="M854 1561h51q27 0 39.5 -14.5t7.5 -41.5l-45 -248q-9 -47 -55 -47h-29q-53 0 -47 54l25 247q3 50 53 50zM528 1100h150q26 0 39 -14t10 -39l-10 -99q-6 -49 -55 -49h-154l-84 -850q-3 -49 -53 -49h-150q-25 0 -37.5 14t-9.5 39l92 846h-125q-26 0 -39 14t-10 39l10 99
q6 49 56 49h131l39 368q6 50 55 50h133q53 0 47 -54z" />
    <glyph glyph-name="Umacron" unicode="&#x16a;" 
d="M1200 1829l-4 -43q-6 -49 -55 -49h-402q-53 0 -47 53l4 43q3 49 54 49h403q25 0 37.5 -14t9.5 -39zM1454 1446l-80 -799q-22 -219 -117.5 -374.5t-238 -230.5t-320.5 -75q-131 0 -236.5 44t-178 128t-103.5 214t-12 294l88 803q6 49 55 49h138q53 0 47 -53l-76 -772
q-23 -249 58 -369.5t253 -120.5q171 0 269.5 119.5t125.5 370.5l84 776q6 49 56 49h141q53 0 47 -53z" />
    <glyph glyph-name="umacron" unicode="&#x16b;" horiz-adv-x="1153" 
d="M922 1417l-4 -43q-6 -49 -56 -49h-401q-53 0 -47 53l4 43q3 49 53 49h403q25 0 38 -14t10 -39zM1069 1047l-96 -998q-3 -49 -53 -49h-150q-26 0 -39 14t-10 39l12 97h-18q-123 -183 -307 -183q-159 0 -238 116t-55 333l71 637q6 47 56 47h131q52 0 49 -53l-55 -572
q-26 -278 145 -278q112 0 186 95.5t84 282.5l49 476q3 49 54 49h135q52 0 49 -53z" />
    <glyph glyph-name="Uring" unicode="&#x16e;" 
d="M963 2001q79 0 130.5 -51t51.5 -135q0 -100 -66.5 -165t-158.5 -65q-80 0 -131.5 52t-51.5 135q0 101 66.5 165t159.5 64zM952 1892q-45 0 -75.5 -29.5t-30.5 -78.5q0 -39 24.5 -64.5t61.5 -25.5q41 0 71.5 31t30.5 79q0 40 -23.5 64t-58.5 24zM1454 1446l-80 -799
q-22 -219 -117.5 -374.5t-238 -230.5t-320.5 -75q-131 0 -236.5 44t-178 128t-103.5 214t-12 294l88 803q6 49 55 49h138q53 0 47 -53l-76 -772q-23 -249 58 -369.5t253 -120.5q171 0 269.5 119.5t125.5 370.5l84 776q6 49 56 49h141q53 0 47 -53z" />
    <glyph glyph-name="uring" unicode="&#x16f;" horiz-adv-x="1153" 
d="M684 1589q79 0 130.5 -51t51.5 -135q0 -100 -66.5 -164.5t-158.5 -64.5q-80 0 -131 51.5t-51 134.5q0 101 66.5 165t158.5 64zM674 1481q-45 0 -76 -30t-31 -79q0 -39 24.5 -64.5t61.5 -25.5q41 0 72 31.5t31 79.5q0 40 -23.5 64t-58.5 24zM1069 1047l-96 -998
q-3 -49 -53 -49h-150q-26 0 -39 14t-10 39l12 97h-18q-123 -183 -307 -183q-159 0 -238 116t-55 333l71 637q6 47 56 47h131q52 0 49 -53l-55 -572q-26 -278 145 -278q112 0 186 95.5t84 282.5l49 476q3 49 54 49h135q52 0 49 -53z" />
    <glyph glyph-name="Uhungarumlaut" unicode="&#x170;" 
d="M1069 1915l-205 -236q-22 -28 -63 -28h-21q-31 0 -40 17.5t8 43.5l143 232q19 34 61 34h88q34 0 43 -18.5t-14 -44.5zM1409 1915l-205 -236q-22 -28 -63 -28h-21q-31 0 -40.5 17.5t7.5 43.5l144 232q19 34 61 34h88q34 0 43 -18.5t-14 -44.5zM1454 1446l-80 -799
q-22 -219 -117.5 -374.5t-238 -230.5t-320.5 -75q-131 0 -236.5 44t-178 128t-103.5 214t-12 294l88 803q6 49 55 49h138q53 0 47 -53l-76 -772q-23 -249 58 -369.5t253 -120.5q171 0 269.5 119.5t125.5 370.5l84 776q6 49 56 49h141q53 0 47 -53z" />
    <glyph glyph-name="uhungarumlaut" unicode="&#x171;" horiz-adv-x="1153" 
d="M791 1503l-205 -235q-23 -29 -64 -29h-20q-31 0 -40.5 17.5t7.5 43.5l143 232q20 35 62 35h88q34 0 43 -19t-14 -45zM1130 1503l-204 -235q-23 -29 -64 -29h-20q-31 0 -40.5 17.5t7.5 43.5l143 232q20 35 62 35h88q34 0 42.5 -19t-14.5 -45zM1069 1047l-96 -998
q-3 -49 -53 -49h-150q-26 0 -39 14t-10 39l12 97h-18q-123 -183 -307 -183q-159 0 -238 116t-55 333l71 637q6 47 56 47h131q52 0 49 -53l-55 -572q-26 -278 145 -278q112 0 186 95.5t84 282.5l49 476q3 49 54 49h135q52 0 49 -53z" />
    <glyph glyph-name="Wcircumflex" unicode="&#x174;" horiz-adv-x="1921" 
d="M1243 1942l166 -234q18 -26 9 -43.5t-40 -17.5h-75q-43 0 -62 36l-90 164h-18l-121 -168q-22 -32 -62 -32h-65q-34 0 -43 19t14 44l219 238q23 26 62 26h45q39 0 61 -32z" />
    <glyph glyph-name="wcircumflex" unicode="&#x175;" 
d="M840 1436l-121 -168q-23 -33 -62 -33h-65q-34 0 -43 19t14 44l219 238q24 27 62 27h45q38 0 61 -33l166 -234q18 -26 9 -43.5t-40 -17.5h-75q-43 0 -62 37l-90 164h-18zM1366 1100h121q28 0 39 -16t2 -44l-354 -999q-14 -41 -58 -41h-211q-47 0 -53 47l-78 596h-6
l-207 -602q-14 -41 -57 -41h-213q-47 0 -53 47l-142 997q-4 26 8.5 41t38.5 15h127q50 0 56 -47l92 -795h26l263 799q15 43 59 43h108q50 0 56 -47l92 -795h25l260 799q15 43 59 43z" />
    <glyph glyph-name="Ycircumflex" unicode="&#x176;" horiz-adv-x="1200" 
d="M772 1847l-121 -168q-22 -32 -61 -32h-66q-34 0 -42.5 19t14.5 44l219 238q23 26 61 26h45q40 0 62 -32l166 -234q18 -26 9 -43.5t-40 -17.5h-76q-42 0 -61 36l-90 164h-19zM731 604l-53 -555q-3 -49 -53 -49h-154q-25 0 -37.5 14t-9.5 39l61 553l-340 834
q-10 26 0.5 42.5t38.5 16.5h160q42 0 59 -41l230 -600h14l359 606q20 35 61 35h141q31 0 40.5 -17.5t-5.5 -43.5z" />
    <glyph glyph-name="ycircumflex" unicode="&#x177;" horiz-adv-x="1075" 
d="M625 1436l-121 -168q-23 -33 -62 -33h-65q-34 0 -43 19t14 44l219 238q24 27 62 27h45q38 0 61 -33l166 -234q18 -26 9 -43.5t-40 -17.5h-75q-43 0 -62 37l-90 164h-18zM918 1100h120q29 0 40 -17t-1 -43l-622 -1452q-14 -39 -60 -39h-149q-29 0 -40 17t1 43l149 332
l-256 1101q-6 27 6 42.5t39 15.5h127q49 0 58 -45l164 -785h10l354 791q14 39 60 39z" />
    <glyph glyph-name="Ydieresis" unicode="&#x178;" horiz-adv-x="1200" 
d="M641 1901l-12 -134q-3 -49 -54 -49h-86q-52 0 -49 54l13 133q3 49 53 49h86q52 0 49 -53zM971 1901l-13 -134q-3 -49 -53 -49h-86q-52 0 -49 54l12 133q3 49 54 49h86q52 0 49 -53zM731 604l-53 -555q-3 -49 -53 -49h-154q-25 0 -37.5 14t-9.5 39l61 553l-340 834
q-10 26 0.5 42.5t38.5 16.5h160q42 0 59 -41l230 -600h14l359 606q20 35 61 35h141q31 0 40.5 -17.5t-5.5 -43.5z" />
    <glyph glyph-name="Zacute" unicode="&#x179;" horiz-adv-x="1312" 
d="M1087 1896l-204 -235q-23 -29 -64 -29h-20q-31 0 -40.5 18t7.5 44l143 231q20 35 62 35h88q34 0 42.5 -19t-14.5 -45zM299 1499h913q26 0 39.5 -14t10.5 -39l-13 -96q-3 -39 -30 -68l-832 -1046l-2 -15h713q26 0 39 -14t10 -39l-12 -119q-6 -49 -56 -49h-981
q-25 0 -37.5 14t-9.5 39l10 103q3 27 37 67l828 1039l2 18h-649q-26 0 -39.5 14t-10.5 39l15 119q6 47 55 47z" />
    <glyph glyph-name="zacute" unicode="&#x17a;" horiz-adv-x="940" 
d="M784 1499l-204 -235q-23 -29 -64 -29h-20q-31 0 -40.5 17.5t7.5 43.5l143 232q20 35 62 35h88q34 0 42.5 -19t-14.5 -45zM911 1047l-12 -115q-4 -17 -12 -25l-572 -694l-2 -12h467q26 0 39 -14.5t10 -39.5l-10 -98q-6 -49 -55 -49h-701q-53 0 -47 53l11 115q0 12 10 22
l590 695l2 14h-455q-26 0 -39 14t-10 39l10 99q6 49 55 49h674q25 0 37.5 -14t9.5 -39z" />
    <glyph glyph-name="Zdotaccent" unicode="&#x17b;" horiz-adv-x="1312" 
d="M973 1884l-15 -133q-3 -49 -53 -49h-131q-26 0 -39 14t-10 39l14 133q6 49 56 49h131q25 0 37.5 -14t9.5 -39zM299 1499h913q26 0 39.5 -14t10.5 -39l-13 -96q-3 -39 -30 -68l-832 -1046l-2 -15h713q26 0 39 -14t10 -39l-12 -119q-6 -49 -56 -49h-981q-25 0 -37.5 14
t-9.5 39l10 103q3 27 37 67l828 1039l2 18h-649q-26 0 -39.5 14t-10.5 39l15 119q6 47 55 47z" />
    <glyph glyph-name="zdotaccent" unicode="&#x17c;" horiz-adv-x="940" 
d="M668 1487l-15 -133q-3 -49 -53 -49h-131q-26 0 -39 14t-10 39l14 133q6 49 55 49h132q25 0 37.5 -14t9.5 -39zM911 1047l-12 -115q-4 -17 -12 -25l-572 -694l-2 -12h467q26 0 39 -14.5t10 -39.5l-10 -98q-6 -49 -55 -49h-701q-53 0 -47 53l11 115q0 12 10 22l590 695
l2 14h-455q-26 0 -39 14t-10 39l10 99q6 49 55 49h674q25 0 37.5 -14t9.5 -39z" />
    <glyph glyph-name="Zcaron" unicode="&#x17d;" horiz-adv-x="1312" 
d="M852 1632h-45q-39 0 -62 33l-165 233q-19 26 -10 44t40 18h76q43 0 62 -37l90 -164h18l121 168q23 33 61 33h66q34 0 43 -19.5t-14 -44.5l-220 -237q-24 -27 -61 -27zM299 1499h913q26 0 39.5 -14t10.5 -39l-13 -96q-3 -39 -30 -68l-832 -1046l-2 -15h713q26 0 39 -14
t10 -39l-12 -119q-6 -49 -56 -49h-981q-25 0 -37.5 14t-9.5 39l10 103q3 27 37 67l828 1039l2 18h-649q-26 0 -39.5 14t-10.5 39l15 119q6 47 55 47z" />
    <glyph glyph-name="zcaron" unicode="&#x17e;" horiz-adv-x="940" 
d="M549 1233h-45q-39 0 -62 33l-166 233q-18 26 -9 44t40 18h76q42 0 61 -37l91 -164h18l121 168q23 33 61 33h66q34 0 42.5 -19.5t-14.5 -44.5l-219 -237q-24 -27 -61 -27zM190 1100h674q25 0 37.5 -14t9.5 -39l-12 -115q-4 -17 -12 -25l-572 -694l-2 -12h467
q26 0 39 -14.5t10 -39.5l-10 -98q-6 -49 -55 -49h-701q-53 0 -47 53l11 115q0 12 10 22l590 695l2 14h-455q-26 0 -39 14t-10 39l10 99q6 49 55 49z" />
    <glyph glyph-name="Acaron" unicode="&#x1cd;" horiz-adv-x="1357" 
d="M864 1634h-45q-38 0 -61 33l-166 234q-18 26 -9 43.5t40 17.5h75q43 0 62 -37l90 -164h18l121 168q23 33 62 33h65q34 0 43 -19.5t-14 -44.5l-219 -237q-24 -27 -62 -27zM909 436h-487l-174 -397q-14 -39 -60 -39h-161q-29 0 -39 16.5t2 42.5l651 1401q17 39 61 39h152
q46 0 55 -45l357 -1397q6 -26 -5.5 -41.5t-39.5 -15.5h-166q-47 0 -56 45zM860 655l-117 512l-225 -512h342z" />
    <glyph glyph-name="acaron" unicode="&#x1ce;" horiz-adv-x="1122" 
d="M649 1233h-45q-38 0 -61 33l-166 233q-18 26 -9 44t40 18h75q43 0 62 -37l90 -164h18l121 168q23 33 62 33h65q34 0 43 -19.5t-14 -44.5l-219 -237q-24 -27 -62 -27zM637 1133q194 0 289.5 -108.5t74.5 -334.5l-61 -641q-3 -49 -53 -49h-137q-26 0 -39.5 14t-10.5 39
l13 113h-17q-63 -87 -159.5 -138t-210.5 -51q-132 0 -209.5 72.5t-77.5 202.5q0 205 160.5 305t502.5 127l64 4l2 29q10 98 -28.5 154.5t-147.5 56.5q-139 0 -201 -92q-24 -37 -61 -37h-127q-29 0 -43.5 8t-9.5 22q16 42 42.5 82.5t69 81.5t94.5 71.5t125 49.5t156 19z
M748 510l-62 -4q-223 -18 -316.5 -71.5t-93.5 -143.5q0 -48 32 -76.5t95 -28.5q138 0 238 89.5t102 185.5z" />
    <glyph glyph-name="Icaron" unicode="&#x1cf;" horiz-adv-x="819" 
d="M784 1962h66q34 0 43 -19.5t-14 -44.5l-220 -237q-24 -27 -61 -27h-45q-38 0 -61 33l-166 234q-19 26 -10 43.5t40 17.5h76q43 0 62 -37l90 -164h18l121 168q23 33 61 33zM229 53l154 1397q6 49 55 49h140q53 0 47 -53l-140 -1397q-3 -49 -53 -49h-156q-25 0 -37.5 14
t-9.5 39z" />
    <glyph glyph-name="icaron" unicode="&#x1d0;" horiz-adv-x="550" 
d="M373 1233h-45q-39 0 -62 33l-166 233q-18 26 -9 44t40 18h76q42 0 61 -37l90 -164h19l121 168q23 33 61 33h66q34 0 42.5 -19.5t-14.5 -44.5l-219 -237q-24 -27 -61 -27zM98 53l111 998q6 49 55 49h133q53 0 47 -53l-96 -998q-3 -49 -53 -49h-148q-26 0 -39 14t-10 39z
" />
    <glyph glyph-name="Ocaron" unicode="&#x1d1;" horiz-adv-x="1554" 
d="M963 1645h-45q-40 0 -62 32l-166 234q-18 26 -9 43.5t40 17.5h76q42 0 61 -37l90 -163h19l120 167q23 33 62 33h65q34 0 43 -19t-14 -44l-219 -238q-23 -26 -61 -26zM891 1532q271 0 439.5 -185t168.5 -485q0 -149 -41 -287.5t-115.5 -247.5t-173 -190.5t-219 -125.5
t-248.5 -44q-176 0 -314 87.5t-215 245t-77 359.5q0 187 63.5 351t171 277.5t253.5 179t307 65.5zM743 184q105 0 198 44t163 125t110.5 204.5t40.5 273.5q0 229 -112 357.5t-295 128.5q-104 0 -195.5 -42t-161 -120t-109.5 -199t-40 -270q0 -233 110 -367.5t291 -134.5z
" />
    <glyph glyph-name="ocaron" unicode="&#x1d2;" horiz-adv-x="1165" 
d="M674 1233h-45q-39 0 -62 33l-166 233q-18 26 -9 44t40 18h76q42 0 61 -37l90 -164h19l121 168q23 33 61 33h66q34 0 42.5 -19.5t-14.5 -44.5l-219 -237q-24 -27 -61 -27zM653 1133q200 0 324.5 -138.5t124.5 -363.5q0 -139 -47 -263t-127 -211.5t-188.5 -138.5
t-227.5 -51q-199 0 -322.5 142.5t-123.5 367.5q0 140 46.5 263t126 208.5t187.5 135t227 49.5zM563 182q125 0 209 112.5t84 293.5q0 152 -71 243t-179 91q-130 0 -214.5 -111t-84.5 -293q0 -151 72.5 -243.5t183.5 -92.5z" />
    <glyph glyph-name="Ucaron" unicode="&#x1d3;" 
d="M952 1645h-45q-39 0 -61 32l-166 234q-18 26 -9 43.5t40 17.5h75q43 0 62 -37l90 -163h18l121 167q23 33 62 33h65q34 0 43 -19t-14 -44l-219 -238q-23 -26 -62 -26zM1266 1499h141q53 0 47 -53l-80 -799q-22 -219 -117.5 -374.5t-238 -230.5t-320.5 -75
q-131 0 -236.5 44t-178 128t-103.5 214t-12 294l88 803q6 49 55 49h138q53 0 47 -53l-76 -772q-23 -249 58 -369.5t253 -120.5q171 0 269.5 119.5t125.5 370.5l84 776q6 49 56 49z" />
    <glyph glyph-name="ucaron" unicode="&#x1d4;" horiz-adv-x="1153" 
d="M672 1233h-45q-39 0 -62 33l-166 233q-18 26 -9 44t40 18h76q42 0 61 -37l90 -164h19l121 168q23 33 61 33h66q34 0 42.5 -19.5t-14.5 -44.5l-219 -237q-24 -27 -61 -27zM885 1100h135q52 0 49 -53l-96 -998q-3 -49 -53 -49h-150q-26 0 -39 14t-10 39l12 97h-18
q-123 -183 -307 -183q-159 0 -238 116t-55 333l71 637q6 47 56 47h131q52 0 49 -53l-55 -572q-26 -278 145 -278q112 0 186 95.5t84 282.5l49 476q3 49 54 49z" />
    <glyph glyph-name="dotlessj" unicode="&#x237;" horiz-adv-x="653" 
d="M528 1047l-100 -1047q-11 -106 -44 -186.5t-77 -128t-105.5 -78t-119.5 -42t-129 -14.5q-26 -1 -39 13.5t-10 40.5l12 110q3 46 53 49q41 1 65 5t50.5 16t41.5 35t28 62.5t20 97.5l121 1073q6 47 55 47h131q53 0 47 -53z" />
    <glyph glyph-name="circumflex" unicode="&#x2c6;" horiz-adv-x="194" 
d="M815 1530l166 -234q18 -26 9 -43.5t-40 -17.5h-76q-42 0 -61 37l-90 164h-18l-121 -168q-23 -33 -62 -33h-65q-34 0 -43 19t14 44l219 238q24 27 62 27h45q38 0 61 -33z" />
    <glyph glyph-name="caron" unicode="&#x2c7;" horiz-adv-x="194" 
d="M903 1516h66q34 0 42.5 -19.5t-14.5 -44.5l-219 -238q-23 -26 -61 -26h-45q-39 0 -62 33l-166 233q-18 26 -9 44t40 18h74q41 0 61 -35l92 -166h19l121 168q23 33 61 33z" />
    <glyph glyph-name="breve" unicode="&#x2d8;" horiz-adv-x="194" 
d="M979 1485q-18 -137 -103 -205t-219 -68q-133 0 -206 69t-56 204q3 33 54 33h40q55 0 52 -33q-16 -142 133 -142q144 0 160 142q3 33 53 33h41q54 0 51 -33z" />
    <glyph glyph-name="dotaccent" unicode="&#x2d9;" horiz-adv-x="692" 
d="M561 1487l-14 -133q-3 -49 -53 -49h-132q-26 0 -39 14t-10 39l15 133q6 49 55 49h131q25 0 37.5 -14t9.5 -39z" />
    <glyph glyph-name="ring" unicode="&#x2da;" horiz-adv-x="194" 
d="M608 1589q79 0 131 -51.5t52 -134.5q0 -100 -67 -164.5t-159 -64.5q-80 0 -131 51.5t-51 134.5q0 101 66.5 165t158.5 64zM598 1481q-44 0 -75 -30t-31 -79q0 -39 24.5 -64.5t61.5 -25.5q41 0 71.5 31.5t30.5 79.5q0 40 -23.5 64t-58.5 24z" />
    <glyph glyph-name="tilde" unicode="&#x2dc;" horiz-adv-x="194" 
d="M586 1524q38 0 69.5 -15.5t51 -37.5t35.5 -44t31 -37.5t30 -15.5q37 0 51 68q9 47 53 47h31q26 0 38.5 -14.5t8.5 -40.5q-20 -88 -67.5 -145.5t-126.5 -57.5q-35 0 -63.5 15.5t-47 37.5t-34.5 43.5t-35 37t-40 15.5q-43 0 -57 -67q-12 -47 -55 -47h-31q-56 0 -47 57
q44 201 205 201z" />
    <glyph glyph-name="hungarumlaut" unicode="&#x2dd;" horiz-adv-x="194" 
d="M731 1499l-205 -235q-23 -29 -63 -29h-21q-31 0 -40 17.5t8 43.5l143 232q20 35 61 35h88q34 0 43 -19t-14 -45zM1071 1499l-207 -235q-23 -29 -61 -29h-21q-32 0 -41.5 17.5t7.5 43.5l145 232q20 35 61 35h88q34 0 42.5 -19t-13.5 -45z" />
    <glyph glyph-name="Wgrave" unicode="&#x1e80;" horiz-adv-x="1921" 
d="M877 1974h88q41 0 61 -35l143 -231q17 -26 8 -43.5t-40 -17.5h-21q-41 0 -63 28l-205 236q-23 26 -14 44.5t43 18.5z" />
    <glyph glyph-name="wgrave" unicode="&#x1e81;" 
d="M846 1235h-21q-40 0 -63 29l-205 235q-23 26 -14 45t43 19h88q41 0 61 -35l144 -232q17 -26 7.5 -43.5t-40.5 -17.5zM1366 1100h121q28 0 39 -16t2 -44l-354 -999q-14 -41 -58 -41h-211q-47 0 -53 47l-78 596h-6l-207 -602q-14 -41 -57 -41h-213q-47 0 -53 47l-142 997
q-4 26 8.5 41t38.5 15h127q50 0 56 -47l92 -795h26l263 799q15 43 59 43h108q50 0 56 -47l92 -795h25l260 799q15 43 59 43z" />
    <glyph glyph-name="Wacute" unicode="&#x1e82;" horiz-adv-x="1921" 
d="M1384 1911l-204 -236q-22 -28 -64 -28h-20q-31 0 -40.5 17.5t7.5 43.5l143 231q20 35 62 35h88q34 0 42.5 -18.5t-14.5 -44.5z" />
    <glyph glyph-name="wacute" unicode="&#x1e83;" 
d="M1094 1499l-205 -235q-23 -29 -64 -29h-20q-31 0 -40.5 17.5t7.5 43.5l143 232q20 35 62 35h88q34 0 43 -19t-14 -45zM1366 1100h121q28 0 39 -16t2 -44l-354 -999q-14 -41 -58 -41h-211q-47 0 -53 47l-78 596h-6l-207 -602q-14 -41 -57 -41h-213q-47 0 -53 47l-142 997
q-4 26 8.5 41t38.5 15h127q50 0 56 -47l92 -795h26l263 799q15 43 59 43h108q50 0 56 -47l92 -795h25l260 799q15 43 59 43z" />
    <glyph glyph-name="Wdieresis" unicode="&#x1e84;" horiz-adv-x="1921" 
d="M999 1901l-12 -134q-3 -49 -53 -49h-86q-52 0 -49 54l12 133q3 49 53 49h86q52 0 49 -53zM1329 1901l-12 -134q-3 -49 -53 -49h-86q-53 0 -50 54l13 133q3 49 53 49h86q52 0 49 -53z" />
    <glyph glyph-name="wdieresis" unicode="&#x1e85;" 
d="M709 1489l-13 -133q-3 -49 -53 -49h-86q-52 0 -49 53l12 133q3 49 53 49h86q53 0 50 -53zM1038 1489l-12 -133q-3 -49 -53 -49h-86q-52 0 -49 53l12 133q3 49 53 49h86q52 0 49 -53zM1366 1100h121q28 0 39 -16t2 -44l-354 -999q-14 -41 -58 -41h-211q-47 0 -53 47
l-78 596h-6l-207 -602q-14 -41 -57 -41h-213q-47 0 -53 47l-142 997q-4 26 8.5 41t38.5 15h127q50 0 56 -47l92 -795h26l263 799q15 43 59 43h108q50 0 56 -47l92 -795h25l260 799q15 43 59 43z" />
    <glyph glyph-name="Ygrave" unicode="&#x1ef2;" horiz-adv-x="1200" 
d="M778 1647h-20q-42 0 -64 28l-205 236q-23 26 -14 44.5t43 18.5h88q42 0 62 -35l143 -231q17 -26 7.5 -43.5t-40.5 -17.5zM731 604l-53 -555q-3 -49 -53 -49h-154q-25 0 -37.5 14t-9.5 39l61 553l-340 834q-10 26 0.5 42.5t38.5 16.5h160q42 0 59 -41l230 -600h14l359 606
q20 35 61 35h141q31 0 40.5 -17.5t-5.5 -43.5z" />
    <glyph glyph-name="ygrave" unicode="&#x1ef3;" horiz-adv-x="1075" 
d="M631 1235h-21q-40 0 -63 29l-205 235q-23 26 -14 45t43 19h88q41 0 61 -35l144 -232q17 -26 7.5 -43.5t-40.5 -17.5zM918 1100h120q29 0 40 -17t-1 -43l-622 -1452q-14 -39 -60 -39h-149q-29 0 -40 17t1 43l149 332l-256 1101q-6 27 6 42.5t39 15.5h127q49 0 58 -45
l164 -785h10l354 791q14 39 60 39z" />
    <glyph glyph-name="endash" unicode="&#x2013;" horiz-adv-x="1484" 
d="M1319 629l-16 -111q-9 -47 -56 -47h-1026q-53 0 -47 55l16 111q9 47 56 47h1026q26 0 38.5 -14.5t8.5 -40.5z" />
    <glyph glyph-name="emdash" unicode="&#x2014;" horiz-adv-x="1869" 
d="M1700 629l-23 -113q-9 -45 -55 -45h-1401q-28 0 -39.5 14.5t-5.5 40.5l23 113q9 45 55 45h1401q28 0 39.5 -14.5t5.5 -40.5z" />
    <glyph glyph-name="quoteleft" unicode="&#x2018;" horiz-adv-x="649" 
d="M266 926l13 131q17 158 64 258.5t140 183.5q34 29 70 6q40 -24 6 -67q-45 -59 -66 -113t-13 -101.5t50 -78.5q36 -25 33 -64l-18 -161q-6 -48 -56 -48h-176q-53 0 -47 54z" />
    <glyph glyph-name="quoteright" unicode="&#x2019;" horiz-adv-x="651" 
d="M516 1456l-12 -131q-17 -157 -64 -256.5t-139 -183.5q-33 -28 -72 -8q-40 24 -6 67q45 59 66 113.5t13 102t-50 77.5q-36 25 -33 63l19 162q6 47 55 47h176q53 0 47 -53z" />
    <glyph glyph-name="quotesinglbase" unicode="&#x201a;" horiz-adv-x="733" 
d="M467 197l-14 -131q-15 -157 -62.5 -258t-140.5 -185q-34 -29 -70 -6q-41 24 -6 68q45 59 66 112.5t13 101t-50 78.5q-36 25 -33 64l16 160q6 49 56 49h176q26 0 39 -14t10 -39z" />
    <glyph glyph-name="quotedblleft" unicode="&#x201c;" horiz-adv-x="1120" 
d="M262 926l14 131q15 157 62.5 257.5t140.5 184.5q34 29 70 6q40 -24 6 -67q-45 -59 -66 -113t-13 -101.5t50 -78.5q36 -25 33 -64l-16 -159q-6 -50 -56 -50h-176q-26 0 -39 14.5t-10 39.5zM729 926l14 131q15 157 62.5 257.5t140.5 184.5q34 29 70 6q40 -24 6 -67
q-45 -59 -66 -113t-13 -101.5t50 -78.5q36 -25 33 -64l-16 -159q-6 -50 -56 -50h-176q-26 0 -39 14.5t-10 39.5z" />
    <glyph glyph-name="quotedblright" unicode="&#x201d;" horiz-adv-x="1120" 
d="M524 1446l-14 -131q-15 -157 -62.5 -258t-140.5 -185q-33 -29 -69 -6q-41 25 -7 68q45 59 66 113t13 101.5t-50 78.5q-36 25 -33 63l17 160q6 49 55 49h176q26 0 39 -14t10 -39zM991 1446l-14 -131q-15 -157 -62.5 -258t-140.5 -185q-33 -29 -69 -6q-41 25 -7 68
q45 59 66 113t13 101.5t-50 78.5q-36 25 -33 63l17 160q6 49 55 49h176q26 0 39 -14t10 -39z" />
    <glyph glyph-name="quotedblbase" unicode="&#x201e;" horiz-adv-x="733" 
d="M242 250h176q26 0 39 -14t10 -39l-14 -131q-15 -157 -62.5 -258t-140.5 -185q-34 -29 -70 -6q-41 24 -6 68q45 59 66 112.5t13 101t-50 78.5q-36 25 -33 64l16 160q6 49 56 49z" />
    <glyph glyph-name="dagger" unicode="&#x2020;" horiz-adv-x="1335" 
d="M1114 645l-8 -88q-6 -49 -55 -49h-277l-96 -918q-3 -49 -53 -49h-146q-26 0 -39 14t-10 39l109 914h-260q-25 0 -38 14t-10 39l11 88q3 49 53 49h264l43 363q6 47 55 47h127q53 0 47 -53l-36 -357h272q53 0 47 -53z" />
    <glyph glyph-name="daggerdbl" unicode="&#x2021;" horiz-adv-x="1333" 
d="M774 508l-33 -328h271q25 0 37.5 -14t9.5 -39l-10 -88q-3 -49 -54 -49h-274l-43 -400q-3 -49 -53 -49h-146q-26 0 -39 14t-10 39l47 396h-254q-25 0 -37.5 14t-9.5 39l10 88q3 49 54 49h260l39 328h-260q-25 0 -38 14t-10 39l11 88q3 49 53 49h264l43 363q6 47 55 47h127
q53 0 47 -53l-36 -357h272q25 0 37.5 -14t9.5 -39l-10 -88q-3 -49 -53 -49h-277z" />
    <glyph glyph-name="bullet" unicode="&#x2022;" horiz-adv-x="1091" 
d="M586 918q122 0 202 -85t80 -208q0 -145 -105 -250t-247 -105q-122 0 -202.5 85t-80.5 208q0 145 106 250t247 105z" />
    <glyph glyph-name="ellipsis" unicode="&#x2026;" horiz-adv-x="1943" 
d="M477 211l-18 -160q-6 -47 -56 -47h-178q-26 0 -39 14t-10 39l19 160q6 47 55 47h178q26 0 39 -14t10 -39zM1110 211l-18 -160q-6 -47 -56 -47h-178q-26 0 -39 14t-10 39l18 160q6 47 56 47h178q26 0 39 -14t10 -39zM1679 211l-18 -160q-6 -47 -55 -47h-179q-26 0 -39 14
t-10 39l19 160q6 47 55 47h178q26 0 39 -14t10 -39z" />
    <glyph glyph-name="perthousand" unicode="&#x2030;" horiz-adv-x="2308" 
d="M514 1606q118 0 196 -83.5t78 -203.5q0 -144 -101.5 -246t-240.5 -102q-117 0 -195.5 84t-78.5 205q0 142 102 244t240 102zM1493 1432l-1104 -1401q-24 -31 -63 -31h-113q-32 0 -41.5 18.5t10.5 44.5l1106 1401q24 31 64 31h110q32 0 41.5 -18.5t-10.5 -44.5zM496 1427
q-59 0 -102.5 -44.5t-43.5 -106.5q0 -53 33 -90t82 -37q59 0 103 45t44 106q0 54 -32.5 90.5t-83.5 36.5zM1249 682q120 0 198.5 -83.5t78.5 -205.5q0 -142 -102 -245t-240 -103q-118 0 -196.5 84t-78.5 205q0 142 102 245t238 103zM1948 682q119 0 196.5 -83.5t77.5 -205.5
q0 -142 -102 -245t-240 -103q-117 0 -195.5 84t-78.5 205q0 142 102.5 245t239.5 103zM1233 504q-59 0 -102.5 -44.5t-43.5 -107.5q0 -53 33 -91t82 -38q59 0 103.5 45.5t44.5 106.5q0 55 -33 92t-84 37zM1929 504q-59 0 -102 -44.5t-43 -107.5q0 -53 32.5 -91t81.5 -38
q59 0 103.5 45.5t44.5 106.5q0 55 -33 92t-84 37z" />
    <glyph glyph-name="guilsinglleft" unicode="&#x2039;" horiz-adv-x="847" 
d="M651 860l-8 -84q-3 -38 -37 -59l-227 -146l190 -141q32 -22 29 -65l-8 -89q-3 -31 -21 -39t-43 11l-272 198q-32 22 -29 66l13 121q3 39 36 59l316 205q28 17 45 7t16 -44z" />
    <glyph glyph-name="guilsinglright" unicode="&#x203a;" horiz-adv-x="847" 
d="M328 897l272 -199q32 -22 29 -65l-13 -121q-3 -39 -36 -59l-316 -205q-28 -17 -45 -6t-14 43l6 84q6 40 37 59l227 145l-190 142q-32 22 -29 65l8 88q3 31 21 39.5t43 -10.5z" />
    <glyph glyph-name="zerosuperior" unicode="&#x2070;" horiz-adv-x="608" 
d="M410 1509q88 0 140 -61.5t52 -173.5q0 -152 -73 -240t-183 -88q-89 0 -142.5 63t-53.5 177q0 151 73 237t187 86zM387 1372q-37 0 -61.5 -44t-24.5 -128q0 -60 20.5 -88.5t47.5 -28.5q36 0 60 43t24 129q0 61 -20 89t-46 28z" />
    <glyph glyph-name="foursuperior" unicode="&#x2074;" horiz-adv-x="665" 
d="M639 1094l-2 -15q-3 -49 -53 -49h-54l-4 -24q-3 -50 -53 -50h-41q-26 0 -39 14.5t-10 39.5l2 20h-203q-52 0 -49 53l4 35q5 52 23 72l256 287q22 22 41 22h67q53 0 47 -53l-30 -299h49q26 0 39 -14t10 -39zM399 1147l19 166h-6l-136 -162v-4h123z" />
    <glyph glyph-name="fivesuperior" unicode="&#x2075;" horiz-adv-x="612" 
d="M338 1374l-16 -76h12q51 31 115 31t105.5 -43t41.5 -115q0 -98 -65 -161.5t-181 -63.5q-85 0 -137.5 35t-65.5 86q-7 25 7 39t41 14h57q10 0 18.5 -3.5t12.5 -6t15 -11.5t15 -12q21 -16 60 -16q33 0 50 20.5t17 51.5q0 27 -15.5 43t-45.5 16q-17 0 -45 -4
q-46 -12 -64 -12h-55q-27 0 -39 15t-6 42l47 211q9 45 57 45h285q53 0 47 -53l-2 -23q-3 -49 -53 -49h-213z" />
    <glyph glyph-name="sixsuperior" unicode="&#x2076;" horiz-adv-x="624" 
d="M444 1300q75 0 117.5 -42.5t42.5 -108.5q0 -90 -72 -146.5t-167 -56.5t-156.5 61t-61.5 177q0 144 77.5 234.5t199.5 90.5q68 0 117 -30.5t69 -77.5q9 -26 -4.5 -40.5t-42.5 -14.5h-49q-10 0 -18.5 3t-13 5.5t-14.5 10.5t-15 11q-20 10 -41 10q-41 0 -68.5 -31.5
t-38.5 -84.5h10q62 30 129 30zM389 1069q64 0 64 59q0 58 -62 58q-41 0 -90 -21q11 -96 88 -96z" />
    <glyph glyph-name="sevensuperior" unicode="&#x2077;" horiz-adv-x="593" 
d="M227 1499h330q55 0 49 -55l-4 -23q-3 -23 -18 -53q-123 -182 -211 -373q-17 -39 -62 -39h-69q-31 0 -40.5 18t5.5 44q117 204 211 336v12l-199 -2q-26 0 -39 14t-10 39l4 33q3 49 53 49z" />
    <glyph glyph-name="eightsuperior" unicode="&#x2078;" horiz-adv-x="595" 
d="M395 1509q86 0 137.5 -40t51.5 -101q0 -90 -86 -125l-2 -6q33 -11 56 -43.5t23 -77.5q0 -74 -62 -122t-171 -48q-98 0 -152.5 39.5t-54.5 106.5q0 98 111 145l2 8q-68 22 -68 94q0 73 61 121.5t154 48.5zM385 1399q-30 0 -48 -14.5t-18 -38.5q0 -46 56 -46q34 0 50.5 15
t16.5 37q0 47 -57 47zM360 1171q-37 0 -58 -18t-21 -45q0 -24 17.5 -39.5t51.5 -15.5q40 0 60 18.5t20 46.5q0 23 -17 38t-53 15z" />
    <glyph glyph-name="ninesuperior" unicode="&#x2079;" horiz-adv-x="714" 
d="M492 1509q96 0 157.5 -59.5t61.5 -175.5q0 -146 -79.5 -237t-207.5 -91q-74 0 -123.5 31.5t-69.5 79.5q-9 24 4.5 38.5t40.5 14.5l48 2q10 0 18.5 -3t13 -6t14.5 -10.5t15 -11.5q21 -12 49 -12q49 0 78 32t39 85h-10q-60 -31 -131 -31q-76 0 -120 42t-44 112
q0 91 74 145.5t172 54.5zM463 1272q50 0 92 18q-8 54 -33.5 77.5t-56.5 23.5q-30 0 -48 -16.5t-18 -45.5q0 -57 64 -57z" />
    <glyph glyph-name="euro" unicode="&#x20ac;" horiz-adv-x="1458" 
d="M991 1321q-145 0 -262.5 -82t-179.5 -233l416 -2q26 0 39 -14.5t10 -39.5l-10 -90q-6 -47 -56 -47l-448 2q-8 -55 -8 -131v-8l438 -2q25 0 37.5 -14t9.5 -39l-8 -86q-6 -50 -56 -50h-395q40 -145 142.5 -223t254.5 -78q125 0 259 54q55 19 61 -37l10 -92q6 -46 -31 -64
q-157 -78 -348 -78q-246 0 -405 140t-201 378h-133q-25 0 -37.5 14.5t-9.5 39.5l10 88q3 49 53 49h103q3 72 12 139h-96q-53 0 -47 53l10 88q3 50 53 50h127q90 244 286.5 387t446.5 143q174 0 316 -74q39 -22 24 -69l-43 -111q-18 -47 -57 -31q-144 70 -287 70z" />
    <glyph glyph-name="trademark" unicode="&#x2122;" horiz-adv-x="1488" 
d="M772 1448v-6q0 -51 -51 -51h-107l-41 -375q-6 -49 -55 -49h-18q-26 0 -38.5 14.5t-8.5 40.5l49 369l-115 -2q-50 0 -53 49v8q-3 53 49 53h338q51 0 51 -51zM1335 1446l-28 -430q-3 -49 -54 -49h-10q-52 0 -49 53l20 291h-6l-96 -301q-15 -43 -59 -43h-23q-47 0 -53 47
l-41 297h-8l-37 -297q-6 -47 -55 -47h-9q-26 0 -38.5 14.5t-8.5 40.5l60 430q6 47 53 47h70q47 0 53 -47l39 -307h8l104 313q15 41 60 41h59q52 0 49 -53z" />
    <glyph glyph-name="minus" unicode="&#x2212;" horiz-adv-x="1599" 
d="M1372 596l-18 -111q-9 -47 -56 -47h-1026q-53 0 -47 56l17 110q9 47 55 47h1028q53 0 47 -55z" />
    <glyph glyph-name="infinity" unicode="&#x221e;" horiz-adv-x="2086" 
d="M1518 1057q157 0 252.5 -114t95.5 -288q0 -136 -57.5 -247.5t-165 -177.5t-244.5 -66q-115 0 -202 58t-185 196q-112 -126 -215.5 -190t-218.5 -64q-154 0 -249.5 113.5t-95.5 285.5q0 209 129.5 351.5t335.5 142.5q115 0 203.5 -58t183.5 -196q108 125 213 189.5
t220 64.5zM633 399q66 0 132.5 54t147.5 159q-64 123 -117.5 172.5t-121.5 49.5q-89 0 -144 -65.5t-55 -172.5q0 -89 42.5 -143t115.5 -54zM1421 387q91 0 145 64.5t54 173.5q0 88 -42 142t-112 54q-68 0 -136.5 -55t-145.5 -158q64 -122 117.5 -171.5t119.5 -49.5z" />
    <glyph glyph-name="notequal" unicode="&#x2260;" horiz-adv-x="1513" 
d="M983 653l-147 -266h368q53 0 47 -53l-10 -98q-3 -50 -53 -50h-461l-143 -260q-19 -37 -62 -37h-108q-30 0 -40.5 18t3.5 44l131 235h-262q-52 0 -49 54l10 98q3 49 53 49h358l146 266h-463q-52 0 -49 54l10 100q3 49 53 49h562l141 258q19 37 61 37h107q30 0 40.5 -17.5
t-3.5 -43.5l-129 -234h166q52 0 49 -53l-11 -101q-3 -49 -53 -49h-262z" />
    <glyph glyph-name="lessequal" unicode="&#x2264;" horiz-adv-x="1306" 
d="M1120 973l-8 -78q-3 -43 -45 -55l-561 -183l520 -174q42 -14 39 -59l-8 -80q-3 -27 -19.5 -37.5t-42.5 -1.5l-764 264q-1 0 -1 1.5t0.5 5.5t1.5 8.5t2 13t2 16.5l10 88q3 41 43 56l776 260q28 9 43 -3.5t12 -41.5zM180 70l8 75q3 50 54 50h745q53 0 47 -54l-8 -75
q-3 -50 -53 -50h-744q-26 0 -39 14.5t-10 39.5z" />
    <glyph glyph-name="greaterequal" unicode="&#x2265;" horiz-adv-x="1193" 
d="M1090 657l-5 -45v-2q-2 -12 -14.5 -30t-30.5 -23l-776 -250q-29 -9 -44.5 3.5t-10.5 41.5l8 74q3 43 45 55l563 176l-520 181q-42 14 -39 59l6 82q3 28 19.5 38t42.5 1l762 -275q1 0 1 -1.5v-5.5t-0.5 -8.5t-1 -13t-1.5 -16.5zM180 70l8 75q3 50 54 50h743q26 0 39 -14.5
t10 -39.5l-8 -78q-6 -47 -55 -47h-742q-26 0 -39 14.5t-10 39.5z" />
    <glyph glyph-name="apple" unicode="&#xf8ff;" horiz-adv-x="1163" 
d="M791 1083q28 10 43 -5.5t6 -43.5q-18 -62 -66 -110q-46 -56 -104 -74q-26 -7 -40.5 8t-6.5 41q17 62 63 115q44 50 105 69zM819 829q98 0 152 -65q31 -37 -13 -72q-84 -75 -96 -182q-7 -124 78 -195q39 -31 21 -69q-33 -59 -70 -111q-32 -44 -52 -68t-53.5 -46.5
t-68.5 -22.5q-31 0 -77 22.5t-87 22.5q-45 0 -96 -22.5t-80 -22.5q-26 0 -48 11t-42 34t-32.5 42.5t-31.5 51.5q-32 57 -52.5 144t-20.5 172q0 135 69 239q40 61 102.5 98.5t127.5 38.5q39 1 93 -24t72 -25q14 0 85.5 24.5t119.5 24.5z" />
    <glyph glyph-name="idotaccent" horiz-adv-x="550" 
d="M494 1487l-15 -133q-3 -49 -53 -49h-131q-26 0 -39 14t-10 39l14 133q6 49 55 49h131q25 0 38 -14t10 -39zM444 1047l-96 -998q-3 -49 -53 -49h-148q-26 0 -39 14t-10 39l111 998q6 49 55 49h133q53 0 47 -53z" />
    <glyph glyph-name="braceleft.case" horiz-adv-x="1056" 
d="M944 1688l-10 -99q-6 -49 -49 -49q-103 0 -154 -51.5t-63 -177.5l-29 -295q-13 -120 -50.5 -183t-96.5 -94l-3 -16q50 -26 74.5 -100t14.5 -193l-29 -280q-13 -126 27 -177t141 -51q45 0 39 -53l-13 -102q-6 -48 -55 -48h-24q-201 0 -283 97t-59 323l26 248
q14 103 2 163.5t-61 74.5q-26 6 -37 18.5t-8 36.5l12 106q1 22 13.5 34t37.5 18q29 6 48.5 23t31.5 49.5t19 69t14 95.5l29 256q26 223 127 316.5t301 93.5h20q25 0 37.5 -14t9.5 -39z" />
    <glyph glyph-name="braceright.case" horiz-adv-x="1054" 
d="M150 -227l10 100q6 49 49 49q103 0 155 51.5t62 176.5l29 296q12 119 49.5 181.5t97.5 93.5l2 16q-50 26 -73.5 100t-12.5 195l29 279q13 126 -27.5 177.5t-142.5 51.5q-43 0 -37 53l12 101q6 47 56 47h22q201 0 283.5 -97.5t58.5 -322.5l-27 -248q-13 -102 -0.5 -161.5
t62.5 -73.5q48 -12 43 -56l-12 -108q-2 -38 -52 -51q-54 -11 -75 -64.5t-35 -173.5l-31 -254q-24 -224 -125 -318t-303 -94h-20q-25 0 -37.5 14.5t-9.5 39.5z" />
    <glyph glyph-name="bracketleft.case" horiz-adv-x="999" 
d="M547 1509l-158 -1564h262q26 0 39 -14.5t10 -39.5l-10 -90q-6 -47 -55 -47h-438q-25 0 -37.5 14t-9.5 39l202 1844q6 49 56 49h428q25 0 37.5 -14t9.5 -39l-11 -88q-3 -50 -53 -50h-272z" />
    <glyph glyph-name="bracketright.case" horiz-adv-x="999" 
d="M401 1700h437q25 0 37.5 -14t9.5 -39l-201 -1844q-6 -49 -55 -49h-428q-53 0 -47 53l8 89q3 49 53 49h274l158 1564h-262q-26 0 -39 14.5t-10 39.5l10 90q6 47 55 47z" />
    <glyph glyph-name="parenleft.case" horiz-adv-x="972" 
d="M793 1710l24 -20q41 -30 10 -72q-156 -212 -239.5 -481t-83.5 -582q0 -427 137 -707q21 -43 -18 -69l-39 -25q-43 -29 -70 8q-127 150 -198.5 372t-71.5 464q0 327 128.5 617.5t348.5 492.5q34 29 72 2z" />
    <glyph glyph-name="parenright.case" horiz-adv-x="970" 
d="M217 -244l-24 19q-41 30 -11 71q156 213 241 482t85 583q0 203 -36 386t-103 319q-21 44 18 70l39 26q43 29 72 -8q126 -151 198 -374t72 -462q0 -326 -129.5 -617t-349.5 -493q-34 -29 -72 -2z" />
    <glyph glyph-name="guillemetleft.case" horiz-adv-x="1320" 
d="M244 717l14 121q3 38 37 59l315 205q28 17 45.5 6t14.5 -43l-8 -84q-3 -38 -37 -59l-228 -146l193 -141q31 -22 28 -66l-8 -88q-3 -31 -21.5 -39t-43.5 11l-273 198q-31 22 -28 66zM1147 1065l-8 -84q-3 -38 -37 -59l-228 -146l191 -141q32 -22 29 -66l-9 -88
q-3 -31 -20.5 -39t-42.5 11l-272 198q-32 22 -29 66l14 121q3 38 37 59l313 205q28 17 46 6t16 -43z" />
    <glyph glyph-name="guillemetright.case" horiz-adv-x="1318" 
d="M274 985l9 88q3 31 20.5 39.5t42.5 -10.5l272 -199q32 -22 29 -65l-14 -121q-3 -39 -37 -60l-313 -204q-28 -17 -45.5 -6.5t-14.5 42.5l6 84q6 41 37 60l228 145l-191 142q-32 22 -29 65zM823 1102l273 -199q31 -22 28 -65l-14 -121q-3 -39 -37 -60l-315 -204
q-28 -17 -45.5 -6.5t-14.5 42.5l9 84q3 40 36 60l228 145l-193 142q-31 22 -28 65l8 88q3 31 21.5 39.5t43.5 -10.5z" />
    <glyph glyph-name="guilsinglleft.case" horiz-adv-x="847" 
d="M674 1065l-8 -84q-3 -38 -37 -59l-228 -146l191 -141q32 -22 29 -66l-9 -88q-3 -31 -20.5 -39t-42.5 11l-273 198q-31 22 -28 66l14 121q3 38 37 59l313 205q28 17 46 6t16 -43z" />
    <glyph glyph-name="guilsinglright.case" horiz-adv-x="847" 
d="M348 1102l273 -199q31 -22 28 -65l-12 -121q-3 -39 -37 -60l-315 -204q-28 -17 -45.5 -6.5t-14.5 42.5l6 84q6 41 37 60l228 145l-191 142q-32 22 -29 65l9 88q3 31 20.5 39.5t42.5 -10.5z" />
    <glyph glyph-name="caron.alt" horiz-adv-x="194" 
d="M782 1505l-45 -248q-9 -47 -55 -47h-29q-53 0 -47 54l25 247q3 50 53 50h51q27 0 39.5 -14.5t7.5 -41.5z" />
    </font>
</defs>
</svg>
